%TF.GenerationSoftware,KiCad,Pcbnew,10.0.4*%
%TF.CreationDate,2026-09-10T11:42:50+10:00*%
%TF.ProjectId,VCO_panel,56434f5f-7061-46e6-956c-2e6b69636164,rev?*%
%TF.SameCoordinates,Original*%
%TF.FileFunction,Profile,NP*%
%FSLAX46Y46*%
G04 Gerber Fmt 4.6, Leading zero omitted, Abs format (unit mm)*
G04 Created by KiCad (PCBNEW 10.0.4) date 2026-09-10 11:42:50*
%MOMM*%
%LPD*%
G01*
G04 APERTURE LIST*
%TA.AperFunction,Profile*%
%ADD10C,0.100000*%
%TD*%
G04 APERTURE END LIST*
D10*
X0Y0D02*
X0Y-128500000D01*
X0Y-128500000D02*
X60600000Y-128500000D01*
X6199999Y-12549999D02*
G75*
G02*
X2999999Y-12549999I-1600000J0D01*
G01*
X2999999Y-12549999D02*
G75*
G02*
X6199999Y-12549999I1600000J0D01*
G01*
X6200000Y-115950000D02*
G75*
G02*
X3000000Y-115950000I-1600000J0D01*
G01*
X3000000Y-115950000D02*
G75*
G02*
X6200000Y-115950000I1600000J0D01*
G01*
X6850000Y-123900000D02*
X8150000Y-123900000D01*
X6850000Y-127100000D02*
G75*
G02*
X6850000Y-123900000I0J1600000D01*
G01*
X8150000Y-123900000D02*
G75*
G02*
X8150000Y-127100000I0J-1600000D01*
G01*
X8150000Y-127100000D02*
X6850000Y-127100000D01*
X18800000Y-48249999D02*
G75*
G02*
X9800000Y-48249999I-4500000J0D01*
G01*
X9800000Y-48249999D02*
G75*
G02*
X18800000Y-48249999I4500000J0D01*
G01*
X17449999Y-80250000D02*
G75*
G02*
X11150001Y-80250000I-3149999J0D01*
G01*
X11150001Y-80250000D02*
G75*
G02*
X17449999Y-80250000I3149999J0D01*
G01*
X17449999Y-104250000D02*
G75*
G02*
X11150001Y-104250000I-3149999J0D01*
G01*
X11150001Y-104250000D02*
G75*
G02*
X17449999Y-104250000I3149999J0D01*
G01*
X23050000Y-20250000D02*
G75*
G02*
X13550000Y-20250000I-4750000J0D01*
G01*
X13550000Y-20250000D02*
G75*
G02*
X23050000Y-20250000I4750000J0D01*
G01*
X34800000Y-48249999D02*
G75*
G02*
X25800000Y-48249999I-4500000J0D01*
G01*
X25800000Y-48249999D02*
G75*
G02*
X34800000Y-48249999I4500000J0D01*
G01*
X33449999Y-80250000D02*
G75*
G02*
X27150001Y-80250000I-3149999J0D01*
G01*
X27150001Y-80250000D02*
G75*
G02*
X33449999Y-80250000I3149999J0D01*
G01*
X33449999Y-104250000D02*
G75*
G02*
X27150001Y-104250000I-3149999J0D01*
G01*
X27150001Y-104250000D02*
G75*
G02*
X33449999Y-104250000I3149999J0D01*
G01*
X50800000Y-48249999D02*
G75*
G02*
X41800000Y-48249999I-4500000J0D01*
G01*
X41800000Y-48249999D02*
G75*
G02*
X50800000Y-48249999I4500000J0D01*
G01*
X49450000Y-80250000D02*
G75*
G02*
X43150000Y-80250000I-3150000J0D01*
G01*
X43150000Y-80250000D02*
G75*
G02*
X49450000Y-80250000I3150000J0D01*
G01*
X49450000Y-104250000D02*
G75*
G02*
X43150000Y-104250000I-3150000J0D01*
G01*
X43150000Y-104250000D02*
G75*
G02*
X49450000Y-104250000I3150000J0D01*
G01*
X52450000Y-1400000D02*
X53750000Y-1400000D01*
X52450000Y-4600000D02*
G75*
G02*
X52450000Y-1400000I0J1600000D01*
G01*
X52450000Y-123900000D02*
X53750000Y-123900000D01*
X52450000Y-127100000D02*
G75*
G02*
X52450000Y-123900000I0J1600000D01*
G01*
X53750000Y-1400000D02*
G75*
G02*
X53750000Y-4600000I0J-1600000D01*
G01*
X53750000Y-4600000D02*
X52450000Y-4600000D01*
X53750000Y-123900000D02*
G75*
G02*
X53750000Y-127100000I0J-1600000D01*
G01*
X53750000Y-127100000D02*
X52450000Y-127100000D01*
X57599998Y-12550000D02*
G75*
G02*
X54400000Y-12550000I-1599999J0D01*
G01*
X54400000Y-12550000D02*
G75*
G02*
X57599998Y-12550000I1599999J0D01*
G01*
X57600000Y-115950000D02*
G75*
G02*
X54400000Y-115950000I-1600000J0D01*
G01*
X54400000Y-115950000D02*
G75*
G02*
X57600000Y-115950000I1600000J0D01*
G01*
X60600000Y0D02*
X0Y0D01*
X60600000Y-31500000D02*
X60600000Y0D01*
X60600000Y-36500000D02*
X63916667Y-36500000D01*
X60600000Y-60000000D02*
X60600000Y-36500000D01*
X60600000Y-65000000D02*
X63916667Y-65000000D01*
X60600000Y-89500000D02*
X60600000Y-65000000D01*
X60600000Y-94500000D02*
X63916667Y-94500000D01*
X60600000Y-128500000D02*
X60600000Y-94500000D01*
X63916667Y0D02*
X63916667Y-31500000D01*
X63916667Y-31500000D02*
X60600000Y-31500000D01*
X63916667Y-36500000D02*
X63916667Y-60000000D01*
X63916667Y-60000000D02*
X60600000Y-60000000D01*
X63916667Y-65000000D02*
X63916667Y-89500000D01*
X63916667Y-89500000D02*
X60600000Y-89500000D01*
X63916667Y-94500000D02*
X63916667Y-128500000D01*
X63916667Y-128500000D02*
X124516667Y-128500000D01*
X70116666Y-12550000D02*
G75*
G02*
X66916666Y-12550000I-1600000J0D01*
G01*
X66916666Y-12550000D02*
G75*
G02*
X70116666Y-12550000I1600000J0D01*
G01*
X70116667Y-115949999D02*
G75*
G02*
X66916667Y-115949999I-1600000J0D01*
G01*
X66916667Y-115949999D02*
G75*
G02*
X70116667Y-115949999I1600000J0D01*
G01*
X70766666Y-123899967D02*
X72066667Y-123900000D01*
X70766667Y-127100000D02*
G75*
G02*
X70766666Y-123899960I3J1600020D01*
G01*
X72066667Y-123900000D02*
G75*
G02*
X72066667Y-127099960I3J-1599980D01*
G01*
X72066667Y-127099966D02*
X70766667Y-127100000D01*
X82716666Y-48249999D02*
G75*
G02*
X73716666Y-48249999I-4500000J0D01*
G01*
X73716666Y-48249999D02*
G75*
G02*
X82716666Y-48249999I4500000J0D01*
G01*
X81366666Y-80250000D02*
G75*
G02*
X75066668Y-80250000I-3149999J0D01*
G01*
X75066668Y-80250000D02*
G75*
G02*
X81366666Y-80250000I3149999J0D01*
G01*
X81366666Y-104250000D02*
G75*
G02*
X75066668Y-104250000I-3149999J0D01*
G01*
X75066668Y-104250000D02*
G75*
G02*
X81366666Y-104250000I3149999J0D01*
G01*
X86966666Y-20250000D02*
G75*
G02*
X77466666Y-20250000I-4750000J0D01*
G01*
X77466666Y-20250000D02*
G75*
G02*
X86966666Y-20250000I4750000J0D01*
G01*
X98716666Y-48249999D02*
G75*
G02*
X89716666Y-48249999I-4500000J0D01*
G01*
X89716666Y-48249999D02*
G75*
G02*
X98716666Y-48249999I4500000J0D01*
G01*
X97366666Y-80250000D02*
G75*
G02*
X91066668Y-80250000I-3149999J0D01*
G01*
X91066668Y-80250000D02*
G75*
G02*
X97366666Y-80250000I3149999J0D01*
G01*
X97366666Y-104250000D02*
G75*
G02*
X91066668Y-104250000I-3149999J0D01*
G01*
X91066668Y-104250000D02*
G75*
G02*
X97366666Y-104250000I3149999J0D01*
G01*
X114716667Y-48249999D02*
G75*
G02*
X105716667Y-48249999I-4500000J0D01*
G01*
X105716667Y-48249999D02*
G75*
G02*
X114716667Y-48249999I4500000J0D01*
G01*
X113366666Y-80250000D02*
G75*
G02*
X107066668Y-80250000I-3149999J0D01*
G01*
X107066668Y-80250000D02*
G75*
G02*
X113366666Y-80250000I3149999J0D01*
G01*
X113366666Y-104250000D02*
G75*
G02*
X107066668Y-104250000I-3149999J0D01*
G01*
X107066668Y-104250000D02*
G75*
G02*
X113366666Y-104250000I3149999J0D01*
G01*
X116366666Y-1399967D02*
X117666667Y-1400000D01*
X116366667Y-4600000D02*
G75*
G02*
X116366666Y-1400000I33J1600000D01*
G01*
X116366666Y-123899967D02*
X117666667Y-123900000D01*
X116366667Y-127100000D02*
G75*
G02*
X116366666Y-123900000I33J1600000D01*
G01*
X117666667Y-1400000D02*
G75*
G02*
X117666667Y-4600000I33J-1600000D01*
G01*
X117666667Y-4599966D02*
X116366667Y-4600000D01*
X117666667Y-123900000D02*
G75*
G02*
X117666667Y-127100000I33J-1600000D01*
G01*
X117666667Y-127099966D02*
X116366667Y-127100000D01*
X121516667Y-12550000D02*
G75*
G02*
X118316667Y-12550000I-1600000J0D01*
G01*
X118316667Y-12550000D02*
G75*
G02*
X121516667Y-12550000I1600000J0D01*
G01*
X121516666Y-115949999D02*
G75*
G02*
X118316666Y-115949999I-1600000J0D01*
G01*
X118316666Y-115949999D02*
G75*
G02*
X121516666Y-115949999I1600000J0D01*
G01*
X124516667Y0D02*
X63916667Y0D01*
X124516667Y-31500000D02*
X124516667Y0D01*
X124516667Y-36500000D02*
X127833333Y-36500000D01*
X124516667Y-60000000D02*
X124516667Y-36500000D01*
X124516667Y-65000000D02*
X127833333Y-65000000D01*
X124516667Y-89500000D02*
X124516667Y-65000000D01*
X124516667Y-94500000D02*
X127833333Y-94500000D01*
X124516667Y-128500000D02*
X124516667Y-94500000D01*
X127833333Y0D02*
X127833333Y-31500000D01*
X127833333Y-31500000D02*
X124516667Y-31500000D01*
X127833333Y-36500000D02*
X127833333Y-60000000D01*
X127833333Y-60000000D02*
X124516667Y-60000000D01*
X127833333Y-65000000D02*
X127833333Y-89500000D01*
X127833333Y-89500000D02*
X124516667Y-89500000D01*
X127833333Y-94500000D02*
X127833333Y-128500000D01*
X127833333Y-128500000D02*
X188433333Y-128500000D01*
X134033333Y-12550000D02*
G75*
G02*
X130833333Y-12550000I-1600000J0D01*
G01*
X130833333Y-12550000D02*
G75*
G02*
X134033333Y-12550000I1600000J0D01*
G01*
X134033332Y-115949999D02*
G75*
G02*
X130833332Y-115949999I-1600000J0D01*
G01*
X130833332Y-115949999D02*
G75*
G02*
X134033332Y-115949999I1600000J0D01*
G01*
X134683332Y-123900033D02*
X135983333Y-123900000D01*
X134683333Y-127100000D02*
G75*
G02*
X134683332Y-123900000I-33J1600000D01*
G01*
X135983333Y-123900000D02*
G75*
G02*
X135983333Y-127100000I-33J-1600000D01*
G01*
X135983333Y-127100032D02*
X134683333Y-127100000D01*
X140733333Y-58213000D02*
X143533333Y-58213000D01*
X140733333Y-95413000D02*
X140733333Y-58213000D01*
X146633333Y-24249999D02*
G75*
G02*
X137633333Y-24249999I-4500000J0D01*
G01*
X137633333Y-24249999D02*
G75*
G02*
X146633333Y-24249999I4500000J0D01*
G01*
X145283333Y-48249999D02*
G75*
G02*
X138983333Y-48249999I-3150000J0D01*
G01*
X138983333Y-48249999D02*
G75*
G02*
X145283333Y-48249999I3150000J0D01*
G01*
X145283333Y-104249999D02*
G75*
G02*
X138983333Y-104249999I-3150000J0D01*
G01*
X138983333Y-104249999D02*
G75*
G02*
X145283333Y-104249999I3150000J0D01*
G01*
X143533333Y-58213000D02*
X143533333Y-95413000D01*
X143533333Y-95413000D02*
X140733333Y-95413000D01*
X156733333Y-58213000D02*
X159533333Y-58213000D01*
X156733333Y-95413000D02*
X156733333Y-58213000D01*
X162633333Y-24249999D02*
G75*
G02*
X153633333Y-24249999I-4500000J0D01*
G01*
X153633333Y-24249999D02*
G75*
G02*
X162633333Y-24249999I4500000J0D01*
G01*
X162633333Y-48250000D02*
G75*
G02*
X153633333Y-48250000I-4500000J0D01*
G01*
X153633333Y-48250000D02*
G75*
G02*
X162633333Y-48250000I4500000J0D01*
G01*
X161283333Y-104249999D02*
G75*
G02*
X154983333Y-104249999I-3150000J0D01*
G01*
X154983333Y-104249999D02*
G75*
G02*
X161283333Y-104249999I3150000J0D01*
G01*
X159533333Y-58213000D02*
X159533333Y-95413000D01*
X159533333Y-95413000D02*
X156733333Y-95413000D01*
X172733333Y-58213000D02*
X175533333Y-58213000D01*
X172733333Y-95413000D02*
X172733333Y-58213000D01*
X178633332Y-24249999D02*
G75*
G02*
X169633332Y-24249999I-4500000J0D01*
G01*
X169633332Y-24249999D02*
G75*
G02*
X178633332Y-24249999I4500000J0D01*
G01*
X177283333Y-48249999D02*
G75*
G02*
X170983333Y-48249999I-3150000J0D01*
G01*
X170983333Y-48249999D02*
G75*
G02*
X177283333Y-48249999I3150000J0D01*
G01*
X177283332Y-104249999D02*
G75*
G02*
X170983332Y-104249999I-3150000J0D01*
G01*
X170983332Y-104249999D02*
G75*
G02*
X177283332Y-104249999I3150000J0D01*
G01*
X175533333Y-58213000D02*
X175533333Y-95413000D01*
X175533333Y-95413000D02*
X172733333Y-95413000D01*
X180283332Y-1400033D02*
X181583333Y-1400000D01*
X180283333Y-4600000D02*
G75*
G02*
X180283332Y-1400000I-33J1600000D01*
G01*
X180283332Y-123900033D02*
X181583333Y-123900000D01*
X180283333Y-127100000D02*
G75*
G02*
X180283332Y-123900000I-33J1600000D01*
G01*
X181583333Y-1400000D02*
G75*
G02*
X181583333Y-4600000I-33J-1600000D01*
G01*
X181583333Y-4600032D02*
X180283333Y-4600000D01*
X181583333Y-123900000D02*
G75*
G02*
X181583333Y-127100000I-33J-1600000D01*
G01*
X181583333Y-127100032D02*
X180283333Y-127100000D01*
X185433332Y-12549999D02*
G75*
G02*
X182233334Y-12549999I-1599999J0D01*
G01*
X182233334Y-12549999D02*
G75*
G02*
X185433332Y-12549999I1599999J0D01*
G01*
X185433332Y-115950000D02*
G75*
G02*
X182233334Y-115950000I-1599999J0D01*
G01*
X182233334Y-115950000D02*
G75*
G02*
X185433332Y-115950000I1599999J0D01*
G01*
X188433333Y0D02*
X127833333Y0D01*
X188433333Y-31500000D02*
X188433333Y0D01*
X188433333Y-36500000D02*
X191750000Y-36500000D01*
X188433333Y-60000000D02*
X188433333Y-36500000D01*
X188433333Y-65000000D02*
X191750000Y-65000000D01*
X188433333Y-89500000D02*
X188433333Y-65000000D01*
X188433333Y-94500000D02*
X191750000Y-94500000D01*
X188433333Y-128500000D02*
X188433333Y-94500000D01*
X191750000Y0D02*
X191750000Y-31500000D01*
X191750000Y-31500000D02*
X188433333Y-31500000D01*
X191750000Y-36500000D02*
X191750000Y-60000000D01*
X191750000Y-60000000D02*
X188433333Y-60000000D01*
X191750000Y-65000000D02*
X191750000Y-89500000D01*
X191750000Y-89500000D02*
X188433333Y-89500000D01*
X191750000Y-94500000D02*
X191750000Y-128500000D01*
X191750000Y-128500000D02*
X252350000Y-128500000D01*
X197949999Y-12549999D02*
G75*
G02*
X194750001Y-12549999I-1599999J0D01*
G01*
X194750001Y-12549999D02*
G75*
G02*
X197949999Y-12549999I1599999J0D01*
G01*
X197949999Y-115950000D02*
G75*
G02*
X194750001Y-115950000I-1599999J0D01*
G01*
X194750001Y-115950000D02*
G75*
G02*
X197949999Y-115950000I1599999J0D01*
G01*
X198600000Y-123900000D02*
X199900000Y-123900000D01*
X198600000Y-127100000D02*
G75*
G02*
X198600000Y-123900000I0J1600000D01*
G01*
X199900000Y-123900000D02*
G75*
G02*
X199900000Y-127100000I0J-1600000D01*
G01*
X199900000Y-127100000D02*
X198600000Y-127100000D01*
X210550000Y-24249999D02*
G75*
G02*
X201550000Y-24249999I-4500000J0D01*
G01*
X201550000Y-24249999D02*
G75*
G02*
X210550000Y-24249999I4500000J0D01*
G01*
X209199999Y-80249999D02*
G75*
G02*
X202899999Y-80249999I-3150000J0D01*
G01*
X202899999Y-80249999D02*
G75*
G02*
X209199999Y-80249999I3150000J0D01*
G01*
X209199999Y-104249999D02*
G75*
G02*
X202899999Y-104249999I-3150000J0D01*
G01*
X202899999Y-104249999D02*
G75*
G02*
X209199999Y-104249999I3150000J0D01*
G01*
X226549999Y-48250000D02*
G75*
G02*
X217549999Y-48250000I-4500000J0D01*
G01*
X217549999Y-48250000D02*
G75*
G02*
X226549999Y-48250000I4500000J0D01*
G01*
X225199999Y-80249999D02*
G75*
G02*
X218899999Y-80249999I-3150000J0D01*
G01*
X218899999Y-80249999D02*
G75*
G02*
X225199999Y-80249999I3150000J0D01*
G01*
X238549999Y-20249999D02*
G75*
G02*
X229549999Y-20249999I-4500000J0D01*
G01*
X229549999Y-20249999D02*
G75*
G02*
X238549999Y-20249999I4500000J0D01*
G01*
X242549999Y-48250000D02*
G75*
G02*
X233549999Y-48250000I-4500000J0D01*
G01*
X233549999Y-48250000D02*
G75*
G02*
X242549999Y-48250000I4500000J0D01*
G01*
X241199999Y-80249999D02*
G75*
G02*
X234899999Y-80249999I-3150000J0D01*
G01*
X234899999Y-80249999D02*
G75*
G02*
X241199999Y-80249999I3150000J0D01*
G01*
X241199999Y-104249999D02*
G75*
G02*
X234899999Y-104249999I-3150000J0D01*
G01*
X234899999Y-104249999D02*
G75*
G02*
X241199999Y-104249999I3150000J0D01*
G01*
X244200000Y-1400000D02*
X245500000Y-1400000D01*
X244200000Y-4600000D02*
G75*
G02*
X244200000Y-1400000I0J1600000D01*
G01*
X244200000Y-123900000D02*
X245500000Y-123900000D01*
X244200000Y-127100000D02*
G75*
G02*
X244200000Y-123900000I0J1600000D01*
G01*
X245500000Y-1400000D02*
G75*
G02*
X245500000Y-4600000I0J-1600000D01*
G01*
X245500000Y-4600000D02*
X244200000Y-4600000D01*
X245500000Y-123900000D02*
G75*
G02*
X245500000Y-127100000I0J-1600000D01*
G01*
X245500000Y-127100000D02*
X244200000Y-127100000D01*
X249349999Y-12549999D02*
G75*
G02*
X246150001Y-12549999I-1599999J0D01*
G01*
X246150001Y-12549999D02*
G75*
G02*
X249349999Y-12549999I1599999J0D01*
G01*
X249349999Y-115950000D02*
G75*
G02*
X246150001Y-115950000I-1599999J0D01*
G01*
X246150001Y-115950000D02*
G75*
G02*
X249349999Y-115950000I1599999J0D01*
G01*
X252350000Y0D02*
X191750000Y0D01*
X252350000Y-128500000D02*
X252350000Y0D01*
M02*
