%TF.GenerationSoftware,KiCad,Pcbnew,10.0.4*%
%TF.CreationDate,2026-09-10T09:57:55+10:00*%
%TF.ProjectId,VCO_panel,56434f5f-7061-46e6-956c-2e6b69636164,rev?*%
%TF.SameCoordinates,Original*%
%TF.FileFunction,Soldermask,Top*%
%TF.FilePolarity,Negative*%
%FSLAX46Y46*%
G04 Gerber Fmt 4.6, Leading zero omitted, Abs format (unit mm)*
G04 Created by KiCad (PCBNEW 10.0.4) date 2026-09-10 09:57:55*
%MOMM*%
%LPD*%
G01*
G04 APERTURE LIST*
%ADD10C,0.247226*%
%ADD11C,0.000000*%
%ADD12C,0.246294*%
%ADD13C,0.246424*%
%ADD14C,0.246297*%
%ADD15C,0.205740*%
%ADD16C,0.247116*%
G04 APERTURE END LIST*
D10*
X-1520000Y-1170000D02*
X-769669Y-419730D01*
X-531002Y-181073D01*
X-25445Y324460D01*
X480137Y829992D01*
X-1520000Y-5170000D02*
X-546020Y-4196086D01*
X-32954Y-3683043D01*
X480137Y-3170000D01*
X-1520000Y-9169993D02*
X-87363Y-7737374D01*
X486834Y-7163171D01*
X1483413Y-6166584D01*
X2480016Y-5170000D01*
X-1520000Y-19169977D02*
X12480057Y-5170000D01*
X-1520000Y-21169977D02*
X4504552Y-15145466D01*
X6480033Y-13169989D01*
X10480037Y-9169994D01*
X14480066Y-5170000D01*
X-1520000Y-25170057D02*
X5954648Y-17695408D01*
X8707316Y-14942751D01*
X13593711Y-10056375D01*
X18480081Y-5170000D01*
X-1520000Y-29170050D02*
X11813385Y-15836692D01*
X22480098Y-5170000D01*
X-1520000Y-35170042D02*
X-156356Y-33806402D01*
X17161877Y-16488202D01*
X25820964Y-7829104D01*
X34480016Y829992D01*
X-1520000Y-37170042D02*
X15580011Y-20070027D01*
X36480027Y829992D01*
X-1520000Y-41170035D02*
X9946076Y-29703940D01*
X19605270Y-20044772D01*
X30042680Y-9607390D01*
X40480043Y829992D01*
X-1520000Y-45170027D02*
X16946921Y-26703179D01*
X21382221Y-22267890D01*
X32931192Y-10718950D01*
X44480188Y829992D01*
X-1520000Y-49170019D02*
X12023420Y-35626556D01*
X23626743Y-24023241D01*
X36053368Y-11596624D01*
X48479944Y829992D01*
X-1520000Y-53170019D02*
X18967273Y-32682718D01*
X26551410Y-25098582D01*
X52479963Y829992D01*
X-1520000Y-55170019D02*
X611591Y-53038434D01*
X17545849Y-36104207D01*
X26012949Y-27637093D01*
X34480016Y-19169977D01*
X-1520000Y-57170012D02*
X34480016Y-21169977D01*
X-1520000Y-59170019D02*
X36480027Y-21169977D01*
X-1520000Y-63170004D02*
X34480016Y-27170057D01*
D11*
G36*
X268607278Y31007027D02*
G01*
X266607293Y31007027D01*
X266607293Y33007025D01*
X268607278Y33007025D01*
X268607278Y31007027D01*
G37*
D12*
X32114854Y-112681486D02*
X32241398Y-112691108D01*
X32366102Y-112706954D01*
X32488809Y-112728867D01*
X32609363Y-112756690D01*
X32727608Y-112790267D01*
X32843387Y-112829441D01*
X32956542Y-112874056D01*
X33066919Y-112923955D01*
X33174359Y-112978981D01*
X33278707Y-113038979D01*
X33379806Y-113103790D01*
X33477500Y-113173260D01*
X33571631Y-113247231D01*
X33662044Y-113325547D01*
X33748582Y-113408051D01*
X33831087Y-113494586D01*
X33909405Y-113584997D01*
X33983378Y-113679125D01*
X34052849Y-113776816D01*
X34117662Y-113877912D01*
X34177660Y-113982257D01*
X34232688Y-114089694D01*
X34282588Y-114200067D01*
X34327203Y-114313219D01*
X34366378Y-114428993D01*
X34399955Y-114547233D01*
X34427779Y-114667783D01*
X34449692Y-114790485D01*
X34465538Y-114915183D01*
X34475160Y-115041722D01*
X34478402Y-115169943D01*
X34478402Y-115170309D01*
X34475160Y-115298529D01*
X34465538Y-115425066D01*
X34449692Y-115549764D01*
X34427779Y-115672465D01*
X34399955Y-115793014D01*
X34366378Y-115911254D01*
X34327203Y-116027027D01*
X34282588Y-116140179D01*
X34232688Y-116250551D01*
X34177660Y-116357988D01*
X34117662Y-116462333D01*
X34052849Y-116563429D01*
X33983378Y-116661120D01*
X33909405Y-116755249D01*
X33831087Y-116845660D01*
X33748582Y-116932196D01*
X33662044Y-117014700D01*
X33571631Y-117093016D01*
X33477500Y-117166988D01*
X33379806Y-117236458D01*
X33278707Y-117301270D01*
X33174359Y-117361268D01*
X33066919Y-117416295D01*
X32956542Y-117466194D01*
X32843387Y-117510810D01*
X32727608Y-117549984D01*
X32609363Y-117583561D01*
X32488809Y-117611385D01*
X32366102Y-117633298D01*
X32241398Y-117649144D01*
X32114854Y-117658766D01*
X31986627Y-117662008D01*
X28970144Y-117662008D01*
X28841919Y-117658766D01*
X28715378Y-117649144D01*
X28590676Y-117633298D01*
X28467970Y-117611385D01*
X28347416Y-117583561D01*
X28229172Y-117549984D01*
X28113394Y-117510810D01*
X28000238Y-117466194D01*
X27889861Y-117416295D01*
X27782419Y-117361268D01*
X27678070Y-117301270D01*
X27576970Y-117236458D01*
X27479274Y-117166988D01*
X27385141Y-117093016D01*
X27294726Y-117014700D01*
X27208186Y-116932196D01*
X27125678Y-116845660D01*
X27047358Y-116755249D01*
X26973384Y-116661120D01*
X26903910Y-116563429D01*
X26839094Y-116462333D01*
X26779094Y-116357988D01*
X26724064Y-116250551D01*
X26674162Y-116140179D01*
X26629544Y-116027027D01*
X26590368Y-115911254D01*
X26556789Y-115793014D01*
X26528964Y-115672465D01*
X26507050Y-115549764D01*
X26491203Y-115425066D01*
X26481580Y-115298529D01*
X26478338Y-115170309D01*
X26478338Y-115169943D01*
X26481580Y-115041722D01*
X26491203Y-114915183D01*
X26507050Y-114790485D01*
X26528964Y-114667783D01*
X26556789Y-114547233D01*
X26590368Y-114428993D01*
X26629544Y-114313219D01*
X26674162Y-114200067D01*
X26724064Y-114089694D01*
X26779094Y-113982257D01*
X26839094Y-113877912D01*
X26903910Y-113776816D01*
X26973384Y-113679125D01*
X27047358Y-113584997D01*
X27125678Y-113494586D01*
X27208186Y-113408051D01*
X27294726Y-113325547D01*
X27385141Y-113247231D01*
X27479274Y-113173260D01*
X27576970Y-113103790D01*
X27678070Y-113038979D01*
X27782419Y-112978981D01*
X27889861Y-112923955D01*
X28000238Y-112874056D01*
X28113394Y-112829441D01*
X28229172Y-112790267D01*
X28347416Y-112756690D01*
X28467970Y-112728867D01*
X28590676Y-112706954D01*
X28715378Y-112691108D01*
X28841919Y-112681486D01*
X28970144Y-112678244D01*
X31986627Y-112678244D01*
X32114854Y-112681486D01*
X48117051Y-112681486D02*
X48243595Y-112691108D01*
X48368299Y-112706954D01*
X48491006Y-112728867D01*
X48611561Y-112756690D01*
X48729805Y-112790267D01*
X48845584Y-112829441D01*
X48958739Y-112874056D01*
X49069116Y-112923955D01*
X49176556Y-112978981D01*
X49280904Y-113038979D01*
X49382004Y-113103790D01*
X49479697Y-113173260D01*
X49573829Y-113247231D01*
X49664241Y-113325547D01*
X49750779Y-113408051D01*
X49833285Y-113494586D01*
X49911602Y-113584997D01*
X49985575Y-113679125D01*
X50055046Y-113776816D01*
X50119859Y-113877912D01*
X50179858Y-113982257D01*
X50234885Y-114089694D01*
X50284785Y-114200067D01*
X50329400Y-114313219D01*
X50368575Y-114428993D01*
X50402153Y-114547233D01*
X50429976Y-114667783D01*
X50451889Y-114790485D01*
X50467735Y-114915183D01*
X50477357Y-115041722D01*
X50480600Y-115169943D01*
X50480600Y-115170309D01*
X50477357Y-115298529D01*
X50467735Y-115425066D01*
X50451889Y-115549764D01*
X50429976Y-115672465D01*
X50402153Y-115793014D01*
X50368575Y-115911254D01*
X50329400Y-116027027D01*
X50284785Y-116140179D01*
X50234885Y-116250551D01*
X50179858Y-116357988D01*
X50119859Y-116462333D01*
X50055046Y-116563429D01*
X49985575Y-116661120D01*
X49911602Y-116755249D01*
X49833285Y-116845660D01*
X49750779Y-116932196D01*
X49664241Y-117014700D01*
X49573829Y-117093016D01*
X49479697Y-117166988D01*
X49382004Y-117236458D01*
X49280904Y-117301270D01*
X49176556Y-117361268D01*
X49069116Y-117416295D01*
X48958739Y-117466194D01*
X48845584Y-117510810D01*
X48729805Y-117549984D01*
X48611561Y-117583561D01*
X48491006Y-117611385D01*
X48368299Y-117633298D01*
X48243595Y-117649144D01*
X48117051Y-117658766D01*
X47988824Y-117662008D01*
X44972341Y-117662008D01*
X44844117Y-117658766D01*
X44717575Y-117649144D01*
X44592873Y-117633298D01*
X44470167Y-117611385D01*
X44349614Y-117583561D01*
X44231370Y-117549984D01*
X44115591Y-117510810D01*
X44002435Y-117466194D01*
X43892058Y-117416295D01*
X43784617Y-117361268D01*
X43680267Y-117301270D01*
X43579167Y-117236458D01*
X43481472Y-117166988D01*
X43387338Y-117093016D01*
X43296923Y-117014700D01*
X43210384Y-116932196D01*
X43127876Y-116845660D01*
X43049556Y-116755249D01*
X42975581Y-116661120D01*
X42906107Y-116563429D01*
X42841292Y-116462333D01*
X42781291Y-116357988D01*
X42726261Y-116250551D01*
X42676359Y-116140179D01*
X42631742Y-116027027D01*
X42592565Y-115911254D01*
X42558986Y-115793014D01*
X42531161Y-115672465D01*
X42509247Y-115549764D01*
X42493400Y-115425066D01*
X42483777Y-115298529D01*
X42480535Y-115170309D01*
X42480535Y-115169943D01*
X42483777Y-115041722D01*
X42493400Y-114915183D01*
X42509247Y-114790485D01*
X42531161Y-114667783D01*
X42558986Y-114547233D01*
X42592565Y-114428993D01*
X42631742Y-114313219D01*
X42676359Y-114200067D01*
X42726261Y-114089694D01*
X42781291Y-113982257D01*
X42841292Y-113877912D01*
X42906107Y-113776816D01*
X42975581Y-113679125D01*
X43049556Y-113584997D01*
X43127876Y-113494586D01*
X43210384Y-113408051D01*
X43296923Y-113325547D01*
X43387338Y-113247231D01*
X43481472Y-113173260D01*
X43579167Y-113103790D01*
X43680267Y-113038979D01*
X43784617Y-112978981D01*
X43892058Y-112923955D01*
X44002435Y-112874056D01*
X44115591Y-112829441D01*
X44231370Y-112790267D01*
X44349614Y-112756690D01*
X44470167Y-112728867D01*
X44592873Y-112706954D01*
X44717575Y-112691108D01*
X44844117Y-112681486D01*
X44972341Y-112678244D01*
X47988824Y-112678244D01*
X48117051Y-112681486D01*
D13*
X97087503Y-112681486D02*
X97214044Y-112691108D01*
X97338745Y-112706954D01*
X97461450Y-112728867D01*
X97582002Y-112756690D01*
X97700244Y-112790267D01*
X97816021Y-112829441D01*
X97929174Y-112874056D01*
X98039549Y-112923955D01*
X98146987Y-112978981D01*
X98251334Y-113038979D01*
X98352432Y-113103790D01*
X98450124Y-113173260D01*
X98544254Y-113247231D01*
X98634666Y-113325547D01*
X98721202Y-113408051D01*
X98803707Y-113494586D01*
X98882024Y-113584997D01*
X98955996Y-113679125D01*
X99025466Y-113776816D01*
X99090279Y-113877912D01*
X99150277Y-113982257D01*
X99205304Y-114089694D01*
X99255203Y-114200067D01*
X99299818Y-114313219D01*
X99338993Y-114428993D01*
X99372570Y-114547233D01*
X99400393Y-114667783D01*
X99422306Y-114790485D01*
X99438152Y-114915183D01*
X99447774Y-115041722D01*
X99451017Y-115169943D01*
X99451017Y-115170309D01*
X99447774Y-115298529D01*
X99438152Y-115425066D01*
X99422306Y-115549764D01*
X99400393Y-115672465D01*
X99372570Y-115793014D01*
X99338993Y-115911254D01*
X99299818Y-116027027D01*
X99255203Y-116140179D01*
X99205304Y-116250551D01*
X99150277Y-116357988D01*
X99090279Y-116462333D01*
X99025466Y-116563429D01*
X98955996Y-116661120D01*
X98882024Y-116755249D01*
X98803707Y-116845660D01*
X98721202Y-116932196D01*
X98634666Y-117014700D01*
X98544254Y-117093016D01*
X98450124Y-117166988D01*
X98352432Y-117236458D01*
X98251334Y-117301270D01*
X98146987Y-117361268D01*
X98039549Y-117416295D01*
X97929174Y-117466194D01*
X97816021Y-117510810D01*
X97700244Y-117549984D01*
X97582002Y-117583561D01*
X97461450Y-117611385D01*
X97338745Y-117633298D01*
X97214044Y-117649144D01*
X97087503Y-117658766D01*
X96959279Y-117662008D01*
X92001729Y-117662008D01*
X91873508Y-117658766D01*
X91746969Y-117649144D01*
X91622270Y-117633298D01*
X91499567Y-117611385D01*
X91379016Y-117583561D01*
X91260775Y-117549984D01*
X91144999Y-117510810D01*
X91031846Y-117466194D01*
X90921472Y-117416295D01*
X90814033Y-117361268D01*
X90709686Y-117301270D01*
X90608588Y-117236458D01*
X90510895Y-117166988D01*
X90416764Y-117093016D01*
X90326352Y-117014700D01*
X90239814Y-116932196D01*
X90157308Y-116845660D01*
X90078990Y-116755249D01*
X90005017Y-116661120D01*
X89935545Y-116563429D01*
X89870732Y-116462333D01*
X89810732Y-116357988D01*
X89755704Y-116250551D01*
X89705803Y-116140179D01*
X89661187Y-116027027D01*
X89622012Y-115911254D01*
X89588433Y-115793014D01*
X89560609Y-115672465D01*
X89538696Y-115549764D01*
X89522849Y-115425066D01*
X89513227Y-115298529D01*
X89509984Y-115170309D01*
X89509984Y-115169943D01*
X89513227Y-115041722D01*
X89522849Y-114915183D01*
X89538696Y-114790485D01*
X89560609Y-114667783D01*
X89588433Y-114547233D01*
X89622012Y-114428993D01*
X89661187Y-114313219D01*
X89705803Y-114200067D01*
X89755704Y-114089694D01*
X89810732Y-113982257D01*
X89870732Y-113877912D01*
X89935545Y-113776816D01*
X90005017Y-113679125D01*
X90078990Y-113584997D01*
X90157308Y-113494586D01*
X90239814Y-113408051D01*
X90326352Y-113325547D01*
X90416764Y-113247231D01*
X90510895Y-113173260D01*
X90608588Y-113103790D01*
X90709686Y-113038979D01*
X90814033Y-112978981D01*
X90921472Y-112923955D01*
X91031846Y-112874056D01*
X91144999Y-112829441D01*
X91260775Y-112790267D01*
X91379016Y-112756690D01*
X91499567Y-112728867D01*
X91622270Y-112706954D01*
X91746969Y-112691108D01*
X91873508Y-112681486D01*
X92001729Y-112678244D01*
X96959279Y-112678244D01*
X97087503Y-112681486D01*
D14*
X112116984Y-112681486D02*
X112243525Y-112691108D01*
X112368226Y-112706954D01*
X112490932Y-112728867D01*
X112611484Y-112756690D01*
X112729728Y-112790267D01*
X112845505Y-112829441D01*
X112958660Y-112874056D01*
X113069036Y-112923955D01*
X113176476Y-112978981D01*
X113280824Y-113038979D01*
X113381924Y-113103790D01*
X113479617Y-113173260D01*
X113573749Y-113247231D01*
X113664163Y-113325547D01*
X113750701Y-113408051D01*
X113833208Y-113494586D01*
X113911526Y-113584997D01*
X113985500Y-113679125D01*
X114054972Y-113776816D01*
X114119786Y-113877912D01*
X114179786Y-113982257D01*
X114234814Y-114089694D01*
X114284715Y-114200067D01*
X114329332Y-114313219D01*
X114368507Y-114428993D01*
X114402086Y-114547233D01*
X114429910Y-114667783D01*
X114451823Y-114790485D01*
X114467670Y-114915183D01*
X114477292Y-115041722D01*
X114480535Y-115169943D01*
X114480535Y-115170309D01*
X114477292Y-115298529D01*
X114467670Y-115425066D01*
X114451823Y-115549764D01*
X114429910Y-115672465D01*
X114402086Y-115793014D01*
X114368507Y-115911254D01*
X114329332Y-116027027D01*
X114284715Y-116140179D01*
X114234814Y-116250551D01*
X114179786Y-116357988D01*
X114119786Y-116462333D01*
X114054972Y-116563429D01*
X113985500Y-116661120D01*
X113911526Y-116755249D01*
X113833208Y-116845660D01*
X113750701Y-116932196D01*
X113664163Y-117014700D01*
X113573749Y-117093016D01*
X113479617Y-117166988D01*
X113381924Y-117236458D01*
X113280824Y-117301270D01*
X113176476Y-117361268D01*
X113069036Y-117416295D01*
X112958660Y-117466194D01*
X112845505Y-117510810D01*
X112729728Y-117549984D01*
X112611484Y-117583561D01*
X112490932Y-117611385D01*
X112368226Y-117633298D01*
X112243525Y-117649144D01*
X112116984Y-117658766D01*
X111988759Y-117662008D01*
X108972051Y-117662008D01*
X108843827Y-117658766D01*
X108717286Y-117649144D01*
X108592584Y-117633298D01*
X108469878Y-117611385D01*
X108349326Y-117583561D01*
X108231082Y-117549984D01*
X108115305Y-117510810D01*
X108002150Y-117466194D01*
X107891774Y-117416295D01*
X107784334Y-117361268D01*
X107679986Y-117301270D01*
X107578887Y-117236458D01*
X107481193Y-117166988D01*
X107387061Y-117093016D01*
X107296647Y-117014700D01*
X107210109Y-116932196D01*
X107127602Y-116845660D01*
X107049284Y-116755249D01*
X106975310Y-116661120D01*
X106905838Y-116563429D01*
X106841024Y-116462333D01*
X106781024Y-116357988D01*
X106725996Y-116250551D01*
X106676095Y-116140179D01*
X106631479Y-116027027D01*
X106592303Y-115911254D01*
X106558725Y-115793014D01*
X106530900Y-115672465D01*
X106508987Y-115549764D01*
X106493140Y-115425066D01*
X106483518Y-115298529D01*
X106480275Y-115170309D01*
X106480275Y-115169943D01*
X106483518Y-115041722D01*
X106493140Y-114915183D01*
X106508987Y-114790485D01*
X106530900Y-114667783D01*
X106558725Y-114547233D01*
X106592303Y-114428993D01*
X106631479Y-114313219D01*
X106676095Y-114200067D01*
X106725996Y-114089694D01*
X106781024Y-113982257D01*
X106841024Y-113877912D01*
X106905838Y-113776816D01*
X106975310Y-113679125D01*
X107049284Y-113584997D01*
X107127602Y-113494586D01*
X107210109Y-113408051D01*
X107296647Y-113325547D01*
X107387061Y-113247231D01*
X107481193Y-113173260D01*
X107578887Y-113103790D01*
X107679986Y-113038979D01*
X107784334Y-112978981D01*
X107891774Y-112923955D01*
X108002150Y-112874056D01*
X108115305Y-112829441D01*
X108231082Y-112790267D01*
X108349326Y-112756690D01*
X108469878Y-112728867D01*
X108592584Y-112706954D01*
X108717286Y-112691108D01*
X108843827Y-112681486D01*
X108972051Y-112678244D01*
X111988759Y-112678244D01*
X112116984Y-112681486D01*
D15*
X174892256Y-15180482D02*
X175298528Y-15211374D01*
X175698893Y-15262247D01*
X176092848Y-15332598D01*
X176479892Y-15421924D01*
X176859520Y-15529723D01*
X177231231Y-15655492D01*
X177594522Y-15798729D01*
X177948890Y-15958931D01*
X178293833Y-16135595D01*
X178628848Y-16328219D01*
X178953432Y-16536301D01*
X179267082Y-16759337D01*
X179569297Y-16996825D01*
X179859572Y-17248263D01*
X180137407Y-17513148D01*
X180402297Y-17790977D01*
X180653740Y-18081248D01*
X180891234Y-18383458D01*
X181114276Y-18697105D01*
X181322364Y-19021685D01*
X181514993Y-19356697D01*
X181691663Y-19701638D01*
X181851870Y-20056006D01*
X181995112Y-20419296D01*
X182120886Y-20791008D01*
X182228689Y-21170639D01*
X182318018Y-21557685D01*
X182388372Y-21951645D01*
X182439247Y-22352015D01*
X182470141Y-22758293D01*
X182480550Y-23169977D01*
X182480550Y-47170073D01*
X182470141Y-47581757D01*
X182439247Y-47988037D01*
X182388372Y-48388408D01*
X182318018Y-48782369D01*
X182228689Y-49169417D01*
X182120886Y-49549049D01*
X181995112Y-49920763D01*
X181851870Y-50284056D01*
X181691663Y-50638426D01*
X181514993Y-50983369D01*
X181322364Y-51318384D01*
X181114276Y-51642968D01*
X180891234Y-51956617D01*
X180653740Y-52258830D01*
X180402297Y-52549104D01*
X180137407Y-52826936D01*
X179859572Y-53091824D01*
X179569297Y-53343264D01*
X179267082Y-53580756D01*
X178953432Y-53803795D01*
X178628848Y-54011879D01*
X178293833Y-54204505D01*
X177948890Y-54381172D01*
X177594522Y-54541376D01*
X177231231Y-54684615D01*
X176859520Y-54810386D01*
X176479892Y-54918187D01*
X176092848Y-55007515D01*
X175698893Y-55077866D01*
X175298528Y-55128740D01*
X174892256Y-55159633D01*
X174480581Y-55170042D01*
X174480520Y-55170042D01*
X174068841Y-55159633D01*
X173662567Y-55128740D01*
X173262200Y-55077866D01*
X172868243Y-55007515D01*
X172481198Y-54918187D01*
X172101569Y-54810386D01*
X171729857Y-54684615D01*
X171366565Y-54541376D01*
X171012196Y-54381172D01*
X170667253Y-54204505D01*
X170332239Y-54011879D01*
X170007655Y-53803795D01*
X169694005Y-53580756D01*
X169391791Y-53343264D01*
X169101516Y-53091824D01*
X168823682Y-52826936D01*
X168558793Y-52549104D01*
X168307350Y-52258830D01*
X168069857Y-51956617D01*
X167846816Y-51642968D01*
X167638730Y-51318384D01*
X167446101Y-50983369D01*
X167269432Y-50638426D01*
X167109226Y-50284056D01*
X166965985Y-49920763D01*
X166840212Y-49549049D01*
X166732409Y-49169417D01*
X166643081Y-48782369D01*
X166572727Y-48388408D01*
X166521853Y-47988037D01*
X166490960Y-47581757D01*
X166480550Y-47170073D01*
X166480550Y-23169977D01*
X166490960Y-22758293D01*
X166521853Y-22352015D01*
X166572727Y-21951645D01*
X166643081Y-21557685D01*
X166732409Y-21170639D01*
X166840212Y-20791008D01*
X166965985Y-20419296D01*
X167109226Y-20056006D01*
X167269432Y-19701638D01*
X167446101Y-19356697D01*
X167638730Y-19021685D01*
X167846816Y-18697105D01*
X168069857Y-18383458D01*
X168307350Y-18081248D01*
X168558793Y-17790977D01*
X168823682Y-17513148D01*
X169101516Y-17248263D01*
X169391791Y-16996825D01*
X169694005Y-16759337D01*
X170007655Y-16536301D01*
X170332239Y-16328219D01*
X170667253Y-16135595D01*
X171012196Y-15958931D01*
X171366565Y-15798729D01*
X171729857Y-15655492D01*
X172101569Y-15529723D01*
X172481198Y-15421924D01*
X172868243Y-15332598D01*
X173262200Y-15262247D01*
X173662567Y-15211374D01*
X174068841Y-15180482D01*
X174480520Y-15170073D01*
X174480581Y-15170073D01*
X174892256Y-15180482D01*
D12*
X176117140Y-32681410D02*
X176243685Y-32691032D01*
X176368389Y-32706878D01*
X176491097Y-32728791D01*
X176611652Y-32756615D01*
X176729897Y-32790192D01*
X176845676Y-32829367D01*
X176958832Y-32873982D01*
X177069209Y-32923882D01*
X177176649Y-32978909D01*
X177280997Y-33038907D01*
X177382096Y-33103719D01*
X177479790Y-33173190D01*
X177573921Y-33247162D01*
X177664334Y-33325478D01*
X177750871Y-33407983D01*
X177833376Y-33494519D01*
X177911694Y-33584931D01*
X177985666Y-33679061D01*
X178055137Y-33776752D01*
X178119949Y-33877849D01*
X178179948Y-33982195D01*
X178234975Y-34089633D01*
X178284874Y-34200007D01*
X178329489Y-34313159D01*
X178368664Y-34428935D01*
X178402241Y-34547176D01*
X178430064Y-34667726D01*
X178451977Y-34790429D01*
X178467823Y-34915129D01*
X178477445Y-35041668D01*
X178480687Y-35169890D01*
X178480687Y-35170233D01*
X178477445Y-35298455D01*
X178467823Y-35424994D01*
X178451977Y-35549693D01*
X178430064Y-35672396D01*
X178402241Y-35792947D01*
X178368664Y-35911188D01*
X178329489Y-36026963D01*
X178284874Y-36140116D01*
X178234975Y-36250489D01*
X178179948Y-36357927D01*
X178119949Y-36462273D01*
X178055137Y-36563370D01*
X177985666Y-36661062D01*
X177911694Y-36755192D01*
X177833376Y-36845603D01*
X177750871Y-36932140D01*
X177664334Y-37014644D01*
X177573921Y-37092961D01*
X177479790Y-37166933D01*
X177382096Y-37236403D01*
X177280997Y-37301216D01*
X177176649Y-37361214D01*
X177069209Y-37416241D01*
X176958832Y-37466141D01*
X176845676Y-37510756D01*
X176729897Y-37549931D01*
X176611652Y-37583508D01*
X176491097Y-37611331D01*
X176368389Y-37633244D01*
X176243685Y-37649090D01*
X176117140Y-37658713D01*
X175988912Y-37661955D01*
X172972432Y-37661955D01*
X172844208Y-37658713D01*
X172717667Y-37649090D01*
X172592965Y-37633244D01*
X172470259Y-37611331D01*
X172349705Y-37583508D01*
X172231461Y-37549931D01*
X172115683Y-37510756D01*
X172002527Y-37466141D01*
X171892150Y-37416241D01*
X171784708Y-37361214D01*
X171680359Y-37301216D01*
X171579258Y-37236403D01*
X171481563Y-37166933D01*
X171387430Y-37092961D01*
X171297015Y-37014644D01*
X171210475Y-36932140D01*
X171127967Y-36845603D01*
X171049647Y-36755192D01*
X170975672Y-36661062D01*
X170906199Y-36563370D01*
X170841383Y-36462273D01*
X170781382Y-36357927D01*
X170726353Y-36250489D01*
X170676451Y-36140116D01*
X170631833Y-36026963D01*
X170592657Y-35911188D01*
X170559078Y-35792947D01*
X170531253Y-35672396D01*
X170509339Y-35549693D01*
X170493492Y-35424994D01*
X170483869Y-35298455D01*
X170480626Y-35170233D01*
X170480626Y-35169890D01*
X170483869Y-35041668D01*
X170493492Y-34915129D01*
X170509339Y-34790429D01*
X170531253Y-34667726D01*
X170559078Y-34547176D01*
X170592657Y-34428935D01*
X170631833Y-34313159D01*
X170676451Y-34200007D01*
X170726353Y-34089633D01*
X170781382Y-33982195D01*
X170841383Y-33877849D01*
X170906199Y-33776752D01*
X170975672Y-33679061D01*
X171049647Y-33584931D01*
X171127967Y-33494519D01*
X171210475Y-33407983D01*
X171297015Y-33325478D01*
X171387430Y-33247162D01*
X171481563Y-33173190D01*
X171579258Y-33103719D01*
X171680359Y-33038907D01*
X171784708Y-32978909D01*
X171892150Y-32923882D01*
X172002527Y-32873982D01*
X172115683Y-32829367D01*
X172231461Y-32790192D01*
X172349705Y-32756615D01*
X172470259Y-32728791D01*
X172592965Y-32706878D01*
X172717667Y-32691032D01*
X172844208Y-32681410D01*
X172972432Y-32678167D01*
X175988912Y-32678167D01*
X176117140Y-32681410D01*
X240117185Y-112681486D02*
X240243728Y-112691108D01*
X240368432Y-112706954D01*
X240491139Y-112728867D01*
X240611693Y-112756690D01*
X240729937Y-112790267D01*
X240845716Y-112829441D01*
X240958871Y-112874056D01*
X241069248Y-112923955D01*
X241176688Y-112978981D01*
X241281036Y-113038979D01*
X241382135Y-113103790D01*
X241479829Y-113173260D01*
X241573960Y-113247231D01*
X241664373Y-113325547D01*
X241750911Y-113408051D01*
X241833417Y-113494586D01*
X241911735Y-113584997D01*
X241985707Y-113679125D01*
X242055178Y-113776816D01*
X242119992Y-113877912D01*
X242179990Y-113982257D01*
X242235018Y-114089694D01*
X242284918Y-114200067D01*
X242329533Y-114313219D01*
X242368708Y-114428993D01*
X242402286Y-114547233D01*
X242430109Y-114667783D01*
X242452022Y-114790485D01*
X242467868Y-114915183D01*
X242477491Y-115041722D01*
X242480733Y-115169943D01*
X242480733Y-115170309D01*
X242477491Y-115298529D01*
X242467868Y-115425066D01*
X242452022Y-115549764D01*
X242430109Y-115672465D01*
X242402286Y-115793014D01*
X242368708Y-115911254D01*
X242329533Y-116027027D01*
X242284918Y-116140179D01*
X242235018Y-116250551D01*
X242179990Y-116357988D01*
X242119992Y-116462333D01*
X242055178Y-116563429D01*
X241985707Y-116661120D01*
X241911735Y-116755249D01*
X241833417Y-116845660D01*
X241750911Y-116932196D01*
X241664373Y-117014700D01*
X241573960Y-117093016D01*
X241479829Y-117166988D01*
X241382135Y-117236458D01*
X241281036Y-117301270D01*
X241176688Y-117361268D01*
X241069248Y-117416295D01*
X240958871Y-117466194D01*
X240845716Y-117510810D01*
X240729937Y-117549984D01*
X240611693Y-117583561D01*
X240491139Y-117611385D01*
X240368432Y-117633298D01*
X240243728Y-117649144D01*
X240117185Y-117658766D01*
X239988958Y-117662008D01*
X236972463Y-117662008D01*
X236844239Y-117658766D01*
X236717697Y-117649144D01*
X236592995Y-117633298D01*
X236470289Y-117611385D01*
X236349736Y-117583561D01*
X236231492Y-117549984D01*
X236115713Y-117510810D01*
X236002557Y-117466194D01*
X235892180Y-117416295D01*
X235784739Y-117361268D01*
X235680390Y-117301270D01*
X235579289Y-117236458D01*
X235481594Y-117166988D01*
X235387460Y-117093016D01*
X235297046Y-117014700D01*
X235210506Y-116932196D01*
X235127998Y-116845660D01*
X235049678Y-116755249D01*
X234975703Y-116661120D01*
X234906229Y-116563429D01*
X234841414Y-116462333D01*
X234781413Y-116357988D01*
X234726383Y-116250551D01*
X234676481Y-116140179D01*
X234631864Y-116027027D01*
X234592687Y-115911254D01*
X234559108Y-115793014D01*
X234531283Y-115672465D01*
X234509369Y-115549764D01*
X234493522Y-115425066D01*
X234483899Y-115298529D01*
X234480657Y-115170309D01*
X234480657Y-115169943D01*
X234483899Y-115041722D01*
X234493522Y-114915183D01*
X234509369Y-114790485D01*
X234531283Y-114667783D01*
X234559108Y-114547233D01*
X234592687Y-114428993D01*
X234631864Y-114313219D01*
X234676481Y-114200067D01*
X234726383Y-114089694D01*
X234781413Y-113982257D01*
X234841414Y-113877912D01*
X234906229Y-113776816D01*
X234975703Y-113679125D01*
X235049678Y-113584997D01*
X235127998Y-113494586D01*
X235210506Y-113408051D01*
X235297046Y-113325547D01*
X235387460Y-113247231D01*
X235481594Y-113173260D01*
X235579289Y-113103790D01*
X235680390Y-113038979D01*
X235784739Y-112978981D01*
X235892180Y-112923955D01*
X236002557Y-112874056D01*
X236115713Y-112829441D01*
X236231492Y-112790267D01*
X236349736Y-112756690D01*
X236470289Y-112728867D01*
X236592995Y-112706954D01*
X236717697Y-112691108D01*
X236844239Y-112681486D01*
X236972463Y-112678244D01*
X239988958Y-112678244D01*
X240117185Y-112681486D01*
D10*
X480137Y-5170000D02*
X-319450Y-5969524D01*
X-515712Y-6165777D01*
X-1017843Y-6667884D01*
X-1520000Y-7169993D01*
X2480016Y829992D02*
X968169Y-681837D01*
X457020Y-1192991D01*
X-531478Y-2181495D01*
X-1520000Y-3170000D01*
X2480016Y-1170000D02*
X3230347Y-419730D01*
X3465378Y-184709D01*
X3972754Y322643D01*
X4480154Y829992D01*
X2480016Y-63170004D02*
X15140082Y-50509950D01*
X19605948Y-46044101D01*
X28042999Y-37607076D01*
X36480027Y-29170050D01*
X4480154Y-5170000D02*
X2882575Y-6767510D01*
X1480077Y-8169993D01*
X-19938Y-9669990D01*
X-1520000Y-11169985D01*
X6480033Y829992D02*
X5838333Y188285D01*
X5159200Y-490857D01*
X4819660Y-830429D01*
X4480154Y-1170000D01*
X6480033Y-1170000D02*
X7236026Y-414068D01*
X7465175Y-184928D01*
X7972660Y322533D01*
X8480170Y829992D01*
X6480033Y-5170000D02*
X3372888Y-8277134D01*
X2463952Y-9186057D01*
X471964Y-11178022D01*
X-1520000Y-13169985D01*
X6480033Y-63170004D02*
X7445616Y-62204489D01*
X7962881Y-61687251D01*
X8480170Y-61170012D01*
X8480170Y-5170000D02*
X5792171Y-7857892D01*
X1718369Y-11931646D01*
X-1520000Y-15169985D01*
X8480170Y-59170019D02*
X8449633Y-59200554D01*
X6464845Y-61185280D01*
X5472482Y-62177642D01*
X4480154Y-63170004D01*
X10480048Y829992D02*
X9834727Y184663D01*
X9157405Y-492668D01*
X8818771Y-831334D01*
X8480170Y-1170000D01*
X10480048Y-1170000D02*
X11233188Y-416915D01*
X12380069Y729998D01*
X12480057Y829992D01*
X10480048Y-5170000D02*
X7480044Y-8169988D01*
X-1520000Y-17169985D01*
X10480048Y-61170012D02*
X8480170Y-63170004D01*
X10480048Y-63170004D02*
X12480057Y-61170012D01*
X12480057Y-1170000D02*
X13253740Y-396316D01*
X13500305Y-149759D01*
X13990198Y340117D01*
X14480066Y829992D01*
X12480057Y-57170012D02*
X18272533Y-51377540D01*
X21358412Y-48291684D01*
X27919266Y-41730864D01*
X31199660Y-38450454D01*
X34480016Y-35170042D01*
X14480066Y-61170012D02*
X13738092Y-61911985D01*
X13511866Y-62138202D01*
X12995949Y-62654101D01*
X12480057Y-63170004D01*
X14480066Y-63170004D02*
X16479944Y-61170012D01*
X16479944Y829992D02*
X15834453Y184494D01*
X15157216Y-492753D01*
X14818624Y-831377D01*
X14480066Y-1170000D01*
X16479944Y-5170000D02*
X11486380Y-10163617D01*
X7498302Y-14151698D01*
X2989127Y-18660879D01*
X-1520000Y-23170057D01*
X16479944Y-57170012D02*
X26227879Y-47422134D01*
X31353965Y-42296088D01*
X36480027Y-37170042D01*
X18480081Y829992D02*
X17740704Y90679D01*
X17461561Y-188453D01*
X16970764Y-679227D01*
X16479944Y-1170000D01*
X18480081Y-61170012D02*
X17693710Y-61956317D01*
X17441711Y-62208304D01*
X16479944Y-63170004D01*
X18480081Y-63170004D02*
X34069580Y-47580443D01*
X57097386Y-24552655D01*
X76480062Y-5170000D01*
X20479961Y829992D02*
X19831037Y181060D01*
X19155515Y-494470D01*
X18817782Y-832235D01*
X18480081Y-1170000D01*
X20479961Y-5170000D02*
X11759155Y-13890851D01*
X9340740Y-16309271D01*
X3910358Y-21739665D01*
X-1520000Y-27170057D01*
X20479961Y-59170019D02*
X41537563Y-38112385D01*
X48496679Y-31153270D01*
X74479924Y-5170000D01*
X20479961Y-63170004D02*
X40060546Y-43589439D01*
X59270285Y-24379720D01*
X68875128Y-14774860D01*
X78479940Y-5170000D01*
X22480098Y829992D02*
X21740721Y90679D01*
X21461578Y-188453D01*
X20970781Y-679227D01*
X20479961Y-1170000D01*
X22480098Y-63170004D02*
X24003437Y-61646627D01*
X25948751Y-59701361D01*
X26419504Y-59230626D01*
X26480113Y-59170019D01*
X24479976Y829992D02*
X23834485Y184494D01*
X23157248Y-492753D01*
X22818656Y-831377D01*
X22480098Y-1170000D01*
X26480113Y829992D02*
X25738044Y87986D01*
X25468974Y-181073D01*
X24974487Y-675537D01*
X24479976Y-1170000D01*
X26480113Y-61170012D02*
X25690500Y-61959559D01*
X25450255Y-62199794D01*
X24479976Y-63170004D01*
X26480113Y-63170004D02*
X27004661Y-62645369D01*
X27810102Y-61839910D01*
X28479993Y-61170012D01*
X28479993Y829992D02*
X26973840Y-676143D01*
X26449451Y-1200536D01*
X25464725Y-2185268D01*
X24479976Y-3170000D01*
X28479993Y-57170012D02*
X48676469Y-36973556D01*
X54902799Y-30747242D01*
X67691449Y-17958621D01*
X80480077Y-5170000D01*
X30480001Y829992D02*
X-1519997Y-31170039D01*
X-1520000Y-31170042D01*
X30480001Y-61170012D02*
X28479993Y-63170004D01*
X30480001Y-63170004D02*
X31201214Y-62448785D01*
X31508375Y-62141635D01*
X31994203Y-61655824D01*
X32480008Y-61170012D01*
X32480008Y829992D02*
X19274652Y-12375381D01*
X15342908Y-16307122D01*
X6911442Y-24738582D01*
X-1520000Y-33170042D01*
X32480008Y-57170012D02*
X33955182Y-55694836D01*
X59217589Y-30432418D01*
X71848823Y-17801209D01*
X84480092Y-5170000D01*
X32480008Y-63170004D02*
X95242101Y-407915D01*
X34480016Y-29170050D02*
X25461550Y-38188593D01*
X11981361Y-51668784D01*
X480137Y-63170004D01*
X34480016Y-37170042D02*
X29216873Y-42433192D01*
X14480066Y-57170012D01*
X34480016Y-59170019D02*
X55026565Y-38623496D01*
X74343211Y-19306877D01*
X84001507Y-9648567D01*
X93659772Y9744D01*
X34480016Y-63170004D02*
X58289960Y-39360110D01*
X64681886Y-32968190D01*
X80719300Y-16930794D01*
X96756742Y-893397D01*
X36480027Y-25170057D02*
X37986080Y-23663933D01*
X40148993Y-21501023D01*
X40480043Y-21169977D01*
X36480027Y-33170042D02*
X40480043Y-29170050D01*
X36480027Y-63170004D02*
X38003366Y-61646627D01*
X39944051Y-59705990D01*
X40449506Y-59200554D01*
X40480043Y-59170019D01*
X38480035Y829992D02*
X-1520000Y-39170042D01*
X38480035Y-17169985D02*
X40304373Y-15345655D01*
X48392217Y-7257830D01*
X52436112Y-3213919D01*
X56479978Y829992D01*
X38480035Y-21169977D02*
X-1520000Y-61170012D01*
X38480035Y-25170057D02*
X64480008Y829992D01*
X38480035Y-29170050D02*
X27691011Y-39959071D01*
X24480042Y-43170030D01*
X17480033Y-50170021D01*
X10480048Y-57170012D01*
X38480035Y-33170042D02*
X49143933Y-22506180D01*
X52924536Y-18725579D01*
X59702330Y-11947790D01*
X66480146Y-5170000D01*
X38480035Y-37170042D02*
X30787743Y-44862342D01*
X18480081Y-57170012D01*
X40480043Y-25170057D02*
X66462964Y812807D01*
X40480043Y-33170042D02*
X51185092Y-22464965D01*
X54110221Y-19539836D01*
X61295135Y-12354919D01*
X68480024Y-5170000D01*
X40480043Y-37170042D02*
X33166060Y-44483935D01*
X22518172Y-55131801D01*
X20479961Y-57170012D01*
X40480043Y-61170012D02*
X39740763Y-61909292D01*
X39508210Y-62141835D01*
X38994110Y-62655918D01*
X38480035Y-63170004D01*
X40480043Y-63170004D02*
X41246606Y-62441421D01*
X42222478Y-61513992D01*
X42482569Y-61266820D01*
X42584436Y-61170012D01*
X42480050Y829992D02*
X-1520000Y-43170035D01*
X42480050Y-17169985D02*
X47176332Y-12473667D01*
X51595197Y-8054819D01*
X56037619Y-3612414D01*
X60479993Y829992D01*
X42480050Y-27170057D02*
X51129076Y-18520988D01*
X53259146Y-16390914D01*
X58869590Y-10780456D01*
X64480008Y-5170000D01*
X42480050Y-35170042D02*
X50606094Y-27043962D01*
X57597695Y-20052373D01*
X65038894Y-12611187D01*
X72480047Y-5170000D01*
X42480050Y-57170012D02*
X57607450Y-42042647D01*
X79736092Y-19913948D01*
X98218534Y-1431452D01*
X44480188Y-57170012D02*
X66077101Y-35573063D01*
X71837368Y-29812794D01*
X85738386Y-15911769D01*
X99639379Y-2010744D01*
X44480188Y-61170012D02*
X43693817Y-61956317D01*
X43446218Y-62203905D01*
X42480050Y-63170004D01*
X44480188Y-63170004D02*
X44722519Y-62923985D01*
X45586349Y-62046997D01*
X46018236Y-61608505D01*
X46450094Y-61170012D01*
X46480066Y829992D02*
X27984509Y-17665540D01*
X22480033Y-23170017D01*
X10480029Y-35170022D01*
X-1520000Y-47170027D01*
X46480066Y-57170012D02*
X100998861Y-2651243D01*
X46480455Y-71170012D02*
X46501775Y-67172098D01*
X46523118Y-63170027D01*
X48479944Y-57170012D02*
X67959244Y-37690773D01*
X98169375Y-7480618D01*
X102310148Y-3339838D01*
X48479944Y-61170012D02*
X47947568Y-61702473D01*
X47185651Y-62464407D01*
X46480066Y-63170004D01*
X48479944Y-63170004D02*
X49441711Y-62208304D01*
X49960883Y-61689158D01*
X50480081Y-61170012D01*
X50480081Y829992D02*
X30363909Y-19286160D01*
X25182747Y-24467310D01*
X11831361Y-37818667D01*
X-1520000Y-51170027D01*
X50480081Y-57170012D02*
X103552060Y-4098028D01*
X50480081Y-63170004D02*
X71164357Y-42485708D01*
X78760995Y-34889075D01*
X92901463Y-20748613D01*
X107041906Y-6608149D01*
X52479963Y-57170012D02*
X70706287Y-38943722D01*
X78692652Y-30957388D01*
X91714452Y-17935634D01*
X104736226Y-4913878D01*
X52479963Y-59170019D02*
X72745616Y-38904517D01*
X104312777Y-7337470D01*
X105895459Y-5754793D01*
X52479963Y-63170004D02*
X72529919Y-43120108D01*
X80668506Y-34981559D01*
X94373985Y-21276140D01*
X108079442Y-7570719D01*
X54480100Y829992D02*
X49585252Y-4064772D01*
X42040999Y-11609012D01*
X36480027Y-17169985D01*
X54480100Y-63170004D02*
X63280087Y-54370022D01*
X98480146Y-19169977D01*
X56479978Y-63170004D02*
X67641558Y-52008521D01*
X85014471Y-34635638D01*
X98480146Y-21169977D01*
X58480115Y829992D02*
X53516670Y-4133370D01*
X46045500Y-11604528D01*
X40480043Y-17169985D01*
X62480130Y829992D02*
X55087170Y-6562938D01*
X52143007Y-9507076D01*
X47311516Y-14338527D01*
X42480050Y-19169977D01*
X62480130Y-63170004D02*
X75417742Y-50232431D01*
X81523618Y-44126557D01*
X90001871Y-35648307D01*
X98480146Y-27170057D01*
X64480008Y-3170000D02*
X56002949Y-11647105D01*
X53259146Y-14390914D01*
X47869586Y-19780487D01*
X42480050Y-25170057D01*
X64480008Y-63170004D02*
X77429042Y-50221050D01*
X81950437Y-45699672D01*
X90215280Y-37434861D01*
X98480146Y-29170050D01*
X68480024Y812807D02*
X67801362Y139966D01*
X67140711Y-515018D01*
X66810412Y-842509D01*
X66480146Y-1170000D01*
X68480024Y-63170004D02*
X70059098Y-61590951D01*
X70480035Y-61170012D01*
X71480030Y-60170016D01*
X72480047Y-59170019D01*
X70480161Y812807D02*
X69707677Y47021D01*
X69491902Y-166890D01*
X68985975Y-668445D01*
X68480024Y-1170000D01*
X70480161Y-5170000D02*
X59517019Y-16133112D01*
X56974224Y-18675906D01*
X49727150Y-25922975D01*
X42480050Y-33170042D01*
X72480047Y812807D02*
X71829942Y168281D01*
X71155009Y-500860D01*
X70817569Y-835430D01*
X70480161Y-1170000D01*
X72480047Y-61170012D02*
X71841312Y-61808751D01*
X71160694Y-62489375D01*
X70820412Y-62829688D01*
X70480161Y-63170004D01*
X72480047Y-63170004D02*
X73183919Y-62466119D01*
X73831963Y-61818066D01*
X74155959Y-61494039D01*
X74479924Y-61170012D01*
X74479924Y812807D02*
X73942365Y279779D01*
X73136371Y-519307D01*
X72480047Y-1170000D01*
X74479924Y-57170012D02*
X85103050Y-46546949D01*
X88065163Y-43584845D01*
X95272587Y-36377447D01*
X102480039Y-29170050D01*
X76480062Y812807D02*
X75707577Y47021D01*
X75495634Y-163093D01*
X74987791Y-666547D01*
X74479924Y-1170000D01*
X76480062Y-57170012D02*
X87143865Y-46506207D01*
X91040052Y-42610031D01*
X104480047Y-29170050D01*
X76480062Y-61170012D02*
X75693691Y-61956317D01*
X75446092Y-62203905D01*
X74479924Y-63170004D01*
X76480062Y-63170004D02*
X77185647Y-62464407D01*
X77832835Y-61817210D01*
X78156403Y-61493611D01*
X78479940Y-61170012D01*
X78479940Y812807D02*
X77941351Y278759D01*
X77138074Y-517634D01*
X76480062Y-1170000D01*
X80480077Y829992D02*
X79740700Y90679D01*
X79461557Y-188453D01*
X78970760Y-679227D01*
X78479940Y-1170000D01*
X80480077Y-57170012D02*
X90824875Y-46825206D01*
X100480031Y-37170042D01*
X80480077Y-61170012D02*
X79693706Y-61956317D01*
X79441707Y-62208304D01*
X78479940Y-63170004D01*
X80480077Y-63170004D02*
X82479955Y-61170012D01*
X82479955Y812807D02*
X80480077Y-1170000D01*
X82479955Y-5170000D02*
X64584738Y-23065265D01*
X47532412Y-40117639D01*
X39006222Y-48643826D01*
X30480001Y-57170012D01*
X82479955Y-63170004D02*
X94885505Y-50764475D01*
X106568815Y-39081183D01*
X112410496Y-33239538D01*
X118252210Y-27397894D01*
X84480092Y812807D02*
X83704549Y43988D01*
X83499617Y-159174D01*
X82989798Y-664587D01*
X82479955Y-1170000D01*
X84480092Y-57170012D02*
X94480063Y-47170033D01*
X104480047Y-37170042D01*
X84480092Y-59170019D02*
X86426642Y-57223468D01*
X102215354Y-41434761D01*
X110109741Y-33540407D01*
X118004163Y-25646055D01*
X84480092Y-63170004D02*
X118461629Y-29188429D01*
X86480100Y812807D02*
X85937114Y274513D01*
X85487884Y-170876D01*
X84984013Y-670438D01*
X84480092Y-1170000D01*
X86480100Y-5170000D02*
X83230103Y-8419999D01*
X58855104Y-32795006D01*
X46667576Y-44982509D01*
X34480016Y-57170012D01*
X86480100Y-63170004D02*
X90480115Y-59170019D01*
X88480108Y812807D02*
X87725501Y64681D01*
X87464704Y-193865D01*
X86972390Y-681933D01*
X86480100Y-1170000D01*
X88480108Y-1170000D02*
X89175601Y-474439D01*
X90200653Y550605D01*
X90256612Y606562D01*
X88480108Y-3170000D02*
X89462140Y-2187966D01*
X90231985Y-1418082D01*
X91122258Y-527766D01*
X92012578Y362551D01*
X90480115Y-61170012D02*
X89930799Y-61719300D01*
X89463853Y-62186264D01*
X88972004Y-62678132D01*
X88480108Y-63170004D01*
X92480123Y-57170012D02*
X103427807Y-46222339D01*
X118480878Y-31169283D01*
X92480123Y-61170012D02*
X91826108Y-61824025D01*
X91587568Y-62062576D01*
X91171960Y-62478202D01*
X90756330Y-62893828D01*
X94480130Y-57170012D02*
X100773054Y-50877111D01*
X110462534Y-41187547D01*
X118424421Y-33225584D01*
X94480130Y-61170012D02*
X94037632Y-61612495D01*
X93604894Y-62045219D01*
X93388499Y-62261581D01*
X93172071Y-62477942D01*
X96480138Y-57170012D02*
X104102062Y-49548020D01*
X111141760Y-42508256D01*
X114661635Y-38988375D01*
X118181539Y-35468496D01*
X96480138Y-61170012D02*
X96249546Y-61400615D01*
X96193898Y-61456259D01*
X96034249Y-61615901D01*
X95874624Y-61775549D01*
X98480146Y-37170042D02*
X93009242Y-42640906D01*
X88318747Y-47331323D01*
X83399320Y-52250669D01*
X78479940Y-57170012D01*
X98480146Y-57170012D02*
X105613583Y-50036558D01*
X108380196Y-47269925D01*
X113079123Y-42570967D01*
X117778074Y-37872008D01*
X98480146Y-59170019D02*
X107403976Y-50246184D01*
X112244718Y-45405429D01*
X117085485Y-40564673D01*
X99024175Y-60625937D02*
X103575863Y-56074240D01*
X107591178Y-52058962D01*
X111742396Y-47907783D01*
X115893567Y-43756605D01*
X100480031Y-17169985D02*
X109108701Y-8541342D01*
X100480031Y-21169977D02*
X83761390Y-37888673D01*
X78266742Y-43383328D01*
X58480115Y-63170004D01*
X100480031Y-25170057D02*
X100562794Y-25087296D01*
X102521468Y-23128640D01*
X103500775Y-22149310D01*
X104480047Y-21169977D01*
X100480031Y-29170050D02*
X91306206Y-38343949D01*
X77900650Y-51749505D01*
X66480146Y-63170004D01*
X102480039Y-17169985D02*
X110101667Y-9548449D01*
X102480039Y-21169977D02*
X90945370Y-32704666D01*
X80963619Y-42686391D01*
X70721783Y-52928199D01*
X60479993Y-63170004D01*
X102480039Y-25170057D02*
X104325400Y-23324673D01*
X113552625Y-14097342D01*
X102480039Y-33170042D02*
X106198566Y-29451484D01*
X109357555Y-26292513D01*
X112809618Y-22840468D01*
X116261632Y-19388422D01*
X102480039Y-37170042D02*
X94346003Y-45304037D01*
X92479991Y-47170033D01*
X87479961Y-52170024D01*
X82479955Y-57170012D01*
X103167981Y-58482100D02*
X107010836Y-54639228D01*
X112825485Y-48824668D01*
X113824567Y-47825606D01*
X104480047Y-17169985D02*
X106699370Y-14950709D01*
X108853892Y-12796234D01*
X109931126Y-11718995D01*
X111008329Y-10641756D01*
X104480047Y-25170057D02*
X107165348Y-22484772D01*
X109302229Y-20347866D01*
X111799407Y-17850659D01*
X114296636Y-15353453D01*
X104480047Y-33170042D02*
X116783819Y-20866194D01*
X106480054Y-17169985D02*
X108367431Y-15282604D01*
X110134472Y-13515563D01*
X111017965Y-12632041D01*
X111901426Y-11748518D01*
X106480054Y-19169977D02*
X108839841Y-16810218D01*
X111842209Y-13807981D01*
X112654515Y-12995718D01*
X112747373Y-12902865D01*
X106480054Y-25170057D02*
X108754451Y-22895646D01*
X110703450Y-20946679D01*
X112855018Y-18795145D01*
X115006536Y-16643610D01*
X106480054Y-27170057D02*
X111077940Y-22572133D01*
X115634404Y-18015631D01*
X106480054Y-33170042D02*
X117248777Y-22401369D01*
X106480054Y-35170042D02*
X117667615Y-23982607D01*
X110480390Y-71170012D02*
X110499546Y-67578204D01*
X110523053Y-63170027D01*
X138267659Y-65382521D02*
X132128003Y-71522253D01*
X128674444Y-74975851D01*
X138480047Y-117170111D02*
X137325876Y-118324256D01*
X136322804Y-119327349D01*
X135189698Y-120460478D01*
X134056539Y-121593603D01*
X138480306Y-115170126D02*
X138480305Y-115170127D01*
X135755873Y-117894485D01*
X134393690Y-119256663D01*
X133031545Y-120618841D01*
X140480184Y-117170111D02*
X138687691Y-118962635D01*
X136901690Y-120748666D01*
X136008715Y-121641684D01*
X135115773Y-122534704D01*
X142480062Y-117170111D02*
X140026605Y-119623575D01*
X139129035Y-120521159D01*
X136213903Y-123436316D01*
X142958974Y-62691389D02*
X134452024Y-71198286D01*
X126023832Y-79626425D01*
X144480199Y-117170111D02*
X143878620Y-117771686D01*
X140612980Y-121037318D01*
X138980191Y-122670133D01*
X137347432Y-124302954D01*
X146392751Y-61257467D02*
X134021841Y-73628363D01*
X124580892Y-83069304D01*
D16*
X146480687Y-35170096D02*
X152498998Y-35170096D01*
D10*
X149289983Y-60360426D02*
X137818622Y-71831799D01*
X123670614Y-85979818D01*
X151847066Y-59803061D02*
X145520024Y-66130176D01*
X137195693Y-74454512D01*
X130152453Y-81497752D01*
X123109281Y-88540991D01*
X154268499Y-59381849D02*
X122731778Y-90918684D01*
X154480108Y-117170111D02*
X143662282Y-127988073D01*
X154480367Y-115170126D02*
X142315725Y-127334601D01*
X156479985Y-117170111D02*
X152401228Y-121248878D01*
X148735679Y-124914433D01*
X146902930Y-126747212D01*
X145070211Y-128579992D01*
X156480123Y-59170019D02*
X147460948Y-68189245D01*
X139542390Y-76107802D01*
X131041783Y-84608409D01*
X122541227Y-93109015D01*
X158480123Y-117170111D02*
X146516378Y-129134039D01*
X158480260Y-59170019D02*
X122491613Y-95158796D01*
X160411916Y-59238424D02*
X150368525Y-69281761D01*
X137551327Y-82098985D01*
X134393070Y-85257255D01*
X122548719Y-97101645D01*
X160480001Y-117170111D02*
X155800554Y-121849588D01*
X148670722Y-128979583D01*
X148480214Y-129170096D01*
X162298375Y-59352041D02*
X143078452Y-78571955D01*
X132883531Y-88766861D01*
X122688634Y-98961767D01*
X164060537Y-59589705D02*
X153267629Y-70382668D01*
X143526845Y-80123454D01*
X133222498Y-90427803D01*
X122918203Y-100732153D01*
X165759786Y-59890692D02*
X151115587Y-74534890D01*
X137171301Y-88479173D01*
X130199186Y-95451313D01*
X123227102Y-102423453D01*
X167359563Y-60290747D02*
X155899878Y-71750413D01*
X145195798Y-82454526D01*
X134396021Y-93254335D01*
X123596196Y-104054144D01*
X168938283Y-60712134D02*
X151904087Y-77746364D01*
X145125813Y-84524665D01*
X124039968Y-105610571D01*
X170437291Y-61213026D02*
X124521856Y-107128561D01*
X170480169Y-115170126D02*
X165826216Y-119824067D01*
X161153190Y-124497081D01*
X158816702Y-126833589D01*
X156480245Y-129170096D01*
X170480169Y-117170111D02*
X165781738Y-121868572D01*
X158480421Y-129170057D01*
X158480382Y-129170096D01*
X171896627Y-61753538D02*
X125076239Y-108573972D01*
X125076215Y-108573996D01*
X172480062Y-117170111D02*
X168044306Y-121605882D01*
X162457472Y-127192832D01*
X160480295Y-129170061D01*
X160480260Y-129170096D01*
X173296804Y-62353560D02*
X156240353Y-79410004D01*
X148114676Y-87535696D01*
X136894081Y-98756308D01*
X125673467Y-109976919D01*
X174480199Y-117170111D02*
X170028285Y-121622041D01*
X164402977Y-127247465D01*
X162567385Y-129083105D01*
X162480397Y-129170096D01*
X174658864Y-62991278D02*
X161642833Y-76007379D01*
X150858723Y-86791507D01*
X138592471Y-99057781D01*
X126326268Y-111324057D01*
X175959173Y-63691130D02*
X163345711Y-76304585D01*
X150403652Y-89246696D01*
X138705725Y-100944672D01*
X127007756Y-112642645D01*
X176480077Y-117170111D02*
X172646480Y-121003786D01*
X166925100Y-126725170D01*
X162717733Y-130932532D01*
X177223180Y-64427054D02*
X164854462Y-76795815D01*
X127748281Y-113902151D01*
X178447774Y-65202604D02*
X158146337Y-85503973D01*
X151731432Y-91918865D01*
X128530401Y-115119833D01*
X179623418Y-66026671D02*
X163089654Y-82560494D01*
X146216155Y-99434054D01*
X137779434Y-107870837D01*
X129342748Y-116307623D01*
X180768438Y-66881804D02*
X157268681Y-90381638D01*
X143735329Y-103915025D01*
X130202001Y-117448416D01*
X181856878Y-67793409D02*
X163496626Y-86153622D01*
X155094039Y-94556207D01*
X143106528Y-106543715D01*
X131118993Y-118531225D01*
X182913793Y-68736593D02*
X161363554Y-90286894D01*
X155390055Y-96260418D01*
X132060415Y-119590140D01*
X183941121Y-69709158D02*
X171859426Y-81790912D01*
X154319730Y-99330588D01*
X140480184Y-113170111D01*
X184919347Y-70730826D02*
X156626487Y-99023687D01*
X142480062Y-113170111D01*
X185854955Y-71795424D02*
X170097253Y-87553053D01*
X146878732Y-110771576D01*
X144480199Y-113170111D01*
X186758001Y-72892294D02*
X171815070Y-87835138D01*
X150454860Y-109195328D01*
X146480077Y-113170111D01*
X187616216Y-74034109D02*
X146480336Y-115170126D01*
X188242147Y-115408285D02*
X183285954Y-120364446D01*
X178660177Y-124990194D01*
X188443822Y-75206312D02*
X174362923Y-89287260D01*
X155395830Y-108254324D01*
X138523198Y-125126928D01*
X189226201Y-76424078D02*
X181633863Y-84016435D01*
X160689448Y-104960891D01*
X150217215Y-115433118D01*
X139744954Y-125905340D01*
X189956640Y-77693495D02*
X179393163Y-88256946D01*
X166125922Y-101524237D01*
X153563346Y-114086862D01*
X147282033Y-120368173D01*
X141000692Y-126649481D01*
X190651052Y-78999380D02*
X181686869Y-87963492D01*
X169468210Y-100182149D01*
X156480245Y-113170111D01*
X190962789Y-110687430D02*
X185292135Y-116358099D01*
X179641883Y-122008366D01*
X176816785Y-124833500D01*
X173991720Y-127658636D01*
X191309926Y-80340254D02*
X158480123Y-113170111D01*
X191899297Y-81750891D02*
X160480001Y-113170111D01*
X192416829Y-107233618D02*
X184773186Y-114877298D01*
X180935604Y-118714880D01*
X175754132Y-123896352D01*
X170572683Y-129077826D01*
X192452489Y-83197844D02*
X162480138Y-113170111D01*
X192942251Y-84707869D02*
X174810042Y-102840162D01*
X162480138Y-115170126D01*
X193302572Y-104347693D02*
X187140733Y-110509533D01*
X180850739Y-116799586D01*
X174665541Y-122984844D01*
X168480291Y-129170096D01*
X193377233Y-86273016D02*
X182212172Y-97438112D01*
X170903017Y-108747244D01*
X160247112Y-119403127D01*
X149591253Y-130059012D01*
X193755513Y-87894552D02*
X179884260Y-101765839D01*
X151217000Y-130433157D01*
X193862096Y-101788290D02*
X165088506Y-130561865D01*
X194061055Y-89589163D02*
X152918325Y-130732046D01*
X194216207Y-99434042D02*
X178480214Y-115170126D01*
X194289968Y-91360144D02*
X172480062Y-113170111D01*
X194416448Y-97233984D02*
X189646054Y-102004321D01*
X184063090Y-107587221D01*
X181271634Y-110378669D01*
X178480214Y-113170111D01*
X194433126Y-93217215D02*
X187057549Y-100592767D01*
X183801833Y-103848487D01*
X174480199Y-113170111D01*
X194488286Y-95162008D02*
X184172904Y-105477326D01*
X176480077Y-113170111D01*
X222480535Y-71170073D02*
X222480535Y-63170004D01*
X238480520Y-71170073D02*
X238480520Y-63170004D01*
M02*
