%TF.GenerationSoftware,KiCad,Pcbnew,10.0.4*%
%TF.CreationDate,2026-09-10T11:42:50+10:00*%
%TF.ProjectId,VCO_panel,56434f5f-7061-46e6-956c-2e6b69636164,rev?*%
%TF.SameCoordinates,Original*%
%TF.FileFunction,Legend,Bot*%
%TF.FilePolarity,Positive*%
%FSLAX46Y46*%
G04 Gerber Fmt 4.6, Leading zero omitted, Abs format (unit mm)*
G04 Created by KiCad (PCBNEW 10.0.4) date 2026-09-10 11:42:50*
%MOMM*%
%LPD*%
G01*
G04 APERTURE LIST*
%ADD10C,0.100000*%
%ADD11C,0.500000*%
G04 APERTURE END LIST*
D10*
X215150000Y-6250000D02*
X223150000Y-6250000D01*
X223150000Y-14250000D01*
X215150000Y-14250000D01*
X215150000Y-6250000D01*
G36*
X215150000Y-6250000D02*
G01*
X223150000Y-6250000D01*
X223150000Y-14250000D01*
X215150000Y-14250000D01*
X215150000Y-6250000D01*
G37*
%LPC*%
D11*
%TO.C,KiKit_MB_7_7*%
X124766667Y-32500000D03*
%TD*%
%TO.C,KiKit_MB_4_2*%
X63666667Y-60250000D03*
%TD*%
%TO.C,KiKit_MB_11_7*%
X124766667Y-90500000D03*
%TD*%
%TO.C,KiKit_MB_14_6*%
X191500000Y-34750000D03*
%TD*%
%TO.C,KiKit_MB_18_7*%
X191500000Y-93500000D03*
%TD*%
%TO.C,KiKit_MB_13_6*%
X188683333Y-33250000D03*
%TD*%
%TO.C,KiKit_MB_6_8*%
X63666667Y-94250000D03*
%TD*%
%TO.C,KiKit_MB_16_7*%
X191500000Y-64000000D03*
%TD*%
%TO.C,KiKit_MB_14_3*%
X191500000Y-32500000D03*
%TD*%
%TO.C,KiKit_MB_17_2*%
X188683333Y-94250000D03*
%TD*%
%TO.C,KiKit_MB_16_3*%
X191500000Y-61000000D03*
%TD*%
%TO.C,KiKit_MB_13_8*%
X188683333Y-31750000D03*
%TD*%
%TO.C,KiKit_MB_12_7*%
X127583333Y-93500000D03*
%TD*%
%TO.C,KiKit_MB_10_3*%
X127583333Y-61000000D03*
%TD*%
%TO.C,KiKit_MB_6_6*%
X63666667Y-92750000D03*
%TD*%
%TO.C,KiKit_MB_7_8*%
X124766667Y-31750000D03*
%TD*%
%TO.C,KiKit_MB_5_5*%
X60850000Y-92000000D03*
%TD*%
%TO.C,KiKit_MB_9_7*%
X124766667Y-61000000D03*
%TD*%
%TO.C,KiKit_MB_5_4*%
X60850000Y-92750000D03*
%TD*%
%TO.C,KiKit_MB_1_8*%
X60850000Y-31750000D03*
%TD*%
%TO.C,KiKit_MB_10_8*%
X127583333Y-64750000D03*
%TD*%
%TO.C,KiKit_MB_8_8*%
X127583333Y-36250000D03*
%TD*%
%TO.C,KiKit_MB_15_6*%
X188683333Y-61750000D03*
%TD*%
%TO.C,KiKit_MB_7_6*%
X124766667Y-33250000D03*
%TD*%
%TO.C,KiKit_MB_3_7*%
X60850000Y-61000000D03*
%TD*%
%TO.C,KiKit_MB_3_5*%
X60850000Y-62500000D03*
%TD*%
%TO.C,KiKit_MB_14_8*%
X191500000Y-36250000D03*
%TD*%
%TO.C,KiKit_MB_16_6*%
X191500000Y-63250000D03*
%TD*%
%TO.C,KiKit_MB_11_2*%
X124766667Y-94250000D03*
%TD*%
%TO.C,KiKit_MB_6_3*%
X63666667Y-90500000D03*
%TD*%
%TO.C,KiKit_MB_7_3*%
X124766667Y-35500000D03*
%TD*%
%TO.C,KiKit_MB_5_2*%
X60850000Y-94250000D03*
%TD*%
%TO.C,KiKit_MB_15_8*%
X188683333Y-60250000D03*
%TD*%
%TO.C,KiKit_MB_5_8*%
X60850000Y-89750000D03*
%TD*%
%TO.C,KiKit_MB_15_4*%
X188683333Y-63250000D03*
%TD*%
%TO.C,KiKit_MB_1_2*%
X60850000Y-36250000D03*
%TD*%
%TO.C,KiKit_MB_6_4*%
X63666667Y-91250000D03*
%TD*%
%TO.C,KiKit_MB_17_6*%
X188683333Y-91250000D03*
%TD*%
%TO.C,KiKit_MB_8_7*%
X127583333Y-35500000D03*
%TD*%
%TO.C,KiKit_MB_18_5*%
X191500000Y-92000000D03*
%TD*%
%TO.C,KiKit_MB_12_5*%
X127583333Y-92000000D03*
%TD*%
%TO.C,KiKit_MB_12_6*%
X127583333Y-92750000D03*
%TD*%
%TO.C,KiKit_MB_2_5*%
X63666667Y-34000000D03*
%TD*%
%TO.C,KiKit_MB_11_8*%
X124766667Y-89750000D03*
%TD*%
%TO.C,KiKit_MB_17_3*%
X188683333Y-93500000D03*
%TD*%
%TO.C,KiKit_MB_8_4*%
X127583333Y-33250000D03*
%TD*%
%TO.C,KiKit_MB_8_6*%
X127583333Y-34750000D03*
%TD*%
%TO.C,KiKit_MB_5_7*%
X60850000Y-90500000D03*
%TD*%
%TO.C,KiKit_MB_14_5*%
X191500000Y-34000000D03*
%TD*%
%TO.C,KiKit_MB_4_6*%
X63666667Y-63250000D03*
%TD*%
%TO.C,KiKit_MB_17_4*%
X188683333Y-92750000D03*
%TD*%
%TO.C,KiKit_MB_18_3*%
X191500000Y-90500000D03*
%TD*%
%TO.C,KiKit_MB_3_6*%
X60850000Y-61750000D03*
%TD*%
%TO.C,KiKit_MB_7_2*%
X124766667Y-36250000D03*
%TD*%
%TO.C,KiKit_MB_7_5*%
X124766667Y-34000000D03*
%TD*%
%TO.C,KiKit_MB_9_8*%
X124766667Y-60250000D03*
%TD*%
%TO.C,KiKit_MB_16_2*%
X191500000Y-60250000D03*
%TD*%
%TO.C,KiKit_MB_7_4*%
X124766667Y-34750000D03*
%TD*%
%TO.C,KiKit_MB_5_6*%
X60850000Y-91250000D03*
%TD*%
%TO.C,KiKit_MB_4_3*%
X63666667Y-61000000D03*
%TD*%
%TO.C,KiKit_MB_14_4*%
X191500000Y-33250000D03*
%TD*%
%TO.C,KiKit_MB_18_4*%
X191500000Y-91250000D03*
%TD*%
%TO.C,KiKit_MB_1_6*%
X60850000Y-33250000D03*
%TD*%
%TO.C,KiKit_MB_4_5*%
X63666667Y-62500000D03*
%TD*%
%TO.C,KiKit_MB_15_5*%
X188683333Y-62500000D03*
%TD*%
%TO.C,KiKit_MB_17_5*%
X188683333Y-92000000D03*
%TD*%
%TO.C,KiKit_MB_2_6*%
X63666667Y-34750000D03*
%TD*%
%TO.C,KiKit_MB_6_7*%
X63666667Y-93500000D03*
%TD*%
%TO.C,KiKit_MB_10_6*%
X127583333Y-63250000D03*
%TD*%
%TO.C,KiKit_MB_11_5*%
X124766667Y-92000000D03*
%TD*%
%TO.C,KiKit_MB_3_3*%
X60850000Y-64000000D03*
%TD*%
%TO.C,KiKit_MB_1_3*%
X60850000Y-35500000D03*
%TD*%
%TO.C,KiKit_MB_6_2*%
X63666667Y-89750000D03*
%TD*%
%TO.C,KiKit_MB_3_4*%
X60850000Y-63250000D03*
%TD*%
%TO.C,KiKit_MB_1_7*%
X60850000Y-32500000D03*
%TD*%
%TO.C,KiKit_MB_11_6*%
X124766667Y-91250000D03*
%TD*%
%TO.C,KiKit_MB_8_2*%
X127583333Y-31750000D03*
%TD*%
%TO.C,KiKit_MB_17_7*%
X188683333Y-90500000D03*
%TD*%
%TO.C,KiKit_MB_13_4*%
X188683333Y-34750000D03*
%TD*%
%TO.C,KiKit_MB_2_2*%
X63666667Y-31750000D03*
%TD*%
%TO.C,KiKit_MB_11_4*%
X124766667Y-92750000D03*
%TD*%
%TO.C,KiKit_MB_17_8*%
X188683333Y-89750000D03*
%TD*%
%TO.C,KiKit_MB_9_6*%
X124766667Y-61750000D03*
%TD*%
%TO.C,KiKit_MB_2_7*%
X63666667Y-35500000D03*
%TD*%
%TO.C,KiKit_MB_8_5*%
X127583333Y-34000000D03*
%TD*%
%TO.C,KiKit_MB_13_5*%
X188683333Y-34000000D03*
%TD*%
%TO.C,KiKit_MB_13_2*%
X188683333Y-36250000D03*
%TD*%
%TO.C,KiKit_MB_1_5*%
X60850000Y-34000000D03*
%TD*%
%TO.C,KiKit_MB_13_7*%
X188683333Y-32500000D03*
%TD*%
%TO.C,KiKit_MB_4_7*%
X63666667Y-64000000D03*
%TD*%
%TO.C,KiKit_MB_3_8*%
X60850000Y-60250000D03*
%TD*%
%TO.C,KiKit_MB_16_5*%
X191500000Y-62500000D03*
%TD*%
%TO.C,KiKit_MB_16_4*%
X191500000Y-61750000D03*
%TD*%
%TO.C,KiKit_MB_12_4*%
X127583333Y-91250000D03*
%TD*%
%TO.C,KiKit_MB_8_3*%
X127583333Y-32500000D03*
%TD*%
%TO.C,KiKit_MB_12_8*%
X127583333Y-94250000D03*
%TD*%
%TO.C,KiKit_MB_10_2*%
X127583333Y-60250000D03*
%TD*%
%TO.C,KiKit_MB_12_3*%
X127583333Y-90500000D03*
%TD*%
%TO.C,KiKit_MB_9_3*%
X124766667Y-64000000D03*
%TD*%
%TO.C,KiKit_MB_15_2*%
X188683333Y-64750000D03*
%TD*%
%TO.C,KiKit_MB_14_7*%
X191500000Y-35500000D03*
%TD*%
%TO.C,KiKit_MB_9_5*%
X124766667Y-62500000D03*
%TD*%
%TO.C,KiKit_MB_16_8*%
X191500000Y-64750000D03*
%TD*%
%TO.C,KiKit_MB_11_3*%
X124766667Y-93500000D03*
%TD*%
%TO.C,KiKit_MB_13_3*%
X188683333Y-35500000D03*
%TD*%
%TO.C,KiKit_MB_1_4*%
X60850000Y-34750000D03*
%TD*%
%TO.C,KiKit_MB_6_5*%
X63666667Y-92000000D03*
%TD*%
%TO.C,KiKit_MB_9_4*%
X124766667Y-63250000D03*
%TD*%
%TO.C,KiKit_MB_18_6*%
X191500000Y-92750000D03*
%TD*%
%TO.C,KiKit_MB_2_8*%
X63666667Y-36250000D03*
%TD*%
%TO.C,KiKit_MB_9_2*%
X124766667Y-64750000D03*
%TD*%
%TO.C,KiKit_MB_2_4*%
X63666667Y-33250000D03*
%TD*%
%TO.C,KiKit_MB_4_4*%
X63666667Y-61750000D03*
%TD*%
%TO.C,KiKit_MB_10_5*%
X127583333Y-62500000D03*
%TD*%
%TO.C,KiKit_MB_2_3*%
X63666667Y-32500000D03*
%TD*%
%TO.C,KiKit_MB_10_4*%
X127583333Y-61750000D03*
%TD*%
%TO.C,KiKit_MB_15_7*%
X188683333Y-61000000D03*
%TD*%
%TO.C,KiKit_MB_18_8*%
X191500000Y-94250000D03*
%TD*%
%TO.C,KiKit_MB_12_2*%
X127583333Y-89750000D03*
%TD*%
%TO.C,KiKit_MB_15_3*%
X188683333Y-64000000D03*
%TD*%
%TO.C,KiKit_MB_4_8*%
X63666667Y-64750000D03*
%TD*%
%TO.C,KiKit_MB_14_2*%
X191500000Y-31750000D03*
%TD*%
%TO.C,KiKit_MB_3_2*%
X60850000Y-64750000D03*
%TD*%
%TO.C,KiKit_MB_5_3*%
X60850000Y-93500000D03*
%TD*%
%TO.C,KiKit_MB_10_7*%
X127583333Y-64000000D03*
%TD*%
%TO.C,KiKit_MB_18_2*%
X191500000Y-89750000D03*
%TD*%
%LPD*%
M02*
