%TF.GenerationSoftware,KiCad,Pcbnew,10.0.4*%
%TF.CreationDate,2026-09-10T16:31:44+10:00*%
%TF.ProjectId,VCO_panel,56434f5f-7061-46e6-956c-2e6b69636164,rev?*%
%TF.SameCoordinates,Original*%
%TF.FileFunction,Copper,L1,Top*%
%TF.FilePolarity,Positive*%
%FSLAX46Y46*%
G04 Gerber Fmt 4.6, Leading zero omitted, Abs format (unit mm)*
G04 Created by KiCad (PCBNEW 10.0.4) date 2026-09-10 16:31:44*
%MOMM*%
%LPD*%
G01*
G04 APERTURE LIST*
%ADD10C,0.247226*%
%TA.AperFunction,NonConductor*%
%ADD11C,0.247226*%
%TD*%
%TA.AperFunction,NonConductor*%
%ADD12C,0.246294*%
%TD*%
%TA.AperFunction,NonConductor*%
%ADD13C,0.246424*%
%TD*%
%TA.AperFunction,NonConductor*%
%ADD14C,0.246297*%
%TD*%
%TA.AperFunction,NonConductor*%
%ADD15C,0.205740*%
%TD*%
%TA.AperFunction,NonConductor*%
%ADD16C,0.247116*%
%TD*%
G04 APERTURE END LIST*
D10*
X-1850290Y-2188082D02*
X-1099959Y-1437812D01*
X-861292Y-1199155D01*
X-355735Y-693622D01*
X149847Y-188090D01*
X-1850290Y-6188082D02*
X-876310Y-5214168D01*
X-363244Y-4701125D01*
X149847Y-4188082D01*
X-1850290Y-10188075D02*
X-417653Y-8755456D01*
X156544Y-8181253D01*
X1153123Y-7184666D01*
X2149726Y-6188082D01*
D11*
X-1850290Y-20188059D02*
X12149767Y-6188082D01*
D10*
X-1850290Y-22188059D02*
X4174262Y-16163548D01*
X6149743Y-14188071D01*
X10149747Y-10188076D01*
X14149776Y-6188082D01*
X-1850290Y-26188139D02*
X5624358Y-18713490D01*
X8377026Y-15960833D01*
X13263421Y-11074457D01*
X18149791Y-6188082D01*
X-1850290Y-30188132D02*
X11483095Y-16854774D01*
X22149808Y-6188082D01*
X-1850290Y-36188124D02*
X-486646Y-34824484D01*
X16831587Y-17506284D01*
X25490674Y-8847186D01*
X34149726Y-188090D01*
X-1850290Y-38188124D02*
X15249721Y-21088109D01*
X36149737Y-188090D01*
X-1850290Y-42188117D02*
X9615786Y-30722022D01*
X19274980Y-21062854D01*
X29712390Y-10625472D01*
X40149753Y-188090D01*
X-1850290Y-46188109D02*
X16616631Y-27721261D01*
X21051931Y-23285972D01*
X32600902Y-11737032D01*
X44149898Y-188090D01*
X-1850290Y-50188101D02*
X11693130Y-36644638D01*
X23296453Y-25041323D01*
X35723078Y-12614706D01*
X48149654Y-188090D01*
X-1850290Y-54188101D02*
X18636983Y-33700800D01*
X26221120Y-26116664D01*
X52149673Y-188090D01*
X-1850290Y-56188101D02*
X281301Y-54056516D01*
X17215559Y-37122289D01*
X25682659Y-28655175D01*
X34149726Y-20188059D01*
D11*
X-1850290Y-58188094D02*
X34149726Y-22188059D01*
X-1850290Y-60188101D02*
X36149737Y-22188059D01*
X-1850290Y-64188086D02*
X34149726Y-28188139D01*
D12*
X31784564Y-113699568D02*
X31911108Y-113709190D01*
X32035812Y-113725036D01*
X32158519Y-113746949D01*
X32279073Y-113774772D01*
X32397318Y-113808349D01*
X32513097Y-113847523D01*
X32626252Y-113892138D01*
X32736629Y-113942037D01*
X32844069Y-113997063D01*
X32948417Y-114057061D01*
X33049516Y-114121872D01*
X33147210Y-114191342D01*
X33241341Y-114265313D01*
X33331754Y-114343629D01*
X33418292Y-114426133D01*
X33500797Y-114512668D01*
X33579115Y-114603079D01*
X33653088Y-114697207D01*
X33722559Y-114794898D01*
X33787372Y-114895994D01*
X33847370Y-115000339D01*
X33902398Y-115107776D01*
X33952298Y-115218149D01*
X33996913Y-115331301D01*
X34036088Y-115447075D01*
X34069665Y-115565315D01*
X34097489Y-115685865D01*
X34119402Y-115808567D01*
X34135248Y-115933265D01*
X34144870Y-116059804D01*
X34148112Y-116188025D01*
X34148112Y-116188391D01*
X34144870Y-116316611D01*
X34135248Y-116443148D01*
X34119402Y-116567846D01*
X34097489Y-116690547D01*
X34069665Y-116811096D01*
X34036088Y-116929336D01*
X33996913Y-117045109D01*
X33952298Y-117158261D01*
X33902398Y-117268633D01*
X33847370Y-117376070D01*
X33787372Y-117480415D01*
X33722559Y-117581511D01*
X33653088Y-117679202D01*
X33579115Y-117773331D01*
X33500797Y-117863742D01*
X33418292Y-117950278D01*
X33331754Y-118032782D01*
X33241341Y-118111098D01*
X33147210Y-118185070D01*
X33049516Y-118254540D01*
X32948417Y-118319352D01*
X32844069Y-118379350D01*
X32736629Y-118434377D01*
X32626252Y-118484276D01*
X32513097Y-118528892D01*
X32397318Y-118568066D01*
X32279073Y-118601643D01*
X32158519Y-118629467D01*
X32035812Y-118651380D01*
X31911108Y-118667226D01*
X31784564Y-118676848D01*
X31656337Y-118680090D01*
X28639854Y-118680090D01*
X28511629Y-118676848D01*
X28385088Y-118667226D01*
X28260386Y-118651380D01*
X28137680Y-118629467D01*
X28017126Y-118601643D01*
X27898882Y-118568066D01*
X27783104Y-118528892D01*
X27669948Y-118484276D01*
X27559571Y-118434377D01*
X27452129Y-118379350D01*
X27347780Y-118319352D01*
X27246680Y-118254540D01*
X27148984Y-118185070D01*
X27054851Y-118111098D01*
X26964436Y-118032782D01*
X26877896Y-117950278D01*
X26795388Y-117863742D01*
X26717068Y-117773331D01*
X26643094Y-117679202D01*
X26573620Y-117581511D01*
X26508804Y-117480415D01*
X26448804Y-117376070D01*
X26393774Y-117268633D01*
X26343872Y-117158261D01*
X26299254Y-117045109D01*
X26260078Y-116929336D01*
X26226499Y-116811096D01*
X26198674Y-116690547D01*
X26176760Y-116567846D01*
X26160913Y-116443148D01*
X26151290Y-116316611D01*
X26148048Y-116188391D01*
X26148048Y-116188025D01*
X26151290Y-116059804D01*
X26160913Y-115933265D01*
X26176760Y-115808567D01*
X26198674Y-115685865D01*
X26226499Y-115565315D01*
X26260078Y-115447075D01*
X26299254Y-115331301D01*
X26343872Y-115218149D01*
X26393774Y-115107776D01*
X26448804Y-115000339D01*
X26508804Y-114895994D01*
X26573620Y-114794898D01*
X26643094Y-114697207D01*
X26717068Y-114603079D01*
X26795388Y-114512668D01*
X26877896Y-114426133D01*
X26964436Y-114343629D01*
X27054851Y-114265313D01*
X27148984Y-114191342D01*
X27246680Y-114121872D01*
X27347780Y-114057061D01*
X27452129Y-113997063D01*
X27559571Y-113942037D01*
X27669948Y-113892138D01*
X27783104Y-113847523D01*
X27898882Y-113808349D01*
X28017126Y-113774772D01*
X28137680Y-113746949D01*
X28260386Y-113725036D01*
X28385088Y-113709190D01*
X28511629Y-113699568D01*
X28639854Y-113696326D01*
X31656337Y-113696326D01*
X31784564Y-113699568D01*
X47786761Y-113699568D02*
X47913305Y-113709190D01*
X48038009Y-113725036D01*
X48160716Y-113746949D01*
X48281271Y-113774772D01*
X48399515Y-113808349D01*
X48515294Y-113847523D01*
X48628449Y-113892138D01*
X48738826Y-113942037D01*
X48846266Y-113997063D01*
X48950614Y-114057061D01*
X49051714Y-114121872D01*
X49149407Y-114191342D01*
X49243539Y-114265313D01*
X49333951Y-114343629D01*
X49420489Y-114426133D01*
X49502995Y-114512668D01*
X49581312Y-114603079D01*
X49655285Y-114697207D01*
X49724756Y-114794898D01*
X49789569Y-114895994D01*
X49849568Y-115000339D01*
X49904595Y-115107776D01*
X49954495Y-115218149D01*
X49999110Y-115331301D01*
X50038285Y-115447075D01*
X50071863Y-115565315D01*
X50099686Y-115685865D01*
X50121599Y-115808567D01*
X50137445Y-115933265D01*
X50147067Y-116059804D01*
X50150310Y-116188025D01*
X50150310Y-116188391D01*
X50147067Y-116316611D01*
X50137445Y-116443148D01*
X50121599Y-116567846D01*
X50099686Y-116690547D01*
X50071863Y-116811096D01*
X50038285Y-116929336D01*
X49999110Y-117045109D01*
X49954495Y-117158261D01*
X49904595Y-117268633D01*
X49849568Y-117376070D01*
X49789569Y-117480415D01*
X49724756Y-117581511D01*
X49655285Y-117679202D01*
X49581312Y-117773331D01*
X49502995Y-117863742D01*
X49420489Y-117950278D01*
X49333951Y-118032782D01*
X49243539Y-118111098D01*
X49149407Y-118185070D01*
X49051714Y-118254540D01*
X48950614Y-118319352D01*
X48846266Y-118379350D01*
X48738826Y-118434377D01*
X48628449Y-118484276D01*
X48515294Y-118528892D01*
X48399515Y-118568066D01*
X48281271Y-118601643D01*
X48160716Y-118629467D01*
X48038009Y-118651380D01*
X47913305Y-118667226D01*
X47786761Y-118676848D01*
X47658534Y-118680090D01*
X44642051Y-118680090D01*
X44513827Y-118676848D01*
X44387285Y-118667226D01*
X44262583Y-118651380D01*
X44139877Y-118629467D01*
X44019324Y-118601643D01*
X43901080Y-118568066D01*
X43785301Y-118528892D01*
X43672145Y-118484276D01*
X43561768Y-118434377D01*
X43454327Y-118379350D01*
X43349977Y-118319352D01*
X43248877Y-118254540D01*
X43151182Y-118185070D01*
X43057048Y-118111098D01*
X42966633Y-118032782D01*
X42880094Y-117950278D01*
X42797586Y-117863742D01*
X42719266Y-117773331D01*
X42645291Y-117679202D01*
X42575817Y-117581511D01*
X42511002Y-117480415D01*
X42451001Y-117376070D01*
X42395971Y-117268633D01*
X42346069Y-117158261D01*
X42301452Y-117045109D01*
X42262275Y-116929336D01*
X42228696Y-116811096D01*
X42200871Y-116690547D01*
X42178957Y-116567846D01*
X42163110Y-116443148D01*
X42153487Y-116316611D01*
X42150245Y-116188391D01*
X42150245Y-116188025D01*
X42153487Y-116059804D01*
X42163110Y-115933265D01*
X42178957Y-115808567D01*
X42200871Y-115685865D01*
X42228696Y-115565315D01*
X42262275Y-115447075D01*
X42301452Y-115331301D01*
X42346069Y-115218149D01*
X42395971Y-115107776D01*
X42451001Y-115000339D01*
X42511002Y-114895994D01*
X42575817Y-114794898D01*
X42645291Y-114697207D01*
X42719266Y-114603079D01*
X42797586Y-114512668D01*
X42880094Y-114426133D01*
X42966633Y-114343629D01*
X43057048Y-114265313D01*
X43151182Y-114191342D01*
X43248877Y-114121872D01*
X43349977Y-114057061D01*
X43454327Y-113997063D01*
X43561768Y-113942037D01*
X43672145Y-113892138D01*
X43785301Y-113847523D01*
X43901080Y-113808349D01*
X44019324Y-113774772D01*
X44139877Y-113746949D01*
X44262583Y-113725036D01*
X44387285Y-113709190D01*
X44513827Y-113699568D01*
X44642051Y-113696326D01*
X47658534Y-113696326D01*
X47786761Y-113699568D01*
D13*
X96757213Y-113699568D02*
X96883754Y-113709190D01*
X97008455Y-113725036D01*
X97131160Y-113746949D01*
X97251712Y-113774772D01*
X97369954Y-113808349D01*
X97485731Y-113847523D01*
X97598884Y-113892138D01*
X97709259Y-113942037D01*
X97816697Y-113997063D01*
X97921044Y-114057061D01*
X98022142Y-114121872D01*
X98119834Y-114191342D01*
X98213964Y-114265313D01*
X98304376Y-114343629D01*
X98390912Y-114426133D01*
X98473417Y-114512668D01*
X98551734Y-114603079D01*
X98625706Y-114697207D01*
X98695176Y-114794898D01*
X98759989Y-114895994D01*
X98819987Y-115000339D01*
X98875014Y-115107776D01*
X98924913Y-115218149D01*
X98969528Y-115331301D01*
X99008703Y-115447075D01*
X99042280Y-115565315D01*
X99070103Y-115685865D01*
X99092016Y-115808567D01*
X99107862Y-115933265D01*
X99117484Y-116059804D01*
X99120727Y-116188025D01*
X99120727Y-116188391D01*
X99117484Y-116316611D01*
X99107862Y-116443148D01*
X99092016Y-116567846D01*
X99070103Y-116690547D01*
X99042280Y-116811096D01*
X99008703Y-116929336D01*
X98969528Y-117045109D01*
X98924913Y-117158261D01*
X98875014Y-117268633D01*
X98819987Y-117376070D01*
X98759989Y-117480415D01*
X98695176Y-117581511D01*
X98625706Y-117679202D01*
X98551734Y-117773331D01*
X98473417Y-117863742D01*
X98390912Y-117950278D01*
X98304376Y-118032782D01*
X98213964Y-118111098D01*
X98119834Y-118185070D01*
X98022142Y-118254540D01*
X97921044Y-118319352D01*
X97816697Y-118379350D01*
X97709259Y-118434377D01*
X97598884Y-118484276D01*
X97485731Y-118528892D01*
X97369954Y-118568066D01*
X97251712Y-118601643D01*
X97131160Y-118629467D01*
X97008455Y-118651380D01*
X96883754Y-118667226D01*
X96757213Y-118676848D01*
X96628989Y-118680090D01*
X91671439Y-118680090D01*
X91543218Y-118676848D01*
X91416679Y-118667226D01*
X91291980Y-118651380D01*
X91169277Y-118629467D01*
X91048726Y-118601643D01*
X90930485Y-118568066D01*
X90814709Y-118528892D01*
X90701556Y-118484276D01*
X90591182Y-118434377D01*
X90483743Y-118379350D01*
X90379396Y-118319352D01*
X90278298Y-118254540D01*
X90180605Y-118185070D01*
X90086474Y-118111098D01*
X89996062Y-118032782D01*
X89909524Y-117950278D01*
X89827018Y-117863742D01*
X89748700Y-117773331D01*
X89674727Y-117679202D01*
X89605255Y-117581511D01*
X89540442Y-117480415D01*
X89480442Y-117376070D01*
X89425414Y-117268633D01*
X89375513Y-117158261D01*
X89330897Y-117045109D01*
X89291722Y-116929336D01*
X89258143Y-116811096D01*
X89230319Y-116690547D01*
X89208406Y-116567846D01*
X89192559Y-116443148D01*
X89182937Y-116316611D01*
X89179694Y-116188391D01*
X89179694Y-116188025D01*
X89182937Y-116059804D01*
X89192559Y-115933265D01*
X89208406Y-115808567D01*
X89230319Y-115685865D01*
X89258143Y-115565315D01*
X89291722Y-115447075D01*
X89330897Y-115331301D01*
X89375513Y-115218149D01*
X89425414Y-115107776D01*
X89480442Y-115000339D01*
X89540442Y-114895994D01*
X89605255Y-114794898D01*
X89674727Y-114697207D01*
X89748700Y-114603079D01*
X89827018Y-114512668D01*
X89909524Y-114426133D01*
X89996062Y-114343629D01*
X90086474Y-114265313D01*
X90180605Y-114191342D01*
X90278298Y-114121872D01*
X90379396Y-114057061D01*
X90483743Y-113997063D01*
X90591182Y-113942037D01*
X90701556Y-113892138D01*
X90814709Y-113847523D01*
X90930485Y-113808349D01*
X91048726Y-113774772D01*
X91169277Y-113746949D01*
X91291980Y-113725036D01*
X91416679Y-113709190D01*
X91543218Y-113699568D01*
X91671439Y-113696326D01*
X96628989Y-113696326D01*
X96757213Y-113699568D01*
D14*
X111786694Y-113699568D02*
X111913235Y-113709190D01*
X112037936Y-113725036D01*
X112160642Y-113746949D01*
X112281194Y-113774772D01*
X112399438Y-113808349D01*
X112515215Y-113847523D01*
X112628370Y-113892138D01*
X112738746Y-113942037D01*
X112846186Y-113997063D01*
X112950534Y-114057061D01*
X113051634Y-114121872D01*
X113149327Y-114191342D01*
X113243459Y-114265313D01*
X113333873Y-114343629D01*
X113420411Y-114426133D01*
X113502918Y-114512668D01*
X113581236Y-114603079D01*
X113655210Y-114697207D01*
X113724682Y-114794898D01*
X113789496Y-114895994D01*
X113849496Y-115000339D01*
X113904524Y-115107776D01*
X113954425Y-115218149D01*
X113999042Y-115331301D01*
X114038217Y-115447075D01*
X114071796Y-115565315D01*
X114099620Y-115685865D01*
X114121533Y-115808567D01*
X114137380Y-115933265D01*
X114147002Y-116059804D01*
X114150245Y-116188025D01*
X114150245Y-116188391D01*
X114147002Y-116316611D01*
X114137380Y-116443148D01*
X114121533Y-116567846D01*
X114099620Y-116690547D01*
X114071796Y-116811096D01*
X114038217Y-116929336D01*
X113999042Y-117045109D01*
X113954425Y-117158261D01*
X113904524Y-117268633D01*
X113849496Y-117376070D01*
X113789496Y-117480415D01*
X113724682Y-117581511D01*
X113655210Y-117679202D01*
X113581236Y-117773331D01*
X113502918Y-117863742D01*
X113420411Y-117950278D01*
X113333873Y-118032782D01*
X113243459Y-118111098D01*
X113149327Y-118185070D01*
X113051634Y-118254540D01*
X112950534Y-118319352D01*
X112846186Y-118379350D01*
X112738746Y-118434377D01*
X112628370Y-118484276D01*
X112515215Y-118528892D01*
X112399438Y-118568066D01*
X112281194Y-118601643D01*
X112160642Y-118629467D01*
X112037936Y-118651380D01*
X111913235Y-118667226D01*
X111786694Y-118676848D01*
X111658469Y-118680090D01*
X108641761Y-118680090D01*
X108513537Y-118676848D01*
X108386996Y-118667226D01*
X108262294Y-118651380D01*
X108139588Y-118629467D01*
X108019036Y-118601643D01*
X107900792Y-118568066D01*
X107785015Y-118528892D01*
X107671860Y-118484276D01*
X107561484Y-118434377D01*
X107454044Y-118379350D01*
X107349696Y-118319352D01*
X107248597Y-118254540D01*
X107150903Y-118185070D01*
X107056771Y-118111098D01*
X106966357Y-118032782D01*
X106879819Y-117950278D01*
X106797312Y-117863742D01*
X106718994Y-117773331D01*
X106645020Y-117679202D01*
X106575548Y-117581511D01*
X106510734Y-117480415D01*
X106450734Y-117376070D01*
X106395706Y-117268633D01*
X106345805Y-117158261D01*
X106301189Y-117045109D01*
X106262013Y-116929336D01*
X106228435Y-116811096D01*
X106200610Y-116690547D01*
X106178697Y-116567846D01*
X106162850Y-116443148D01*
X106153228Y-116316611D01*
X106149985Y-116188391D01*
X106149985Y-116188025D01*
X106153228Y-116059804D01*
X106162850Y-115933265D01*
X106178697Y-115808567D01*
X106200610Y-115685865D01*
X106228435Y-115565315D01*
X106262013Y-115447075D01*
X106301189Y-115331301D01*
X106345805Y-115218149D01*
X106395706Y-115107776D01*
X106450734Y-115000339D01*
X106510734Y-114895994D01*
X106575548Y-114794898D01*
X106645020Y-114697207D01*
X106718994Y-114603079D01*
X106797312Y-114512668D01*
X106879819Y-114426133D01*
X106966357Y-114343629D01*
X107056771Y-114265313D01*
X107150903Y-114191342D01*
X107248597Y-114121872D01*
X107349696Y-114057061D01*
X107454044Y-113997063D01*
X107561484Y-113942037D01*
X107671860Y-113892138D01*
X107785015Y-113847523D01*
X107900792Y-113808349D01*
X108019036Y-113774772D01*
X108139588Y-113746949D01*
X108262294Y-113725036D01*
X108386996Y-113709190D01*
X108513537Y-113699568D01*
X108641761Y-113696326D01*
X111658469Y-113696326D01*
X111786694Y-113699568D01*
D15*
X174561966Y-16198564D02*
X174968238Y-16229456D01*
X175368603Y-16280329D01*
X175762558Y-16350680D01*
X176149602Y-16440006D01*
X176529230Y-16547805D01*
X176900941Y-16673574D01*
X177264232Y-16816811D01*
X177618600Y-16977013D01*
X177963543Y-17153677D01*
X178298558Y-17346301D01*
X178623142Y-17554383D01*
X178936792Y-17777419D01*
X179239007Y-18014907D01*
X179529282Y-18266345D01*
X179807117Y-18531230D01*
X180072007Y-18809059D01*
X180323450Y-19099330D01*
X180560944Y-19401540D01*
X180783986Y-19715187D01*
X180992074Y-20039767D01*
X181184703Y-20374779D01*
X181361373Y-20719720D01*
X181521580Y-21074088D01*
X181664822Y-21437378D01*
X181790596Y-21809090D01*
X181898399Y-22188721D01*
X181987728Y-22575767D01*
X182058082Y-22969727D01*
X182108957Y-23370097D01*
X182139851Y-23776375D01*
X182150260Y-24188059D01*
X182150260Y-48188155D01*
X182139851Y-48599839D01*
X182108957Y-49006119D01*
X182058082Y-49406490D01*
X181987728Y-49800451D01*
X181898399Y-50187499D01*
X181790596Y-50567131D01*
X181664822Y-50938845D01*
X181521580Y-51302138D01*
X181361373Y-51656508D01*
X181184703Y-52001451D01*
X180992074Y-52336466D01*
X180783986Y-52661050D01*
X180560944Y-52974699D01*
X180323450Y-53276912D01*
X180072007Y-53567186D01*
X179807117Y-53845018D01*
X179529282Y-54109906D01*
X179239007Y-54361346D01*
X178936792Y-54598838D01*
X178623142Y-54821877D01*
X178298558Y-55029961D01*
X177963543Y-55222587D01*
X177618600Y-55399254D01*
X177264232Y-55559458D01*
X176900941Y-55702697D01*
X176529230Y-55828468D01*
X176149602Y-55936269D01*
X175762558Y-56025597D01*
X175368603Y-56095948D01*
X174968238Y-56146822D01*
X174561966Y-56177715D01*
X174150291Y-56188124D01*
X174150230Y-56188124D01*
X173738551Y-56177715D01*
X173332277Y-56146822D01*
X172931910Y-56095948D01*
X172537953Y-56025597D01*
X172150908Y-55936269D01*
X171771279Y-55828468D01*
X171399567Y-55702697D01*
X171036275Y-55559458D01*
X170681906Y-55399254D01*
X170336963Y-55222587D01*
X170001949Y-55029961D01*
X169677365Y-54821877D01*
X169363715Y-54598838D01*
X169061501Y-54361346D01*
X168771226Y-54109906D01*
X168493392Y-53845018D01*
X168228503Y-53567186D01*
X167977060Y-53276912D01*
X167739567Y-52974699D01*
X167516526Y-52661050D01*
X167308440Y-52336466D01*
X167115811Y-52001451D01*
X166939142Y-51656508D01*
X166778936Y-51302138D01*
X166635695Y-50938845D01*
X166509922Y-50567131D01*
X166402119Y-50187499D01*
X166312791Y-49800451D01*
X166242437Y-49406490D01*
X166191563Y-49006119D01*
X166160670Y-48599839D01*
X166150260Y-48188155D01*
X166150260Y-24188059D01*
X166160670Y-23776375D01*
X166191563Y-23370097D01*
X166242437Y-22969727D01*
X166312791Y-22575767D01*
X166402119Y-22188721D01*
X166509922Y-21809090D01*
X166635695Y-21437378D01*
X166778936Y-21074088D01*
X166939142Y-20719720D01*
X167115811Y-20374779D01*
X167308440Y-20039767D01*
X167516526Y-19715187D01*
X167739567Y-19401540D01*
X167977060Y-19099330D01*
X168228503Y-18809059D01*
X168493392Y-18531230D01*
X168771226Y-18266345D01*
X169061501Y-18014907D01*
X169363715Y-17777419D01*
X169677365Y-17554383D01*
X170001949Y-17346301D01*
X170336963Y-17153677D01*
X170681906Y-16977013D01*
X171036275Y-16816811D01*
X171399567Y-16673574D01*
X171771279Y-16547805D01*
X172150908Y-16440006D01*
X172537953Y-16350680D01*
X172931910Y-16280329D01*
X173332277Y-16229456D01*
X173738551Y-16198564D01*
X174150230Y-16188155D01*
X174150291Y-16188155D01*
X174561966Y-16198564D01*
D12*
X175786850Y-33699492D02*
X175913395Y-33709114D01*
X176038099Y-33724960D01*
X176160807Y-33746873D01*
X176281362Y-33774697D01*
X176399607Y-33808274D01*
X176515386Y-33847449D01*
X176628542Y-33892064D01*
X176738919Y-33941964D01*
X176846359Y-33996991D01*
X176950707Y-34056989D01*
X177051806Y-34121801D01*
X177149500Y-34191272D01*
X177243631Y-34265244D01*
X177334044Y-34343560D01*
X177420581Y-34426065D01*
X177503086Y-34512601D01*
X177581404Y-34603013D01*
X177655376Y-34697143D01*
X177724847Y-34794834D01*
X177789659Y-34895931D01*
X177849658Y-35000277D01*
X177904685Y-35107715D01*
X177954584Y-35218089D01*
X177999199Y-35331241D01*
X178038374Y-35447017D01*
X178071951Y-35565258D01*
X178099774Y-35685808D01*
X178121687Y-35808511D01*
X178137533Y-35933211D01*
X178147155Y-36059750D01*
X178150397Y-36187972D01*
X178150397Y-36188315D01*
X178147155Y-36316537D01*
X178137533Y-36443076D01*
X178121687Y-36567775D01*
X178099774Y-36690478D01*
X178071951Y-36811029D01*
X178038374Y-36929270D01*
X177999199Y-37045045D01*
X177954584Y-37158198D01*
X177904685Y-37268571D01*
X177849658Y-37376009D01*
X177789659Y-37480355D01*
X177724847Y-37581452D01*
X177655376Y-37679144D01*
X177581404Y-37773274D01*
X177503086Y-37863685D01*
X177420581Y-37950222D01*
X177334044Y-38032726D01*
X177243631Y-38111043D01*
X177149500Y-38185015D01*
X177051806Y-38254485D01*
X176950707Y-38319298D01*
X176846359Y-38379296D01*
X176738919Y-38434323D01*
X176628542Y-38484223D01*
X176515386Y-38528838D01*
X176399607Y-38568013D01*
X176281362Y-38601590D01*
X176160807Y-38629413D01*
X176038099Y-38651326D01*
X175913395Y-38667172D01*
X175786850Y-38676795D01*
X175658622Y-38680037D01*
X172642142Y-38680037D01*
X172513918Y-38676795D01*
X172387377Y-38667172D01*
X172262675Y-38651326D01*
X172139969Y-38629413D01*
X172019415Y-38601590D01*
X171901171Y-38568013D01*
X171785393Y-38528838D01*
X171672237Y-38484223D01*
X171561860Y-38434323D01*
X171454418Y-38379296D01*
X171350069Y-38319298D01*
X171248968Y-38254485D01*
X171151273Y-38185015D01*
X171057140Y-38111043D01*
X170966725Y-38032726D01*
X170880185Y-37950222D01*
X170797677Y-37863685D01*
X170719357Y-37773274D01*
X170645382Y-37679144D01*
X170575909Y-37581452D01*
X170511093Y-37480355D01*
X170451092Y-37376009D01*
X170396063Y-37268571D01*
X170346161Y-37158198D01*
X170301543Y-37045045D01*
X170262367Y-36929270D01*
X170228788Y-36811029D01*
X170200963Y-36690478D01*
X170179049Y-36567775D01*
X170163202Y-36443076D01*
X170153579Y-36316537D01*
X170150336Y-36188315D01*
X170150336Y-36187972D01*
X170153579Y-36059750D01*
X170163202Y-35933211D01*
X170179049Y-35808511D01*
X170200963Y-35685808D01*
X170228788Y-35565258D01*
X170262367Y-35447017D01*
X170301543Y-35331241D01*
X170346161Y-35218089D01*
X170396063Y-35107715D01*
X170451092Y-35000277D01*
X170511093Y-34895931D01*
X170575909Y-34794834D01*
X170645382Y-34697143D01*
X170719357Y-34603013D01*
X170797677Y-34512601D01*
X170880185Y-34426065D01*
X170966725Y-34343560D01*
X171057140Y-34265244D01*
X171151273Y-34191272D01*
X171248968Y-34121801D01*
X171350069Y-34056989D01*
X171454418Y-33996991D01*
X171561860Y-33941964D01*
X171672237Y-33892064D01*
X171785393Y-33847449D01*
X171901171Y-33808274D01*
X172019415Y-33774697D01*
X172139969Y-33746873D01*
X172262675Y-33724960D01*
X172387377Y-33709114D01*
X172513918Y-33699492D01*
X172642142Y-33696249D01*
X175658622Y-33696249D01*
X175786850Y-33699492D01*
X239786895Y-113699568D02*
X239913438Y-113709190D01*
X240038142Y-113725036D01*
X240160849Y-113746949D01*
X240281403Y-113774772D01*
X240399647Y-113808349D01*
X240515426Y-113847523D01*
X240628581Y-113892138D01*
X240738958Y-113942037D01*
X240846398Y-113997063D01*
X240950746Y-114057061D01*
X241051845Y-114121872D01*
X241149539Y-114191342D01*
X241243670Y-114265313D01*
X241334083Y-114343629D01*
X241420621Y-114426133D01*
X241503127Y-114512668D01*
X241581445Y-114603079D01*
X241655417Y-114697207D01*
X241724888Y-114794898D01*
X241789702Y-114895994D01*
X241849700Y-115000339D01*
X241904728Y-115107776D01*
X241954628Y-115218149D01*
X241999243Y-115331301D01*
X242038418Y-115447075D01*
X242071996Y-115565315D01*
X242099819Y-115685865D01*
X242121732Y-115808567D01*
X242137578Y-115933265D01*
X242147201Y-116059804D01*
X242150443Y-116188025D01*
X242150443Y-116188391D01*
X242147201Y-116316611D01*
X242137578Y-116443148D01*
X242121732Y-116567846D01*
X242099819Y-116690547D01*
X242071996Y-116811096D01*
X242038418Y-116929336D01*
X241999243Y-117045109D01*
X241954628Y-117158261D01*
X241904728Y-117268633D01*
X241849700Y-117376070D01*
X241789702Y-117480415D01*
X241724888Y-117581511D01*
X241655417Y-117679202D01*
X241581445Y-117773331D01*
X241503127Y-117863742D01*
X241420621Y-117950278D01*
X241334083Y-118032782D01*
X241243670Y-118111098D01*
X241149539Y-118185070D01*
X241051845Y-118254540D01*
X240950746Y-118319352D01*
X240846398Y-118379350D01*
X240738958Y-118434377D01*
X240628581Y-118484276D01*
X240515426Y-118528892D01*
X240399647Y-118568066D01*
X240281403Y-118601643D01*
X240160849Y-118629467D01*
X240038142Y-118651380D01*
X239913438Y-118667226D01*
X239786895Y-118676848D01*
X239658668Y-118680090D01*
X236642173Y-118680090D01*
X236513949Y-118676848D01*
X236387407Y-118667226D01*
X236262705Y-118651380D01*
X236139999Y-118629467D01*
X236019446Y-118601643D01*
X235901202Y-118568066D01*
X235785423Y-118528892D01*
X235672267Y-118484276D01*
X235561890Y-118434377D01*
X235454449Y-118379350D01*
X235350100Y-118319352D01*
X235248999Y-118254540D01*
X235151304Y-118185070D01*
X235057170Y-118111098D01*
X234966756Y-118032782D01*
X234880216Y-117950278D01*
X234797708Y-117863742D01*
X234719388Y-117773331D01*
X234645413Y-117679202D01*
X234575939Y-117581511D01*
X234511124Y-117480415D01*
X234451123Y-117376070D01*
X234396093Y-117268633D01*
X234346191Y-117158261D01*
X234301574Y-117045109D01*
X234262397Y-116929336D01*
X234228818Y-116811096D01*
X234200993Y-116690547D01*
X234179079Y-116567846D01*
X234163232Y-116443148D01*
X234153609Y-116316611D01*
X234150367Y-116188391D01*
X234150367Y-116188025D01*
X234153609Y-116059804D01*
X234163232Y-115933265D01*
X234179079Y-115808567D01*
X234200993Y-115685865D01*
X234228818Y-115565315D01*
X234262397Y-115447075D01*
X234301574Y-115331301D01*
X234346191Y-115218149D01*
X234396093Y-115107776D01*
X234451123Y-115000339D01*
X234511124Y-114895994D01*
X234575939Y-114794898D01*
X234645413Y-114697207D01*
X234719388Y-114603079D01*
X234797708Y-114512668D01*
X234880216Y-114426133D01*
X234966756Y-114343629D01*
X235057170Y-114265313D01*
X235151304Y-114191342D01*
X235248999Y-114121872D01*
X235350100Y-114057061D01*
X235454449Y-113997063D01*
X235561890Y-113942037D01*
X235672267Y-113892138D01*
X235785423Y-113847523D01*
X235901202Y-113808349D01*
X236019446Y-113774772D01*
X236139999Y-113746949D01*
X236262705Y-113725036D01*
X236387407Y-113709190D01*
X236513949Y-113699568D01*
X236642173Y-113696326D01*
X239658668Y-113696326D01*
X239786895Y-113699568D01*
D10*
X149847Y-6188082D02*
X-649740Y-6987606D01*
X-846002Y-7183859D01*
X-1348133Y-7685966D01*
X-1850290Y-8188075D01*
X2149726Y-188090D02*
X637879Y-1699919D01*
X126730Y-2211073D01*
X-861768Y-3199577D01*
X-1850290Y-4188082D01*
X2149726Y-2188082D02*
X2900057Y-1437812D01*
X3135088Y-1202791D01*
X3642464Y-695439D01*
X4149864Y-188090D01*
X2149726Y-64188086D02*
X14809792Y-51528032D01*
X19275658Y-47062183D01*
X27712709Y-38625158D01*
X36149737Y-30188132D01*
X4149864Y-6188082D02*
X2552285Y-7785592D01*
X1149787Y-9188075D01*
X-350228Y-10688072D01*
X-1850290Y-12188067D01*
X6149743Y-188090D02*
X5508043Y-829797D01*
X4828910Y-1508939D01*
X4489370Y-1848511D01*
X4149864Y-2188082D01*
X6149743Y-2188082D02*
X6905736Y-1432150D01*
X7134885Y-1203010D01*
X7642370Y-695549D01*
X8149880Y-188090D01*
X6149743Y-6188082D02*
X3042598Y-9295216D01*
X2133662Y-10204139D01*
X141674Y-12196104D01*
X-1850290Y-14188067D01*
X6149743Y-64188086D02*
X7115326Y-63222571D01*
X7632591Y-62705333D01*
X8149880Y-62188094D01*
X8149880Y-6188082D02*
X5461881Y-8875974D01*
X1388079Y-12949728D01*
X-1850290Y-16188067D01*
X8149880Y-60188101D02*
X8119343Y-60218636D01*
X6134555Y-62203362D01*
X5142192Y-63195724D01*
X4149864Y-64188086D01*
X10149758Y-188090D02*
X9504437Y-833419D01*
X8827115Y-1510750D01*
X8488481Y-1849416D01*
X8149880Y-2188082D01*
X10149758Y-2188082D02*
X10902898Y-1434997D01*
X12049779Y-288084D01*
X12149767Y-188090D01*
X10149758Y-6188082D02*
X7149754Y-9188070D01*
X-1850290Y-18188067D01*
D11*
X10149758Y-62188094D02*
X8149880Y-64188086D01*
X10149758Y-64188086D02*
X12149767Y-62188094D01*
D10*
X12149767Y-2188082D02*
X12923450Y-1414398D01*
X13170015Y-1167841D01*
X13659908Y-677965D01*
X14149776Y-188090D01*
X12149767Y-58188094D02*
X17942243Y-52395622D01*
X21028122Y-49309766D01*
X27588976Y-42748946D01*
X30869370Y-39468536D01*
X34149726Y-36188124D01*
X14149776Y-62188094D02*
X13407802Y-62930067D01*
X13181576Y-63156284D01*
X12665659Y-63672183D01*
X12149767Y-64188086D01*
D11*
X14149776Y-64188086D02*
X16149654Y-62188094D01*
D10*
X16149654Y-188090D02*
X15504163Y-833588D01*
X14826926Y-1510835D01*
X14488334Y-1849459D01*
X14149776Y-2188082D01*
X16149654Y-6188082D02*
X11156090Y-11181699D01*
X7168012Y-15169780D01*
X2658837Y-19678961D01*
X-1850290Y-24188139D01*
X16149654Y-58188094D02*
X25897589Y-48440216D01*
X31023675Y-43314170D01*
X36149737Y-38188124D01*
X18149791Y-188090D02*
X17410414Y-927403D01*
X17131271Y-1206535D01*
X16640474Y-1697309D01*
X16149654Y-2188082D01*
X18149791Y-62188094D02*
X17363420Y-62974399D01*
X17111421Y-63226386D01*
X16149654Y-64188086D01*
X18149791Y-64188086D02*
X33739290Y-48598525D01*
X56767096Y-25570737D01*
X76149772Y-6188082D01*
X20149671Y-188090D02*
X19500747Y-837022D01*
X18825225Y-1512552D01*
X18487492Y-1850317D01*
X18149791Y-2188082D01*
X20149671Y-6188082D02*
X11428865Y-14908933D01*
X9010450Y-17327353D01*
X3580068Y-22757747D01*
X-1850290Y-28188139D01*
X20149671Y-60188101D02*
X41207274Y-39130467D01*
X48166389Y-32171352D01*
X74149634Y-6188082D01*
X20149671Y-64188086D02*
X39730256Y-44607521D01*
X58939995Y-25397802D01*
X68544838Y-15792942D01*
X78149650Y-6188082D01*
X22149808Y-188090D02*
X21410431Y-927403D01*
X21131288Y-1206535D01*
X20640491Y-1697309D01*
X20149671Y-2188082D01*
X22149808Y-64188086D02*
X23673147Y-62664709D01*
X25618461Y-60719443D01*
X26089214Y-60248708D01*
X26149823Y-60188101D01*
X24149686Y-188090D02*
X23504195Y-833588D01*
X22826958Y-1510835D01*
X22488366Y-1849459D01*
X22149808Y-2188082D01*
X26149823Y-188090D02*
X25407754Y-930096D01*
X25138684Y-1199155D01*
X24644197Y-1693619D01*
X24149686Y-2188082D01*
X26149823Y-62188094D02*
X25360210Y-62977641D01*
X25119965Y-63217876D01*
X24149686Y-64188086D01*
X26149823Y-64188086D02*
X26674371Y-63663451D01*
X27479812Y-62857992D01*
X28149703Y-62188094D01*
X28149703Y-188090D02*
X26643550Y-1694225D01*
X26119161Y-2218618D01*
X25134435Y-3203350D01*
X24149686Y-4188082D01*
X28149703Y-58188094D02*
X48346179Y-37991638D01*
X54572509Y-31765324D01*
X67361159Y-18976703D01*
X80149787Y-6188082D01*
X30149711Y-188090D02*
X-1850287Y-32188121D01*
X-1850290Y-32188124D01*
D11*
X30149711Y-62188094D02*
X28149703Y-64188086D01*
D10*
X30149711Y-64188086D02*
X30870924Y-63466867D01*
X31178085Y-63159717D01*
X31663913Y-62673906D01*
X32149718Y-62188094D01*
X32149718Y-188090D02*
X18944362Y-13393463D01*
X15012618Y-17325204D01*
X6581152Y-25756664D01*
X-1850290Y-34188124D01*
X32149718Y-58188094D02*
X33624892Y-56712918D01*
X58887299Y-31450500D01*
X71518533Y-18819291D01*
X84149802Y-6188082D01*
D11*
X32149718Y-64188086D02*
X94911811Y-1425997D01*
D10*
X34149726Y-30188132D02*
X25131260Y-39206675D01*
X11651071Y-52686866D01*
X149847Y-64188086D01*
X34149726Y-38188124D02*
X28886583Y-43451274D01*
X14149776Y-58188094D01*
X34149726Y-60188101D02*
X54696275Y-39641578D01*
X74012921Y-20324959D01*
X83671217Y-10666649D01*
X93329482Y-1008338D01*
X34149726Y-64188086D02*
X57959670Y-40378192D01*
X64351596Y-33986272D01*
X80389010Y-17948876D01*
X96426452Y-1911479D01*
X36149737Y-26188139D02*
X37655790Y-24682015D01*
X39818703Y-22519105D01*
X40149753Y-22188059D01*
D11*
X36149737Y-34188124D02*
X40149753Y-30188132D01*
D10*
X36149737Y-64188086D02*
X37673076Y-62664709D01*
X39613761Y-60724072D01*
X40119216Y-60218636D01*
X40149753Y-60188101D01*
D11*
X38149745Y-188090D02*
X-1850290Y-40188124D01*
D10*
X38149745Y-18188067D02*
X39974083Y-16363737D01*
X48061927Y-8275912D01*
X52105822Y-4232001D01*
X56149688Y-188090D01*
D11*
X38149745Y-22188059D02*
X-1850290Y-62188094D01*
X38149745Y-26188139D02*
X64149718Y-188090D01*
D10*
X38149745Y-30188132D02*
X27360721Y-40977153D01*
X24149752Y-44188112D01*
X17149743Y-51188103D01*
X10149758Y-58188094D01*
X38149745Y-34188124D02*
X48813643Y-23524262D01*
X52594246Y-19743661D01*
X59372040Y-12965872D01*
X66149856Y-6188082D01*
X38149745Y-38188124D02*
X30457453Y-45880424D01*
X18149791Y-58188094D01*
D11*
X40149753Y-26188139D02*
X66132674Y-205275D01*
D10*
X40149753Y-34188124D02*
X50854802Y-23483047D01*
X53779931Y-20557918D01*
X60964845Y-13373001D01*
X68149734Y-6188082D01*
X40149753Y-38188124D02*
X32835770Y-45502017D01*
X22187882Y-56149883D01*
X20149671Y-58188094D01*
X40149753Y-62188094D02*
X39410473Y-62927374D01*
X39177920Y-63159917D01*
X38663820Y-63674000D01*
X38149745Y-64188086D01*
X40149753Y-64188086D02*
X40916316Y-63459503D01*
X41892188Y-62532074D01*
X42152279Y-62284902D01*
X42254146Y-62188094D01*
D11*
X42149760Y-188090D02*
X-1850290Y-44188117D01*
D10*
X42149760Y-18188067D02*
X46846042Y-13491749D01*
X51264907Y-9072901D01*
X55707329Y-4630496D01*
X60149703Y-188090D01*
X42149760Y-28188139D02*
X50798786Y-19539070D01*
X52928856Y-17408996D01*
X58539300Y-11798538D01*
X64149718Y-6188082D01*
X42149760Y-36188124D02*
X50275804Y-28062044D01*
X57267405Y-21070455D01*
X64708604Y-13629269D01*
X72149757Y-6188082D01*
X42149760Y-58188094D02*
X57277160Y-43060729D01*
X79405802Y-20932030D01*
X97888244Y-2449534D01*
X44149898Y-58188094D02*
X65746811Y-36591145D01*
X71507078Y-30830876D01*
X85408096Y-16929851D01*
X99309089Y-3028826D01*
X44149898Y-62188094D02*
X43363527Y-62974399D01*
X43115928Y-63221987D01*
X42149760Y-64188086D01*
X44149898Y-64188086D02*
X44392229Y-63942067D01*
X45256059Y-63065079D01*
X45687946Y-62626587D01*
X46119804Y-62188094D01*
X46149776Y-188090D02*
X27654219Y-18683622D01*
X22149743Y-24188099D01*
X10149739Y-36188104D01*
X-1850290Y-48188109D01*
D11*
X46149776Y-58188094D02*
X100668571Y-3669325D01*
D10*
X46150165Y-72188094D02*
X46171485Y-68190180D01*
X46192828Y-64188109D01*
X48149654Y-58188094D02*
X67628954Y-38708855D01*
X97839085Y-8498700D01*
X101979858Y-4357920D01*
X48149654Y-62188094D02*
X47617278Y-62720555D01*
X46855361Y-63482489D01*
X46149776Y-64188086D01*
X48149654Y-64188086D02*
X49111421Y-63226386D01*
X49630593Y-62707240D01*
X50149791Y-62188094D01*
X50149791Y-188090D02*
X30033619Y-20304242D01*
X24852457Y-25485392D01*
X11501071Y-38836749D01*
X-1850290Y-52188109D01*
D11*
X50149791Y-58188094D02*
X103221770Y-5116110D01*
D10*
X50149791Y-64188086D02*
X70834067Y-43503790D01*
X78430705Y-35907157D01*
X92571173Y-21766695D01*
X106711616Y-7626231D01*
X52149673Y-58188094D02*
X70375997Y-39961804D01*
X78362362Y-31975470D01*
X91384162Y-18953716D01*
X104405936Y-5931960D01*
X52149673Y-60188101D02*
X72415326Y-39922599D01*
X103982487Y-8355552D01*
X105565169Y-6772875D01*
X52149673Y-64188086D02*
X72199629Y-44138190D01*
X80338216Y-35999641D01*
X94043695Y-22294222D01*
X107749152Y-8588801D01*
X54149810Y-188090D02*
X49254962Y-5082854D01*
X41710709Y-12627094D01*
X36149737Y-18188067D01*
X54149810Y-64188086D02*
X62949797Y-55388104D01*
X98149856Y-20188059D01*
X56149688Y-64188086D02*
X67311268Y-53026603D01*
X84684181Y-35653720D01*
X98149856Y-22188059D01*
X58149825Y-188090D02*
X53186380Y-5151452D01*
X45715210Y-12622610D01*
X40149753Y-18188067D01*
X62149840Y-188090D02*
X54756880Y-7581020D01*
X51812717Y-10525158D01*
X46981226Y-15356609D01*
X42149760Y-20188059D01*
X62149840Y-64188086D02*
X75087452Y-51250513D01*
X81193328Y-45144639D01*
X89671581Y-36666389D01*
X98149856Y-28188139D01*
X64149718Y-4188082D02*
X55672659Y-12665187D01*
X52928856Y-15408996D01*
X47539296Y-20798569D01*
X42149760Y-26188139D01*
X64149718Y-64188086D02*
X77098752Y-51239132D01*
X81620147Y-46717754D01*
X89884990Y-38452943D01*
X98149856Y-30188132D01*
X68149734Y-205275D02*
X67471072Y-878116D01*
X66810421Y-1533100D01*
X66480122Y-1860591D01*
X66149856Y-2188082D01*
X68149734Y-64188086D02*
X69728808Y-62609033D01*
X70149745Y-62188094D01*
X71149740Y-61188098D01*
X72149757Y-60188101D01*
X70149871Y-205275D02*
X69377387Y-971061D01*
X69161612Y-1184972D01*
X68655685Y-1686527D01*
X68149734Y-2188082D01*
X70149871Y-6188082D02*
X59186729Y-17151194D01*
X56643934Y-19693988D01*
X49396860Y-26941057D01*
X42149760Y-34188124D01*
X72149757Y-205275D02*
X71499652Y-849801D01*
X70824719Y-1518942D01*
X70487279Y-1853512D01*
X70149871Y-2188082D01*
X72149757Y-62188094D02*
X71511022Y-62826833D01*
X70830404Y-63507457D01*
X70490122Y-63847770D01*
X70149871Y-64188086D01*
X72149757Y-64188086D02*
X72853629Y-63484201D01*
X73501673Y-62836148D01*
X73825669Y-62512121D01*
X74149634Y-62188094D01*
X74149634Y-205275D02*
X73612075Y-738303D01*
X72806081Y-1537389D01*
X72149757Y-2188082D01*
X74149634Y-58188094D02*
X84772760Y-47565031D01*
X87734873Y-44602927D01*
X94942297Y-37395529D01*
X102149749Y-30188132D01*
X76149772Y-205275D02*
X75377287Y-971061D01*
X75165344Y-1181175D01*
X74657501Y-1684629D01*
X74149634Y-2188082D01*
X76149772Y-58188094D02*
X86813575Y-47524289D01*
X90709762Y-43628113D01*
X104149757Y-30188132D01*
X76149772Y-62188094D02*
X75363401Y-62974399D01*
X75115802Y-63221987D01*
X74149634Y-64188086D01*
X76149772Y-64188086D02*
X76855357Y-63482489D01*
X77502545Y-62835292D01*
X77826113Y-62511693D01*
X78149650Y-62188094D01*
X78149650Y-205275D02*
X77611061Y-739323D01*
X76807784Y-1535716D01*
X76149772Y-2188082D01*
X80149787Y-188090D02*
X79410410Y-927403D01*
X79131267Y-1206535D01*
X78640470Y-1697309D01*
X78149650Y-2188082D01*
X80149787Y-58188094D02*
X90494585Y-47843288D01*
X100149741Y-38188124D01*
X80149787Y-62188094D02*
X79363416Y-62974399D01*
X79111417Y-63226386D01*
X78149650Y-64188086D01*
D11*
X80149787Y-64188086D02*
X82149665Y-62188094D01*
X82149665Y-205275D02*
X80149787Y-2188082D01*
D10*
X82149665Y-6188082D02*
X64254448Y-24083347D01*
X47202122Y-41135721D01*
X38675932Y-49661908D01*
X30149711Y-58188094D01*
X82149665Y-64188086D02*
X94555215Y-51782557D01*
X106238525Y-40099265D01*
X112080206Y-34257620D01*
X117921920Y-28415976D01*
X84149802Y-205275D02*
X83374259Y-974094D01*
X83169327Y-1177256D01*
X82659508Y-1682669D01*
X82149665Y-2188082D01*
X84149802Y-58188094D02*
X94149773Y-48188115D01*
X104149757Y-38188124D01*
X84149802Y-60188101D02*
X86096352Y-58241550D01*
X101885064Y-42452843D01*
X109779451Y-34558489D01*
X117673873Y-26664137D01*
D11*
X84149802Y-64188086D02*
X118131339Y-30206511D01*
D10*
X86149810Y-205275D02*
X85606824Y-743569D01*
X85157594Y-1188958D01*
X84653723Y-1688520D01*
X84149802Y-2188082D01*
X86149810Y-6188082D02*
X82899813Y-9438081D01*
X58524814Y-33813088D01*
X46337286Y-46000591D01*
X34149726Y-58188094D01*
D11*
X86149810Y-64188086D02*
X90149825Y-60188101D01*
D10*
X88149818Y-205275D02*
X87395211Y-953401D01*
X87134414Y-1211947D01*
X86642100Y-1700015D01*
X86149810Y-2188082D01*
X88149818Y-2188082D02*
X88845311Y-1492521D01*
X89870363Y-467477D01*
X89926322Y-411520D01*
X88149818Y-4188082D02*
X89131850Y-3206048D01*
X89901695Y-2436164D01*
X90791968Y-1545848D01*
X91682288Y-655531D01*
X90149825Y-62188094D02*
X89600509Y-62737382D01*
X89133563Y-63204346D01*
X88641714Y-63696214D01*
X88149818Y-64188086D01*
X92149833Y-58188094D02*
X103097517Y-47240421D01*
X118150588Y-32187365D01*
X92149833Y-62188094D02*
X91495818Y-62842107D01*
X91257278Y-63080658D01*
X90841670Y-63496284D01*
X90426040Y-63911910D01*
X94149840Y-58188094D02*
X100442764Y-51895193D01*
X110132244Y-42205629D01*
X118094131Y-34243666D01*
X94149840Y-62188094D02*
X93707342Y-62630577D01*
X93274604Y-63063301D01*
X93058209Y-63279663D01*
X92841781Y-63496024D01*
X96149848Y-58188094D02*
X103771772Y-50566102D01*
X110811470Y-43526338D01*
X114331345Y-40006457D01*
X117851249Y-36486578D01*
X96149848Y-62188094D02*
X95919256Y-62418697D01*
X95863608Y-62474341D01*
X95703959Y-62633983D01*
X95544334Y-62793631D01*
X98149856Y-38188124D02*
X92678952Y-43658988D01*
X87988457Y-48349405D01*
X83069030Y-53268751D01*
X78149650Y-58188094D01*
X98149856Y-58188094D02*
X105283293Y-51054640D01*
X108049906Y-48288007D01*
X112748833Y-43589049D01*
X117447784Y-38890090D01*
X98149856Y-60188101D02*
X107073686Y-51264266D01*
X111914428Y-46423511D01*
X116755195Y-41582755D01*
X98693885Y-61644019D02*
X103245573Y-57092322D01*
X107260888Y-53077044D01*
X111412106Y-48925865D01*
X115563277Y-44774687D01*
D11*
X100149741Y-18188067D02*
X108778411Y-9559424D01*
D10*
X100149741Y-22188059D02*
X83431100Y-38906755D01*
X77936452Y-44401410D01*
X58149825Y-64188086D01*
X100149741Y-26188139D02*
X100232504Y-26105378D01*
X102191178Y-24146722D01*
X103170485Y-23167392D01*
X104149757Y-22188059D01*
X100149741Y-30188132D02*
X90975916Y-39362031D01*
X77570360Y-52767587D01*
X66149856Y-64188086D01*
D11*
X102149749Y-18188067D02*
X109771377Y-10566531D01*
D10*
X102149749Y-22188059D02*
X90615080Y-33722748D01*
X80633329Y-43704473D01*
X70391493Y-53946281D01*
X60149703Y-64188086D01*
X102149749Y-26188139D02*
X103995110Y-24342755D01*
X113222335Y-15115424D01*
X102149749Y-34188124D02*
X105868276Y-30469566D01*
X109027265Y-27310595D01*
X112479328Y-23858550D01*
X115931342Y-20406504D01*
X102149749Y-38188124D02*
X94015713Y-46322119D01*
X92149701Y-48188115D01*
X87149671Y-53188106D01*
X82149665Y-58188094D01*
X102837691Y-59500182D02*
X106680546Y-55657310D01*
X112495195Y-49842750D01*
X113494277Y-48843688D01*
X104149757Y-18188067D02*
X106369080Y-15968791D01*
X108523602Y-13814316D01*
X109600836Y-12737077D01*
X110678039Y-11659838D01*
X104149757Y-26188139D02*
X106835058Y-23502854D01*
X108971939Y-21365948D01*
X111469117Y-18868741D01*
X113966346Y-16371535D01*
D11*
X104149757Y-34188124D02*
X116453529Y-21884276D01*
D10*
X106149764Y-18188067D02*
X108037141Y-16300686D01*
X109804182Y-14533645D01*
X110687675Y-13650123D01*
X111571136Y-12766600D01*
X106149764Y-20188059D02*
X108509551Y-17828300D01*
X111511919Y-14826063D01*
X112324225Y-14013800D01*
X112417083Y-13920947D01*
X106149764Y-26188139D02*
X108424161Y-23913728D01*
X110373160Y-21964761D01*
X112524728Y-19813227D01*
X114676246Y-17661692D01*
X106149764Y-28188139D02*
X110747650Y-23590215D01*
X115304114Y-19033713D01*
D11*
X106149764Y-34188124D02*
X116918487Y-23419451D01*
X106149764Y-36188124D02*
X117337325Y-25000689D01*
D10*
X110150100Y-72188094D02*
X110169256Y-68596286D01*
X110192763Y-64188109D01*
X137937369Y-66400603D02*
X131797713Y-72540335D01*
X128344154Y-75993933D01*
X138149757Y-118188193D02*
X136995586Y-119342338D01*
X135992514Y-120345431D01*
X134859408Y-121478560D01*
X133726249Y-122611685D01*
X138150016Y-116188208D02*
X138150015Y-116188209D01*
X135425583Y-118912567D01*
X134063400Y-120274745D01*
X132701255Y-121636923D01*
X140149894Y-118188193D02*
X138357401Y-119980717D01*
X136571400Y-121766748D01*
X135678425Y-122659766D01*
X134785483Y-123552786D01*
X142149772Y-118188193D02*
X139696315Y-120641657D01*
X138798745Y-121539241D01*
X135883613Y-124454398D01*
X142628684Y-63709471D02*
X134121734Y-72216368D01*
X125693542Y-80644507D01*
X144149909Y-118188193D02*
X143548330Y-118789768D01*
X140282690Y-122055400D01*
X138649901Y-123688215D01*
X137017142Y-125321036D01*
X146062461Y-62275549D02*
X133691551Y-74646445D01*
X124250602Y-84087386D01*
D16*
X146150397Y-36188178D02*
X152168708Y-36188178D01*
D10*
X148959693Y-61378508D02*
X137488332Y-72849881D01*
X123340324Y-86997900D01*
X151516776Y-60821143D02*
X145189734Y-67148258D01*
X136865403Y-75472594D01*
X129822163Y-82515834D01*
X122778991Y-89559073D01*
D11*
X153938209Y-60399931D02*
X122401488Y-91936766D01*
X154149818Y-118188193D02*
X143331992Y-129006155D01*
X154150077Y-116188208D02*
X141985435Y-128352683D01*
D10*
X156149695Y-118188193D02*
X152070938Y-122266960D01*
X148405389Y-125932515D01*
X146572640Y-127765294D01*
X144739921Y-129598074D01*
X156149833Y-60188101D02*
X147130658Y-69207327D01*
X139212100Y-77125884D01*
X130711493Y-85626491D01*
X122210937Y-94127097D01*
D11*
X158149833Y-118188193D02*
X146186088Y-130152121D01*
X158149970Y-60188101D02*
X122161323Y-96176878D01*
D10*
X160081626Y-60256506D02*
X150038235Y-70299843D01*
X137221037Y-83117067D01*
X134062780Y-86275337D01*
X122218429Y-98119727D01*
X160149711Y-118188193D02*
X155470264Y-122867670D01*
X148340432Y-129997665D01*
X148149924Y-130188178D01*
X161968085Y-60370123D02*
X142748162Y-79590037D01*
X132553241Y-89784943D01*
X122358344Y-99979849D01*
X163730247Y-60607787D02*
X152937339Y-71400750D01*
X143196555Y-81141536D01*
X132892208Y-91445885D01*
X122587913Y-101750235D01*
X165429496Y-60908774D02*
X150785297Y-75552972D01*
X136841011Y-89497255D01*
X129868896Y-96469395D01*
X122896812Y-103441535D01*
X167029273Y-61308829D02*
X155569588Y-72768495D01*
X144865508Y-83472608D01*
X134065731Y-94272417D01*
X123265906Y-105072226D01*
X168607993Y-61730216D02*
X151573797Y-78764446D01*
X144795523Y-85542747D01*
X123709678Y-106628653D01*
D11*
X170107001Y-62231108D02*
X124191566Y-108146643D01*
D10*
X170149879Y-116188208D02*
X165495926Y-120842149D01*
X160822900Y-125515163D01*
X158486412Y-127851671D01*
X156149955Y-130188178D01*
X170149879Y-118188193D02*
X165451448Y-122886654D01*
X158150131Y-130188139D01*
X158150092Y-130188178D01*
X171566337Y-62771620D02*
X124745949Y-109592054D01*
X124745925Y-109592078D01*
X172149772Y-118188193D02*
X167714016Y-122623964D01*
X162127182Y-128210914D01*
X160150005Y-130188143D01*
X160149970Y-130188178D01*
X172966514Y-63371642D02*
X155910063Y-80428086D01*
X147784386Y-88553778D01*
X136563791Y-99774390D01*
X125343177Y-110995001D01*
X174149909Y-118188193D02*
X169697995Y-122640123D01*
X164072687Y-128265547D01*
X162237095Y-130101187D01*
X162150107Y-130188178D01*
X174328574Y-64009360D02*
X161312543Y-77025462D01*
X150528433Y-87809589D01*
X138262181Y-100075863D01*
X125995978Y-112342139D01*
X175628883Y-64709212D02*
X163015421Y-77322667D01*
X150073362Y-90264778D01*
X138375435Y-101962754D01*
X126677466Y-113660727D01*
X176149787Y-118188193D02*
X172316190Y-122021868D01*
X166594810Y-127743252D01*
X162387443Y-131950614D01*
X176892890Y-65445136D02*
X164524172Y-77813897D01*
X127417991Y-114920233D01*
X178117484Y-66220686D02*
X157816047Y-86522055D01*
X151401142Y-92936947D01*
X128200111Y-116137915D01*
X179293128Y-67044753D02*
X162759364Y-83578576D01*
X145885865Y-100452136D01*
X137449144Y-108888919D01*
X129012458Y-117325705D01*
X180438148Y-67899886D02*
X156938391Y-91399720D01*
X143405039Y-104933107D01*
X129871711Y-118466498D01*
X181526588Y-68811491D02*
X163166336Y-87171704D01*
X154763749Y-95574289D01*
X142776238Y-107561797D01*
X130788703Y-119549307D01*
X182583503Y-69754675D02*
X161033264Y-91304976D01*
X155059765Y-97278500D01*
X131730125Y-120608222D01*
X183610831Y-70727240D02*
X171529136Y-82808994D01*
X153989440Y-100348670D01*
X140149894Y-114188193D01*
X184589057Y-71748908D02*
X156296197Y-100041769D01*
X142149772Y-114188193D01*
X185524665Y-72813506D02*
X169766963Y-88571135D01*
X146548442Y-111789658D01*
X144149909Y-114188193D01*
X186427711Y-73910376D02*
X171484780Y-88853220D01*
X150124570Y-110213410D01*
X146149787Y-114188193D01*
D11*
X187285926Y-75052191D02*
X146150046Y-116188208D01*
D10*
X187911857Y-116426367D02*
X182955664Y-121382528D01*
X178329887Y-126008276D01*
X188113532Y-76224394D02*
X174032633Y-90305342D01*
X155065540Y-109272406D01*
X138192908Y-126145010D01*
X188895911Y-77442160D02*
X181303573Y-85034517D01*
X160359158Y-105978973D01*
X149886925Y-116451200D01*
X139414664Y-126923422D01*
X189626350Y-78711577D02*
X179062873Y-89275028D01*
X165795632Y-102542319D01*
X153233056Y-115104944D01*
X146951743Y-121386255D01*
X140670402Y-127667563D01*
X190320762Y-80017462D02*
X181356579Y-88981574D01*
X169137920Y-101200231D01*
X156149955Y-114188193D01*
X190632499Y-111705512D02*
X184961845Y-117376181D01*
X179311593Y-123026448D01*
X176486495Y-125851582D01*
X173661430Y-128676718D01*
D11*
X190979636Y-81358336D02*
X158149833Y-114188193D01*
X191569007Y-82768973D02*
X160149711Y-114188193D01*
D10*
X192086539Y-108251700D02*
X184442896Y-115895380D01*
X180605314Y-119732962D01*
X175423842Y-124914434D01*
X170242393Y-130095908D01*
D11*
X192122199Y-84215926D02*
X162149848Y-114188193D01*
D10*
X192611961Y-85725951D02*
X174479752Y-103858244D01*
X162149848Y-116188208D01*
X192972282Y-105365775D02*
X186810443Y-111527615D01*
X180520449Y-117817668D01*
X174335251Y-124002926D01*
X168150001Y-130188178D01*
X193046943Y-87291098D02*
X181881882Y-98456193D01*
X170572727Y-109765326D01*
X159916822Y-120421209D01*
X149260963Y-131077094D01*
X193425223Y-88912634D02*
X179553970Y-102783921D01*
X150886710Y-131451239D01*
D11*
X193531806Y-102806372D02*
X164758216Y-131579947D01*
X193730765Y-90607245D02*
X152588035Y-131750128D01*
X193885917Y-100452124D02*
X178149924Y-116188208D01*
X193959678Y-92378226D02*
X172149772Y-114188193D01*
D10*
X194086158Y-98252066D02*
X189315764Y-103022403D01*
X183732800Y-108605303D01*
X180941344Y-111396751D01*
X178149924Y-114188193D01*
X194102836Y-94235297D02*
X186727259Y-101610849D01*
X183471543Y-104866569D01*
X174149909Y-114188193D01*
X194157996Y-96180090D02*
X183842614Y-106495408D01*
X176149787Y-114188193D01*
D11*
X222150245Y-72188155D02*
X222150245Y-64188086D01*
X238150230Y-72188155D02*
X238150230Y-64188086D01*
M02*
