%TF.GenerationSoftware,KiCad,Pcbnew,10.0.4*%
%TF.CreationDate,2026-09-10T16:32:42+10:00*%
%TF.ProjectId,VCA_panel,5643415f-7061-46e6-956c-2e6b69636164,rev?*%
%TF.SameCoordinates,Original*%
%TF.FileFunction,Copper,L1,Top*%
%TF.FilePolarity,Positive*%
%FSLAX46Y46*%
G04 Gerber Fmt 4.6, Leading zero omitted, Abs format (unit mm)*
G04 Created by KiCad (PCBNEW 10.0.4) date 2026-09-10 16:32:42*
%MOMM*%
%LPD*%
G01*
G04 APERTURE LIST*
%TA.AperFunction,NonConductor*%
%ADD10C,0.000000*%
%TD*%
%TA.AperFunction,NonConductor*%
%ADD11C,0.247226*%
%TD*%
%TA.AperFunction,NonConductor*%
%ADD12C,0.246294*%
%TD*%
%TA.AperFunction,NonConductor*%
%ADD13C,0.246814*%
%TD*%
%TA.AperFunction,NonConductor*%
%ADD14C,0.245483*%
%TD*%
%TA.AperFunction,NonConductor*%
%ADD15C,0.245918*%
%TD*%
%TA.AperFunction,NonConductor*%
%ADD16C,0.245147*%
%TD*%
%TA.AperFunction,NonConductor*%
%ADD17C,0.246640*%
%TD*%
%ADD18C,0.247226*%
%TA.AperFunction,NonConductor*%
%ADD19C,0.245492*%
%TD*%
G04 APERTURE END LIST*
D10*
%TA.AperFunction,NonConductor*%
G36*
X173791748Y-117383327D02*
G01*
X172895142Y-117383327D01*
X172895142Y-116055690D01*
X173791748Y-116055690D01*
X173791748Y-117383327D01*
G37*
%TD.AperFunction*%
%TA.AperFunction,NonConductor*%
G36*
X176102463Y-117383327D02*
G01*
X175205856Y-117383327D01*
X175205856Y-116055690D01*
X176102463Y-116055690D01*
X176102463Y-117383327D01*
G37*
%TD.AperFunction*%
D11*
X30910486Y-72102018D02*
X31316757Y-72132911D01*
X31717123Y-72183785D01*
X32111078Y-72254138D01*
X32498122Y-72343466D01*
X32877751Y-72451267D01*
X33249463Y-72577039D01*
X33612754Y-72720278D01*
X33967123Y-72880483D01*
X34312067Y-73057151D01*
X34647082Y-73249779D01*
X34971667Y-73457864D01*
X35285318Y-73680904D01*
X35587534Y-73918396D01*
X35877810Y-74169837D01*
X36155645Y-74434726D01*
X36420536Y-74712559D01*
X36671981Y-75002834D01*
X36909476Y-75305047D01*
X37132518Y-75618698D01*
X37340607Y-75943282D01*
X37533237Y-76278297D01*
X37709908Y-76623241D01*
X37870116Y-76977611D01*
X38013358Y-77340905D01*
X38139132Y-77712619D01*
X38246936Y-78092251D01*
X38336266Y-78479299D01*
X38406620Y-78873260D01*
X38457495Y-79273631D01*
X38488389Y-79679910D01*
X38498798Y-80091594D01*
X38498798Y-104091670D01*
X38488389Y-104503346D01*
X38457495Y-104909618D01*
X38406620Y-105309983D01*
X38336266Y-105703938D01*
X38246936Y-106090981D01*
X38139132Y-106470610D01*
X38013358Y-106842321D01*
X37870116Y-107205612D01*
X37709908Y-107559980D01*
X37533237Y-107904923D01*
X37340607Y-108239937D01*
X37132518Y-108564521D01*
X36909476Y-108878172D01*
X36671981Y-109180386D01*
X36420536Y-109470662D01*
X36155645Y-109748496D01*
X35877810Y-110013386D01*
X35587534Y-110264830D01*
X35285318Y-110502324D01*
X34971667Y-110725366D01*
X34647082Y-110933453D01*
X34312067Y-111126083D01*
X33967123Y-111302753D01*
X33612754Y-111462960D01*
X33249463Y-111606202D01*
X32877751Y-111731975D01*
X32498122Y-111839778D01*
X32111078Y-111929108D01*
X31717123Y-111999462D01*
X31316757Y-112050337D01*
X30910486Y-112081230D01*
X30498810Y-112091640D01*
X30087126Y-112081230D01*
X29680847Y-112050337D01*
X29280476Y-111999462D01*
X28886515Y-111929108D01*
X28499468Y-111839778D01*
X28119835Y-111731975D01*
X27748121Y-111606202D01*
X27384827Y-111462960D01*
X27030457Y-111302753D01*
X26685513Y-111126083D01*
X26350497Y-110933453D01*
X26025913Y-110725366D01*
X25712263Y-110502324D01*
X25410049Y-110264830D01*
X25119774Y-110013386D01*
X24841941Y-109748496D01*
X24577052Y-109470662D01*
X24325610Y-109180386D01*
X24088118Y-108878172D01*
X23865077Y-108564521D01*
X23656992Y-108239937D01*
X23464364Y-107904923D01*
X23287696Y-107559980D01*
X23127491Y-107205612D01*
X22984252Y-106842321D01*
X22858480Y-106470610D01*
X22750678Y-106090981D01*
X22661350Y-105703938D01*
X22590998Y-105309983D01*
X22540124Y-104909618D01*
X22509231Y-104503346D01*
X22498821Y-104091670D01*
X22498821Y-80091594D01*
X22509231Y-79679910D01*
X22540124Y-79273631D01*
X22590998Y-78873260D01*
X22661350Y-78479299D01*
X22750678Y-78092251D01*
X22858480Y-77712619D01*
X22984252Y-77340905D01*
X23127491Y-76977611D01*
X23287696Y-76623241D01*
X23464364Y-76278297D01*
X23656992Y-75943282D01*
X23865077Y-75618698D01*
X24088118Y-75305047D01*
X24325610Y-75002834D01*
X24577052Y-74712559D01*
X24841941Y-74434726D01*
X25119774Y-74169837D01*
X25410049Y-73918396D01*
X25712263Y-73680904D01*
X26025913Y-73457864D01*
X26350497Y-73249779D01*
X26685513Y-73057151D01*
X27030457Y-72880483D01*
X27384827Y-72720278D01*
X27748121Y-72577039D01*
X28119835Y-72451267D01*
X28499468Y-72343466D01*
X28886515Y-72254138D01*
X29280476Y-72183785D01*
X29680847Y-72132911D01*
X30087126Y-72102018D01*
X30498810Y-72091609D01*
X30910486Y-72102018D01*
D12*
X48135387Y-113603000D02*
X48261931Y-113612622D01*
X48386635Y-113628468D01*
X48509342Y-113650381D01*
X48629897Y-113678204D01*
X48748141Y-113711782D01*
X48863920Y-113750956D01*
X48977075Y-113795571D01*
X49087452Y-113845471D01*
X49194892Y-113900498D01*
X49299240Y-113960496D01*
X49400340Y-114025308D01*
X49498033Y-114094778D01*
X49592165Y-114168750D01*
X49682577Y-114247066D01*
X49769115Y-114329570D01*
X49851621Y-114416106D01*
X49929938Y-114506516D01*
X50003911Y-114600646D01*
X50073382Y-114698337D01*
X50138195Y-114799433D01*
X50198194Y-114903778D01*
X50253221Y-115011214D01*
X50303121Y-115121587D01*
X50347736Y-115234738D01*
X50386911Y-115350512D01*
X50420489Y-115468752D01*
X50448312Y-115589301D01*
X50470225Y-115712002D01*
X50486071Y-115836700D01*
X50495693Y-115963237D01*
X50498936Y-116091457D01*
X50498936Y-116091823D01*
X50495693Y-116220043D01*
X50486071Y-116346580D01*
X50470225Y-116471278D01*
X50448312Y-116593980D01*
X50420489Y-116714530D01*
X50386911Y-116832770D01*
X50347736Y-116948545D01*
X50303121Y-117061697D01*
X50253221Y-117172071D01*
X50198194Y-117279509D01*
X50138195Y-117383855D01*
X50073382Y-117484952D01*
X50003911Y-117582645D01*
X49929938Y-117676775D01*
X49851621Y-117767187D01*
X49769115Y-117853725D01*
X49682577Y-117936230D01*
X49592165Y-118014548D01*
X49498033Y-118088521D01*
X49400340Y-118157992D01*
X49299240Y-118222806D01*
X49194892Y-118282805D01*
X49087452Y-118337833D01*
X48977075Y-118387734D01*
X48863920Y-118432350D01*
X48748141Y-118471525D01*
X48629897Y-118505103D01*
X48509342Y-118532928D01*
X48386635Y-118554841D01*
X48261931Y-118570687D01*
X48135387Y-118580310D01*
X48007160Y-118583553D01*
X44990677Y-118583553D01*
X44862453Y-118580310D01*
X44735911Y-118570687D01*
X44611209Y-118554841D01*
X44488503Y-118532928D01*
X44367950Y-118505103D01*
X44249706Y-118471525D01*
X44133927Y-118432350D01*
X44020771Y-118387734D01*
X43910394Y-118337833D01*
X43802953Y-118282805D01*
X43698603Y-118222806D01*
X43597503Y-118157992D01*
X43499808Y-118088521D01*
X43405674Y-118014548D01*
X43315259Y-117936230D01*
X43228720Y-117853725D01*
X43146212Y-117767187D01*
X43067892Y-117676775D01*
X42993917Y-117582645D01*
X42924443Y-117484952D01*
X42859628Y-117383855D01*
X42799627Y-117279509D01*
X42744597Y-117172071D01*
X42694695Y-117061697D01*
X42650078Y-116948545D01*
X42610901Y-116832770D01*
X42577322Y-116714530D01*
X42549497Y-116593980D01*
X42527583Y-116471278D01*
X42511736Y-116346580D01*
X42502113Y-116220043D01*
X42498871Y-116091823D01*
X42498871Y-116091457D01*
X42502113Y-115963237D01*
X42511736Y-115836700D01*
X42527583Y-115712002D01*
X42549497Y-115589301D01*
X42577322Y-115468752D01*
X42610901Y-115350512D01*
X42650078Y-115234738D01*
X42694695Y-115121587D01*
X42744597Y-115011214D01*
X42799627Y-114903778D01*
X42859628Y-114799433D01*
X42924443Y-114698337D01*
X42993917Y-114600646D01*
X43067892Y-114506516D01*
X43146212Y-114416106D01*
X43228720Y-114329570D01*
X43315259Y-114247066D01*
X43405674Y-114168750D01*
X43499808Y-114094778D01*
X43597503Y-114025308D01*
X43698603Y-113960496D01*
X43802953Y-113900498D01*
X43910394Y-113845471D01*
X44020771Y-113795571D01*
X44133927Y-113750956D01*
X44249706Y-113711782D01*
X44367950Y-113678204D01*
X44488503Y-113650381D01*
X44611209Y-113628468D01*
X44735911Y-113612622D01*
X44862453Y-113603000D01*
X44990677Y-113599757D01*
X48007160Y-113599757D01*
X48135387Y-113603000D01*
X144135444Y-113603000D02*
X144261988Y-113612622D01*
X144386691Y-113628468D01*
X144509399Y-113650381D01*
X144629953Y-113678204D01*
X144748197Y-113711782D01*
X144863975Y-113750956D01*
X144977131Y-113795571D01*
X145087507Y-113845471D01*
X145194948Y-113900498D01*
X145299296Y-113960496D01*
X145400395Y-114025308D01*
X145498089Y-114094778D01*
X145592220Y-114168750D01*
X145682633Y-114247066D01*
X145769171Y-114329570D01*
X145851677Y-114416106D01*
X145929994Y-114506516D01*
X146003967Y-114600646D01*
X146073438Y-114698336D01*
X146138251Y-114799433D01*
X146198250Y-114903778D01*
X146253278Y-115011214D01*
X146303178Y-115121587D01*
X146347793Y-115234738D01*
X146386968Y-115350512D01*
X146420546Y-115468752D01*
X146448369Y-115589301D01*
X146470282Y-115712002D01*
X146486128Y-115836700D01*
X146495751Y-115963237D01*
X146498993Y-116091457D01*
X146498993Y-116091823D01*
X146495751Y-116220043D01*
X146486128Y-116346580D01*
X146470282Y-116471278D01*
X146448369Y-116593980D01*
X146420546Y-116714530D01*
X146386968Y-116832770D01*
X146347793Y-116948545D01*
X146303178Y-117061697D01*
X146253278Y-117172071D01*
X146198250Y-117279509D01*
X146138251Y-117383855D01*
X146073438Y-117484952D01*
X146003967Y-117582645D01*
X145929994Y-117676775D01*
X145851677Y-117767187D01*
X145769171Y-117853725D01*
X145682633Y-117936230D01*
X145592220Y-118014548D01*
X145498089Y-118088521D01*
X145400395Y-118157992D01*
X145299296Y-118222806D01*
X145194948Y-118282805D01*
X145087507Y-118337833D01*
X144977131Y-118387734D01*
X144863975Y-118432350D01*
X144748197Y-118471525D01*
X144629953Y-118505103D01*
X144509399Y-118532928D01*
X144386691Y-118554841D01*
X144261988Y-118570687D01*
X144135444Y-118580310D01*
X144007217Y-118583553D01*
X140990738Y-118583553D01*
X140862514Y-118580310D01*
X140735972Y-118570687D01*
X140611270Y-118554841D01*
X140488564Y-118532928D01*
X140368011Y-118505103D01*
X140249767Y-118471525D01*
X140133988Y-118432350D01*
X140020832Y-118387734D01*
X139910455Y-118337833D01*
X139803014Y-118282805D01*
X139698664Y-118222806D01*
X139597564Y-118157992D01*
X139499869Y-118088521D01*
X139405735Y-118014548D01*
X139315320Y-117936230D01*
X139228781Y-117853725D01*
X139146273Y-117767187D01*
X139067953Y-117676775D01*
X138993978Y-117582645D01*
X138924504Y-117484952D01*
X138859689Y-117383855D01*
X138799688Y-117279509D01*
X138744658Y-117172071D01*
X138694756Y-117061697D01*
X138650139Y-116948545D01*
X138610962Y-116832770D01*
X138577383Y-116714530D01*
X138549558Y-116593980D01*
X138527644Y-116471278D01*
X138511797Y-116346580D01*
X138502174Y-116220043D01*
X138498932Y-116091823D01*
X138498932Y-116091457D01*
X138502174Y-115963237D01*
X138511797Y-115836700D01*
X138527644Y-115712002D01*
X138549558Y-115589301D01*
X138577383Y-115468752D01*
X138610962Y-115350512D01*
X138650139Y-115234738D01*
X138694756Y-115121587D01*
X138744658Y-115011214D01*
X138799688Y-114903778D01*
X138859689Y-114799433D01*
X138924504Y-114698336D01*
X138993978Y-114600646D01*
X139067953Y-114506516D01*
X139146273Y-114416106D01*
X139228781Y-114329570D01*
X139315320Y-114247066D01*
X139405735Y-114168750D01*
X139499869Y-114094778D01*
X139597564Y-114025308D01*
X139698664Y-113960496D01*
X139803014Y-113900498D01*
X139910455Y-113845471D01*
X140020832Y-113795571D01*
X140133988Y-113750956D01*
X140249767Y-113711782D01*
X140368011Y-113678204D01*
X140488564Y-113650381D01*
X140611270Y-113628468D01*
X140735972Y-113612622D01*
X140862514Y-113603000D01*
X140990738Y-113599757D01*
X144007217Y-113599757D01*
X144135444Y-113603000D01*
D13*
X160135365Y-89602984D02*
X160261906Y-89612607D01*
X160386607Y-89628453D01*
X160509312Y-89650366D01*
X160629864Y-89678189D01*
X160748107Y-89711767D01*
X160863883Y-89750941D01*
X160977037Y-89795556D01*
X161087412Y-89845456D01*
X161194851Y-89900483D01*
X161299198Y-89960481D01*
X161400296Y-90025294D01*
X161497988Y-90094764D01*
X161592119Y-90168736D01*
X161682531Y-90247052D01*
X161769068Y-90329557D01*
X161851573Y-90416093D01*
X161929890Y-90506504D01*
X162003862Y-90600634D01*
X162073333Y-90698325D01*
X162138146Y-90799422D01*
X162198144Y-90903767D01*
X162253172Y-91011205D01*
X162303071Y-91121578D01*
X162347687Y-91234730D01*
X162386861Y-91350505D01*
X162420439Y-91468746D01*
X162448262Y-91589295D01*
X162470175Y-91711998D01*
X162486021Y-91836697D01*
X162495644Y-91963235D01*
X162498886Y-92091457D01*
X162498886Y-92091808D01*
X162495644Y-92220029D01*
X162486021Y-92346567D01*
X162470175Y-92471266D01*
X162448262Y-92593969D01*
X162420439Y-92714518D01*
X162386861Y-92832759D01*
X162347687Y-92948534D01*
X162303071Y-93061686D01*
X162253172Y-93172059D01*
X162198144Y-93279497D01*
X162138146Y-93383842D01*
X162073333Y-93484939D01*
X162003862Y-93582631D01*
X161929890Y-93676760D01*
X161851573Y-93767171D01*
X161769068Y-93853707D01*
X161682531Y-93936212D01*
X161592119Y-94014528D01*
X161497988Y-94088500D01*
X161400296Y-94157970D01*
X161299198Y-94222783D01*
X161194851Y-94282781D01*
X161087412Y-94337808D01*
X160977037Y-94387708D01*
X160863883Y-94432323D01*
X160748107Y-94471498D01*
X160629864Y-94505075D01*
X160509312Y-94532898D01*
X160386607Y-94554811D01*
X160261906Y-94570657D01*
X160135365Y-94580280D01*
X160007141Y-94583522D01*
X156954544Y-94583522D01*
X156826314Y-94580280D01*
X156699769Y-94570657D01*
X156575063Y-94554811D01*
X156452354Y-94532898D01*
X156331799Y-94505075D01*
X156213553Y-94471498D01*
X156097774Y-94432323D01*
X155984617Y-94387708D01*
X155874241Y-94337808D01*
X155766800Y-94282781D01*
X155662452Y-94222783D01*
X155561353Y-94157970D01*
X155463660Y-94088500D01*
X155369529Y-94014528D01*
X155279116Y-93936212D01*
X155192579Y-93853707D01*
X155110074Y-93767171D01*
X155031757Y-93676760D01*
X154957786Y-93582631D01*
X154888315Y-93484939D01*
X154823503Y-93383842D01*
X154763505Y-93279497D01*
X154708479Y-93172059D01*
X154658580Y-93061686D01*
X154613965Y-92948534D01*
X154574791Y-92832759D01*
X154541214Y-92714518D01*
X154513391Y-92593969D01*
X154491479Y-92471266D01*
X154475633Y-92346567D01*
X154466011Y-92220029D01*
X154462769Y-92091808D01*
X154462769Y-92091457D01*
X154466011Y-91963235D01*
X154475633Y-91836697D01*
X154491479Y-91711998D01*
X154513391Y-91589295D01*
X154541214Y-91468746D01*
X154574791Y-91350505D01*
X154613965Y-91234730D01*
X154658580Y-91121578D01*
X154708479Y-91011205D01*
X154763505Y-90903767D01*
X154823503Y-90799422D01*
X154888315Y-90698325D01*
X154957786Y-90600634D01*
X155031757Y-90506504D01*
X155110074Y-90416093D01*
X155192579Y-90329557D01*
X155279116Y-90247052D01*
X155369529Y-90168736D01*
X155463660Y-90094764D01*
X155561353Y-90025294D01*
X155662452Y-89960481D01*
X155766800Y-89900483D01*
X155874241Y-89845456D01*
X155984617Y-89795556D01*
X156097774Y-89750941D01*
X156213553Y-89711767D01*
X156331799Y-89678189D01*
X156452354Y-89650366D01*
X156575063Y-89628453D01*
X156699769Y-89612607D01*
X156826314Y-89602984D01*
X156954544Y-89599742D01*
X160007141Y-89599742D01*
X160135365Y-89602984D01*
D12*
X160135444Y-113603000D02*
X160261988Y-113612622D01*
X160386691Y-113628468D01*
X160509399Y-113650381D01*
X160629953Y-113678204D01*
X160748197Y-113711782D01*
X160863975Y-113750956D01*
X160977131Y-113795571D01*
X161087507Y-113845471D01*
X161194948Y-113900498D01*
X161299296Y-113960496D01*
X161400395Y-114025308D01*
X161498089Y-114094778D01*
X161592220Y-114168750D01*
X161682633Y-114247066D01*
X161769171Y-114329570D01*
X161851677Y-114416106D01*
X161929994Y-114506516D01*
X162003967Y-114600646D01*
X162073438Y-114698336D01*
X162138251Y-114799433D01*
X162198250Y-114903778D01*
X162253278Y-115011214D01*
X162303178Y-115121587D01*
X162347793Y-115234738D01*
X162386968Y-115350512D01*
X162420546Y-115468752D01*
X162448369Y-115589301D01*
X162470282Y-115712002D01*
X162486128Y-115836700D01*
X162495751Y-115963237D01*
X162498993Y-116091457D01*
X162498993Y-116091823D01*
X162495751Y-116220043D01*
X162486128Y-116346580D01*
X162470282Y-116471278D01*
X162448369Y-116593980D01*
X162420546Y-116714530D01*
X162386968Y-116832770D01*
X162347793Y-116948545D01*
X162303178Y-117061697D01*
X162253278Y-117172071D01*
X162198250Y-117279509D01*
X162138251Y-117383855D01*
X162073438Y-117484952D01*
X162003967Y-117582645D01*
X161929994Y-117676775D01*
X161851677Y-117767187D01*
X161769171Y-117853725D01*
X161682633Y-117936230D01*
X161592220Y-118014548D01*
X161498089Y-118088521D01*
X161400395Y-118157992D01*
X161299296Y-118222806D01*
X161194948Y-118282805D01*
X161087507Y-118337833D01*
X160977131Y-118387734D01*
X160863975Y-118432350D01*
X160748197Y-118471525D01*
X160629953Y-118505103D01*
X160509399Y-118532928D01*
X160386691Y-118554841D01*
X160261988Y-118570687D01*
X160135444Y-118580310D01*
X160007217Y-118583553D01*
X156990738Y-118583553D01*
X156862514Y-118580310D01*
X156735972Y-118570687D01*
X156611270Y-118554841D01*
X156488564Y-118532928D01*
X156368011Y-118505103D01*
X156249767Y-118471525D01*
X156133988Y-118432350D01*
X156020832Y-118387734D01*
X155910455Y-118337833D01*
X155803014Y-118282805D01*
X155698664Y-118222806D01*
X155597564Y-118157992D01*
X155499869Y-118088521D01*
X155405735Y-118014548D01*
X155315320Y-117936230D01*
X155228781Y-117853725D01*
X155146273Y-117767187D01*
X155067953Y-117676775D01*
X154993978Y-117582645D01*
X154924504Y-117484952D01*
X154859689Y-117383855D01*
X154799688Y-117279509D01*
X154744658Y-117172071D01*
X154694756Y-117061697D01*
X154650139Y-116948545D01*
X154610962Y-116832770D01*
X154577383Y-116714530D01*
X154549558Y-116593980D01*
X154527644Y-116471278D01*
X154511797Y-116346580D01*
X154502174Y-116220043D01*
X154498932Y-116091823D01*
X154498932Y-116091457D01*
X154502174Y-115963237D01*
X154511797Y-115836700D01*
X154527644Y-115712002D01*
X154549558Y-115589301D01*
X154577383Y-115468752D01*
X154610962Y-115350512D01*
X154650139Y-115234738D01*
X154694756Y-115121587D01*
X154744658Y-115011214D01*
X154799688Y-114903778D01*
X154859689Y-114799433D01*
X154924504Y-114698336D01*
X154993978Y-114600646D01*
X155067953Y-114506516D01*
X155146273Y-114416106D01*
X155228781Y-114329570D01*
X155315320Y-114247066D01*
X155405735Y-114168750D01*
X155499869Y-114094778D01*
X155597564Y-114025308D01*
X155698664Y-113960496D01*
X155803014Y-113900498D01*
X155910455Y-113845471D01*
X156020832Y-113795571D01*
X156133988Y-113750956D01*
X156249767Y-113711782D01*
X156368011Y-113678204D01*
X156488564Y-113650381D01*
X156611270Y-113628468D01*
X156735972Y-113612622D01*
X156862514Y-113603000D01*
X156990738Y-113599757D01*
X160007217Y-113599757D01*
X160135444Y-113603000D01*
D14*
X175755946Y-113603000D02*
X175882491Y-113612622D01*
X176007197Y-113628468D01*
X176129905Y-113650381D01*
X176250461Y-113678204D01*
X176368706Y-113711782D01*
X176484484Y-113750956D01*
X176597640Y-113795571D01*
X176708016Y-113845471D01*
X176815457Y-113900498D01*
X176919804Y-113960496D01*
X177020902Y-114025308D01*
X177118595Y-114094778D01*
X177212725Y-114168750D01*
X177303137Y-114247066D01*
X177389673Y-114329570D01*
X177472178Y-114416106D01*
X177550494Y-114506516D01*
X177624465Y-114600646D01*
X177693934Y-114698337D01*
X177758746Y-114799433D01*
X177818743Y-114903778D01*
X177873769Y-115011214D01*
X177923668Y-115121587D01*
X177968282Y-115234738D01*
X178007455Y-115350512D01*
X178041032Y-115468752D01*
X178068854Y-115589301D01*
X178090767Y-115712002D01*
X178106612Y-115836700D01*
X178116234Y-115963237D01*
X178119476Y-116091457D01*
X178119476Y-116091823D01*
X178116234Y-116220043D01*
X178106612Y-116346580D01*
X178090767Y-116471278D01*
X178068854Y-116593980D01*
X178041032Y-116714530D01*
X178007455Y-116832770D01*
X177968282Y-116948545D01*
X177923668Y-117061697D01*
X177873769Y-117172071D01*
X177818743Y-117279509D01*
X177758746Y-117383855D01*
X177693934Y-117484952D01*
X177624465Y-117582645D01*
X177550494Y-117676775D01*
X177472178Y-117767187D01*
X177389673Y-117853725D01*
X177303137Y-117936230D01*
X177212725Y-118014548D01*
X177118595Y-118088521D01*
X177020902Y-118157992D01*
X176919804Y-118222806D01*
X176815457Y-118282805D01*
X176708016Y-118337833D01*
X176597640Y-118387734D01*
X176484484Y-118432350D01*
X176368706Y-118471525D01*
X176250461Y-118505103D01*
X176129905Y-118532928D01*
X176007197Y-118554841D01*
X175882491Y-118570687D01*
X175755946Y-118580310D01*
X175627716Y-118583552D01*
X173448852Y-118583552D01*
X173320631Y-118580310D01*
X173194092Y-118570687D01*
X173069393Y-118554841D01*
X172946689Y-118532928D01*
X172826139Y-118505103D01*
X172707897Y-118471525D01*
X172592121Y-118432350D01*
X172478967Y-118387734D01*
X172368592Y-118337833D01*
X172261153Y-118282805D01*
X172156805Y-118222806D01*
X172055706Y-118157992D01*
X171958013Y-118088521D01*
X171863881Y-118014548D01*
X171773468Y-117936230D01*
X171686930Y-117853725D01*
X171604423Y-117767187D01*
X171526104Y-117676775D01*
X171452131Y-117582645D01*
X171382658Y-117484952D01*
X171317844Y-117383855D01*
X171257844Y-117279509D01*
X171202815Y-117172071D01*
X171152914Y-117061697D01*
X171108297Y-116948545D01*
X171069121Y-116832770D01*
X171035542Y-116714530D01*
X171007718Y-116593980D01*
X170985804Y-116471278D01*
X170969957Y-116346580D01*
X170960335Y-116220043D01*
X170957092Y-116091823D01*
X170957092Y-116091457D01*
X170960335Y-115963237D01*
X170969957Y-115836700D01*
X170985804Y-115712002D01*
X171007718Y-115589301D01*
X171035542Y-115468752D01*
X171069121Y-115350512D01*
X171108297Y-115234738D01*
X171152914Y-115121587D01*
X171202815Y-115011214D01*
X171257844Y-114903778D01*
X171317844Y-114799433D01*
X171382658Y-114698337D01*
X171452131Y-114600646D01*
X171526104Y-114506516D01*
X171604423Y-114416106D01*
X171686930Y-114329570D01*
X171773468Y-114247066D01*
X171863881Y-114168750D01*
X171958013Y-114094778D01*
X172055706Y-114025308D01*
X172156805Y-113960496D01*
X172261153Y-113900498D01*
X172368592Y-113845471D01*
X172478967Y-113795571D01*
X172592121Y-113750956D01*
X172707897Y-113711782D01*
X172826139Y-113678204D01*
X172946689Y-113650381D01*
X173069393Y-113628468D01*
X173194092Y-113612622D01*
X173320631Y-113603000D01*
X173448852Y-113599757D01*
X175627716Y-113599757D01*
X175755946Y-113603000D01*
D15*
X209253641Y-113603000D02*
X209380187Y-113612622D01*
X209504892Y-113628468D01*
X209627600Y-113650381D01*
X209748154Y-113678204D01*
X209866399Y-113711782D01*
X209982177Y-113750956D01*
X210095331Y-113795571D01*
X210205706Y-113845471D01*
X210313145Y-113900498D01*
X210417492Y-113960496D01*
X210518589Y-114025308D01*
X210616280Y-114094778D01*
X210710409Y-114168750D01*
X210800819Y-114247066D01*
X210887354Y-114329570D01*
X210969857Y-114416106D01*
X211048171Y-114506516D01*
X211122141Y-114600646D01*
X211191609Y-114698337D01*
X211256420Y-114799433D01*
X211316416Y-114903778D01*
X211371441Y-115011214D01*
X211421338Y-115121587D01*
X211465951Y-115234738D01*
X211505124Y-115350512D01*
X211538699Y-115468752D01*
X211566521Y-115589301D01*
X211588433Y-115712002D01*
X211604278Y-115836700D01*
X211613900Y-115963237D01*
X211617142Y-116091457D01*
X211617142Y-116091823D01*
X211613900Y-116220043D01*
X211604278Y-116346580D01*
X211588433Y-116471278D01*
X211566521Y-116593980D01*
X211538699Y-116714530D01*
X211505124Y-116832770D01*
X211465951Y-116948545D01*
X211421338Y-117061697D01*
X211371441Y-117172071D01*
X211316416Y-117279509D01*
X211256420Y-117383855D01*
X211191609Y-117484952D01*
X211122141Y-117582645D01*
X211048171Y-117676775D01*
X210969857Y-117767187D01*
X210887354Y-117853725D01*
X210800819Y-117936230D01*
X210710409Y-118014548D01*
X210616280Y-118088521D01*
X210518589Y-118157992D01*
X210417492Y-118222806D01*
X210313145Y-118282805D01*
X210205706Y-118337833D01*
X210095331Y-118387734D01*
X209982177Y-118432350D01*
X209866399Y-118471525D01*
X209748154Y-118505103D01*
X209627600Y-118532928D01*
X209504892Y-118554841D01*
X209380187Y-118570687D01*
X209253641Y-118580310D01*
X209125412Y-118583553D01*
X203564590Y-118583553D01*
X203436373Y-118580310D01*
X203309838Y-118570687D01*
X203185141Y-118554841D01*
X203062441Y-118532928D01*
X202941892Y-118505103D01*
X202823652Y-118471525D01*
X202707877Y-118432350D01*
X202594724Y-118387734D01*
X202484350Y-118337833D01*
X202376911Y-118282805D01*
X202272563Y-118222806D01*
X202171464Y-118157992D01*
X202073771Y-118088521D01*
X201979638Y-118014548D01*
X201889224Y-117936230D01*
X201802685Y-117853725D01*
X201720177Y-117767187D01*
X201641857Y-117676775D01*
X201567882Y-117582645D01*
X201498408Y-117484952D01*
X201433592Y-117383855D01*
X201373591Y-117279509D01*
X201318561Y-117172071D01*
X201268658Y-117061697D01*
X201224040Y-116948545D01*
X201184863Y-116832770D01*
X201151283Y-116714530D01*
X201123458Y-116593980D01*
X201101543Y-116471278D01*
X201085696Y-116346580D01*
X201076073Y-116220043D01*
X201072830Y-116091823D01*
X201072830Y-116091457D01*
X201076073Y-115963237D01*
X201085696Y-115836700D01*
X201101543Y-115712002D01*
X201123458Y-115589301D01*
X201151283Y-115468752D01*
X201184863Y-115350512D01*
X201224040Y-115234738D01*
X201268658Y-115121587D01*
X201318561Y-115011214D01*
X201373591Y-114903778D01*
X201433592Y-114799433D01*
X201498408Y-114698337D01*
X201567882Y-114600646D01*
X201641857Y-114506516D01*
X201720177Y-114416106D01*
X201802685Y-114329570D01*
X201889224Y-114247066D01*
X201979638Y-114168750D01*
X202073771Y-114094778D01*
X202171464Y-114025308D01*
X202272563Y-113960496D01*
X202376911Y-113900498D01*
X202484350Y-113845471D01*
X202594724Y-113795571D01*
X202707877Y-113750956D01*
X202823652Y-113711782D01*
X202941892Y-113678204D01*
X203062441Y-113650381D01*
X203185141Y-113628468D01*
X203309838Y-113612622D01*
X203436373Y-113603000D01*
X203564590Y-113599757D01*
X209125412Y-113599757D01*
X209253641Y-113603000D01*
X225407633Y-113603000D02*
X225534179Y-113612622D01*
X225658884Y-113628468D01*
X225781592Y-113650381D01*
X225902147Y-113678204D01*
X226020392Y-113711782D01*
X226136170Y-113750956D01*
X226249325Y-113795571D01*
X226359701Y-113845471D01*
X226467141Y-113900498D01*
X226571487Y-113960496D01*
X226672585Y-114025308D01*
X226770277Y-114094778D01*
X226864407Y-114168750D01*
X226954818Y-114247066D01*
X227041353Y-114329570D01*
X227123857Y-114416106D01*
X227202172Y-114506516D01*
X227276143Y-114600646D01*
X227345612Y-114698337D01*
X227410423Y-114799433D01*
X227470419Y-114903778D01*
X227525445Y-115011214D01*
X227575342Y-115121587D01*
X227619956Y-115234738D01*
X227659129Y-115350512D01*
X227692705Y-115468752D01*
X227720527Y-115589301D01*
X227742439Y-115712002D01*
X227758285Y-115836700D01*
X227767907Y-115963237D01*
X227771149Y-116091457D01*
X227771149Y-116091823D01*
X227767907Y-116220043D01*
X227758285Y-116346580D01*
X227742439Y-116471278D01*
X227720527Y-116593980D01*
X227692705Y-116714530D01*
X227659129Y-116832770D01*
X227619956Y-116948545D01*
X227575342Y-117061697D01*
X227525445Y-117172071D01*
X227470419Y-117279509D01*
X227410423Y-117383855D01*
X227345612Y-117484952D01*
X227276143Y-117582645D01*
X227202172Y-117676775D01*
X227123857Y-117767187D01*
X227041353Y-117853725D01*
X226954818Y-117936230D01*
X226864407Y-118014548D01*
X226770277Y-118088521D01*
X226672585Y-118157992D01*
X226571487Y-118222806D01*
X226467141Y-118282805D01*
X226359701Y-118337833D01*
X226249325Y-118387734D01*
X226136170Y-118432350D01*
X226020392Y-118471525D01*
X225902147Y-118505103D01*
X225781592Y-118532928D01*
X225658884Y-118554841D01*
X225534179Y-118570687D01*
X225407633Y-118580310D01*
X225279404Y-118583553D01*
X219718597Y-118583553D01*
X219590379Y-118580310D01*
X219463842Y-118570687D01*
X219339144Y-118554841D01*
X219216442Y-118532928D01*
X219095893Y-118505103D01*
X218977652Y-118471525D01*
X218861876Y-118432350D01*
X218748722Y-118387734D01*
X218638347Y-118337833D01*
X218530907Y-118282805D01*
X218426559Y-118222806D01*
X218325460Y-118157992D01*
X218227765Y-118088521D01*
X218133633Y-118014548D01*
X218043218Y-117936230D01*
X217956678Y-117853725D01*
X217874170Y-117767187D01*
X217795850Y-117676775D01*
X217721875Y-117582645D01*
X217652401Y-117484952D01*
X217587585Y-117383855D01*
X217527583Y-117279509D01*
X217472553Y-117172071D01*
X217422650Y-117061697D01*
X217378032Y-116948545D01*
X217338855Y-116832770D01*
X217305275Y-116714530D01*
X217277449Y-116593980D01*
X217255535Y-116471278D01*
X217239688Y-116346580D01*
X217230064Y-116220043D01*
X217226822Y-116091823D01*
X217226822Y-116091457D01*
X217230064Y-115963237D01*
X217239688Y-115836700D01*
X217255535Y-115712002D01*
X217277449Y-115589301D01*
X217305275Y-115468752D01*
X217338855Y-115350512D01*
X217378032Y-115234738D01*
X217422650Y-115121587D01*
X217472553Y-115011214D01*
X217527583Y-114903778D01*
X217587585Y-114799433D01*
X217652401Y-114698337D01*
X217721875Y-114600646D01*
X217795850Y-114506516D01*
X217874170Y-114416106D01*
X217956678Y-114329570D01*
X218043218Y-114247066D01*
X218133633Y-114168750D01*
X218227765Y-114094778D01*
X218325460Y-114025308D01*
X218426559Y-113960496D01*
X218530907Y-113900498D01*
X218638347Y-113845471D01*
X218748722Y-113795571D01*
X218861876Y-113750956D01*
X218977652Y-113711782D01*
X219095893Y-113678204D01*
X219216442Y-113650381D01*
X219339144Y-113628468D01*
X219463842Y-113612622D01*
X219590379Y-113603000D01*
X219718597Y-113599757D01*
X225279404Y-113599757D01*
X225407633Y-113603000D01*
D16*
X241779488Y-113602819D02*
X241902209Y-113611949D01*
X242023890Y-113627061D01*
X242144325Y-113648072D01*
X242263309Y-113674897D01*
X242380640Y-113707452D01*
X242496111Y-113745652D01*
X242609518Y-113789413D01*
X242720657Y-113838650D01*
X242829323Y-113893279D01*
X242935312Y-113953215D01*
X243038419Y-114018375D01*
X243138440Y-114088673D01*
X243235170Y-114164026D01*
X243328404Y-114244347D01*
X243417938Y-114329555D01*
X243503140Y-114419088D01*
X243583459Y-114512319D01*
X243658808Y-114609044D01*
X243729105Y-114709059D01*
X243794264Y-114812159D01*
X243854201Y-114918140D01*
X243908830Y-115026797D01*
X243958069Y-115137927D01*
X244001831Y-115251325D01*
X244040033Y-115366787D01*
X244072590Y-115484108D01*
X244099417Y-115603085D01*
X244120429Y-115723512D01*
X244135543Y-115845186D01*
X244144673Y-115967902D01*
X244147736Y-116091457D01*
X244147736Y-116091823D01*
X244144673Y-116215377D01*
X244135543Y-116338095D01*
X244120429Y-116459770D01*
X244099417Y-116580199D01*
X244072590Y-116699178D01*
X244040033Y-116816502D01*
X244001831Y-116931967D01*
X243958069Y-117045367D01*
X243908830Y-117156500D01*
X243854201Y-117265160D01*
X243794264Y-117371144D01*
X243729105Y-117474246D01*
X243658808Y-117574263D01*
X243583459Y-117670989D01*
X243503140Y-117764222D01*
X243417938Y-117853755D01*
X243328404Y-117938957D01*
X243235170Y-118019276D01*
X243138440Y-118094625D01*
X243038419Y-118164922D01*
X242935312Y-118230081D01*
X242829323Y-118290018D01*
X242720657Y-118344647D01*
X242609518Y-118393886D01*
X242496111Y-118437648D01*
X242380640Y-118475850D01*
X242263309Y-118508407D01*
X242144325Y-118535234D01*
X242023890Y-118556246D01*
X241902209Y-118571360D01*
X241779488Y-118580490D01*
X241655930Y-118583552D01*
X235341934Y-118583552D01*
X235218377Y-118580490D01*
X235095657Y-118571360D01*
X234973978Y-118556246D01*
X234853546Y-118535234D01*
X234734564Y-118508407D01*
X234617236Y-118475850D01*
X234501768Y-118437648D01*
X234388363Y-118393886D01*
X234277226Y-118344647D01*
X234168560Y-118290018D01*
X234062572Y-118230081D01*
X233959464Y-118164922D01*
X233859441Y-118094625D01*
X233762707Y-118019276D01*
X233669467Y-117938957D01*
X233579926Y-117853755D01*
X233494736Y-117764222D01*
X233414427Y-117670989D01*
X233339084Y-117574263D01*
X233268791Y-117474246D01*
X233203634Y-117371144D01*
X233143697Y-117265160D01*
X233089065Y-117156500D01*
X233039823Y-117045367D01*
X232996057Y-116931967D01*
X232957851Y-116816502D01*
X232925289Y-116699178D01*
X232898458Y-116580199D01*
X232877441Y-116459770D01*
X232862324Y-116338095D01*
X232853191Y-116215377D01*
X232850128Y-116091823D01*
X232850128Y-116091457D01*
X232853191Y-115967902D01*
X232862324Y-115845186D01*
X232877441Y-115723512D01*
X232898458Y-115603085D01*
X232925289Y-115484108D01*
X232957851Y-115366787D01*
X232996057Y-115251325D01*
X233039823Y-115137927D01*
X233089065Y-115026797D01*
X233143697Y-114918140D01*
X233203634Y-114812159D01*
X233268791Y-114709059D01*
X233339084Y-114609044D01*
X233414427Y-114512319D01*
X233494736Y-114419088D01*
X233579926Y-114329555D01*
X233669467Y-114244347D01*
X233762707Y-114164026D01*
X233859441Y-114088673D01*
X233959464Y-114018375D01*
X234062572Y-113953215D01*
X234168560Y-113893279D01*
X234277226Y-113838650D01*
X234388363Y-113789413D01*
X234501768Y-113745652D01*
X234617236Y-113707452D01*
X234734564Y-113674897D01*
X234853546Y-113648072D01*
X234973978Y-113627061D01*
X235095657Y-113611949D01*
X235218377Y-113602819D01*
X235341934Y-113599757D01*
X241655930Y-113599757D01*
X241779488Y-113602819D01*
D17*
X30559185Y-48091548D02*
X42498856Y-48091548D01*
X30559185Y-56091533D02*
X30559185Y-48091548D01*
D11*
X50498779Y-48091548D02*
X54498859Y-48091548D01*
D18*
X62498466Y-82091609D02*
X66923498Y-77666512D01*
X71720116Y-72869889D01*
X76109289Y-68480713D01*
X80498413Y-64091533D01*
X62498466Y-86091594D02*
X73550090Y-75039920D01*
X84498428Y-64091533D01*
X62498466Y-90091579D02*
X70092953Y-82497021D01*
X80454679Y-72135293D01*
X88498444Y-64091533D01*
D11*
X62498466Y-94091594D02*
X92498459Y-64091533D01*
X62498466Y-96091579D02*
X94498466Y-64091533D01*
D18*
X62498466Y-98091579D02*
X74434488Y-86155536D01*
X79065351Y-81524677D01*
X87781925Y-72808108D01*
X96498474Y-64091533D01*
X62498466Y-100091579D02*
X79849833Y-82740196D01*
X89174145Y-73415865D01*
X98498482Y-64091533D01*
X62498466Y-102091579D02*
X71245114Y-93344912D01*
X75326599Y-89263401D01*
X81081680Y-83508286D01*
X86836784Y-77753169D01*
D11*
X62498466Y-104091579D02*
X74498260Y-92091579D01*
D18*
X62498466Y-106091579D02*
X65774466Y-102815546D01*
X68336834Y-100253115D01*
X71417523Y-97172352D01*
X74498260Y-94091594D01*
X62498466Y-108091640D02*
X66074435Y-104515586D01*
X71371193Y-99218812D01*
X76498398Y-94091594D01*
X62498466Y-110091670D02*
X72304793Y-100285177D01*
X78498276Y-94091594D01*
X62498466Y-112091640D02*
X67597170Y-106992892D01*
X71202142Y-103387920D01*
X75850303Y-98739756D01*
X80498413Y-94091594D01*
D11*
X62498466Y-114091640D02*
X86498436Y-90091579D01*
D18*
X62498466Y-116091640D02*
X66947266Y-111642843D01*
X76722890Y-101867214D01*
X81610676Y-96979398D01*
X86498436Y-92091579D01*
D11*
X62498466Y-118091640D02*
X86498436Y-94091594D01*
X62498466Y-120091640D02*
X86498436Y-96091579D01*
D18*
X62498466Y-122091640D02*
X64168038Y-120422068D01*
X75333282Y-109256813D01*
X80915876Y-103674192D01*
X86498436Y-98091579D01*
X62498466Y-124091640D02*
X64168038Y-122422068D01*
X75333282Y-111256813D01*
X80915876Y-105674192D01*
X86498436Y-100091579D01*
X62498466Y-126091640D02*
X70459465Y-118130626D01*
X78478980Y-110111096D01*
X86498436Y-102091579D01*
D11*
X62498466Y-128091640D02*
X74498260Y-116091640D01*
X62498466Y-130091640D02*
X74498260Y-118091640D01*
D18*
X62498466Y-132091609D02*
X66524475Y-128065525D01*
X71574979Y-123015024D01*
X73543395Y-121046623D01*
X76498398Y-118091640D01*
D11*
X62498466Y-134091640D02*
X78498276Y-118091640D01*
D18*
X62498466Y-136091609D02*
X67970882Y-130619170D01*
X71476435Y-127113629D01*
X75987449Y-122602629D01*
X80498413Y-118091640D01*
X62498466Y-138091609D02*
X74735321Y-125854745D01*
X82324087Y-118265983D01*
X89912827Y-110677211D01*
X62498466Y-140091609D02*
X66925678Y-135664416D01*
X76712096Y-125878031D01*
X81605280Y-120984838D01*
X86498436Y-116091640D01*
D11*
X62498466Y-142091579D02*
X86498436Y-118091640D01*
D18*
X62498466Y-144091609D02*
X69638907Y-136951117D01*
X79694192Y-126895862D01*
X88498444Y-118091640D01*
D11*
X62498466Y-146091579D02*
X90498451Y-118091640D01*
D18*
X62498466Y-150091701D02*
X70341438Y-142249788D01*
X80185686Y-132406966D01*
X83971641Y-128621572D01*
X94503120Y-118091640D01*
X62498466Y-154091670D02*
X74559254Y-142030892D01*
X80937501Y-135652630D01*
X89717980Y-126872132D01*
X98498482Y-118091640D01*
X62498466Y-158091701D02*
X82610659Y-137982414D01*
X107377090Y-113219659D01*
X121559954Y-99038923D01*
X126508026Y-94091594D01*
D11*
X62498466Y-160091670D02*
X106498390Y-116091640D01*
D18*
X63520111Y-77069850D02*
X68449282Y-72140638D01*
X75453888Y-65135982D01*
X66498482Y-160091670D02*
X81291364Y-145298728D01*
X89883052Y-136707029D01*
X108498398Y-118091640D01*
X70498497Y-160091670D02*
X89543577Y-141049753D01*
X101024534Y-129570695D01*
X112505516Y-118091640D01*
D11*
X71665222Y-66924647D02*
X65320000Y-73270000D01*
D18*
X74498260Y-160091670D02*
X93831632Y-140761934D01*
X110169845Y-124426796D01*
X126508026Y-108091640D01*
X76498398Y-90091579D02*
X79931377Y-86658634D01*
X81744317Y-84845691D01*
X84121365Y-82468642D01*
X86498436Y-80091594D01*
X76498398Y-114091640D02*
X79942151Y-110647890D01*
X81482743Y-109107283D01*
X83990577Y-106599428D01*
X86498436Y-104091579D01*
X78176460Y-64413509D02*
X74263814Y-68326172D01*
X70300625Y-72289320D01*
X66566373Y-76023533D01*
X62832169Y-79757747D01*
D11*
X78498276Y-90091579D02*
X86498436Y-82091609D01*
D18*
X78498276Y-114091640D02*
X82197013Y-110392938D01*
X84448443Y-108141540D01*
X86699844Y-105890132D01*
D11*
X78498276Y-160091670D02*
X126498596Y-112091640D01*
D18*
X80498413Y-90091579D02*
X83531392Y-87058612D01*
X86498436Y-84091579D01*
X80498413Y-114091640D02*
X82799386Y-111790692D01*
X84499928Y-110090133D01*
X87200981Y-107389064D01*
X82498291Y-64091533D02*
X73485197Y-73104734D01*
X67991844Y-78598163D01*
X62498466Y-84091579D01*
X82498291Y-90091579D02*
X83973042Y-88616914D01*
X85235780Y-87354254D01*
X85867123Y-86722925D01*
X86498436Y-86091594D01*
X82498291Y-92091579D02*
X83834774Y-90755181D01*
X85166648Y-89423392D01*
X85832558Y-88757495D01*
X86498436Y-88091594D01*
X82498291Y-114091640D02*
X83816353Y-112773620D01*
X85091557Y-111498402D01*
X86509720Y-110080228D01*
X87218817Y-109371147D01*
X87927933Y-108662074D01*
X82498291Y-116091640D02*
X84207937Y-114382027D01*
X85526145Y-113063883D01*
X87180398Y-111409706D01*
X88834602Y-109755519D01*
X82498291Y-160091670D02*
X105819385Y-136775721D01*
X126508026Y-116091640D01*
D11*
X86498436Y-64091533D02*
X62498466Y-88091594D01*
D18*
X86498436Y-160091670D02*
X104706723Y-141883455D01*
X110604501Y-135985691D01*
X126498596Y-120091640D01*
X88498444Y-114091640D02*
X89624936Y-112965042D01*
X91008711Y-111581217D01*
X91194664Y-111395259D01*
X90498451Y-64091533D02*
X79490574Y-75099440D01*
X76498459Y-78091556D01*
X69498450Y-85091569D01*
X62498466Y-92091579D01*
X90498451Y-114091640D02*
X91052186Y-113537936D01*
X91744946Y-112845118D01*
X92030963Y-112559063D01*
X92699478Y-111890468D01*
X90498451Y-160091670D02*
X107189436Y-143400740D01*
X126498596Y-124091640D01*
X92172638Y-72417400D02*
X96172253Y-68417717D01*
X98335296Y-66254628D01*
X100498367Y-64091533D01*
X92498459Y-114091640D02*
X93008486Y-113581642D01*
X93498463Y-113091640D01*
X93998440Y-112591637D01*
X94498466Y-112091640D01*
D11*
X92498459Y-118096156D02*
X62498466Y-148091579D01*
D18*
X94498466Y-72091609D02*
X97218004Y-69371985D01*
X99858148Y-66731757D01*
X101178246Y-65411644D01*
X102498375Y-64091533D01*
X94498466Y-114091640D02*
X95291295Y-113298840D01*
X96432995Y-112157078D01*
X96807762Y-111782283D01*
X94498466Y-160091670D02*
X104556243Y-150036905D01*
X110845563Y-143749442D01*
X118676784Y-135920535D01*
X126508026Y-128091640D01*
D17*
X94498840Y-48091548D02*
X106438507Y-48091548D01*
X94498840Y-56091533D02*
X94498840Y-48091548D01*
D18*
X96291901Y-72298106D02*
X98851966Y-69738040D01*
X101675218Y-66914785D01*
X103086817Y-65503158D01*
X104498383Y-64091533D01*
X96498474Y-118091640D02*
X80889936Y-133700197D01*
X71694189Y-142895944D01*
X62498466Y-152091701D01*
X97798782Y-72791118D02*
X100936055Y-69653903D01*
X105633853Y-64956079D01*
X106498390Y-64091533D01*
X98498482Y-114096980D02*
X114578348Y-98019499D01*
X126508026Y-86091594D01*
X98498482Y-160091670D02*
X114577333Y-144018265D01*
X126508026Y-132091609D01*
D11*
X99060463Y-73529582D02*
X108494911Y-64095088D01*
D18*
X100169052Y-74420970D02*
X102784835Y-71805146D01*
X105156278Y-69433713D01*
X107720655Y-66869346D01*
X110284981Y-64304973D01*
X100504051Y-118091640D02*
X90943551Y-127650707D01*
X80493907Y-138098852D01*
X71496210Y-147095260D01*
X62498466Y-156091670D01*
X101067451Y-75522563D02*
X103960609Y-72629435D01*
X107858866Y-68731126D01*
X111954002Y-64635936D01*
X101797379Y-76792644D02*
X105232626Y-73357384D01*
X109354915Y-69235084D01*
X111416088Y-67173936D01*
X113477295Y-65112788D01*
X102121002Y-106468928D02*
X115854848Y-92735239D01*
X126498596Y-82091609D01*
X102303680Y-78286250D02*
X104632618Y-75957332D01*
X109780725Y-70809257D01*
X112354753Y-68235219D01*
X114928757Y-65661174D01*
X102498375Y-80091594D02*
X106017960Y-76571996D01*
X109571296Y-73018590D01*
X112924186Y-69665633D01*
X116277122Y-66312678D01*
X102498375Y-82091609D02*
X107519657Y-77070326D01*
X110363706Y-74226299D01*
X113947326Y-70642704D01*
X117530922Y-67059108D01*
X102498375Y-84091579D02*
X106955746Y-79634191D01*
X110377147Y-76212814D01*
X114552926Y-72037062D01*
X118728653Y-67861308D01*
X102498375Y-86091594D02*
X110990181Y-77599799D01*
X119851196Y-68738795D01*
D11*
X102498375Y-88091594D02*
X120890411Y-69699687D01*
X102498375Y-90091579D02*
X121846809Y-70743114D01*
X102498375Y-92091579D02*
X122749733Y-71840236D01*
D18*
X102498375Y-94091594D02*
X110311512Y-86278415D01*
X112990128Y-83599795D01*
X118274308Y-78315606D01*
X123558464Y-73031413D01*
X102498375Y-96091579D02*
X109764959Y-88825035D01*
X124298218Y-74291850D01*
X102498375Y-98091579D02*
X109010072Y-91579886D01*
X116968809Y-83621159D01*
X120948204Y-79641794D01*
X124927635Y-75662425D01*
X102498375Y-100091579D02*
X109952800Y-92637139D01*
X117723681Y-84866242D01*
X121609150Y-80980790D01*
X125494652Y-77095332D01*
X102498375Y-102091579D02*
X108934433Y-95655544D01*
X113874472Y-90715485D01*
X119903776Y-84686160D01*
X125933128Y-78656840D01*
X102498375Y-104091579D02*
X110812534Y-95777452D01*
X123055125Y-83535018D01*
X126258820Y-80331370D01*
D11*
X102498375Y-114091640D02*
X126498596Y-90091579D01*
D18*
X102498375Y-160091670D02*
X112578941Y-150015092D01*
X124837527Y-137761435D01*
X126508026Y-136091609D01*
D11*
X106498390Y-160091670D02*
X126508026Y-140091609D01*
D18*
X106504974Y-118091640D02*
X90444165Y-134149912D01*
X83640161Y-140952855D01*
X64498344Y-160091670D01*
X108498398Y-114091640D02*
X115678718Y-106911319D01*
X121093359Y-101496674D01*
X126508026Y-96082027D01*
X110498405Y-118091640D02*
X99009597Y-129580459D01*
X90678167Y-137911864D01*
X79588238Y-149001762D01*
X68498360Y-160091670D01*
X110498405Y-160091670D02*
X113859106Y-156732903D01*
X118001776Y-152592715D01*
X120329408Y-150266500D01*
X123418733Y-147179054D01*
X126508026Y-144091609D01*
X112498413Y-114091640D02*
X118199081Y-108391014D01*
X122348825Y-104241297D01*
X126498596Y-100091579D01*
D11*
X114498421Y-116099086D02*
X126508026Y-104091579D01*
D18*
X114498421Y-160091670D02*
X118714960Y-155878433D01*
X123043207Y-151553635D01*
X126508026Y-148091579D01*
D11*
X114498825Y-48091548D02*
X118498909Y-48091548D01*
X118498306Y-160091670D02*
X126498596Y-152091701D01*
D18*
X120503227Y-160091670D02*
X123615352Y-156977152D01*
X124353366Y-156238564D01*
X126498596Y-154091670D01*
X124498459Y-160091670D02*
X125196763Y-159396674D01*
X125852353Y-158744187D01*
X126180174Y-158417944D01*
X126508026Y-158091701D01*
X126498596Y-88091594D02*
X117090011Y-97500099D01*
X112784188Y-101805901D01*
X106641289Y-107948770D01*
X100498367Y-114091640D01*
X126498596Y-102091579D02*
X123260682Y-105329461D01*
X121469356Y-107120747D01*
X117983838Y-110606199D01*
X116241111Y-112348921D01*
X114498421Y-114091640D01*
X126498596Y-106091579D02*
X113818818Y-118771267D01*
X97710857Y-134879209D01*
X93162687Y-139427382D01*
X82830541Y-149759532D01*
X72498383Y-160091670D01*
X126498596Y-110091670D02*
X113592141Y-122998048D01*
X101542589Y-135047579D01*
X89020517Y-147569627D01*
X76498398Y-160091670D01*
X126498596Y-142091579D02*
X120929620Y-147660515D01*
X118154970Y-150435163D01*
X113326710Y-155263415D01*
X108498398Y-160091670D01*
X126498596Y-156091670D02*
X124986670Y-157603510D01*
X124222548Y-158367569D01*
X122498321Y-160091670D01*
X126508026Y-84091579D02*
X114660924Y-95936903D01*
X104501862Y-106094483D01*
X96498474Y-114096706D01*
X126508026Y-92091579D02*
X120369766Y-98228876D01*
X111434036Y-107163212D01*
X106966194Y-111630382D01*
X102498375Y-116097560D01*
X126508026Y-98091579D02*
X118021915Y-106576389D01*
X110505508Y-114091640D01*
X126508026Y-114091640D02*
X113921661Y-126675330D01*
X96156115Y-144437202D01*
X80498413Y-160091670D01*
D11*
X126508026Y-118091640D02*
X84498428Y-160091670D01*
D18*
X126508026Y-122091640D02*
X117697472Y-130899920D01*
X106486805Y-142107788D01*
X103465813Y-145128033D01*
X95982144Y-152609849D01*
X88498444Y-160091670D01*
X126508026Y-126091640D02*
X117222605Y-135374404D01*
X104100661Y-148492694D01*
X92498459Y-160091670D01*
X126508026Y-130091640D02*
X115902770Y-140693483D01*
X101334391Y-155257271D01*
X96498474Y-160091670D01*
X126508026Y-134091640D02*
X121141504Y-139456133D01*
X113517858Y-147076999D01*
X107008148Y-153584341D01*
X103753271Y-156838007D01*
X100498367Y-160091670D01*
X126508026Y-138091609D02*
X120816150Y-143780981D01*
X115503212Y-149091632D01*
X110000821Y-154591654D01*
X104498383Y-160091670D01*
X126508026Y-146091579D02*
X122424085Y-150172699D01*
X117493405Y-155100051D01*
X112498413Y-160091670D01*
D11*
X126508026Y-150091701D02*
X116503212Y-160091670D01*
X142498886Y-72091609D02*
X142498886Y-64091533D01*
X154498444Y9908467D02*
X143680618Y-909495D01*
X154498703Y11908452D02*
X142334061Y-256023D01*
D18*
X156498321Y9908467D02*
X152419564Y5829700D01*
X148754015Y2164145D01*
X146921266Y331366D01*
X145088547Y-1501414D01*
D11*
X158498459Y9908467D02*
X146534714Y-2055461D01*
X158498886Y-72091609D02*
X158498886Y-64091533D01*
D18*
X160498337Y9908467D02*
X155818890Y5228990D01*
X148689058Y-1901005D01*
X148498550Y-2091518D01*
X170498505Y11908452D02*
X165844552Y7254511D01*
X161171526Y2581497D01*
X158835038Y244989D01*
X156498581Y-2091518D01*
X170498505Y9908467D02*
X165800074Y5210006D01*
X158498757Y-2091479D01*
X158498718Y-2091518D01*
X172498398Y9908467D02*
X168062642Y5472696D01*
X162475808Y-114254D01*
X160498631Y-2091483D01*
X160498596Y-2091518D01*
D19*
X173343765Y-114799861D02*
X175654510Y-114799861D01*
X173343765Y-116091548D02*
X173343765Y-114799861D01*
D18*
X174498535Y9908467D02*
X170046621Y5456537D01*
X164421313Y-168887D01*
X162585721Y-2004527D01*
X162498733Y-2091518D01*
D11*
X174498901Y-72091609D02*
X174498901Y-64091533D01*
D19*
X175654510Y-114799861D02*
X175654510Y-116091548D01*
D18*
X176498413Y9908467D02*
X172664816Y6074792D01*
X166943436Y353408D01*
X162736069Y-3853954D01*
X189974976Y49385083D02*
X179411499Y38821632D01*
X166144258Y25554341D01*
X153581682Y12991716D01*
X147300369Y6710405D01*
X141019028Y429097D01*
X190981125Y16391148D02*
X185310471Y10720479D01*
X179660219Y5070212D01*
X176835121Y2245078D01*
X174010056Y-580058D01*
X192435165Y19844960D02*
X184791522Y12201280D01*
X180953940Y8363698D01*
X175772468Y3182226D01*
X170591019Y-1999248D01*
X193320908Y22730885D02*
X187159069Y16569045D01*
X180869075Y10278992D01*
X174683877Y4093734D01*
X168498627Y-2091518D01*
X193395569Y40805562D02*
X182230508Y29640467D01*
X170921353Y18331334D01*
X160265448Y7675451D01*
X149609589Y-2980434D01*
X193773849Y39184026D02*
X179902596Y25312739D01*
X151235336Y-3354579D01*
D11*
X193880432Y25290288D02*
X165106842Y-3483287D01*
X194079391Y37489415D02*
X152936661Y-3653468D01*
M02*
