%TF.GenerationSoftware,KiCad,Pcbnew,10.0.4*%
%TF.CreationDate,2026-09-10T16:32:42+10:00*%
%TF.ProjectId,VCA_panel,5643415f-7061-46e6-956c-2e6b69636164,rev?*%
%TF.SameCoordinates,Original*%
%TF.FileFunction,Profile,NP*%
%FSLAX46Y46*%
G04 Gerber Fmt 4.6, Leading zero omitted, Abs format (unit mm)*
G04 Created by KiCad (PCBNEW 10.0.4) date 2026-09-10 16:32:42*
%MOMM*%
%LPD*%
G01*
G04 APERTURE LIST*
%TA.AperFunction,Profile*%
%ADD10C,0.100000*%
%TD*%
G04 APERTURE END LIST*
D10*
X0Y0D02*
X0Y-128500000D01*
X0Y-128500000D02*
X60600000Y-128500000D01*
X6199999Y-12549999D02*
G75*
G02*
X2999999Y-12549999I-1600000J0D01*
G01*
X2999999Y-12549999D02*
G75*
G02*
X6199999Y-12549999I1600000J0D01*
G01*
X6200000Y-115950000D02*
G75*
G02*
X3000000Y-115950000I-1600000J0D01*
G01*
X3000000Y-115950000D02*
G75*
G02*
X6200000Y-115950000I1600000J0D01*
G01*
X6850000Y-123900000D02*
X8150000Y-123900000D01*
X6850000Y-127100000D02*
G75*
G02*
X6850000Y-123900000I0J1600000D01*
G01*
X8150000Y-123900000D02*
G75*
G02*
X8150000Y-127100000I0J-1600000D01*
G01*
X8150000Y-127100000D02*
X6850000Y-127100000D01*
X18800000Y-24250000D02*
G75*
G02*
X9800000Y-24250000I-4500000J0D01*
G01*
X9800000Y-24250000D02*
G75*
G02*
X18800000Y-24250000I4500000J0D01*
G01*
X18800000Y-48249999D02*
G75*
G02*
X9800000Y-48249999I-4500000J0D01*
G01*
X9800000Y-48249999D02*
G75*
G02*
X18800000Y-48249999I4500000J0D01*
G01*
X17449999Y-80250000D02*
G75*
G02*
X11150001Y-80250000I-3149999J0D01*
G01*
X11150001Y-80250000D02*
G75*
G02*
X17449999Y-80250000I3149999J0D01*
G01*
X17449999Y-104250000D02*
G75*
G02*
X11150001Y-104250000I-3149999J0D01*
G01*
X11150001Y-104250000D02*
G75*
G02*
X17449999Y-104250000I3149999J0D01*
G01*
X34800000Y-24249999D02*
G75*
G02*
X25800000Y-24249999I-4500000J0D01*
G01*
X25800000Y-24249999D02*
G75*
G02*
X34800000Y-24249999I4500000J0D01*
G01*
X33449999Y-80250000D02*
G75*
G02*
X27150001Y-80250000I-3149999J0D01*
G01*
X27150001Y-80250000D02*
G75*
G02*
X33449999Y-80250000I3149999J0D01*
G01*
X33449999Y-104250000D02*
G75*
G02*
X27150001Y-104250000I-3149999J0D01*
G01*
X27150001Y-104250000D02*
G75*
G02*
X33449999Y-104250000I3149999J0D01*
G01*
X44900000Y-20650000D02*
G75*
G02*
X47700000Y-20650000I1400000J0D01*
G01*
X44900000Y-70050000D02*
X44900000Y-20650000D01*
X49450000Y-104250000D02*
G75*
G02*
X43150000Y-104250000I-3150000J0D01*
G01*
X43150000Y-104250000D02*
G75*
G02*
X49450000Y-104250000I3150000J0D01*
G01*
X47700000Y-20650000D02*
X47700000Y-70050000D01*
X47700000Y-70050000D02*
G75*
G02*
X44900000Y-70050000I-1400000J0D01*
G01*
X51899998Y-12250000D02*
G75*
G02*
X48700000Y-12250000I-1599999J0D01*
G01*
X48700000Y-12250000D02*
G75*
G02*
X51899998Y-12250000I1599999J0D01*
G01*
X52450000Y-1400000D02*
X53750000Y-1400000D01*
X52450000Y-4600000D02*
G75*
G02*
X52450000Y-1400000I0J1600000D01*
G01*
X52450000Y-123900000D02*
X53750000Y-123900000D01*
X52450000Y-127100000D02*
G75*
G02*
X52450000Y-123900000I0J1600000D01*
G01*
X53750000Y-1400000D02*
G75*
G02*
X53750000Y-4600000I0J-1600000D01*
G01*
X53750000Y-4600000D02*
X52450000Y-4600000D01*
X53750000Y-123900000D02*
G75*
G02*
X53750000Y-127100000I0J-1600000D01*
G01*
X53750000Y-127100000D02*
X52450000Y-127100000D01*
X57599998Y-12550000D02*
G75*
G02*
X54400000Y-12550000I-1599999J0D01*
G01*
X54400000Y-12550000D02*
G75*
G02*
X57599998Y-12550000I1599999J0D01*
G01*
X57600000Y-115950000D02*
G75*
G02*
X54400000Y-115950000I-1600000J0D01*
G01*
X54400000Y-115950000D02*
G75*
G02*
X57600000Y-115950000I1600000J0D01*
G01*
X60600000Y0D02*
X0Y0D01*
X60600000Y-31500000D02*
X60600000Y0D01*
X60600000Y-36500000D02*
X64000000Y-36500000D01*
X60600000Y-60000000D02*
X60600000Y-36500000D01*
X60600000Y-65000000D02*
X64000000Y-65000000D01*
X60600000Y-89500000D02*
X60600000Y-65000000D01*
X60600000Y-94500000D02*
X64000000Y-94500000D01*
X60600000Y-128500000D02*
X60600000Y-94500000D01*
X64000000Y0D02*
X64000000Y-31500000D01*
X64000000Y-31500000D02*
X60600000Y-31500000D01*
X64000000Y-36500000D02*
X64000000Y-60000000D01*
X64000000Y-60000000D02*
X60600000Y-60000000D01*
X64000000Y-65000000D02*
X64000000Y-89500000D01*
X64000000Y-89500000D02*
X60600000Y-89500000D01*
X64000000Y-94500000D02*
X64000000Y-128500000D01*
X64000000Y-128500000D02*
X124600000Y-128500000D01*
X70199999Y-12550000D02*
G75*
G02*
X66999999Y-12550000I-1600000J0D01*
G01*
X66999999Y-12550000D02*
G75*
G02*
X70199999Y-12550000I1600000J0D01*
G01*
X70200000Y-115949999D02*
G75*
G02*
X67000000Y-115949999I-1600000J0D01*
G01*
X67000000Y-115949999D02*
G75*
G02*
X70200000Y-115949999I1600000J0D01*
G01*
X70850000Y-123900000D02*
X72150000Y-123900000D01*
X70850000Y-127100000D02*
G75*
G02*
X70850000Y-123900000I0J1600000D01*
G01*
X72150000Y-123900000D02*
G75*
G02*
X72150000Y-127100000I0J-1600000D01*
G01*
X72150000Y-127100000D02*
X70850000Y-127100000D01*
X82799999Y-24250000D02*
G75*
G02*
X73799999Y-24250000I-4500000J0D01*
G01*
X73799999Y-24250000D02*
G75*
G02*
X82799999Y-24250000I4500000J0D01*
G01*
X82799999Y-48249999D02*
G75*
G02*
X73799999Y-48249999I-4500000J0D01*
G01*
X73799999Y-48249999D02*
G75*
G02*
X82799999Y-48249999I4500000J0D01*
G01*
X81449999Y-80250000D02*
G75*
G02*
X75150001Y-80250000I-3149999J0D01*
G01*
X75150001Y-80250000D02*
G75*
G02*
X81449999Y-80250000I3149999J0D01*
G01*
X81449999Y-104250000D02*
G75*
G02*
X75150001Y-104250000I-3149999J0D01*
G01*
X75150001Y-104250000D02*
G75*
G02*
X81449999Y-104250000I3149999J0D01*
G01*
X98799999Y-24250000D02*
G75*
G02*
X89799999Y-24250000I-4500000J0D01*
G01*
X89799999Y-24250000D02*
G75*
G02*
X98799999Y-24250000I4500000J0D01*
G01*
X97449999Y-80250000D02*
G75*
G02*
X91150001Y-80250000I-3149999J0D01*
G01*
X91150001Y-80250000D02*
G75*
G02*
X97449999Y-80250000I3149999J0D01*
G01*
X97449999Y-104250000D02*
G75*
G02*
X91150001Y-104250000I-3149999J0D01*
G01*
X91150001Y-104250000D02*
G75*
G02*
X97449999Y-104250000I3149999J0D01*
G01*
X108900000Y-20650000D02*
G75*
G02*
X111700000Y-20650000I1400000J0D01*
G01*
X108900000Y-70050000D02*
X108900000Y-20650000D01*
X113449999Y-104250000D02*
G75*
G02*
X107150001Y-104250000I-3149999J0D01*
G01*
X107150001Y-104250000D02*
G75*
G02*
X113449999Y-104250000I3149999J0D01*
G01*
X111700000Y-20650000D02*
X111700000Y-70050000D01*
X111700000Y-70050000D02*
G75*
G02*
X108900000Y-70050000I-1400000J0D01*
G01*
X115900000Y-12250000D02*
G75*
G02*
X112700000Y-12250000I-1600000J0D01*
G01*
X112700000Y-12250000D02*
G75*
G02*
X115900000Y-12250000I1600000J0D01*
G01*
X116450000Y-1400000D02*
X117750000Y-1400000D01*
X116450000Y-4600000D02*
G75*
G02*
X116450000Y-1400000I0J1600000D01*
G01*
X116450000Y-123900000D02*
X117750000Y-123900000D01*
X116450000Y-127100000D02*
G75*
G02*
X116450000Y-123900000I0J1600000D01*
G01*
X117750000Y-1400000D02*
G75*
G02*
X117750000Y-4600000I0J-1600000D01*
G01*
X117750000Y-4600000D02*
X116450000Y-4600000D01*
X117750000Y-123900000D02*
G75*
G02*
X117750000Y-127100000I0J-1600000D01*
G01*
X117750000Y-127100000D02*
X116450000Y-127100000D01*
X121600000Y-12550000D02*
G75*
G02*
X118400000Y-12550000I-1600000J0D01*
G01*
X118400000Y-12550000D02*
G75*
G02*
X121600000Y-12550000I1600000J0D01*
G01*
X121599999Y-115949999D02*
G75*
G02*
X118399999Y-115949999I-1600000J0D01*
G01*
X118399999Y-115949999D02*
G75*
G02*
X121599999Y-115949999I1600000J0D01*
G01*
X124600000Y0D02*
X64000000Y0D01*
X124600000Y-31500000D02*
X124600000Y0D01*
X124600000Y-36500000D02*
X128300000Y-36500000D01*
X124600000Y-60000000D02*
X124600000Y-36500000D01*
X124600000Y-65000000D02*
X128300000Y-65000000D01*
X124600000Y-89500000D02*
X124600000Y-65000000D01*
X124600000Y-94500000D02*
X128300000Y-94500000D01*
X124600000Y-128500000D02*
X124600000Y-94500000D01*
X128300000Y0D02*
X128300000Y-31500000D01*
X128300000Y-31500000D02*
X124600000Y-31500000D01*
X128300000Y-36500000D02*
X128300000Y-60000000D01*
X128300000Y-60000000D02*
X124600000Y-60000000D01*
X128300000Y-65000000D02*
X128300000Y-89500000D01*
X128300000Y-89500000D02*
X124600000Y-89500000D01*
X128300000Y-94500000D02*
X128300000Y-128500000D01*
X128300000Y-128500000D02*
X188900000Y-128500000D01*
X134499999Y-12550000D02*
G75*
G02*
X131300001Y-12550000I-1599999J0D01*
G01*
X131300001Y-12550000D02*
G75*
G02*
X134499999Y-12550000I1599999J0D01*
G01*
X134500000Y-115950000D02*
G75*
G02*
X131300000Y-115950000I-1600000J0D01*
G01*
X131300000Y-115950000D02*
G75*
G02*
X134500000Y-115950000I1600000J0D01*
G01*
X135150000Y-1400000D02*
X136450000Y-1400000D01*
X135150000Y-4600000D02*
G75*
G02*
X135150000Y-1400000I0J1600000D01*
G01*
X135150000Y-123900000D02*
X136450000Y-123900000D01*
X135150000Y-127100000D02*
G75*
G02*
X135150000Y-123900000I0J1600000D01*
G01*
X136450000Y-1400000D02*
G75*
G02*
X136450000Y-4600000I0J-1600000D01*
G01*
X136450000Y-4600000D02*
X135150000Y-4600000D01*
X136450000Y-123900000D02*
G75*
G02*
X136450000Y-127100000I0J-1600000D01*
G01*
X136450000Y-127100000D02*
X135150000Y-127100000D01*
X147100000Y-24249999D02*
G75*
G02*
X138100000Y-24249999I-4500000J0D01*
G01*
X138100000Y-24249999D02*
G75*
G02*
X147100000Y-24249999I4500000J0D01*
G01*
X145750000Y-48249999D02*
G75*
G02*
X139450000Y-48249999I-3150000J0D01*
G01*
X139450000Y-48249999D02*
G75*
G02*
X145750000Y-48249999I3150000J0D01*
G01*
X145750000Y-80249999D02*
G75*
G02*
X139450000Y-80249999I-3150000J0D01*
G01*
X139450000Y-80249999D02*
G75*
G02*
X145750000Y-80249999I3150000J0D01*
G01*
X145750000Y-104249999D02*
G75*
G02*
X139450000Y-104249999I-3150000J0D01*
G01*
X139450000Y-104249999D02*
G75*
G02*
X145750000Y-104249999I3150000J0D01*
G01*
X163100000Y-24249999D02*
G75*
G02*
X154100000Y-24249999I-4500000J0D01*
G01*
X154100000Y-24249999D02*
G75*
G02*
X163100000Y-24249999I4500000J0D01*
G01*
X163100000Y-48250000D02*
G75*
G02*
X154100000Y-48250000I-4500000J0D01*
G01*
X154100000Y-48250000D02*
G75*
G02*
X163100000Y-48250000I4500000J0D01*
G01*
X161750000Y-80249999D02*
G75*
G02*
X155450000Y-80249999I-3150000J0D01*
G01*
X155450000Y-80249999D02*
G75*
G02*
X161750000Y-80249999I3150000J0D01*
G01*
X161750000Y-104249999D02*
G75*
G02*
X155450000Y-104249999I-3150000J0D01*
G01*
X155450000Y-104249999D02*
G75*
G02*
X161750000Y-104249999I3150000J0D01*
G01*
X164199999Y-12249999D02*
G75*
G02*
X161000001Y-12249999I-1599999J0D01*
G01*
X161000001Y-12249999D02*
G75*
G02*
X164199999Y-12249999I1599999J0D01*
G01*
X172199999Y-12249999D02*
G75*
G02*
X169000001Y-12249999I-1599999J0D01*
G01*
X169000001Y-12249999D02*
G75*
G02*
X172199999Y-12249999I1599999J0D01*
G01*
X179099999Y-24249999D02*
G75*
G02*
X170099999Y-24249999I-4500000J0D01*
G01*
X170099999Y-24249999D02*
G75*
G02*
X179099999Y-24249999I4500000J0D01*
G01*
X179099998Y-48250000D02*
G75*
G02*
X170100000Y-48250000I-4499999J0D01*
G01*
X170100000Y-48250000D02*
G75*
G02*
X179099998Y-48250000I4499999J0D01*
G01*
X177749999Y-80249999D02*
G75*
G02*
X171449999Y-80249999I-3150000J0D01*
G01*
X171449999Y-80249999D02*
G75*
G02*
X177749999Y-80249999I3150000J0D01*
G01*
X177749999Y-104249999D02*
G75*
G02*
X171449999Y-104249999I-3150000J0D01*
G01*
X171449999Y-104249999D02*
G75*
G02*
X177749999Y-104249999I3150000J0D01*
G01*
X180750000Y-1400000D02*
X182050000Y-1400000D01*
X180750000Y-4600000D02*
G75*
G02*
X180750000Y-1400000I0J1600000D01*
G01*
X180750000Y-123900000D02*
X182050000Y-123900000D01*
X180750000Y-127100000D02*
G75*
G02*
X180750000Y-123900000I0J1600000D01*
G01*
X182050000Y-1400000D02*
G75*
G02*
X182050000Y-4600000I0J-1600000D01*
G01*
X182050000Y-4600000D02*
X180750000Y-4600000D01*
X182050000Y-123900000D02*
G75*
G02*
X182050000Y-127100000I0J-1600000D01*
G01*
X182050000Y-127100000D02*
X180750000Y-127100000D01*
X185899999Y-12549999D02*
G75*
G02*
X182700001Y-12549999I-1599999J0D01*
G01*
X182700001Y-12549999D02*
G75*
G02*
X185899999Y-12549999I1599999J0D01*
G01*
X185899999Y-115950000D02*
G75*
G02*
X182700001Y-115950000I-1599999J0D01*
G01*
X182700001Y-115950000D02*
G75*
G02*
X185899999Y-115950000I1599999J0D01*
G01*
X188900000Y0D02*
X128300000Y0D01*
X188900000Y-31500000D02*
X188900000Y0D01*
X188900000Y-36500000D02*
X192300000Y-36500000D01*
X188900000Y-60000000D02*
X188900000Y-36500000D01*
X188900000Y-65000000D02*
X192300000Y-65000000D01*
X188900000Y-89500000D02*
X188900000Y-65000000D01*
X188900000Y-94500000D02*
X192300000Y-94500000D01*
X188900000Y-128500000D02*
X188900000Y-94500000D01*
X192300000Y0D02*
X192300000Y-31500000D01*
X192300000Y-31500000D02*
X188900000Y-31500000D01*
X192300000Y-36500000D02*
X192300000Y-60000000D01*
X192300000Y-60000000D02*
X188900000Y-60000000D01*
X192300000Y-65000000D02*
X192300000Y-89500000D01*
X192300000Y-89500000D02*
X188900000Y-89500000D01*
X192300000Y-94500000D02*
X192300000Y-128500000D01*
X192300000Y-128500000D02*
X252900000Y-128500000D01*
X198499999Y-12549999D02*
G75*
G02*
X195300001Y-12549999I-1599999J0D01*
G01*
X195300001Y-12549999D02*
G75*
G02*
X198499999Y-12549999I1599999J0D01*
G01*
X198499999Y-115950000D02*
G75*
G02*
X195300001Y-115950000I-1599999J0D01*
G01*
X195300001Y-115950000D02*
G75*
G02*
X198499999Y-115950000I1599999J0D01*
G01*
X199150000Y-123900000D02*
X200450000Y-123900000D01*
X199150000Y-127100000D02*
G75*
G02*
X199150000Y-123900000I0J1600000D01*
G01*
X200450000Y-123900000D02*
G75*
G02*
X200450000Y-127100000I0J-1600000D01*
G01*
X200450000Y-127100000D02*
X199150000Y-127100000D01*
X204199999Y-68250000D02*
G75*
G02*
X201000001Y-68250000I-1599999J0D01*
G01*
X201000001Y-68250000D02*
G75*
G02*
X204199999Y-68250000I1599999J0D01*
G01*
X211100000Y-24249999D02*
G75*
G02*
X202100000Y-24249999I-4500000J0D01*
G01*
X202100000Y-24249999D02*
G75*
G02*
X211100000Y-24249999I4500000J0D01*
G01*
X211600000Y-48250000D02*
G75*
G02*
X201600000Y-48250000I-5000000J0D01*
G01*
X201600000Y-48250000D02*
G75*
G02*
X211600000Y-48250000I5000000J0D01*
G01*
X209749999Y-80249999D02*
G75*
G02*
X203449999Y-80249999I-3150000J0D01*
G01*
X203449999Y-80249999D02*
G75*
G02*
X209749999Y-80249999I3150000J0D01*
G01*
X209749999Y-104249999D02*
G75*
G02*
X203449999Y-104249999I-3150000J0D01*
G01*
X203449999Y-104249999D02*
G75*
G02*
X209749999Y-104249999I3150000J0D01*
G01*
X212199999Y-68250000D02*
G75*
G02*
X209000001Y-68250000I-1599999J0D01*
G01*
X209000001Y-68250000D02*
G75*
G02*
X212199999Y-68250000I1599999J0D01*
G01*
X220199999Y-68250000D02*
G75*
G02*
X217000001Y-68250000I-1599999J0D01*
G01*
X217000001Y-68250000D02*
G75*
G02*
X220199999Y-68250000I1599999J0D01*
G01*
X227099999Y-24249999D02*
G75*
G02*
X218099999Y-24249999I-4500000J0D01*
G01*
X218099999Y-24249999D02*
G75*
G02*
X227099999Y-24249999I4500000J0D01*
G01*
X227600000Y-48250000D02*
G75*
G02*
X217600000Y-48250000I-5000000J0D01*
G01*
X217600000Y-48250000D02*
G75*
G02*
X227600000Y-48250000I5000000J0D01*
G01*
X225749999Y-80249999D02*
G75*
G02*
X219449999Y-80249999I-3150000J0D01*
G01*
X219449999Y-80249999D02*
G75*
G02*
X225749999Y-80249999I3150000J0D01*
G01*
X225749999Y-104249999D02*
G75*
G02*
X219449999Y-104249999I-3150000J0D01*
G01*
X219449999Y-104249999D02*
G75*
G02*
X225749999Y-104249999I3150000J0D01*
G01*
X228199999Y-68250000D02*
G75*
G02*
X225000001Y-68250000I-1599999J0D01*
G01*
X225000001Y-68250000D02*
G75*
G02*
X228199999Y-68250000I1599999J0D01*
G01*
X236199999Y-68250000D02*
G75*
G02*
X233000001Y-68250000I-1599999J0D01*
G01*
X233000001Y-68250000D02*
G75*
G02*
X236199999Y-68250000I1599999J0D01*
G01*
X243099999Y-24249999D02*
G75*
G02*
X234099999Y-24249999I-4500000J0D01*
G01*
X234099999Y-24249999D02*
G75*
G02*
X243099999Y-24249999I4500000J0D01*
G01*
X241749999Y-48249999D02*
G75*
G02*
X235449999Y-48249999I-3150000J0D01*
G01*
X235449999Y-48249999D02*
G75*
G02*
X241749999Y-48249999I3150000J0D01*
G01*
X241749999Y-80249999D02*
G75*
G02*
X235449999Y-80249999I-3150000J0D01*
G01*
X235449999Y-80249999D02*
G75*
G02*
X241749999Y-80249999I3150000J0D01*
G01*
X241749999Y-104249999D02*
G75*
G02*
X235449999Y-104249999I-3150000J0D01*
G01*
X235449999Y-104249999D02*
G75*
G02*
X241749999Y-104249999I3150000J0D01*
G01*
X244199999Y-68250000D02*
G75*
G02*
X241000001Y-68250000I-1599999J0D01*
G01*
X241000001Y-68250000D02*
G75*
G02*
X244199999Y-68250000I1599999J0D01*
G01*
X244750000Y-1400000D02*
X246050000Y-1400000D01*
X244750000Y-4600000D02*
G75*
G02*
X244750000Y-1400000I0J1600000D01*
G01*
X244750000Y-123900000D02*
X246050000Y-123900000D01*
X244750000Y-127100000D02*
G75*
G02*
X244750000Y-123900000I0J1600000D01*
G01*
X246050000Y-1400000D02*
G75*
G02*
X246050000Y-4600000I0J-1600000D01*
G01*
X246050000Y-4600000D02*
X244750000Y-4600000D01*
X246050000Y-123900000D02*
G75*
G02*
X246050000Y-127100000I0J-1600000D01*
G01*
X246050000Y-127100000D02*
X244750000Y-127100000D01*
X249899999Y-12549999D02*
G75*
G02*
X246700001Y-12549999I-1599999J0D01*
G01*
X246700001Y-12549999D02*
G75*
G02*
X249899999Y-12549999I1599999J0D01*
G01*
X249899999Y-115950000D02*
G75*
G02*
X246700001Y-115950000I-1599999J0D01*
G01*
X246700001Y-115950000D02*
G75*
G02*
X249899999Y-115950000I1599999J0D01*
G01*
X252900000Y0D02*
X192300000Y0D01*
X252900000Y-128500000D02*
X252900000Y0D01*
M02*
