M48
; DRILL file KiCad 10.0.4 date 2026-09-10T11:43:53
; FORMAT={-:-/ absolute / inch / decimal}
; #@! TF.CreationDate,2026-09-10T11:43:53+10:00
; #@! TF.GenerationSoftware,Kicad,Pcbnew,10.0.4
; #@! TF.FileFunction,NonPlated,1,2,NPTH
FMAT,2
INCH
; #@! TA.AperFunction,NonPlated,NPTH,ComponentDrill
T1C0.0197
%
G90
G05
T1
X2.3957Y-1.25
X2.3957Y-1.2795
X2.3957Y-1.3091
X2.3957Y-1.3386
X2.3957Y-1.3681
X2.3957Y-1.3976
X2.3957Y-1.4272
X2.3957Y-2.372
X2.3957Y-2.4016
X2.3957Y-2.4311
X2.3957Y-2.4606
X2.3957Y-2.4902
X2.3957Y-2.5197
X2.3957Y-2.5492
X2.3957Y-3.5335
X2.3957Y-3.563
X2.3957Y-3.5925
X2.3957Y-3.622
X2.3957Y-3.6516
X2.3957Y-3.6811
X2.3957Y-3.7106
X2.5098Y-1.25
X2.5098Y-1.2795
X2.5098Y-1.3091
X2.5098Y-1.3386
X2.5098Y-1.3681
X2.5098Y-1.3976
X2.5098Y-1.4272
X2.5098Y-2.372
X2.5098Y-2.4016
X2.5098Y-2.4311
X2.5098Y-2.4606
X2.5098Y-2.4902
X2.5098Y-2.5197
X2.5098Y-2.5492
X2.5098Y-3.5335
X2.5098Y-3.563
X2.5098Y-3.5925
X2.5098Y-3.622
X2.5098Y-3.6516
X2.5098Y-3.6811
X2.5098Y-3.7106
X4.9154Y-1.25
X4.9154Y-1.2795
X4.9154Y-1.3091
X4.9154Y-1.3386
X4.9154Y-1.3681
X4.9154Y-1.3976
X4.9154Y-1.4272
X4.9154Y-2.372
X4.9154Y-2.4016
X4.9154Y-2.4311
X4.9154Y-2.4606
X4.9154Y-2.4902
X4.9154Y-2.5197
X4.9154Y-2.5492
X4.9154Y-3.5335
X4.9154Y-3.563
X4.9154Y-3.5925
X4.9154Y-3.622
X4.9154Y-3.6516
X4.9154Y-3.6811
X4.9154Y-3.7106
X5.0413Y-1.25
X5.0413Y-1.2795
X5.0413Y-1.3091
X5.0413Y-1.3386
X5.0413Y-1.3681
X5.0413Y-1.3976
X5.0413Y-1.4272
X5.0413Y-2.372
X5.0413Y-2.4016
X5.0413Y-2.4311
X5.0413Y-2.4606
X5.0413Y-2.4902
X5.0413Y-2.5197
X5.0413Y-2.5492
X5.0413Y-3.5335
X5.0413Y-3.563
X5.0413Y-3.5925
X5.0413Y-3.622
X5.0413Y-3.6516
X5.0413Y-3.6811
X5.0413Y-3.7106
X7.4469Y-1.25
X7.4469Y-1.2795
X7.4469Y-1.3091
X7.4469Y-1.3386
X7.4469Y-1.3681
X7.4469Y-1.3976
X7.4469Y-1.4272
X7.4469Y-2.372
X7.4469Y-2.4016
X7.4469Y-2.4311
X7.4469Y-2.4606
X7.4469Y-2.4902
X7.4469Y-2.5197
X7.4469Y-2.5492
X7.4469Y-3.5335
X7.4469Y-3.563
X7.4469Y-3.5925
X7.4469Y-3.622
X7.4469Y-3.6516
X7.4469Y-3.6811
X7.4469Y-3.7106
X7.561Y-1.25
X7.561Y-1.2795
X7.561Y-1.3091
X7.561Y-1.3386
X7.561Y-1.3681
X7.561Y-1.3976
X7.561Y-1.4272
X7.561Y-2.372
X7.561Y-2.4016
X7.561Y-2.4311
X7.561Y-2.4606
X7.561Y-2.4902
X7.561Y-2.5197
X7.561Y-2.5492
X7.561Y-3.5335
X7.561Y-3.563
X7.561Y-3.5925
X7.561Y-3.622
X7.561Y-3.6516
X7.561Y-3.6811
X7.561Y-3.7106
M30
