%TF.GenerationSoftware,KiCad,Pcbnew,10.0.4*%
%TF.CreationDate,2026-09-10T07:14:40+10:00*%
%TF.ProjectId,VCO,56434f2e-6b69-4636-9164-5f7063625858,rev?*%
%TF.SameCoordinates,Original*%
%TF.FileFunction,Soldermask,Top*%
%TF.FilePolarity,Negative*%
%FSLAX46Y46*%
G04 Gerber Fmt 4.6, Leading zero omitted, Abs format (unit mm)*
G04 Created by KiCad (PCBNEW 10.0.4) date 2026-09-10 07:14:40*
%MOMM*%
%LPD*%
G01*
G04 APERTURE LIST*
%ADD10C,0.000000*%
%ADD11C,0.247226*%
%ADD12C,0.247265*%
%ADD13C,0.246294*%
%ADD14C,0.246424*%
%ADD15C,0.246297*%
%ADD16C,0.246814*%
%ADD17C,0.205740*%
%ADD18C,0.245483*%
%ADD19C,0.245918*%
%ADD20C,0.245147*%
%ADD21C,0.211666*%
%ADD22C,0.246551*%
%ADD23C,0.246184*%
%ADD24C,0.246640*%
%ADD25C,0.244475*%
%ADD26C,0.234315*%
%ADD27C,0.218603*%
%ADD28C,0.182263*%
%ADD29C,0.233131*%
%ADD30C,0.247116*%
%ADD31C,0.245492*%
%ADD32C,0.237840*%
G04 APERTURE END LIST*
D10*
G36*
X42900449Y-2069973D02*
G01*
X40900452Y-2069973D01*
X40900452Y-69975D01*
X42900449Y-69975D01*
X42900449Y-2069973D01*
G37*
G36*
X42900449Y-320070248D02*
G01*
X40900452Y-320070248D01*
X40900452Y-318070248D01*
X42900449Y-318070248D01*
X42900449Y-320070248D01*
G37*
D11*
X67488605Y-293025204D02*
X67312259Y-293025204D01*
X67312259Y-291698025D01*
X67488605Y-291698025D01*
X67488605Y-293025204D01*
G36*
X67488605Y-293025204D02*
G01*
X67312259Y-293025204D01*
X67312259Y-291698025D01*
X67488605Y-291698025D01*
X67488605Y-293025204D01*
G37*
X68063602Y-292449856D02*
X66736421Y-292449856D01*
X66736421Y-292273465D01*
X68063602Y-292273465D01*
X68063602Y-292449856D01*
G36*
X68063602Y-292449856D02*
G01*
X66736421Y-292449856D01*
X66736421Y-292273465D01*
X68063602Y-292273465D01*
X68063602Y-292449856D01*
G37*
X79424411Y-292449856D02*
X78097232Y-292449856D01*
X78097232Y-292273465D01*
X79424411Y-292273465D01*
X79424411Y-292449856D01*
G36*
X79424411Y-292449856D02*
G01*
X78097232Y-292449856D01*
X78097232Y-292273465D01*
X79424411Y-292273465D01*
X79424411Y-292449856D01*
G37*
D10*
G36*
X216193412Y-277361905D02*
G01*
X215296806Y-277361905D01*
X215296806Y-276034268D01*
X216193412Y-276034268D01*
X216193412Y-277361905D01*
G37*
G36*
X218504127Y-277361905D02*
G01*
X217607520Y-277361905D01*
X217607520Y-276034268D01*
X218504127Y-276034268D01*
X218504127Y-277361905D01*
G37*
G36*
X296900611Y-2069973D02*
G01*
X294900626Y-2069973D01*
X294900626Y-69975D01*
X296900611Y-69975D01*
X296900611Y-2069973D01*
G37*
G36*
X296900611Y-320070248D02*
G01*
X294900626Y-320070248D01*
X294900626Y-318070248D01*
X296900611Y-318070248D01*
X296900611Y-320070248D01*
G37*
D11*
X72942628Y-291541867D02*
X72984313Y-291545037D01*
X73025392Y-291550256D01*
X73065814Y-291557475D01*
X73105526Y-291566640D01*
X73144477Y-291577701D01*
X73182616Y-291590606D01*
X73219891Y-291605303D01*
X73256250Y-291621741D01*
X73291642Y-291639868D01*
X73326015Y-291659633D01*
X73359318Y-291680984D01*
X73391500Y-291703869D01*
X73422508Y-291728237D01*
X73452290Y-291754037D01*
X73480797Y-291781216D01*
X73507975Y-291809724D01*
X73533773Y-291839508D01*
X73558141Y-291870517D01*
X73581025Y-291902700D01*
X73602375Y-291936005D01*
X73622139Y-291970380D01*
X73640266Y-292005774D01*
X73656703Y-292042136D01*
X73671400Y-292079413D01*
X73684304Y-292117554D01*
X73695365Y-292156508D01*
X73704530Y-292196223D01*
X73711748Y-292236647D01*
X73716968Y-292277729D01*
X73720138Y-292319417D01*
X73721206Y-292361661D01*
X73720138Y-292403898D01*
X73716968Y-292445582D01*
X73711748Y-292486659D01*
X73704530Y-292527080D01*
X73695365Y-292566791D01*
X73684304Y-292605742D01*
X73671400Y-292643880D01*
X73656703Y-292681155D01*
X73640266Y-292717514D01*
X73622139Y-292752907D01*
X73602375Y-292787281D01*
X73581025Y-292820584D01*
X73558141Y-292852766D01*
X73533773Y-292883775D01*
X73507975Y-292913559D01*
X73480797Y-292942067D01*
X73452290Y-292969246D01*
X73422508Y-292995046D01*
X73391500Y-293019415D01*
X73359318Y-293042300D01*
X73326015Y-293063652D01*
X73291642Y-293083417D01*
X73256250Y-293101545D01*
X73219891Y-293117983D01*
X73182616Y-293132681D01*
X73144477Y-293145587D01*
X73105526Y-293156648D01*
X73065814Y-293165814D01*
X73025392Y-293173033D01*
X72984313Y-293178254D01*
X72942628Y-293181424D01*
X72900388Y-293182492D01*
X72858142Y-293181424D01*
X72816452Y-293178254D01*
X72775368Y-293173033D01*
X72734942Y-293165814D01*
X72695225Y-293156648D01*
X72656270Y-293145587D01*
X72618127Y-293132681D01*
X72580849Y-293117983D01*
X72544487Y-293101545D01*
X72509092Y-293083417D01*
X72474716Y-293063652D01*
X72441410Y-293042300D01*
X72409227Y-293019415D01*
X72378217Y-292995046D01*
X72348433Y-292969246D01*
X72319925Y-292942067D01*
X72292746Y-292913559D01*
X72266946Y-292883775D01*
X72242578Y-292852766D01*
X72219692Y-292820584D01*
X72198342Y-292787281D01*
X72178577Y-292752907D01*
X72160450Y-292717514D01*
X72144013Y-292681155D01*
X72129316Y-292643880D01*
X72116411Y-292605742D01*
X72105350Y-292566791D01*
X72096185Y-292527080D01*
X72088966Y-292486659D01*
X72083747Y-292445582D01*
X72080577Y-292403898D01*
X72079509Y-292361661D01*
X72080577Y-292319417D01*
X72083747Y-292277729D01*
X72088966Y-292236647D01*
X72096185Y-292196223D01*
X72105350Y-292156508D01*
X72116411Y-292117554D01*
X72129316Y-292079413D01*
X72144013Y-292042136D01*
X72160450Y-292005774D01*
X72178577Y-291970380D01*
X72198342Y-291936005D01*
X72219692Y-291902700D01*
X72242578Y-291870517D01*
X72266946Y-291839508D01*
X72292746Y-291809724D01*
X72319925Y-291781216D01*
X72348433Y-291754037D01*
X72378217Y-291728237D01*
X72409227Y-291703869D01*
X72441410Y-291680984D01*
X72474716Y-291659633D01*
X72509092Y-291639868D01*
X72544487Y-291621741D01*
X72580849Y-291605303D01*
X72618127Y-291590606D01*
X72656270Y-291577701D01*
X72695225Y-291566640D01*
X72734942Y-291557475D01*
X72775368Y-291550256D01*
X72816452Y-291545037D01*
X72858142Y-291541867D01*
X72900388Y-291540799D01*
X72942628Y-291541867D01*
D12*
X265157496Y-299084556D02*
X265411024Y-299103835D01*
X265660865Y-299135582D01*
X265906707Y-299179484D01*
X266148235Y-299235228D01*
X266385136Y-299302500D01*
X266617096Y-299380985D01*
X266843801Y-299470372D01*
X267064938Y-299570345D01*
X267280194Y-299680591D01*
X267489253Y-299800797D01*
X267691804Y-299930649D01*
X267887532Y-300069833D01*
X268076123Y-300218036D01*
X268257263Y-300374943D01*
X268430640Y-300540242D01*
X268595940Y-300713618D01*
X268752848Y-300894758D01*
X268901051Y-301083348D01*
X269040236Y-301279075D01*
X269170088Y-301481625D01*
X269290295Y-301690684D01*
X269400542Y-301905939D01*
X269500516Y-302127076D01*
X269589902Y-302353781D01*
X269668389Y-302585740D01*
X269735661Y-302822641D01*
X269791405Y-303064168D01*
X269835308Y-303310010D01*
X269867055Y-303559851D01*
X269886333Y-303813378D01*
X269892829Y-304070279D01*
X269886333Y-304327182D01*
X269867055Y-304580712D01*
X269835308Y-304830556D01*
X269791405Y-305076401D01*
X269735661Y-305317931D01*
X269668389Y-305554834D01*
X269589902Y-305786796D01*
X269500516Y-306013504D01*
X269400542Y-306234643D01*
X269290295Y-306449901D01*
X269170088Y-306658962D01*
X269040236Y-306861515D01*
X268901051Y-307057244D01*
X268752848Y-307245837D01*
X268595940Y-307426979D01*
X268430640Y-307600358D01*
X268257263Y-307765658D01*
X268076123Y-307922568D01*
X267887532Y-308070772D01*
X267691804Y-308209958D01*
X267489253Y-308339812D01*
X267280194Y-308460019D01*
X267064938Y-308570267D01*
X266843801Y-308670241D01*
X266617096Y-308759629D01*
X266385136Y-308838116D01*
X266148235Y-308905388D01*
X265906707Y-308961133D01*
X265660865Y-309005036D01*
X265411024Y-309036783D01*
X265157496Y-309056062D01*
X264900596Y-309062558D01*
X264643697Y-309056062D01*
X264390170Y-309036783D01*
X264140330Y-309005036D01*
X263894489Y-308961133D01*
X263652962Y-308905388D01*
X263416062Y-308838116D01*
X263184102Y-308759629D01*
X262957397Y-308670241D01*
X262736260Y-308570267D01*
X262521005Y-308460019D01*
X262311945Y-308339812D01*
X262109394Y-308209958D01*
X261913667Y-308070772D01*
X261725075Y-307922568D01*
X261543934Y-307765658D01*
X261370557Y-307600358D01*
X261205257Y-307426979D01*
X261048349Y-307245837D01*
X260900145Y-307057244D01*
X260760960Y-306861515D01*
X260631107Y-306658962D01*
X260510900Y-306449901D01*
X260400652Y-306234643D01*
X260300678Y-306013504D01*
X260211291Y-305786796D01*
X260132804Y-305554834D01*
X260065532Y-305317931D01*
X260009787Y-305076401D01*
X259965885Y-304830556D01*
X259934137Y-304580712D01*
X259914858Y-304327182D01*
X259908363Y-304070279D01*
X259914858Y-303813378D01*
X259934137Y-303559851D01*
X259965885Y-303310010D01*
X260009787Y-303064168D01*
X260065532Y-302822641D01*
X260132804Y-302585740D01*
X260211291Y-302353781D01*
X260300678Y-302127076D01*
X260400652Y-301905939D01*
X260510900Y-301690684D01*
X260631107Y-301481625D01*
X260760960Y-301279075D01*
X260900145Y-301083348D01*
X261048349Y-300894758D01*
X261205257Y-300713618D01*
X261370557Y-300540242D01*
X261543934Y-300374943D01*
X261725075Y-300218036D01*
X261913667Y-300069833D01*
X262109394Y-299930649D01*
X262311945Y-299800797D01*
X262521005Y-299680591D01*
X262736260Y-299570345D01*
X262957397Y-299470372D01*
X263184102Y-299380985D01*
X263416062Y-299302500D01*
X263652962Y-299235228D01*
X263894489Y-299179484D01*
X264140330Y-299135582D01*
X264390170Y-299103835D01*
X264643697Y-299084556D01*
X264900596Y-299078061D01*
X265157496Y-299084556D01*
D11*
X73312150Y-232080596D02*
X73718421Y-232111489D01*
X74118787Y-232162363D01*
X74512742Y-232232716D01*
X74899786Y-232322044D01*
X75279415Y-232429845D01*
X75651127Y-232555617D01*
X76014418Y-232698856D01*
X76368787Y-232859061D01*
X76713731Y-233035729D01*
X77048746Y-233228357D01*
X77373331Y-233436442D01*
X77686982Y-233659482D01*
X77989198Y-233896974D01*
X78279474Y-234148415D01*
X78557309Y-234413304D01*
X78822200Y-234691137D01*
X79073645Y-234981412D01*
X79311140Y-235283625D01*
X79534182Y-235597276D01*
X79742271Y-235921860D01*
X79934901Y-236256875D01*
X80111572Y-236601819D01*
X80271780Y-236956189D01*
X80415022Y-237319483D01*
X80540796Y-237691197D01*
X80648600Y-238070829D01*
X80737930Y-238457877D01*
X80808284Y-238851838D01*
X80859159Y-239252209D01*
X80890053Y-239658488D01*
X80900462Y-240070172D01*
X80900462Y-264070248D01*
X80890053Y-264481924D01*
X80859159Y-264888196D01*
X80808284Y-265288561D01*
X80737930Y-265682516D01*
X80648600Y-266069559D01*
X80540796Y-266449188D01*
X80415022Y-266820899D01*
X80271780Y-267184190D01*
X80111572Y-267538558D01*
X79934901Y-267883501D01*
X79742271Y-268218515D01*
X79534182Y-268543099D01*
X79311140Y-268856750D01*
X79073645Y-269158964D01*
X78822200Y-269449240D01*
X78557309Y-269727074D01*
X78279474Y-269991964D01*
X77989198Y-270243408D01*
X77686982Y-270480902D01*
X77373331Y-270703944D01*
X77048746Y-270912031D01*
X76713731Y-271104661D01*
X76368787Y-271281331D01*
X76014418Y-271441538D01*
X75651127Y-271584780D01*
X75279415Y-271710553D01*
X74899786Y-271818356D01*
X74512742Y-271907686D01*
X74118787Y-271978040D01*
X73718421Y-272028915D01*
X73312150Y-272059808D01*
X72900474Y-272070218D01*
X72488790Y-272059808D01*
X72082511Y-272028915D01*
X71682140Y-271978040D01*
X71288179Y-271907686D01*
X70901132Y-271818356D01*
X70521499Y-271710553D01*
X70149785Y-271584780D01*
X69786491Y-271441538D01*
X69432121Y-271281331D01*
X69087177Y-271104661D01*
X68752161Y-270912031D01*
X68427577Y-270703944D01*
X68113927Y-270480902D01*
X67811713Y-270243408D01*
X67521438Y-269991964D01*
X67243605Y-269727074D01*
X66978716Y-269449240D01*
X66727274Y-269158964D01*
X66489782Y-268856750D01*
X66266741Y-268543099D01*
X66058656Y-268218515D01*
X65866028Y-267883501D01*
X65689360Y-267538558D01*
X65529155Y-267184190D01*
X65385916Y-266820899D01*
X65260144Y-266449188D01*
X65152342Y-266069559D01*
X65063014Y-265682516D01*
X64992662Y-265288561D01*
X64941788Y-264888196D01*
X64910895Y-264481924D01*
X64900485Y-264070248D01*
X64900485Y-240070172D01*
X64910895Y-239658488D01*
X64941788Y-239252209D01*
X64992662Y-238851838D01*
X65063014Y-238457877D01*
X65152342Y-238070829D01*
X65260144Y-237691197D01*
X65385916Y-237319483D01*
X65529155Y-236956189D01*
X65689360Y-236601819D01*
X65866028Y-236256875D01*
X66058656Y-235921860D01*
X66266741Y-235597276D01*
X66489782Y-235283625D01*
X66727274Y-234981412D01*
X66978716Y-234691137D01*
X67243605Y-234413304D01*
X67521438Y-234148415D01*
X67811713Y-233896974D01*
X68113927Y-233659482D01*
X68427577Y-233436442D01*
X68752161Y-233228357D01*
X69087177Y-233035729D01*
X69432121Y-232859061D01*
X69786491Y-232698856D01*
X70149785Y-232555617D01*
X70521499Y-232429845D01*
X70901132Y-232322044D01*
X71288179Y-232232716D01*
X71682140Y-232162363D01*
X72082511Y-232111489D01*
X72488790Y-232080596D01*
X72900474Y-232070187D01*
X73312150Y-232080596D01*
D13*
X74534854Y-145581486D02*
X74661398Y-145591108D01*
X74786102Y-145606954D01*
X74908809Y-145628867D01*
X75029363Y-145656690D01*
X75147608Y-145690267D01*
X75263387Y-145729441D01*
X75376542Y-145774056D01*
X75486919Y-145823955D01*
X75594359Y-145878981D01*
X75698707Y-145938979D01*
X75799806Y-146003790D01*
X75897500Y-146073260D01*
X75991631Y-146147231D01*
X76082044Y-146225547D01*
X76168582Y-146308051D01*
X76251087Y-146394586D01*
X76329405Y-146484997D01*
X76403378Y-146579125D01*
X76472849Y-146676816D01*
X76537662Y-146777912D01*
X76597660Y-146882257D01*
X76652688Y-146989694D01*
X76702588Y-147100067D01*
X76747203Y-147213219D01*
X76786378Y-147328993D01*
X76819955Y-147447233D01*
X76847779Y-147567783D01*
X76869692Y-147690485D01*
X76885538Y-147815183D01*
X76895160Y-147941722D01*
X76898402Y-148069943D01*
X76898402Y-148070309D01*
X76895160Y-148198529D01*
X76885538Y-148325066D01*
X76869692Y-148449764D01*
X76847779Y-148572465D01*
X76819955Y-148693014D01*
X76786378Y-148811254D01*
X76747203Y-148927027D01*
X76702588Y-149040179D01*
X76652688Y-149150551D01*
X76597660Y-149257988D01*
X76537662Y-149362333D01*
X76472849Y-149463429D01*
X76403378Y-149561120D01*
X76329405Y-149655249D01*
X76251087Y-149745660D01*
X76168582Y-149832196D01*
X76082044Y-149914700D01*
X75991631Y-149993016D01*
X75897500Y-150066988D01*
X75799806Y-150136458D01*
X75698707Y-150201270D01*
X75594359Y-150261268D01*
X75486919Y-150316295D01*
X75376542Y-150366194D01*
X75263387Y-150410810D01*
X75147608Y-150449984D01*
X75029363Y-150483561D01*
X74908809Y-150511385D01*
X74786102Y-150533298D01*
X74661398Y-150549144D01*
X74534854Y-150558766D01*
X74406627Y-150562008D01*
X71390144Y-150562008D01*
X71261919Y-150558766D01*
X71135378Y-150549144D01*
X71010676Y-150533298D01*
X70887970Y-150511385D01*
X70767416Y-150483561D01*
X70649172Y-150449984D01*
X70533394Y-150410810D01*
X70420238Y-150366194D01*
X70309861Y-150316295D01*
X70202419Y-150261268D01*
X70098070Y-150201270D01*
X69996970Y-150136458D01*
X69899274Y-150066988D01*
X69805141Y-149993016D01*
X69714726Y-149914700D01*
X69628186Y-149832196D01*
X69545678Y-149745660D01*
X69467358Y-149655249D01*
X69393384Y-149561120D01*
X69323910Y-149463429D01*
X69259094Y-149362333D01*
X69199094Y-149257988D01*
X69144064Y-149150551D01*
X69094162Y-149040179D01*
X69049544Y-148927027D01*
X69010368Y-148811254D01*
X68976789Y-148693014D01*
X68948964Y-148572465D01*
X68927050Y-148449764D01*
X68911203Y-148325066D01*
X68901580Y-148198529D01*
X68898338Y-148070309D01*
X68898338Y-148069943D01*
X68901580Y-147941722D01*
X68911203Y-147815183D01*
X68927050Y-147690485D01*
X68948964Y-147567783D01*
X68976789Y-147447233D01*
X69010368Y-147328993D01*
X69049544Y-147213219D01*
X69094162Y-147100067D01*
X69144064Y-146989694D01*
X69199094Y-146882257D01*
X69259094Y-146777912D01*
X69323910Y-146676816D01*
X69393384Y-146579125D01*
X69467358Y-146484997D01*
X69545678Y-146394586D01*
X69628186Y-146308051D01*
X69714726Y-146225547D01*
X69805141Y-146147231D01*
X69899274Y-146073260D01*
X69996970Y-146003790D01*
X70098070Y-145938979D01*
X70202419Y-145878981D01*
X70309861Y-145823955D01*
X70420238Y-145774056D01*
X70533394Y-145729441D01*
X70649172Y-145690267D01*
X70767416Y-145656690D01*
X70887970Y-145628867D01*
X71010676Y-145606954D01*
X71135378Y-145591108D01*
X71261919Y-145581486D01*
X71390144Y-145578244D01*
X74406627Y-145578244D01*
X74534854Y-145581486D01*
X90537051Y-145581486D02*
X90663595Y-145591108D01*
X90788299Y-145606954D01*
X90911006Y-145628867D01*
X91031561Y-145656690D01*
X91149805Y-145690267D01*
X91265584Y-145729441D01*
X91378739Y-145774056D01*
X91489116Y-145823955D01*
X91596556Y-145878981D01*
X91700904Y-145938979D01*
X91802004Y-146003790D01*
X91899697Y-146073260D01*
X91993829Y-146147231D01*
X92084241Y-146225547D01*
X92170779Y-146308051D01*
X92253285Y-146394586D01*
X92331602Y-146484997D01*
X92405575Y-146579125D01*
X92475046Y-146676816D01*
X92539859Y-146777912D01*
X92599858Y-146882257D01*
X92654885Y-146989694D01*
X92704785Y-147100067D01*
X92749400Y-147213219D01*
X92788575Y-147328993D01*
X92822153Y-147447233D01*
X92849976Y-147567783D01*
X92871889Y-147690485D01*
X92887735Y-147815183D01*
X92897357Y-147941722D01*
X92900600Y-148069943D01*
X92900600Y-148070309D01*
X92897357Y-148198529D01*
X92887735Y-148325066D01*
X92871889Y-148449764D01*
X92849976Y-148572465D01*
X92822153Y-148693014D01*
X92788575Y-148811254D01*
X92749400Y-148927027D01*
X92704785Y-149040179D01*
X92654885Y-149150551D01*
X92599858Y-149257988D01*
X92539859Y-149362333D01*
X92475046Y-149463429D01*
X92405575Y-149561120D01*
X92331602Y-149655249D01*
X92253285Y-149745660D01*
X92170779Y-149832196D01*
X92084241Y-149914700D01*
X91993829Y-149993016D01*
X91899697Y-150066988D01*
X91802004Y-150136458D01*
X91700904Y-150201270D01*
X91596556Y-150261268D01*
X91489116Y-150316295D01*
X91378739Y-150366194D01*
X91265584Y-150410810D01*
X91149805Y-150449984D01*
X91031561Y-150483561D01*
X90911006Y-150511385D01*
X90788299Y-150533298D01*
X90663595Y-150549144D01*
X90537051Y-150558766D01*
X90408824Y-150562008D01*
X87392341Y-150562008D01*
X87264117Y-150558766D01*
X87137575Y-150549144D01*
X87012873Y-150533298D01*
X86890167Y-150511385D01*
X86769614Y-150483561D01*
X86651370Y-150449984D01*
X86535591Y-150410810D01*
X86422435Y-150366194D01*
X86312058Y-150316295D01*
X86204617Y-150261268D01*
X86100267Y-150201270D01*
X85999167Y-150136458D01*
X85901472Y-150066988D01*
X85807338Y-149993016D01*
X85716923Y-149914700D01*
X85630384Y-149832196D01*
X85547876Y-149745660D01*
X85469556Y-149655249D01*
X85395581Y-149561120D01*
X85326107Y-149463429D01*
X85261292Y-149362333D01*
X85201291Y-149257988D01*
X85146261Y-149150551D01*
X85096359Y-149040179D01*
X85051742Y-148927027D01*
X85012565Y-148811254D01*
X84978986Y-148693014D01*
X84951161Y-148572465D01*
X84929247Y-148449764D01*
X84913400Y-148325066D01*
X84903777Y-148198529D01*
X84900535Y-148070309D01*
X84900535Y-148069943D01*
X84903777Y-147941722D01*
X84913400Y-147815183D01*
X84929247Y-147690485D01*
X84951161Y-147567783D01*
X84978986Y-147447233D01*
X85012565Y-147328993D01*
X85051742Y-147213219D01*
X85096359Y-147100067D01*
X85146261Y-146989694D01*
X85201291Y-146882257D01*
X85261292Y-146777912D01*
X85326107Y-146676816D01*
X85395581Y-146579125D01*
X85469556Y-146484997D01*
X85547876Y-146394586D01*
X85630384Y-146308051D01*
X85716923Y-146225547D01*
X85807338Y-146147231D01*
X85901472Y-146073260D01*
X85999167Y-146003790D01*
X86100267Y-145938979D01*
X86204617Y-145878981D01*
X86312058Y-145823955D01*
X86422435Y-145774056D01*
X86535591Y-145729441D01*
X86651370Y-145690267D01*
X86769614Y-145656690D01*
X86890167Y-145628867D01*
X87012873Y-145606954D01*
X87137575Y-145591108D01*
X87264117Y-145581486D01*
X87392341Y-145578244D01*
X90408824Y-145578244D01*
X90537051Y-145581486D01*
X90537051Y-273581578D02*
X90663595Y-273591200D01*
X90788299Y-273607046D01*
X90911006Y-273628959D01*
X91031561Y-273656782D01*
X91149805Y-273690360D01*
X91265584Y-273729534D01*
X91378739Y-273774149D01*
X91489116Y-273824049D01*
X91596556Y-273879076D01*
X91700904Y-273939074D01*
X91802004Y-274003886D01*
X91899697Y-274073356D01*
X91993829Y-274147328D01*
X92084241Y-274225644D01*
X92170779Y-274308148D01*
X92253285Y-274394684D01*
X92331602Y-274485094D01*
X92405575Y-274579224D01*
X92475046Y-274676915D01*
X92539859Y-274778011D01*
X92599858Y-274882356D01*
X92654885Y-274989792D01*
X92704785Y-275100165D01*
X92749400Y-275213316D01*
X92788575Y-275329090D01*
X92822153Y-275447330D01*
X92849976Y-275567879D01*
X92871889Y-275690580D01*
X92887735Y-275815278D01*
X92897357Y-275941815D01*
X92900600Y-276070035D01*
X92900600Y-276070401D01*
X92897357Y-276198621D01*
X92887735Y-276325158D01*
X92871889Y-276449856D01*
X92849976Y-276572558D01*
X92822153Y-276693108D01*
X92788575Y-276811348D01*
X92749400Y-276927123D01*
X92704785Y-277040275D01*
X92654885Y-277150649D01*
X92599858Y-277258087D01*
X92539859Y-277362433D01*
X92475046Y-277463530D01*
X92405575Y-277561223D01*
X92331602Y-277655353D01*
X92253285Y-277745765D01*
X92170779Y-277832303D01*
X92084241Y-277914808D01*
X91993829Y-277993126D01*
X91899697Y-278067099D01*
X91802004Y-278136570D01*
X91700904Y-278201384D01*
X91596556Y-278261383D01*
X91489116Y-278316411D01*
X91378739Y-278366312D01*
X91265584Y-278410928D01*
X91149805Y-278450103D01*
X91031561Y-278483681D01*
X90911006Y-278511506D01*
X90788299Y-278533419D01*
X90663595Y-278549265D01*
X90537051Y-278558888D01*
X90408824Y-278562131D01*
X87392341Y-278562131D01*
X87264117Y-278558888D01*
X87137575Y-278549265D01*
X87012873Y-278533419D01*
X86890167Y-278511506D01*
X86769614Y-278483681D01*
X86651370Y-278450103D01*
X86535591Y-278410928D01*
X86422435Y-278366312D01*
X86312058Y-278316411D01*
X86204617Y-278261383D01*
X86100267Y-278201384D01*
X85999167Y-278136570D01*
X85901472Y-278067099D01*
X85807338Y-277993126D01*
X85716923Y-277914808D01*
X85630384Y-277832303D01*
X85547876Y-277745765D01*
X85469556Y-277655353D01*
X85395581Y-277561223D01*
X85326107Y-277463530D01*
X85261292Y-277362433D01*
X85201291Y-277258087D01*
X85146261Y-277150649D01*
X85096359Y-277040275D01*
X85051742Y-276927123D01*
X85012565Y-276811348D01*
X84978986Y-276693108D01*
X84951161Y-276572558D01*
X84929247Y-276449856D01*
X84913400Y-276325158D01*
X84903777Y-276198621D01*
X84900535Y-276070401D01*
X84900535Y-276070035D01*
X84903777Y-275941815D01*
X84913400Y-275815278D01*
X84929247Y-275690580D01*
X84951161Y-275567879D01*
X84978986Y-275447330D01*
X85012565Y-275329090D01*
X85051742Y-275213316D01*
X85096359Y-275100165D01*
X85146261Y-274989792D01*
X85201291Y-274882356D01*
X85261292Y-274778011D01*
X85326107Y-274676915D01*
X85395581Y-274579224D01*
X85469556Y-274485094D01*
X85547876Y-274394684D01*
X85630384Y-274308148D01*
X85716923Y-274225644D01*
X85807338Y-274147328D01*
X85901472Y-274073356D01*
X85999167Y-274003886D01*
X86100267Y-273939074D01*
X86204617Y-273879076D01*
X86312058Y-273824049D01*
X86422435Y-273774149D01*
X86535591Y-273729534D01*
X86651370Y-273690360D01*
X86769614Y-273656782D01*
X86890167Y-273628959D01*
X87012873Y-273607046D01*
X87137575Y-273591200D01*
X87264117Y-273581578D01*
X87392341Y-273578335D01*
X90408824Y-273578335D01*
X90537051Y-273581578D01*
D14*
X139507503Y-145581486D02*
X139634044Y-145591108D01*
X139758745Y-145606954D01*
X139881450Y-145628867D01*
X140002002Y-145656690D01*
X140120244Y-145690267D01*
X140236021Y-145729441D01*
X140349174Y-145774056D01*
X140459549Y-145823955D01*
X140566987Y-145878981D01*
X140671334Y-145938979D01*
X140772432Y-146003790D01*
X140870124Y-146073260D01*
X140964254Y-146147231D01*
X141054666Y-146225547D01*
X141141202Y-146308051D01*
X141223707Y-146394586D01*
X141302024Y-146484997D01*
X141375996Y-146579125D01*
X141445466Y-146676816D01*
X141510279Y-146777912D01*
X141570277Y-146882257D01*
X141625304Y-146989694D01*
X141675203Y-147100067D01*
X141719818Y-147213219D01*
X141758993Y-147328993D01*
X141792570Y-147447233D01*
X141820393Y-147567783D01*
X141842306Y-147690485D01*
X141858152Y-147815183D01*
X141867774Y-147941722D01*
X141871017Y-148069943D01*
X141871017Y-148070309D01*
X141867774Y-148198529D01*
X141858152Y-148325066D01*
X141842306Y-148449764D01*
X141820393Y-148572465D01*
X141792570Y-148693014D01*
X141758993Y-148811254D01*
X141719818Y-148927027D01*
X141675203Y-149040179D01*
X141625304Y-149150551D01*
X141570277Y-149257988D01*
X141510279Y-149362333D01*
X141445466Y-149463429D01*
X141375996Y-149561120D01*
X141302024Y-149655249D01*
X141223707Y-149745660D01*
X141141202Y-149832196D01*
X141054666Y-149914700D01*
X140964254Y-149993016D01*
X140870124Y-150066988D01*
X140772432Y-150136458D01*
X140671334Y-150201270D01*
X140566987Y-150261268D01*
X140459549Y-150316295D01*
X140349174Y-150366194D01*
X140236021Y-150410810D01*
X140120244Y-150449984D01*
X140002002Y-150483561D01*
X139881450Y-150511385D01*
X139758745Y-150533298D01*
X139634044Y-150549144D01*
X139507503Y-150558766D01*
X139379279Y-150562008D01*
X134421729Y-150562008D01*
X134293508Y-150558766D01*
X134166969Y-150549144D01*
X134042270Y-150533298D01*
X133919567Y-150511385D01*
X133799016Y-150483561D01*
X133680775Y-150449984D01*
X133564999Y-150410810D01*
X133451846Y-150366194D01*
X133341472Y-150316295D01*
X133234033Y-150261268D01*
X133129686Y-150201270D01*
X133028588Y-150136458D01*
X132930895Y-150066988D01*
X132836764Y-149993016D01*
X132746352Y-149914700D01*
X132659814Y-149832196D01*
X132577308Y-149745660D01*
X132498990Y-149655249D01*
X132425017Y-149561120D01*
X132355545Y-149463429D01*
X132290732Y-149362333D01*
X132230732Y-149257988D01*
X132175704Y-149150551D01*
X132125803Y-149040179D01*
X132081187Y-148927027D01*
X132042012Y-148811254D01*
X132008433Y-148693014D01*
X131980609Y-148572465D01*
X131958696Y-148449764D01*
X131942849Y-148325066D01*
X131933227Y-148198529D01*
X131929984Y-148070309D01*
X131929984Y-148069943D01*
X131933227Y-147941722D01*
X131942849Y-147815183D01*
X131958696Y-147690485D01*
X131980609Y-147567783D01*
X132008433Y-147447233D01*
X132042012Y-147328993D01*
X132081187Y-147213219D01*
X132125803Y-147100067D01*
X132175704Y-146989694D01*
X132230732Y-146882257D01*
X132290732Y-146777912D01*
X132355545Y-146676816D01*
X132425017Y-146579125D01*
X132498990Y-146484997D01*
X132577308Y-146394586D01*
X132659814Y-146308051D01*
X132746352Y-146225547D01*
X132836764Y-146147231D01*
X132930895Y-146073260D01*
X133028588Y-146003790D01*
X133129686Y-145938979D01*
X133234033Y-145878981D01*
X133341472Y-145823955D01*
X133451846Y-145774056D01*
X133564999Y-145729441D01*
X133680775Y-145690267D01*
X133799016Y-145656690D01*
X133919567Y-145628867D01*
X134042270Y-145606954D01*
X134166969Y-145591108D01*
X134293508Y-145581486D01*
X134421729Y-145578244D01*
X139379279Y-145578244D01*
X139507503Y-145581486D01*
D15*
X154536984Y-145581486D02*
X154663525Y-145591108D01*
X154788226Y-145606954D01*
X154910932Y-145628867D01*
X155031484Y-145656690D01*
X155149728Y-145690267D01*
X155265505Y-145729441D01*
X155378660Y-145774056D01*
X155489036Y-145823955D01*
X155596476Y-145878981D01*
X155700824Y-145938979D01*
X155801924Y-146003790D01*
X155899617Y-146073260D01*
X155993749Y-146147231D01*
X156084163Y-146225547D01*
X156170701Y-146308051D01*
X156253208Y-146394586D01*
X156331526Y-146484997D01*
X156405500Y-146579125D01*
X156474972Y-146676816D01*
X156539786Y-146777912D01*
X156599786Y-146882257D01*
X156654814Y-146989694D01*
X156704715Y-147100067D01*
X156749332Y-147213219D01*
X156788507Y-147328993D01*
X156822086Y-147447233D01*
X156849910Y-147567783D01*
X156871823Y-147690485D01*
X156887670Y-147815183D01*
X156897292Y-147941722D01*
X156900535Y-148069943D01*
X156900535Y-148070309D01*
X156897292Y-148198529D01*
X156887670Y-148325066D01*
X156871823Y-148449764D01*
X156849910Y-148572465D01*
X156822086Y-148693014D01*
X156788507Y-148811254D01*
X156749332Y-148927027D01*
X156704715Y-149040179D01*
X156654814Y-149150551D01*
X156599786Y-149257988D01*
X156539786Y-149362333D01*
X156474972Y-149463429D01*
X156405500Y-149561120D01*
X156331526Y-149655249D01*
X156253208Y-149745660D01*
X156170701Y-149832196D01*
X156084163Y-149914700D01*
X155993749Y-149993016D01*
X155899617Y-150066988D01*
X155801924Y-150136458D01*
X155700824Y-150201270D01*
X155596476Y-150261268D01*
X155489036Y-150316295D01*
X155378660Y-150366194D01*
X155265505Y-150410810D01*
X155149728Y-150449984D01*
X155031484Y-150483561D01*
X154910932Y-150511385D01*
X154788226Y-150533298D01*
X154663525Y-150549144D01*
X154536984Y-150558766D01*
X154408759Y-150562008D01*
X151392051Y-150562008D01*
X151263827Y-150558766D01*
X151137286Y-150549144D01*
X151012584Y-150533298D01*
X150889878Y-150511385D01*
X150769326Y-150483561D01*
X150651082Y-150449984D01*
X150535305Y-150410810D01*
X150422150Y-150366194D01*
X150311774Y-150316295D01*
X150204334Y-150261268D01*
X150099986Y-150201270D01*
X149998887Y-150136458D01*
X149901193Y-150066988D01*
X149807061Y-149993016D01*
X149716647Y-149914700D01*
X149630109Y-149832196D01*
X149547602Y-149745660D01*
X149469284Y-149655249D01*
X149395310Y-149561120D01*
X149325838Y-149463429D01*
X149261024Y-149362333D01*
X149201024Y-149257988D01*
X149145996Y-149150551D01*
X149096095Y-149040179D01*
X149051479Y-148927027D01*
X149012303Y-148811254D01*
X148978725Y-148693014D01*
X148950900Y-148572465D01*
X148928987Y-148449764D01*
X148913140Y-148325066D01*
X148903518Y-148198529D01*
X148900275Y-148070309D01*
X148900275Y-148069943D01*
X148903518Y-147941722D01*
X148913140Y-147815183D01*
X148928987Y-147690485D01*
X148950900Y-147567783D01*
X148978725Y-147447233D01*
X149012303Y-147328993D01*
X149051479Y-147213219D01*
X149096095Y-147100067D01*
X149145996Y-146989694D01*
X149201024Y-146882257D01*
X149261024Y-146777912D01*
X149325838Y-146676816D01*
X149395310Y-146579125D01*
X149469284Y-146484997D01*
X149547602Y-146394586D01*
X149630109Y-146308051D01*
X149716647Y-146225547D01*
X149807061Y-146147231D01*
X149901193Y-146073260D01*
X149998887Y-146003790D01*
X150099986Y-145938979D01*
X150204334Y-145878981D01*
X150311774Y-145823955D01*
X150422150Y-145774056D01*
X150535305Y-145729441D01*
X150651082Y-145690267D01*
X150769326Y-145656690D01*
X150889878Y-145628867D01*
X151012584Y-145606954D01*
X151137286Y-145591108D01*
X151263827Y-145581486D01*
X151392051Y-145578244D01*
X154408759Y-145578244D01*
X154536984Y-145581486D01*
D13*
X186537108Y-273581578D02*
X186663652Y-273591200D01*
X186788355Y-273607046D01*
X186911063Y-273628959D01*
X187031617Y-273656782D01*
X187149861Y-273690360D01*
X187265639Y-273729534D01*
X187378795Y-273774149D01*
X187489171Y-273824049D01*
X187596612Y-273879076D01*
X187700960Y-273939074D01*
X187802059Y-274003886D01*
X187899753Y-274073356D01*
X187993884Y-274147328D01*
X188084297Y-274225644D01*
X188170835Y-274308148D01*
X188253341Y-274394684D01*
X188331658Y-274485094D01*
X188405631Y-274579224D01*
X188475102Y-274676914D01*
X188539915Y-274778011D01*
X188599914Y-274882356D01*
X188654942Y-274989792D01*
X188704842Y-275100165D01*
X188749457Y-275213316D01*
X188788632Y-275329090D01*
X188822210Y-275447330D01*
X188850033Y-275567879D01*
X188871946Y-275690580D01*
X188887792Y-275815278D01*
X188897415Y-275941815D01*
X188900657Y-276070035D01*
X188900657Y-276070401D01*
X188897415Y-276198621D01*
X188887792Y-276325158D01*
X188871946Y-276449856D01*
X188850033Y-276572558D01*
X188822210Y-276693108D01*
X188788632Y-276811348D01*
X188749457Y-276927123D01*
X188704842Y-277040275D01*
X188654942Y-277150649D01*
X188599914Y-277258087D01*
X188539915Y-277362433D01*
X188475102Y-277463530D01*
X188405631Y-277561223D01*
X188331658Y-277655353D01*
X188253341Y-277745765D01*
X188170835Y-277832303D01*
X188084297Y-277914808D01*
X187993884Y-277993126D01*
X187899753Y-278067099D01*
X187802059Y-278136570D01*
X187700960Y-278201384D01*
X187596612Y-278261383D01*
X187489171Y-278316411D01*
X187378795Y-278366312D01*
X187265639Y-278410928D01*
X187149861Y-278450103D01*
X187031617Y-278483681D01*
X186911063Y-278511506D01*
X186788355Y-278533419D01*
X186663652Y-278549265D01*
X186537108Y-278558888D01*
X186408881Y-278562131D01*
X183392402Y-278562131D01*
X183264178Y-278558888D01*
X183137636Y-278549265D01*
X183012934Y-278533419D01*
X182890228Y-278511506D01*
X182769675Y-278483681D01*
X182651431Y-278450103D01*
X182535652Y-278410928D01*
X182422496Y-278366312D01*
X182312119Y-278316411D01*
X182204678Y-278261383D01*
X182100328Y-278201384D01*
X181999228Y-278136570D01*
X181901533Y-278067099D01*
X181807399Y-277993126D01*
X181716984Y-277914808D01*
X181630445Y-277832303D01*
X181547937Y-277745765D01*
X181469617Y-277655353D01*
X181395642Y-277561223D01*
X181326168Y-277463530D01*
X181261353Y-277362433D01*
X181201352Y-277258087D01*
X181146322Y-277150649D01*
X181096420Y-277040275D01*
X181051803Y-276927123D01*
X181012626Y-276811348D01*
X180979047Y-276693108D01*
X180951222Y-276572558D01*
X180929308Y-276449856D01*
X180913461Y-276325158D01*
X180903838Y-276198621D01*
X180900596Y-276070401D01*
X180900596Y-276070035D01*
X180903838Y-275941815D01*
X180913461Y-275815278D01*
X180929308Y-275690580D01*
X180951222Y-275567879D01*
X180979047Y-275447330D01*
X181012626Y-275329090D01*
X181051803Y-275213316D01*
X181096420Y-275100165D01*
X181146322Y-274989792D01*
X181201352Y-274882356D01*
X181261353Y-274778011D01*
X181326168Y-274676914D01*
X181395642Y-274579224D01*
X181469617Y-274485094D01*
X181547937Y-274394684D01*
X181630445Y-274308148D01*
X181716984Y-274225644D01*
X181807399Y-274147328D01*
X181901533Y-274073356D01*
X181999228Y-274003886D01*
X182100328Y-273939074D01*
X182204678Y-273879076D01*
X182312119Y-273824049D01*
X182422496Y-273774149D01*
X182535652Y-273729534D01*
X182651431Y-273690360D01*
X182769675Y-273656782D01*
X182890228Y-273628959D01*
X183012934Y-273607046D01*
X183137636Y-273591200D01*
X183264178Y-273581578D01*
X183392402Y-273578335D01*
X186408881Y-273578335D01*
X186537108Y-273581578D01*
D16*
X202537029Y-249581562D02*
X202663570Y-249591185D01*
X202788271Y-249607031D01*
X202910976Y-249628944D01*
X203031528Y-249656767D01*
X203149771Y-249690345D01*
X203265547Y-249729519D01*
X203378701Y-249774134D01*
X203489076Y-249824034D01*
X203596515Y-249879061D01*
X203700862Y-249939059D01*
X203801960Y-250003872D01*
X203899652Y-250073342D01*
X203993783Y-250147314D01*
X204084195Y-250225630D01*
X204170732Y-250308135D01*
X204253237Y-250394671D01*
X204331554Y-250485082D01*
X204405526Y-250579212D01*
X204474997Y-250676903D01*
X204539810Y-250778000D01*
X204599808Y-250882345D01*
X204654836Y-250989783D01*
X204704735Y-251100156D01*
X204749351Y-251213308D01*
X204788525Y-251329083D01*
X204822103Y-251447324D01*
X204849926Y-251567873D01*
X204871839Y-251690576D01*
X204887685Y-251815275D01*
X204897308Y-251941813D01*
X204900550Y-252070035D01*
X204900550Y-252070386D01*
X204897308Y-252198607D01*
X204887685Y-252325145D01*
X204871839Y-252449844D01*
X204849926Y-252572547D01*
X204822103Y-252693096D01*
X204788525Y-252811337D01*
X204749351Y-252927112D01*
X204704735Y-253040264D01*
X204654836Y-253150637D01*
X204599808Y-253258075D01*
X204539810Y-253362420D01*
X204474997Y-253463517D01*
X204405526Y-253561209D01*
X204331554Y-253655338D01*
X204253237Y-253745749D01*
X204170732Y-253832285D01*
X204084195Y-253914790D01*
X203993783Y-253993106D01*
X203899652Y-254067078D01*
X203801960Y-254136548D01*
X203700862Y-254201361D01*
X203596515Y-254261359D01*
X203489076Y-254316386D01*
X203378701Y-254366286D01*
X203265547Y-254410901D01*
X203149771Y-254450076D01*
X203031528Y-254483653D01*
X202910976Y-254511476D01*
X202788271Y-254533389D01*
X202663570Y-254549235D01*
X202537029Y-254558858D01*
X202408805Y-254562100D01*
X199356208Y-254562100D01*
X199227978Y-254558858D01*
X199101433Y-254549235D01*
X198976727Y-254533389D01*
X198854018Y-254511476D01*
X198733463Y-254483653D01*
X198615217Y-254450076D01*
X198499438Y-254410901D01*
X198386281Y-254366286D01*
X198275905Y-254316386D01*
X198168464Y-254261359D01*
X198064116Y-254201361D01*
X197963017Y-254136548D01*
X197865324Y-254067078D01*
X197771193Y-253993106D01*
X197680780Y-253914790D01*
X197594243Y-253832285D01*
X197511738Y-253745749D01*
X197433421Y-253655338D01*
X197359450Y-253561209D01*
X197289979Y-253463517D01*
X197225167Y-253362420D01*
X197165169Y-253258075D01*
X197110143Y-253150637D01*
X197060244Y-253040264D01*
X197015629Y-252927112D01*
X196976455Y-252811337D01*
X196942878Y-252693096D01*
X196915055Y-252572547D01*
X196893143Y-252449844D01*
X196877297Y-252325145D01*
X196867675Y-252198607D01*
X196864433Y-252070386D01*
X196864433Y-252070035D01*
X196867675Y-251941813D01*
X196877297Y-251815275D01*
X196893143Y-251690576D01*
X196915055Y-251567873D01*
X196942878Y-251447324D01*
X196976455Y-251329083D01*
X197015629Y-251213308D01*
X197060244Y-251100156D01*
X197110143Y-250989783D01*
X197165169Y-250882345D01*
X197225167Y-250778000D01*
X197289979Y-250676903D01*
X197359450Y-250579212D01*
X197433421Y-250485082D01*
X197511738Y-250394671D01*
X197594243Y-250308135D01*
X197680780Y-250225630D01*
X197771193Y-250147314D01*
X197865324Y-250073342D01*
X197963017Y-250003872D01*
X198064116Y-249939059D01*
X198168464Y-249879061D01*
X198275905Y-249824034D01*
X198386281Y-249774134D01*
X198499438Y-249729519D01*
X198615217Y-249690345D01*
X198733463Y-249656767D01*
X198854018Y-249628944D01*
X198976727Y-249607031D01*
X199101433Y-249591185D01*
X199227978Y-249581562D01*
X199356208Y-249578320D01*
X202408805Y-249578320D01*
X202537029Y-249581562D01*
D13*
X202537108Y-273581578D02*
X202663652Y-273591200D01*
X202788355Y-273607046D01*
X202911063Y-273628959D01*
X203031617Y-273656782D01*
X203149861Y-273690360D01*
X203265639Y-273729534D01*
X203378795Y-273774149D01*
X203489171Y-273824049D01*
X203596612Y-273879076D01*
X203700960Y-273939074D01*
X203802059Y-274003886D01*
X203899753Y-274073356D01*
X203993884Y-274147328D01*
X204084297Y-274225644D01*
X204170835Y-274308148D01*
X204253341Y-274394684D01*
X204331658Y-274485094D01*
X204405631Y-274579224D01*
X204475102Y-274676914D01*
X204539915Y-274778011D01*
X204599914Y-274882356D01*
X204654942Y-274989792D01*
X204704842Y-275100165D01*
X204749457Y-275213316D01*
X204788632Y-275329090D01*
X204822210Y-275447330D01*
X204850033Y-275567879D01*
X204871946Y-275690580D01*
X204887792Y-275815278D01*
X204897415Y-275941815D01*
X204900657Y-276070035D01*
X204900657Y-276070401D01*
X204897415Y-276198621D01*
X204887792Y-276325158D01*
X204871946Y-276449856D01*
X204850033Y-276572558D01*
X204822210Y-276693108D01*
X204788632Y-276811348D01*
X204749457Y-276927123D01*
X204704842Y-277040275D01*
X204654942Y-277150649D01*
X204599914Y-277258087D01*
X204539915Y-277362433D01*
X204475102Y-277463530D01*
X204405631Y-277561223D01*
X204331658Y-277655353D01*
X204253341Y-277745765D01*
X204170835Y-277832303D01*
X204084297Y-277914808D01*
X203993884Y-277993126D01*
X203899753Y-278067099D01*
X203802059Y-278136570D01*
X203700960Y-278201384D01*
X203596612Y-278261383D01*
X203489171Y-278316411D01*
X203378795Y-278366312D01*
X203265639Y-278410928D01*
X203149861Y-278450103D01*
X203031617Y-278483681D01*
X202911063Y-278511506D01*
X202788355Y-278533419D01*
X202663652Y-278549265D01*
X202537108Y-278558888D01*
X202408881Y-278562131D01*
X199392402Y-278562131D01*
X199264178Y-278558888D01*
X199137636Y-278549265D01*
X199012934Y-278533419D01*
X198890228Y-278511506D01*
X198769675Y-278483681D01*
X198651431Y-278450103D01*
X198535652Y-278410928D01*
X198422496Y-278366312D01*
X198312119Y-278316411D01*
X198204678Y-278261383D01*
X198100328Y-278201384D01*
X197999228Y-278136570D01*
X197901533Y-278067099D01*
X197807399Y-277993126D01*
X197716984Y-277914808D01*
X197630445Y-277832303D01*
X197547937Y-277745765D01*
X197469617Y-277655353D01*
X197395642Y-277561223D01*
X197326168Y-277463530D01*
X197261353Y-277362433D01*
X197201352Y-277258087D01*
X197146322Y-277150649D01*
X197096420Y-277040275D01*
X197051803Y-276927123D01*
X197012626Y-276811348D01*
X196979047Y-276693108D01*
X196951222Y-276572558D01*
X196929308Y-276449856D01*
X196913461Y-276325158D01*
X196903838Y-276198621D01*
X196900596Y-276070401D01*
X196900596Y-276070035D01*
X196903838Y-275941815D01*
X196913461Y-275815278D01*
X196929308Y-275690580D01*
X196951222Y-275567879D01*
X196979047Y-275447330D01*
X197012626Y-275329090D01*
X197051803Y-275213316D01*
X197096420Y-275100165D01*
X197146322Y-274989792D01*
X197201352Y-274882356D01*
X197261353Y-274778011D01*
X197326168Y-274676914D01*
X197395642Y-274579224D01*
X197469617Y-274485094D01*
X197547937Y-274394684D01*
X197630445Y-274308148D01*
X197716984Y-274225644D01*
X197807399Y-274147328D01*
X197901533Y-274073356D01*
X197999228Y-274003886D01*
X198100328Y-273939074D01*
X198204678Y-273879076D01*
X198312119Y-273824049D01*
X198422496Y-273774149D01*
X198535652Y-273729534D01*
X198651431Y-273690360D01*
X198769675Y-273656782D01*
X198890228Y-273628959D01*
X199012934Y-273607046D01*
X199137636Y-273591200D01*
X199264178Y-273581578D01*
X199392402Y-273578335D01*
X202408881Y-273578335D01*
X202537108Y-273581578D01*
D17*
X217312256Y-48080482D02*
X217718528Y-48111374D01*
X218118893Y-48162247D01*
X218512848Y-48232598D01*
X218899892Y-48321924D01*
X219279520Y-48429723D01*
X219651231Y-48555492D01*
X220014522Y-48698729D01*
X220368890Y-48858931D01*
X220713833Y-49035595D01*
X221048848Y-49228219D01*
X221373432Y-49436301D01*
X221687082Y-49659337D01*
X221989297Y-49896825D01*
X222279572Y-50148263D01*
X222557407Y-50413148D01*
X222822297Y-50690977D01*
X223073740Y-50981248D01*
X223311234Y-51283458D01*
X223534276Y-51597105D01*
X223742364Y-51921685D01*
X223934993Y-52256697D01*
X224111663Y-52601638D01*
X224271870Y-52956006D01*
X224415112Y-53319296D01*
X224540886Y-53691008D01*
X224648689Y-54070639D01*
X224738018Y-54457685D01*
X224808372Y-54851645D01*
X224859247Y-55252015D01*
X224890141Y-55658293D01*
X224900550Y-56069977D01*
X224900550Y-80070073D01*
X224890141Y-80481757D01*
X224859247Y-80888037D01*
X224808372Y-81288408D01*
X224738018Y-81682369D01*
X224648689Y-82069417D01*
X224540886Y-82449049D01*
X224415112Y-82820763D01*
X224271870Y-83184056D01*
X224111663Y-83538426D01*
X223934993Y-83883369D01*
X223742364Y-84218384D01*
X223534276Y-84542968D01*
X223311234Y-84856617D01*
X223073740Y-85158830D01*
X222822297Y-85449104D01*
X222557407Y-85726936D01*
X222279572Y-85991824D01*
X221989297Y-86243264D01*
X221687082Y-86480756D01*
X221373432Y-86703795D01*
X221048848Y-86911879D01*
X220713833Y-87104505D01*
X220368890Y-87281172D01*
X220014522Y-87441376D01*
X219651231Y-87584615D01*
X219279520Y-87710386D01*
X218899892Y-87818187D01*
X218512848Y-87907515D01*
X218118893Y-87977866D01*
X217718528Y-88028740D01*
X217312256Y-88059633D01*
X216900581Y-88070042D01*
X216900520Y-88070042D01*
X216488841Y-88059633D01*
X216082567Y-88028740D01*
X215682200Y-87977866D01*
X215288243Y-87907515D01*
X214901198Y-87818187D01*
X214521569Y-87710386D01*
X214149857Y-87584615D01*
X213786565Y-87441376D01*
X213432196Y-87281172D01*
X213087253Y-87104505D01*
X212752239Y-86911879D01*
X212427655Y-86703795D01*
X212114005Y-86480756D01*
X211811791Y-86243264D01*
X211521516Y-85991824D01*
X211243682Y-85726936D01*
X210978793Y-85449104D01*
X210727350Y-85158830D01*
X210489857Y-84856617D01*
X210266816Y-84542968D01*
X210058730Y-84218384D01*
X209866101Y-83883369D01*
X209689432Y-83538426D01*
X209529226Y-83184056D01*
X209385985Y-82820763D01*
X209260212Y-82449049D01*
X209152409Y-82069417D01*
X209063081Y-81682369D01*
X208992727Y-81288408D01*
X208941853Y-80888037D01*
X208910960Y-80481757D01*
X208900550Y-80070073D01*
X208900550Y-56069977D01*
X208910960Y-55658293D01*
X208941853Y-55252015D01*
X208992727Y-54851645D01*
X209063081Y-54457685D01*
X209152409Y-54070639D01*
X209260212Y-53691008D01*
X209385985Y-53319296D01*
X209529226Y-52956006D01*
X209689432Y-52601638D01*
X209866101Y-52256697D01*
X210058730Y-51921685D01*
X210266816Y-51597105D01*
X210489857Y-51283458D01*
X210727350Y-50981248D01*
X210978793Y-50690977D01*
X211243682Y-50413148D01*
X211521516Y-50148263D01*
X211811791Y-49896825D01*
X212114005Y-49659337D01*
X212427655Y-49436301D01*
X212752239Y-49228219D01*
X213087253Y-49035595D01*
X213432196Y-48858931D01*
X213786565Y-48698729D01*
X214149857Y-48555492D01*
X214521569Y-48429723D01*
X214901198Y-48321924D01*
X215288243Y-48232598D01*
X215682200Y-48162247D01*
X216082567Y-48111374D01*
X216488841Y-48080482D01*
X216900520Y-48070073D01*
X216900581Y-48070073D01*
X217312256Y-48080482D01*
D18*
X218157610Y-273581578D02*
X218284155Y-273591200D01*
X218408861Y-273607046D01*
X218531569Y-273628959D01*
X218652125Y-273656782D01*
X218770370Y-273690360D01*
X218886148Y-273729534D01*
X218999304Y-273774149D01*
X219109680Y-273824049D01*
X219217121Y-273879076D01*
X219321468Y-273939074D01*
X219422566Y-274003886D01*
X219520259Y-274073356D01*
X219614389Y-274147328D01*
X219704801Y-274225644D01*
X219791337Y-274308148D01*
X219873842Y-274394684D01*
X219952158Y-274485094D01*
X220026129Y-274579224D01*
X220095598Y-274676915D01*
X220160410Y-274778011D01*
X220220407Y-274882356D01*
X220275433Y-274989792D01*
X220325332Y-275100165D01*
X220369946Y-275213316D01*
X220409119Y-275329090D01*
X220442696Y-275447330D01*
X220470518Y-275567879D01*
X220492431Y-275690580D01*
X220508276Y-275815278D01*
X220517898Y-275941815D01*
X220521140Y-276070035D01*
X220521140Y-276070401D01*
X220517898Y-276198621D01*
X220508276Y-276325158D01*
X220492431Y-276449856D01*
X220470518Y-276572558D01*
X220442696Y-276693108D01*
X220409119Y-276811348D01*
X220369946Y-276927123D01*
X220325332Y-277040275D01*
X220275433Y-277150649D01*
X220220407Y-277258087D01*
X220160410Y-277362433D01*
X220095598Y-277463530D01*
X220026129Y-277561223D01*
X219952158Y-277655353D01*
X219873842Y-277745765D01*
X219791337Y-277832303D01*
X219704801Y-277914808D01*
X219614389Y-277993126D01*
X219520259Y-278067099D01*
X219422566Y-278136570D01*
X219321468Y-278201384D01*
X219217121Y-278261383D01*
X219109680Y-278316411D01*
X218999304Y-278366312D01*
X218886148Y-278410928D01*
X218770370Y-278450103D01*
X218652125Y-278483681D01*
X218531569Y-278511506D01*
X218408861Y-278533419D01*
X218284155Y-278549265D01*
X218157610Y-278558888D01*
X218029380Y-278562130D01*
X215850516Y-278562130D01*
X215722295Y-278558888D01*
X215595756Y-278549265D01*
X215471057Y-278533419D01*
X215348353Y-278511506D01*
X215227803Y-278483681D01*
X215109561Y-278450103D01*
X214993785Y-278410928D01*
X214880631Y-278366312D01*
X214770256Y-278316411D01*
X214662817Y-278261383D01*
X214558469Y-278201384D01*
X214457370Y-278136570D01*
X214359677Y-278067099D01*
X214265545Y-277993126D01*
X214175132Y-277914808D01*
X214088594Y-277832303D01*
X214006087Y-277745765D01*
X213927768Y-277655353D01*
X213853795Y-277561223D01*
X213784322Y-277463530D01*
X213719508Y-277362433D01*
X213659508Y-277258087D01*
X213604479Y-277150649D01*
X213554578Y-277040275D01*
X213509961Y-276927123D01*
X213470785Y-276811348D01*
X213437206Y-276693108D01*
X213409382Y-276572558D01*
X213387468Y-276449856D01*
X213371621Y-276325158D01*
X213361999Y-276198621D01*
X213358756Y-276070401D01*
X213358756Y-276070035D01*
X213361999Y-275941815D01*
X213371621Y-275815278D01*
X213387468Y-275690580D01*
X213409382Y-275567879D01*
X213437206Y-275447330D01*
X213470785Y-275329090D01*
X213509961Y-275213316D01*
X213554578Y-275100165D01*
X213604479Y-274989792D01*
X213659508Y-274882356D01*
X213719508Y-274778011D01*
X213784322Y-274676915D01*
X213853795Y-274579224D01*
X213927768Y-274485094D01*
X214006087Y-274394684D01*
X214088594Y-274308148D01*
X214175132Y-274225644D01*
X214265545Y-274147328D01*
X214359677Y-274073356D01*
X214457370Y-274003886D01*
X214558469Y-273939074D01*
X214662817Y-273879076D01*
X214770256Y-273824049D01*
X214880631Y-273774149D01*
X214993785Y-273729534D01*
X215109561Y-273690360D01*
X215227803Y-273656782D01*
X215348353Y-273628959D01*
X215471057Y-273607046D01*
X215595756Y-273591200D01*
X215722295Y-273581578D01*
X215850516Y-273578335D01*
X218029380Y-273578335D01*
X218157610Y-273581578D01*
D13*
X218537140Y-65581410D02*
X218663685Y-65591032D01*
X218788389Y-65606878D01*
X218911097Y-65628791D01*
X219031652Y-65656615D01*
X219149897Y-65690192D01*
X219265676Y-65729367D01*
X219378832Y-65773982D01*
X219489209Y-65823882D01*
X219596649Y-65878909D01*
X219700997Y-65938907D01*
X219802096Y-66003719D01*
X219899790Y-66073190D01*
X219993921Y-66147162D01*
X220084334Y-66225478D01*
X220170871Y-66307983D01*
X220253376Y-66394519D01*
X220331694Y-66484931D01*
X220405666Y-66579061D01*
X220475137Y-66676752D01*
X220539949Y-66777849D01*
X220599948Y-66882195D01*
X220654975Y-66989633D01*
X220704874Y-67100007D01*
X220749489Y-67213159D01*
X220788664Y-67328935D01*
X220822241Y-67447176D01*
X220850064Y-67567726D01*
X220871977Y-67690429D01*
X220887823Y-67815129D01*
X220897445Y-67941668D01*
X220900687Y-68069890D01*
X220900687Y-68070233D01*
X220897445Y-68198455D01*
X220887823Y-68324994D01*
X220871977Y-68449693D01*
X220850064Y-68572396D01*
X220822241Y-68692947D01*
X220788664Y-68811188D01*
X220749489Y-68926963D01*
X220704874Y-69040116D01*
X220654975Y-69150489D01*
X220599948Y-69257927D01*
X220539949Y-69362273D01*
X220475137Y-69463370D01*
X220405666Y-69561062D01*
X220331694Y-69655192D01*
X220253376Y-69745603D01*
X220170871Y-69832140D01*
X220084334Y-69914644D01*
X219993921Y-69992961D01*
X219899790Y-70066933D01*
X219802096Y-70136403D01*
X219700997Y-70201216D01*
X219596649Y-70261214D01*
X219489209Y-70316241D01*
X219378832Y-70366141D01*
X219265676Y-70410756D01*
X219149897Y-70449931D01*
X219031652Y-70483508D01*
X218911097Y-70511331D01*
X218788389Y-70533244D01*
X218663685Y-70549090D01*
X218537140Y-70558713D01*
X218408912Y-70561955D01*
X215392432Y-70561955D01*
X215264208Y-70558713D01*
X215137667Y-70549090D01*
X215012965Y-70533244D01*
X214890259Y-70511331D01*
X214769705Y-70483508D01*
X214651461Y-70449931D01*
X214535683Y-70410756D01*
X214422527Y-70366141D01*
X214312150Y-70316241D01*
X214204708Y-70261214D01*
X214100359Y-70201216D01*
X213999258Y-70136403D01*
X213901563Y-70066933D01*
X213807430Y-69992961D01*
X213717015Y-69914644D01*
X213630475Y-69832140D01*
X213547967Y-69745603D01*
X213469647Y-69655192D01*
X213395672Y-69561062D01*
X213326199Y-69463370D01*
X213261383Y-69362273D01*
X213201382Y-69257927D01*
X213146353Y-69150489D01*
X213096451Y-69040116D01*
X213051833Y-68926963D01*
X213012657Y-68811188D01*
X212979078Y-68692947D01*
X212951253Y-68572396D01*
X212929339Y-68449693D01*
X212913492Y-68324994D01*
X212903869Y-68198455D01*
X212900626Y-68070233D01*
X212900626Y-68069890D01*
X212903869Y-67941668D01*
X212913492Y-67815129D01*
X212929339Y-67690429D01*
X212951253Y-67567726D01*
X212979078Y-67447176D01*
X213012657Y-67328935D01*
X213051833Y-67213159D01*
X213096451Y-67100007D01*
X213146353Y-66989633D01*
X213201382Y-66882195D01*
X213261383Y-66777849D01*
X213326199Y-66676752D01*
X213395672Y-66579061D01*
X213469647Y-66484931D01*
X213547967Y-66394519D01*
X213630475Y-66307983D01*
X213717015Y-66225478D01*
X213807430Y-66147162D01*
X213901563Y-66073190D01*
X213999258Y-66003719D01*
X214100359Y-65938907D01*
X214204708Y-65878909D01*
X214312150Y-65823882D01*
X214422527Y-65773982D01*
X214535683Y-65729367D01*
X214651461Y-65690192D01*
X214769705Y-65656615D01*
X214890259Y-65628791D01*
X215012965Y-65606878D01*
X215137667Y-65591032D01*
X215264208Y-65581410D01*
X215392432Y-65578167D01*
X218408912Y-65578167D01*
X218537140Y-65581410D01*
D19*
X251655305Y-273581578D02*
X251781851Y-273591200D01*
X251906556Y-273607046D01*
X252029264Y-273628959D01*
X252149818Y-273656782D01*
X252268063Y-273690360D01*
X252383841Y-273729534D01*
X252496995Y-273774149D01*
X252607370Y-273824049D01*
X252714809Y-273879076D01*
X252819156Y-273939074D01*
X252920253Y-274003886D01*
X253017944Y-274073356D01*
X253112073Y-274147328D01*
X253202483Y-274225644D01*
X253289018Y-274308148D01*
X253371521Y-274394684D01*
X253449835Y-274485094D01*
X253523805Y-274579224D01*
X253593273Y-274676915D01*
X253658084Y-274778011D01*
X253718080Y-274882356D01*
X253773105Y-274989792D01*
X253823002Y-275100165D01*
X253867615Y-275213316D01*
X253906788Y-275329090D01*
X253940363Y-275447330D01*
X253968185Y-275567879D01*
X253990097Y-275690580D01*
X254005942Y-275815278D01*
X254015564Y-275941815D01*
X254018806Y-276070035D01*
X254018806Y-276070401D01*
X254015564Y-276198621D01*
X254005942Y-276325158D01*
X253990097Y-276449856D01*
X253968185Y-276572558D01*
X253940363Y-276693108D01*
X253906788Y-276811348D01*
X253867615Y-276927123D01*
X253823002Y-277040275D01*
X253773105Y-277150649D01*
X253718080Y-277258087D01*
X253658084Y-277362433D01*
X253593273Y-277463530D01*
X253523805Y-277561223D01*
X253449835Y-277655353D01*
X253371521Y-277745765D01*
X253289018Y-277832303D01*
X253202483Y-277914808D01*
X253112073Y-277993126D01*
X253017944Y-278067099D01*
X252920253Y-278136570D01*
X252819156Y-278201384D01*
X252714809Y-278261383D01*
X252607370Y-278316411D01*
X252496995Y-278366312D01*
X252383841Y-278410928D01*
X252268063Y-278450103D01*
X252149818Y-278483681D01*
X252029264Y-278511506D01*
X251906556Y-278533419D01*
X251781851Y-278549265D01*
X251655305Y-278558888D01*
X251527076Y-278562131D01*
X245966254Y-278562131D01*
X245838037Y-278558888D01*
X245711502Y-278549265D01*
X245586805Y-278533419D01*
X245464105Y-278511506D01*
X245343556Y-278483681D01*
X245225316Y-278450103D01*
X245109541Y-278410928D01*
X244996388Y-278366312D01*
X244886014Y-278316411D01*
X244778575Y-278261383D01*
X244674227Y-278201384D01*
X244573128Y-278136570D01*
X244475435Y-278067099D01*
X244381302Y-277993126D01*
X244290888Y-277914808D01*
X244204349Y-277832303D01*
X244121841Y-277745765D01*
X244043521Y-277655353D01*
X243969546Y-277561223D01*
X243900072Y-277463530D01*
X243835256Y-277362433D01*
X243775255Y-277258087D01*
X243720225Y-277150649D01*
X243670322Y-277040275D01*
X243625704Y-276927123D01*
X243586527Y-276811348D01*
X243552947Y-276693108D01*
X243525122Y-276572558D01*
X243503207Y-276449856D01*
X243487360Y-276325158D01*
X243477737Y-276198621D01*
X243474494Y-276070401D01*
X243474494Y-276070035D01*
X243477737Y-275941815D01*
X243487360Y-275815278D01*
X243503207Y-275690580D01*
X243525122Y-275567879D01*
X243552947Y-275447330D01*
X243586527Y-275329090D01*
X243625704Y-275213316D01*
X243670322Y-275100165D01*
X243720225Y-274989792D01*
X243775255Y-274882356D01*
X243835256Y-274778011D01*
X243900072Y-274676915D01*
X243969546Y-274579224D01*
X244043521Y-274485094D01*
X244121841Y-274394684D01*
X244204349Y-274308148D01*
X244290888Y-274225644D01*
X244381302Y-274147328D01*
X244475435Y-274073356D01*
X244573128Y-274003886D01*
X244674227Y-273939074D01*
X244778575Y-273879076D01*
X244886014Y-273824049D01*
X244996388Y-273774149D01*
X245109541Y-273729534D01*
X245225316Y-273690360D01*
X245343556Y-273656782D01*
X245464105Y-273628959D01*
X245586805Y-273607046D01*
X245711502Y-273591200D01*
X245838037Y-273581578D01*
X245966254Y-273578335D01*
X251527076Y-273578335D01*
X251655305Y-273581578D01*
X267809297Y-273581578D02*
X267935843Y-273591200D01*
X268060548Y-273607046D01*
X268183256Y-273628959D01*
X268303811Y-273656782D01*
X268422056Y-273690360D01*
X268537834Y-273729534D01*
X268650989Y-273774149D01*
X268761365Y-273824049D01*
X268868805Y-273879076D01*
X268973151Y-273939074D01*
X269074249Y-274003886D01*
X269171941Y-274073356D01*
X269266071Y-274147328D01*
X269356482Y-274225644D01*
X269443017Y-274308148D01*
X269525521Y-274394684D01*
X269603836Y-274485094D01*
X269677807Y-274579224D01*
X269747276Y-274676915D01*
X269812087Y-274778011D01*
X269872083Y-274882356D01*
X269927109Y-274989792D01*
X269977006Y-275100165D01*
X270021620Y-275213316D01*
X270060793Y-275329090D01*
X270094369Y-275447330D01*
X270122191Y-275567879D01*
X270144103Y-275690580D01*
X270159949Y-275815278D01*
X270169571Y-275941815D01*
X270172813Y-276070035D01*
X270172813Y-276070401D01*
X270169571Y-276198621D01*
X270159949Y-276325158D01*
X270144103Y-276449856D01*
X270122191Y-276572558D01*
X270094369Y-276693108D01*
X270060793Y-276811348D01*
X270021620Y-276927123D01*
X269977006Y-277040275D01*
X269927109Y-277150649D01*
X269872083Y-277258087D01*
X269812087Y-277362433D01*
X269747276Y-277463530D01*
X269677807Y-277561223D01*
X269603836Y-277655353D01*
X269525521Y-277745765D01*
X269443017Y-277832303D01*
X269356482Y-277914808D01*
X269266071Y-277993126D01*
X269171941Y-278067099D01*
X269074249Y-278136570D01*
X268973151Y-278201384D01*
X268868805Y-278261383D01*
X268761365Y-278316411D01*
X268650989Y-278366312D01*
X268537834Y-278410928D01*
X268422056Y-278450103D01*
X268303811Y-278483681D01*
X268183256Y-278511506D01*
X268060548Y-278533419D01*
X267935843Y-278549265D01*
X267809297Y-278558888D01*
X267681068Y-278562131D01*
X262120261Y-278562131D01*
X261992043Y-278558888D01*
X261865506Y-278549265D01*
X261740808Y-278533419D01*
X261618106Y-278511506D01*
X261497557Y-278483681D01*
X261379316Y-278450103D01*
X261263540Y-278410928D01*
X261150386Y-278366312D01*
X261040011Y-278316411D01*
X260932571Y-278261383D01*
X260828223Y-278201384D01*
X260727124Y-278136570D01*
X260629429Y-278067099D01*
X260535297Y-277993126D01*
X260444882Y-277914808D01*
X260358342Y-277832303D01*
X260275834Y-277745765D01*
X260197514Y-277655353D01*
X260123539Y-277561223D01*
X260054065Y-277463530D01*
X259989249Y-277362433D01*
X259929247Y-277258087D01*
X259874217Y-277150649D01*
X259824314Y-277040275D01*
X259779696Y-276927123D01*
X259740519Y-276811348D01*
X259706939Y-276693108D01*
X259679113Y-276572558D01*
X259657199Y-276449856D01*
X259641352Y-276325158D01*
X259631728Y-276198621D01*
X259628486Y-276070401D01*
X259628486Y-276070035D01*
X259631728Y-275941815D01*
X259641352Y-275815278D01*
X259657199Y-275690580D01*
X259679113Y-275567879D01*
X259706939Y-275447330D01*
X259740519Y-275329090D01*
X259779696Y-275213316D01*
X259824314Y-275100165D01*
X259874217Y-274989792D01*
X259929247Y-274882356D01*
X259989249Y-274778011D01*
X260054065Y-274676915D01*
X260123539Y-274579224D01*
X260197514Y-274485094D01*
X260275834Y-274394684D01*
X260358342Y-274308148D01*
X260444882Y-274225644D01*
X260535297Y-274147328D01*
X260629429Y-274073356D01*
X260727124Y-274003886D01*
X260828223Y-273939074D01*
X260932571Y-273879076D01*
X261040011Y-273824049D01*
X261150386Y-273774149D01*
X261263540Y-273729534D01*
X261379316Y-273690360D01*
X261497557Y-273656782D01*
X261618106Y-273628959D01*
X261740808Y-273607046D01*
X261865506Y-273591200D01*
X261992043Y-273581578D01*
X262120261Y-273578335D01*
X267681068Y-273578335D01*
X267809297Y-273581578D01*
D13*
X282537185Y-145581486D02*
X282663728Y-145591108D01*
X282788432Y-145606954D01*
X282911139Y-145628867D01*
X283031693Y-145656690D01*
X283149937Y-145690267D01*
X283265716Y-145729441D01*
X283378871Y-145774056D01*
X283489248Y-145823955D01*
X283596688Y-145878981D01*
X283701036Y-145938979D01*
X283802135Y-146003790D01*
X283899829Y-146073260D01*
X283993960Y-146147231D01*
X284084373Y-146225547D01*
X284170911Y-146308051D01*
X284253417Y-146394586D01*
X284331735Y-146484997D01*
X284405707Y-146579125D01*
X284475178Y-146676816D01*
X284539992Y-146777912D01*
X284599990Y-146882257D01*
X284655018Y-146989694D01*
X284704918Y-147100067D01*
X284749533Y-147213219D01*
X284788708Y-147328993D01*
X284822286Y-147447233D01*
X284850109Y-147567783D01*
X284872022Y-147690485D01*
X284887868Y-147815183D01*
X284897491Y-147941722D01*
X284900733Y-148069943D01*
X284900733Y-148070309D01*
X284897491Y-148198529D01*
X284887868Y-148325066D01*
X284872022Y-148449764D01*
X284850109Y-148572465D01*
X284822286Y-148693014D01*
X284788708Y-148811254D01*
X284749533Y-148927027D01*
X284704918Y-149040179D01*
X284655018Y-149150551D01*
X284599990Y-149257988D01*
X284539992Y-149362333D01*
X284475178Y-149463429D01*
X284405707Y-149561120D01*
X284331735Y-149655249D01*
X284253417Y-149745660D01*
X284170911Y-149832196D01*
X284084373Y-149914700D01*
X283993960Y-149993016D01*
X283899829Y-150066988D01*
X283802135Y-150136458D01*
X283701036Y-150201270D01*
X283596688Y-150261268D01*
X283489248Y-150316295D01*
X283378871Y-150366194D01*
X283265716Y-150410810D01*
X283149937Y-150449984D01*
X283031693Y-150483561D01*
X282911139Y-150511385D01*
X282788432Y-150533298D01*
X282663728Y-150549144D01*
X282537185Y-150558766D01*
X282408958Y-150562008D01*
X279392463Y-150562008D01*
X279264239Y-150558766D01*
X279137697Y-150549144D01*
X279012995Y-150533298D01*
X278890289Y-150511385D01*
X278769736Y-150483561D01*
X278651492Y-150449984D01*
X278535713Y-150410810D01*
X278422557Y-150366194D01*
X278312180Y-150316295D01*
X278204739Y-150261268D01*
X278100390Y-150201270D01*
X277999289Y-150136458D01*
X277901594Y-150066988D01*
X277807460Y-149993016D01*
X277717046Y-149914700D01*
X277630506Y-149832196D01*
X277547998Y-149745660D01*
X277469678Y-149655249D01*
X277395703Y-149561120D01*
X277326229Y-149463429D01*
X277261414Y-149362333D01*
X277201413Y-149257988D01*
X277146383Y-149150551D01*
X277096481Y-149040179D01*
X277051864Y-148927027D01*
X277012687Y-148811254D01*
X276979108Y-148693014D01*
X276951283Y-148572465D01*
X276929369Y-148449764D01*
X276913522Y-148325066D01*
X276903899Y-148198529D01*
X276900657Y-148070309D01*
X276900657Y-148069943D01*
X276903899Y-147941722D01*
X276913522Y-147815183D01*
X276929369Y-147690485D01*
X276951283Y-147567783D01*
X276979108Y-147447233D01*
X277012687Y-147328993D01*
X277051864Y-147213219D01*
X277096481Y-147100067D01*
X277146383Y-146989694D01*
X277201413Y-146882257D01*
X277261414Y-146777912D01*
X277326229Y-146676816D01*
X277395703Y-146579125D01*
X277469678Y-146484997D01*
X277547998Y-146394586D01*
X277630506Y-146308051D01*
X277717046Y-146225547D01*
X277807460Y-146147231D01*
X277901594Y-146073260D01*
X277999289Y-146003790D01*
X278100390Y-145938979D01*
X278204739Y-145878981D01*
X278312180Y-145823955D01*
X278422557Y-145774056D01*
X278535713Y-145729441D01*
X278651492Y-145690267D01*
X278769736Y-145656690D01*
X278890289Y-145628867D01*
X279012995Y-145606954D01*
X279137697Y-145591108D01*
X279264239Y-145581486D01*
X279392463Y-145578244D01*
X282408958Y-145578244D01*
X282537185Y-145581486D01*
D20*
X284181152Y-273581397D02*
X284303873Y-273590527D01*
X284425554Y-273605639D01*
X284545989Y-273626650D01*
X284664973Y-273653475D01*
X284782304Y-273686030D01*
X284897775Y-273724230D01*
X285011182Y-273767991D01*
X285122321Y-273817228D01*
X285230987Y-273871857D01*
X285336976Y-273931793D01*
X285440083Y-273996953D01*
X285540104Y-274067251D01*
X285636834Y-274142604D01*
X285730068Y-274222925D01*
X285819602Y-274308133D01*
X285904804Y-274397666D01*
X285985123Y-274490897D01*
X286060472Y-274587622D01*
X286130769Y-274687637D01*
X286195928Y-274790737D01*
X286255865Y-274896718D01*
X286310494Y-275005375D01*
X286359733Y-275116505D01*
X286403495Y-275229903D01*
X286441697Y-275345365D01*
X286474254Y-275462686D01*
X286501081Y-275581663D01*
X286522093Y-275702090D01*
X286537207Y-275823764D01*
X286546337Y-275946480D01*
X286549400Y-276070035D01*
X286549400Y-276070401D01*
X286546337Y-276193955D01*
X286537207Y-276316673D01*
X286522093Y-276438348D01*
X286501081Y-276558777D01*
X286474254Y-276677756D01*
X286441697Y-276795080D01*
X286403495Y-276910545D01*
X286359733Y-277023945D01*
X286310494Y-277135078D01*
X286255865Y-277243738D01*
X286195928Y-277349722D01*
X286130769Y-277452824D01*
X286060472Y-277552841D01*
X285985123Y-277649567D01*
X285904804Y-277742800D01*
X285819602Y-277832333D01*
X285730068Y-277917535D01*
X285636834Y-277997854D01*
X285540104Y-278073203D01*
X285440083Y-278143500D01*
X285336976Y-278208659D01*
X285230987Y-278268596D01*
X285122321Y-278323225D01*
X285011182Y-278372464D01*
X284897775Y-278416226D01*
X284782304Y-278454428D01*
X284664973Y-278486985D01*
X284545989Y-278513812D01*
X284425554Y-278534824D01*
X284303873Y-278549938D01*
X284181152Y-278559068D01*
X284057594Y-278562130D01*
X277743598Y-278562130D01*
X277620041Y-278559068D01*
X277497321Y-278549938D01*
X277375642Y-278534824D01*
X277255210Y-278513812D01*
X277136228Y-278486985D01*
X277018900Y-278454428D01*
X276903432Y-278416226D01*
X276790027Y-278372464D01*
X276678890Y-278323225D01*
X276570224Y-278268596D01*
X276464236Y-278208659D01*
X276361128Y-278143500D01*
X276261105Y-278073203D01*
X276164371Y-277997854D01*
X276071131Y-277917535D01*
X275981590Y-277832333D01*
X275896400Y-277742800D01*
X275816091Y-277649567D01*
X275740748Y-277552841D01*
X275670455Y-277452824D01*
X275605298Y-277349722D01*
X275545361Y-277243738D01*
X275490729Y-277135078D01*
X275441487Y-277023945D01*
X275397721Y-276910545D01*
X275359515Y-276795080D01*
X275326953Y-276677756D01*
X275300122Y-276558777D01*
X275279105Y-276438348D01*
X275263988Y-276316673D01*
X275254855Y-276193955D01*
X275251792Y-276070401D01*
X275251792Y-276070035D01*
X275254855Y-275946480D01*
X275263988Y-275823764D01*
X275279105Y-275702090D01*
X275300122Y-275581663D01*
X275326953Y-275462686D01*
X275359515Y-275345365D01*
X275397721Y-275229903D01*
X275441487Y-275116505D01*
X275490729Y-275005375D01*
X275545361Y-274896718D01*
X275605298Y-274790737D01*
X275670455Y-274687637D01*
X275740748Y-274587622D01*
X275816091Y-274490897D01*
X275896400Y-274397666D01*
X275981590Y-274308133D01*
X276071131Y-274222925D01*
X276164371Y-274142604D01*
X276261105Y-274067251D01*
X276361128Y-273996953D01*
X276464236Y-273931793D01*
X276570224Y-273871857D01*
X276678890Y-273817228D01*
X276790027Y-273767991D01*
X276903432Y-273724230D01*
X277018900Y-273686030D01*
X277136228Y-273653475D01*
X277255210Y-273626650D01*
X277375642Y-273605639D01*
X277497321Y-273590527D01*
X277620041Y-273581397D01*
X277743598Y-273578335D01*
X284057594Y-273578335D01*
X284181152Y-273581397D01*
D11*
X40900000Y-34070000D02*
X41650331Y-33319730D01*
X41888998Y-33081073D01*
X42394555Y-32575540D01*
X42900137Y-32070008D01*
X40900000Y-38070000D02*
X41873980Y-37096086D01*
X42387046Y-36583043D01*
X42900137Y-36070000D01*
X40900000Y-42069993D02*
X42332637Y-40637374D01*
X42906834Y-40063171D01*
X43903413Y-39066584D01*
X44900016Y-38070000D01*
X40900000Y-52069977D02*
X54900057Y-38070000D01*
X40900000Y-54069977D02*
X46924552Y-48045466D01*
X48900033Y-46069989D01*
X52900037Y-42069994D01*
X56900066Y-38070000D01*
X40900000Y-58070057D02*
X48374648Y-50595408D01*
X51127316Y-47842751D01*
X56013711Y-42956375D01*
X60900081Y-38070000D01*
X40900000Y-62070050D02*
X54233385Y-48736692D01*
X64900098Y-38070000D01*
X40900000Y-68070042D02*
X42263644Y-66706402D01*
X59581877Y-49388202D01*
X68240964Y-40729104D01*
X76900016Y-32070008D01*
X40900000Y-70070042D02*
X58000011Y-52970027D01*
X78900027Y-32070008D01*
X40900000Y-74070035D02*
X52366076Y-62603940D01*
X62025270Y-52944772D01*
X72462680Y-42507390D01*
X82900043Y-32070008D01*
X40900000Y-78070027D02*
X59366921Y-59603179D01*
X63802221Y-55167890D01*
X75351192Y-43618950D01*
X86900188Y-32070008D01*
X40900000Y-82070019D02*
X54443420Y-68526556D01*
X66046743Y-56923241D01*
X78473368Y-44496624D01*
X90899944Y-32070008D01*
X40900000Y-86070019D02*
X61387273Y-65582718D01*
X68971410Y-57998582D01*
X94899963Y-32070008D01*
X40900000Y-88070019D02*
X43031591Y-85938434D01*
X59965849Y-69004207D01*
X68432949Y-60537093D01*
X76900016Y-52069977D01*
X40900000Y-90070012D02*
X76900016Y-54069977D01*
X40900000Y-92070019D02*
X78900027Y-54069977D01*
X40900000Y-96070004D02*
X76900016Y-60070057D01*
X40900435Y-32070008D02*
X296900581Y-32070008D01*
D21*
X40900448Y-288070218D02*
X104900481Y-288070218D01*
D11*
X42900137Y-38070000D02*
X42100550Y-38869524D01*
X41904288Y-39065777D01*
X41402157Y-39567884D01*
X40900000Y-40069993D01*
X44900016Y-32070008D02*
X43388169Y-33581837D01*
X42877020Y-34092991D01*
X41888522Y-35081495D01*
X40900000Y-36070000D01*
X44900016Y-34070000D02*
X45650347Y-33319730D01*
X45885378Y-33084709D01*
X46392754Y-32577357D01*
X46900154Y-32070008D01*
X44900016Y-96070004D02*
X57560082Y-83409950D01*
X62025948Y-78944101D01*
X70462999Y-70507076D01*
X78900027Y-62070050D01*
X46900154Y-38070000D02*
X45302575Y-39667510D01*
X43900077Y-41069993D01*
X42400062Y-42569990D01*
X40900000Y-44069985D01*
X48900033Y-32070008D02*
X48258333Y-32711715D01*
X47579200Y-33390857D01*
X47239660Y-33730429D01*
X46900154Y-34070000D01*
X48900033Y-34070000D02*
X49656026Y-33314068D01*
X49885175Y-33084928D01*
X50392660Y-32577467D01*
X50900170Y-32070008D01*
X48900033Y-38070000D02*
X45792888Y-41177134D01*
X44883952Y-42086057D01*
X42891964Y-44078022D01*
X40900000Y-46069985D01*
X48900033Y-96070004D02*
X49865616Y-95104489D01*
X50382881Y-94587251D01*
X50900170Y-94070012D01*
X50900170Y-38070000D02*
X48212171Y-40757892D01*
X44138369Y-44831646D01*
X40900000Y-48069985D01*
X50900170Y-92070019D02*
X50869633Y-92100554D01*
X48884845Y-94085280D01*
X47892482Y-95077642D01*
X46900154Y-96070004D01*
X52900048Y-32070008D02*
X52254727Y-32715337D01*
X51577405Y-33392668D01*
X51238771Y-33731334D01*
X50900170Y-34070000D01*
X52900048Y-34070000D02*
X53653188Y-33316915D01*
X54800069Y-32170002D01*
X54900057Y-32070008D01*
X52900048Y-38070000D02*
X49900044Y-41069988D01*
X40900000Y-50069985D01*
X52900048Y-94070012D02*
X50900170Y-96070004D01*
X52900048Y-96070004D02*
X54900057Y-94070012D01*
X54900057Y-34070000D02*
X55673740Y-33296316D01*
X55920305Y-33049759D01*
X56410198Y-32559883D01*
X56900066Y-32070008D01*
X54900057Y-90070012D02*
X60692533Y-84277540D01*
X63778412Y-81191684D01*
X70339266Y-74630864D01*
X73619660Y-71350454D01*
X76900016Y-68070042D01*
X56900066Y-94070012D02*
X56158092Y-94811985D01*
X55931866Y-95038202D01*
X55415949Y-95554101D01*
X54900057Y-96070004D01*
X56900066Y-96070004D02*
X58899944Y-94070012D01*
X58899944Y-32070008D02*
X58254453Y-32715506D01*
X57577216Y-33392753D01*
X57238624Y-33731377D01*
X56900066Y-34070000D01*
X58899944Y-38070000D02*
X53906380Y-43063617D01*
X49918302Y-47051698D01*
X45409127Y-51560879D01*
X40900000Y-56070057D01*
X58899944Y-90070012D02*
X68647879Y-80322134D01*
X73773965Y-75196088D01*
X78900027Y-70070042D01*
X60900081Y-32070008D02*
X60160704Y-32809321D01*
X59881561Y-33088453D01*
X59390764Y-33579227D01*
X58899944Y-34070000D01*
X60900081Y-94070012D02*
X60113710Y-94856317D01*
X59861711Y-95108304D01*
X58899944Y-96070004D01*
X60900081Y-96070004D02*
X76489580Y-80480443D01*
X99517386Y-57452655D01*
X118900062Y-38070000D01*
X62899961Y-32070008D02*
X62251037Y-32718940D01*
X61575515Y-33394470D01*
X61237782Y-33732235D01*
X60900081Y-34070000D01*
X62899961Y-38070000D02*
X54179155Y-46790851D01*
X51760740Y-49209271D01*
X46330358Y-54639665D01*
X40900000Y-60070057D01*
X62899961Y-92070019D02*
X83957564Y-71012385D01*
X90916679Y-64053270D01*
X116899924Y-38070000D01*
X62899961Y-96070004D02*
X82480546Y-76489439D01*
X101690285Y-57279720D01*
X111295128Y-47674860D01*
X120899940Y-38070000D01*
X64900098Y-32070008D02*
X64160721Y-32809321D01*
X63881578Y-33088453D01*
X63390781Y-33579227D01*
X62899961Y-34070000D01*
X64900098Y-96070004D02*
X66423437Y-94546627D01*
X68368751Y-92601361D01*
X68839504Y-92130626D01*
X68900113Y-92070019D01*
X66899976Y-32070008D02*
X66254485Y-32715506D01*
X65577248Y-33392753D01*
X65238656Y-33731377D01*
X64900098Y-34070000D01*
X68900113Y-32070008D02*
X68158044Y-32812014D01*
X67888974Y-33081073D01*
X67394487Y-33575537D01*
X66899976Y-34070000D01*
X68900113Y-94070012D02*
X68110500Y-94859559D01*
X67870255Y-95099794D01*
X66899976Y-96070004D01*
X68900113Y-96070004D02*
X69424661Y-95545369D01*
X70230102Y-94739910D01*
X70899993Y-94070012D01*
D22*
X68900502Y-292361691D02*
X72089715Y-292361691D01*
D11*
X70899993Y-32070008D02*
X69393840Y-33576143D01*
X68869451Y-34100536D01*
X67884725Y-35085268D01*
X66899976Y-36070000D01*
X70899993Y-90070012D02*
X91096469Y-69873556D01*
X97322799Y-63647242D01*
X110111449Y-50858621D01*
X122900077Y-38070000D01*
D23*
X72897933Y-294008084D02*
X72909512Y-294008044D01*
X72921083Y-294007924D01*
X72932643Y-294007725D01*
X72944194Y-294007445D01*
X72955735Y-294007086D01*
X72967266Y-294006647D01*
X72978787Y-294006129D01*
X72990296Y-294005531D01*
X73001795Y-294004854D01*
X73013282Y-294004098D01*
X73024757Y-294003262D01*
X73036220Y-294002347D01*
X73047672Y-294001352D01*
X73059110Y-294000279D01*
X73070536Y-293999126D01*
X73081948Y-293997895D01*
X73093347Y-293996584D01*
X73104733Y-293995195D01*
X73116104Y-293993727D01*
X73127460Y-293992180D01*
X73138802Y-293990555D01*
X73150129Y-293988851D01*
X73161440Y-293987068D01*
X73172736Y-293985207D01*
X73184015Y-293983268D01*
X73195278Y-293981251D01*
X73206524Y-293979155D01*
X73217753Y-293976981D01*
X73228964Y-293974730D01*
X73240158Y-293972400D01*
X73251333Y-293969992D01*
X73262489Y-293967507D01*
X73273626Y-293964944D01*
X73284744Y-293962304D01*
X73295843Y-293959586D01*
X73306921Y-293956791D01*
X73317978Y-293953918D01*
X73329015Y-293950968D01*
X73340030Y-293947942D01*
X73351023Y-293944838D01*
X73361994Y-293941658D01*
X73372943Y-293938401D01*
X73383869Y-293935067D01*
X73394771Y-293931657D01*
X73405649Y-293928171D01*
X73416504Y-293924608D01*
X73427333Y-293920969D01*
X73438138Y-293917255D01*
X73448917Y-293913465D01*
X73459670Y-293909599D01*
X73470396Y-293905658D01*
X73481096Y-293901641D01*
X73491768Y-293897549D01*
X73502413Y-293893382D01*
X73513030Y-293889141D01*
X73523618Y-293884825D01*
X73534177Y-293880434D01*
X73544706Y-293875969D01*
X73555205Y-293871430D01*
X73565674Y-293866817D01*
X73576112Y-293862130D01*
X73586518Y-293857370D01*
X73596893Y-293852536D01*
X73607235Y-293847629D01*
X73617544Y-293842650D01*
X73627820Y-293837597D01*
X73638062Y-293832472D01*
X73648270Y-293827275D01*
X73658443Y-293822006D01*
X73668581Y-293816665D01*
X73678684Y-293811253D01*
X73688749Y-293805769D01*
X73698779Y-293800214D01*
X73708771Y-293794589D01*
X73718725Y-293788892D01*
X73728641Y-293783126D01*
X73738519Y-293777290D01*
X73748357Y-293771383D01*
X73758155Y-293765408D01*
X73767914Y-293759363D01*
X73777631Y-293753249D01*
X73787308Y-293747067D01*
X73796943Y-293740817D01*
X73806535Y-293734498D01*
X73816085Y-293728112D01*
X73825592Y-293721659D01*
X73835055Y-293715138D01*
X73844474Y-293708551D01*
X73853848Y-293701898D01*
X73863178Y-293695178D01*
X73872461Y-293688393D01*
X73881698Y-293681543D01*
X73890889Y-293674627D01*
X73900032Y-293667647D01*
X73909128Y-293660603D01*
X73918176Y-293653495D01*
X73927175Y-293646323D01*
X73936125Y-293639088D01*
X73945025Y-293631791D01*
X73953875Y-293624431D01*
X73962675Y-293617009D01*
X73971423Y-293609526D01*
X73980120Y-293601981D01*
X73988765Y-293594376D01*
X73997358Y-293586710D01*
X74005898Y-293578984D01*
X74014384Y-293571199D01*
X74022816Y-293563354D01*
X74031194Y-293555451D01*
X74039517Y-293547490D01*
X74047785Y-293539471D01*
X74055997Y-293531394D01*
X74064153Y-293523261D01*
X74068210Y-293519173D01*
X74072252Y-293515071D01*
X74076280Y-293510955D01*
X74080294Y-293506825D01*
X74084294Y-293502681D01*
X74088279Y-293498523D01*
X74092249Y-293494351D01*
X74096206Y-293490166D01*
X74100147Y-293485967D01*
X74104074Y-293481755D01*
X74107986Y-293477529D01*
X74111883Y-293473289D01*
X74115766Y-293469036D01*
X74119634Y-293464769D01*
X74123486Y-293460490D01*
X74127324Y-293456197D01*
X74131147Y-293451891D01*
X74134955Y-293447571D01*
X74138747Y-293443239D01*
X74142524Y-293438893D01*
X74146287Y-293434535D01*
X74150034Y-293430163D01*
X74153765Y-293425779D01*
X74157481Y-293421382D01*
X74161182Y-293416972D01*
X74164867Y-293412550D01*
X74168537Y-293408115D01*
X74172191Y-293403667D01*
X74175829Y-293399207D01*
X74179453Y-293394735D01*
X74183059Y-293390250D01*
X74186651Y-293385753D01*
X74190226Y-293381243D01*
X74193786Y-293376721D01*
X74197330Y-293372188D01*
X74200858Y-293367642D01*
X74204369Y-293363084D01*
X74207865Y-293358514D01*
X74211345Y-293353933D01*
X74214808Y-293349339D01*
X74218255Y-293344734D01*
X74221687Y-293340117D01*
X74225101Y-293335489D01*
X74228500Y-293330849D01*
X74231882Y-293326197D01*
X74235248Y-293321534D01*
X74238597Y-293316860D01*
X74241930Y-293312174D01*
X74245246Y-293307477D01*
X74248545Y-293302768D01*
X74251828Y-293298049D01*
X74255095Y-293293319D01*
X74258344Y-293288578D01*
X74261577Y-293283825D01*
X74264793Y-293279062D01*
X74267992Y-293274287D01*
X74271174Y-293269503D01*
X74274340Y-293264707D01*
X74277488Y-293259901D01*
X74280620Y-293255084D01*
X74283734Y-293250257D01*
X74286832Y-293245419D01*
X74289912Y-293240571D01*
X74292975Y-293235712D01*
X74296021Y-293230844D01*
X74299050Y-293225965D01*
X74302061Y-293221076D01*
X74305056Y-293216177D01*
X74308032Y-293211268D01*
X74310992Y-293206348D01*
X74313934Y-293201420D01*
X74316859Y-293196481D01*
X74319765Y-293191533D01*
X74322655Y-293186574D01*
X74325527Y-293181606D01*
X74328382Y-293176628D01*
X74331219Y-293171642D01*
X74334038Y-293166645D01*
X74336839Y-293161640D01*
X74339624Y-293156624D01*
X74342389Y-293151600D01*
X74345138Y-293146566D01*
X74347868Y-293141524D01*
X74350582Y-293136471D01*
X74353276Y-293131411D01*
X74355953Y-293126340D01*
X74358612Y-293121262D01*
X74361253Y-293116174D01*
X74363876Y-293111079D01*
X74366482Y-293105973D01*
X74369068Y-293100860D01*
X74371638Y-293095737D01*
X74374188Y-293090607D01*
X74376721Y-293085466D01*
X74379235Y-293080320D01*
X74381732Y-293075163D01*
X74384210Y-293069999D01*
X74386670Y-293064826D01*
X74389111Y-293059646D01*
X74391535Y-293054456D01*
X74393939Y-293049260D01*
X74396326Y-293044054D01*
X74398694Y-293038842D01*
X74401044Y-293033620D01*
X74403375Y-293028393D01*
X74405689Y-293023155D01*
X74407983Y-293017912D01*
X74410259Y-293012660D01*
X74412516Y-293007401D01*
X74414756Y-293002134D01*
X74416976Y-292996860D01*
X74419178Y-292991578D01*
X74421360Y-292986290D01*
X74423525Y-292980992D01*
X74425671Y-292975690D01*
X74427798Y-292970378D01*
X74429906Y-292965061D01*
X74431996Y-292959736D01*
X74434067Y-292954405D01*
X74436119Y-292949065D01*
X74438152Y-292943720D01*
X74440167Y-292938367D01*
X74442162Y-292933008D01*
X74444140Y-292927641D01*
X74446097Y-292922269D01*
X74448037Y-292916889D01*
X74449957Y-292911504D01*
X74451858Y-292906111D01*
X74453740Y-292900713D01*
X74455604Y-292895307D01*
X74457448Y-292889896D01*
X74459273Y-292884477D01*
X74461079Y-292879054D01*
X74462867Y-292873623D01*
X74464635Y-292868187D01*
X74466384Y-292862744D01*
X74468114Y-292857297D01*
X74469825Y-292851841D01*
X74471517Y-292846382D01*
X74473190Y-292840914D01*
X74474843Y-292835443D01*
X74476478Y-292829965D01*
X74478093Y-292824482D01*
X74479689Y-292818992D01*
X74481265Y-292813498D01*
X74482823Y-292807997D01*
X74484361Y-292802492D01*
X74485881Y-292796980D01*
X74487380Y-292791465D01*
X74488861Y-292785941D01*
X74490322Y-292780415D01*
X74491764Y-292774882D01*
X74493186Y-292769345D01*
X74494589Y-292763801D01*
X74495973Y-292758254D01*
X74497337Y-292752700D01*
X74498682Y-292747144D01*
X74500008Y-292741579D01*
X74501314Y-292736013D01*
X74502601Y-292730439D01*
X74503868Y-292724863D01*
X74505116Y-292719279D01*
X74506345Y-292713694D01*
X74507554Y-292708101D01*
X74508743Y-292702506D01*
X74509913Y-292696904D01*
X74511064Y-292691300D01*
X74512195Y-292685689D01*
X74513306Y-292680076D01*
X74514398Y-292674456D01*
X74515470Y-292668834D01*
X74516523Y-292663206D01*
X74517556Y-292657575D01*
X74518570Y-292651938D01*
X74519564Y-292646300D01*
X74520539Y-292640655D01*
X74521494Y-292635008D01*
X74522429Y-292629354D01*
X74523344Y-292623700D01*
X74524241Y-292618038D01*
X74525117Y-292612376D01*
X74525973Y-292606707D01*
X74526810Y-292601036D01*
X74527628Y-292595360D01*
X74528425Y-292589682D01*
X74529203Y-292583998D01*
X74529961Y-292578313D01*
X74530700Y-292572622D01*
X74531419Y-292566929D01*
X74532118Y-292561231D01*
X74532797Y-292555532D01*
X74533457Y-292549826D01*
X74534096Y-292544120D01*
X74534716Y-292538408D01*
X74535317Y-292532695D01*
X74535897Y-292526977D01*
X74536458Y-292521257D01*
X74536999Y-292515532D01*
X74537520Y-292509807D01*
X74538021Y-292504075D01*
X74538502Y-292498343D01*
X74538964Y-292492606D01*
X74539406Y-292486868D01*
X74539828Y-292481124D01*
X74540229Y-292475380D01*
X74540612Y-292469631D01*
X74540974Y-292463881D01*
X74541316Y-292458126D01*
X74541639Y-292452371D01*
X74541941Y-292446610D01*
X74542224Y-292440849D01*
X74542487Y-292435083D01*
X74542730Y-292429317D01*
X74542953Y-292423546D01*
X74543156Y-292417775D01*
X74543339Y-292411998D01*
X74543502Y-292406222D01*
X74543645Y-292400441D01*
X74543768Y-292394659D01*
X74543872Y-292388873D01*
X74543955Y-292383087D01*
X74544018Y-292377296D01*
X74544061Y-292371506D01*
X74544085Y-292365710D01*
X74544089Y-292361874D01*
D11*
X72900001Y-32070008D02*
X40900003Y-64070039D01*
X40900000Y-64070042D01*
X72900001Y-94070012D02*
X70899993Y-96070004D01*
X72900001Y-96070004D02*
X73621214Y-95348785D01*
X73928375Y-95041635D01*
X74414203Y-94555824D01*
X74900008Y-94070012D01*
D24*
X72960849Y-208070126D02*
X84900520Y-208070126D01*
X72960849Y-216070111D02*
X72960849Y-208070126D01*
D23*
X74544089Y-292361874D02*
X74544049Y-292350295D01*
X74543929Y-292338726D01*
X74543730Y-292327166D01*
X74543450Y-292315615D01*
X74543091Y-292304075D01*
X74542652Y-292292545D01*
X74542134Y-292281025D01*
X74541536Y-292269516D01*
X74540859Y-292258018D01*
X74540103Y-292246532D01*
X74539267Y-292235057D01*
X74538352Y-292223594D01*
X74537357Y-292212144D01*
X74536284Y-292200706D01*
X74535131Y-292189280D01*
X74533900Y-292177868D01*
X74532589Y-292166470D01*
X74531200Y-292155085D01*
X74529732Y-292143715D01*
X74528185Y-292132359D01*
X74526560Y-292121017D01*
X74524856Y-292109691D01*
X74523073Y-292098380D01*
X74521212Y-292087085D01*
X74519273Y-292075806D01*
X74517256Y-292064544D01*
X74515160Y-292053298D01*
X74512986Y-292042070D01*
X74510734Y-292030859D01*
X74508405Y-292019667D01*
X74505997Y-292008492D01*
X74503512Y-291997336D01*
X74500949Y-291986199D01*
X74498308Y-291975082D01*
X74495591Y-291963984D01*
X74492795Y-291952906D01*
X74489923Y-291941849D01*
X74486973Y-291930813D01*
X74483946Y-291919799D01*
X74480843Y-291908806D01*
X74477662Y-291897835D01*
X74474405Y-291886887D01*
X74471072Y-291875962D01*
X74467661Y-291865060D01*
X74464175Y-291854182D01*
X74460613Y-291843328D01*
X74456974Y-291832499D01*
X74453259Y-291821695D01*
X74449469Y-291810917D01*
X74445603Y-291800164D01*
X74441662Y-291789438D01*
X74437645Y-291778739D01*
X74433553Y-291768067D01*
X74429387Y-291757422D01*
X74425145Y-291746806D01*
X74420829Y-291736219D01*
X74416438Y-291725661D01*
X74411973Y-291715132D01*
X74407434Y-291704633D01*
X74402821Y-291694165D01*
X74398134Y-291683727D01*
X74393374Y-291673321D01*
X74388540Y-291662947D01*
X74383633Y-291652606D01*
X74378654Y-291642297D01*
X74373601Y-291632021D01*
X74368477Y-291621780D01*
X74363279Y-291611572D01*
X74358010Y-291601400D01*
X74352669Y-291591262D01*
X74347257Y-291581161D01*
X74341773Y-291571095D01*
X74336218Y-291561066D01*
X74330593Y-291551075D01*
X74324897Y-291541121D01*
X74319130Y-291531206D01*
X74313294Y-291521329D01*
X74307388Y-291511491D01*
X74301412Y-291501693D01*
X74295367Y-291491935D01*
X74289254Y-291482218D01*
X74283071Y-291472542D01*
X74276821Y-291462908D01*
X74270503Y-291453316D01*
X74264117Y-291443766D01*
X74257663Y-291434260D01*
X74251143Y-291424798D01*
X74244556Y-291415379D01*
X74237902Y-291406006D01*
X74231183Y-291396677D01*
X74224398Y-291387394D01*
X74217547Y-291378158D01*
X74210632Y-291368968D01*
X74203652Y-291359825D01*
X74196608Y-291350730D01*
X74189500Y-291341683D01*
X74182328Y-291332684D01*
X74175093Y-291323735D01*
X74167796Y-291314835D01*
X74160436Y-291305986D01*
X74153014Y-291297187D01*
X74145531Y-291288439D01*
X74137986Y-291279742D01*
X74130381Y-291271098D01*
X74122715Y-291262506D01*
X74114989Y-291253967D01*
X74107204Y-291245481D01*
X74099360Y-291237050D01*
X74091457Y-291228673D01*
X74083496Y-291220350D01*
X74075477Y-291212083D01*
X74067400Y-291203872D01*
X74059267Y-291195716D01*
X74055179Y-291191660D01*
X74051077Y-291187618D01*
X74046961Y-291183590D01*
X74042831Y-291179576D01*
X74038687Y-291175577D01*
X74034529Y-291171592D01*
X74030358Y-291167622D01*
X74026173Y-291163666D01*
X74021974Y-291159725D01*
X74017761Y-291155799D01*
X74013535Y-291151887D01*
X74009296Y-291147990D01*
X74005043Y-291144108D01*
X74000776Y-291140240D01*
X73996497Y-291136388D01*
X73992204Y-291132550D01*
X73987898Y-291128728D01*
X73983578Y-291124921D01*
X73979246Y-291121129D01*
X73974900Y-291117351D01*
X73970542Y-291113590D01*
X73966171Y-291109843D01*
X73961787Y-291106112D01*
X73957390Y-291102396D01*
X73952980Y-291098696D01*
X73948557Y-291095011D01*
X73944123Y-291091342D01*
X73939675Y-291087688D01*
X73935215Y-291084050D01*
X73930742Y-291080427D01*
X73926258Y-291076820D01*
X73921761Y-291073229D01*
X73917251Y-291069654D01*
X73912730Y-291066095D01*
X73908196Y-291062551D01*
X73903650Y-291059024D01*
X73899093Y-291055513D01*
X73894523Y-291052017D01*
X73889942Y-291048538D01*
X73885348Y-291045074D01*
X73880743Y-291041628D01*
X73876126Y-291038197D01*
X73871498Y-291034783D01*
X73866857Y-291031384D01*
X73862206Y-291028003D01*
X73857543Y-291024637D01*
X73852869Y-291021289D01*
X73848183Y-291017956D01*
X73843486Y-291014640D01*
X73838778Y-291011341D01*
X73834059Y-291008059D01*
X73829328Y-291004792D01*
X73824587Y-291001543D01*
X73819834Y-290998311D01*
X73815071Y-290995095D01*
X73810297Y-290991896D01*
X73805513Y-290988714D01*
X73800717Y-290985549D01*
X73795911Y-290982401D01*
X73791094Y-290979270D01*
X73786267Y-290976156D01*
X73781429Y-290973059D01*
X73776581Y-290969979D01*
X73771722Y-290966916D01*
X73766854Y-290963871D01*
X73761975Y-290960842D01*
X73757086Y-290957831D01*
X73752187Y-290954837D01*
X73747278Y-290951861D01*
X73742359Y-290948901D01*
X73737430Y-290945960D01*
X73732491Y-290943035D01*
X73727543Y-290940129D01*
X73722584Y-290937239D01*
X73717617Y-290934368D01*
X73712639Y-290931513D01*
X73707653Y-290928677D01*
X73702656Y-290925858D01*
X73697651Y-290923057D01*
X73692635Y-290920273D01*
X73687611Y-290917507D01*
X73682577Y-290914759D01*
X73677535Y-290912029D01*
X73672482Y-290909316D01*
X73667422Y-290906622D01*
X73662352Y-290903945D01*
X73657274Y-290901287D01*
X73652185Y-290898646D01*
X73647090Y-290896023D01*
X73641984Y-290893418D01*
X73636871Y-290890832D01*
X73631748Y-290888263D01*
X73626618Y-290885713D01*
X73621478Y-290883180D01*
X73616331Y-290880666D01*
X73611174Y-290878170D01*
X73606011Y-290875693D01*
X73600837Y-290873233D01*
X73595657Y-290870792D01*
X73590468Y-290868368D01*
X73585271Y-290865964D01*
X73580066Y-290863577D01*
X73574854Y-290861210D01*
X73569632Y-290858860D01*
X73564404Y-290856529D01*
X73559167Y-290854216D01*
X73553924Y-290851923D01*
X73548671Y-290849647D01*
X73543413Y-290847390D01*
X73538145Y-290845151D01*
X73532872Y-290842931D01*
X73527590Y-290840729D01*
X73522301Y-290838547D01*
X73517004Y-290836382D01*
X73511702Y-290834237D01*
X73506390Y-290832110D01*
X73501073Y-290830002D01*
X73495747Y-290827913D01*
X73490416Y-290825843D01*
X73485077Y-290823790D01*
X73479732Y-290821758D01*
X73474378Y-290819743D01*
X73469020Y-290817748D01*
X73463653Y-290815771D01*
X73458281Y-290813814D01*
X73452901Y-290811875D01*
X73447516Y-290809955D01*
X73442122Y-290808054D01*
X73436724Y-290806172D01*
X73431318Y-290804309D01*
X73425907Y-290802465D01*
X73420488Y-290800640D01*
X73415065Y-290798834D01*
X73409634Y-290797047D01*
X73404199Y-290795279D01*
X73398755Y-290793530D01*
X73393308Y-290791800D01*
X73387852Y-290790089D01*
X73382393Y-290788398D01*
X73376925Y-290786725D01*
X73371454Y-290785073D01*
X73365975Y-290783438D01*
X73360493Y-290781824D01*
X73355002Y-290780228D01*
X73349509Y-290778651D01*
X73344007Y-290777094D01*
X73338503Y-290775556D01*
X73332990Y-290774037D01*
X73327475Y-290772538D01*
X73321951Y-290771058D01*
X73316425Y-290769597D01*
X73310891Y-290768155D01*
X73305355Y-290766733D01*
X73299811Y-290765330D01*
X73294264Y-290763947D01*
X73288710Y-290762582D01*
X73283153Y-290761238D01*
X73277588Y-290759912D01*
X73272022Y-290758607D01*
X73266448Y-290757320D01*
X73260871Y-290756053D01*
X73255288Y-290754805D01*
X73249702Y-290753577D01*
X73244109Y-290752368D01*
X73238514Y-290751179D01*
X73232911Y-290750009D01*
X73227307Y-290748859D01*
X73221696Y-290747728D01*
X73216083Y-290746617D01*
X73210463Y-290745525D01*
X73204841Y-290744453D01*
X73199212Y-290743401D01*
X73193582Y-290742368D01*
X73187945Y-290741354D01*
X73182306Y-290740361D01*
X73176660Y-290739386D01*
X73171013Y-290738432D01*
X73165360Y-290737497D01*
X73159705Y-290736582D01*
X73154043Y-290735686D01*
X73148381Y-290734810D01*
X73142711Y-290733953D01*
X73137041Y-290733117D01*
X73131364Y-290732299D01*
X73125686Y-290731502D01*
X73120002Y-290730724D01*
X73114316Y-290729967D01*
X73108625Y-290729228D01*
X73102932Y-290728510D01*
X73097233Y-290727811D01*
X73091534Y-290727132D01*
X73085828Y-290726473D01*
X73080122Y-290725833D01*
X73074410Y-290725213D01*
X73068696Y-290724613D01*
X73062977Y-290724033D01*
X73057258Y-290723473D01*
X73051532Y-290722932D01*
X73045806Y-290722411D01*
X73040075Y-290721910D01*
X73034342Y-290721429D01*
X73028605Y-290720968D01*
X73022866Y-290720526D01*
X73017122Y-290720105D01*
X73011378Y-290719703D01*
X73005628Y-290719321D01*
X72999878Y-290718959D01*
X72994123Y-290718617D01*
X72988367Y-290718294D01*
X72982606Y-290717992D01*
X72976845Y-290717710D01*
X72971079Y-290717447D01*
X72965312Y-290717204D01*
X72959541Y-290716982D01*
X72953769Y-290716779D01*
X72947992Y-290716596D01*
X72942215Y-290716433D01*
X72936434Y-290716290D01*
X72930652Y-290716167D01*
X72924865Y-290716064D01*
X72919079Y-290715981D01*
X72913288Y-290715918D01*
X72907496Y-290715875D01*
X72901700Y-290715852D01*
X72897933Y-290715848D01*
D11*
X74544215Y-292361691D02*
X77281585Y-292361691D01*
X74900008Y-32070008D02*
X61694652Y-45275381D01*
X57762908Y-49207122D01*
X49331442Y-57638582D01*
X40900000Y-66070042D01*
X74900008Y-90070012D02*
X76375182Y-88594836D01*
X101637589Y-63332418D01*
X114268823Y-50701209D01*
X126900092Y-38070000D01*
X74900008Y-96070004D02*
X137662101Y-33307915D01*
X76900016Y-62070050D02*
X67881550Y-71088593D01*
X54401361Y-84568784D01*
X42900137Y-96070004D01*
X76900016Y-70070042D02*
X71636873Y-75333192D01*
X56900066Y-90070012D01*
X76900016Y-92070019D02*
X97446565Y-71523496D01*
X116763211Y-52206877D01*
X126421507Y-42548567D01*
X136079772Y-32890256D01*
X76900016Y-96070004D02*
X100709960Y-72260110D01*
X107101886Y-65868190D01*
X123139300Y-49830794D01*
X139176742Y-33793397D01*
X78900027Y-58070057D02*
X80406080Y-56563933D01*
X82568993Y-54401023D01*
X82900043Y-54069977D01*
X78900027Y-66070042D02*
X82900043Y-62070050D01*
X78900027Y-96070004D02*
X80423366Y-94546627D01*
X82364051Y-92605990D01*
X82869506Y-92100554D01*
X82900043Y-92070019D01*
X80900035Y-32070008D02*
X40900000Y-72070042D01*
X80900035Y-50069985D02*
X82724373Y-48245655D01*
X90812217Y-40157830D01*
X94856112Y-36113919D01*
X98899978Y-32070008D01*
X80900035Y-54069977D02*
X40900000Y-94070012D01*
X80900035Y-58070057D02*
X106900008Y-32070008D01*
X80900035Y-62070050D02*
X70111011Y-72859071D01*
X66900042Y-76070030D01*
X59900033Y-83070021D01*
X52900048Y-90070012D01*
X80900035Y-66070042D02*
X91563933Y-55406180D01*
X95344536Y-51625579D01*
X102122330Y-44847790D01*
X108900146Y-38070000D01*
X80900035Y-70070042D02*
X73207743Y-77762342D01*
X60900081Y-90070012D01*
X82900043Y-58070057D02*
X108882964Y-32087193D01*
X82900043Y-66070042D02*
X93605092Y-55364965D01*
X96530221Y-52439836D01*
X103715135Y-45254919D01*
X110900024Y-38070000D01*
X82900043Y-70070042D02*
X75586060Y-77383935D01*
X64938172Y-88031801D01*
X62899961Y-90070012D01*
X82900043Y-94070012D02*
X82160763Y-94809292D01*
X81928210Y-95041835D01*
X81414110Y-95555918D01*
X80900035Y-96070004D01*
X82900043Y-96070004D02*
X83666606Y-95341421D01*
X84642478Y-94413992D01*
X84902569Y-94166820D01*
X85004436Y-94070012D01*
X84900050Y-32070008D02*
X40900000Y-76070035D01*
X84900050Y-50069985D02*
X89596332Y-45373667D01*
X94015197Y-40954819D01*
X98457619Y-36512414D01*
X102899993Y-32070008D01*
X84900050Y-60070057D02*
X93549076Y-51420988D01*
X95679146Y-49290914D01*
X101289590Y-43680456D01*
X106900008Y-38070000D01*
X84900050Y-68070042D02*
X93026094Y-59943962D01*
X100017695Y-52952373D01*
X107458894Y-45511187D01*
X114900047Y-38070000D01*
X84900050Y-90070012D02*
X100027450Y-74942647D01*
X122156092Y-52813948D01*
X140638534Y-34331452D01*
X86900188Y-90070012D02*
X108497101Y-68473063D01*
X114257368Y-62712794D01*
X128158386Y-48811769D01*
X142059379Y-34910744D01*
X86900188Y-94070012D02*
X86113817Y-94856317D01*
X85866218Y-95103905D01*
X84900050Y-96070004D01*
X86900188Y-96070004D02*
X87142519Y-95823985D01*
X88006349Y-94946997D01*
X88438236Y-94508505D01*
X88870094Y-94070012D01*
X88900066Y-32070008D02*
X70404509Y-50565540D01*
X64900033Y-56070017D01*
X52900029Y-68070022D01*
X40900000Y-80070027D01*
X88900066Y-90070012D02*
X143418861Y-35551243D01*
X88900455Y-104070012D02*
X88921775Y-100072098D01*
X88943118Y-96070027D01*
X90899944Y-90070012D02*
X110379244Y-70590773D01*
X140589375Y-40380618D01*
X144730148Y-36239838D01*
X90899944Y-94070012D02*
X90367568Y-94602473D01*
X89605651Y-95364407D01*
X88900066Y-96070004D01*
X90899944Y-96070004D02*
X91861711Y-95108304D01*
X92380883Y-94589158D01*
X92900081Y-94070012D01*
X92900081Y-32070008D02*
X72783909Y-52186160D01*
X67602747Y-57367310D01*
X54251361Y-70718667D01*
X40900000Y-84070027D01*
X92900081Y-90070012D02*
X145972060Y-36998028D01*
X92900081Y-96070004D02*
X113584357Y-75385708D01*
X121180995Y-67789075D01*
X135321463Y-53648613D01*
X149461906Y-39508149D01*
X92900443Y-208070126D02*
X96900523Y-208070126D01*
X94899963Y-90070012D02*
X113126287Y-71843722D01*
X121112652Y-63857388D01*
X134134452Y-50835634D01*
X147156226Y-37813878D01*
X94899963Y-92070019D02*
X115165616Y-71804517D01*
X146732777Y-40237470D01*
X148315459Y-38654793D01*
X94899963Y-96070004D02*
X114949919Y-76020108D01*
X123088506Y-67881559D01*
X136793985Y-54176140D01*
X150499442Y-40470719D01*
X96900100Y-32070008D02*
X92005252Y-36964772D01*
X84460999Y-44509012D01*
X78900027Y-50069985D01*
X96900100Y-96070004D02*
X105700087Y-87270022D01*
X140900146Y-52069977D01*
X98899978Y-96070004D02*
X110061558Y-84908521D01*
X127434471Y-67535638D01*
X140900146Y-54069977D01*
X100900115Y-32070008D02*
X95936670Y-37033370D01*
X88465500Y-44504528D01*
X82900043Y-50069985D01*
X104900130Y-32070008D02*
X97507170Y-39462938D01*
X94563007Y-42407076D01*
X89731516Y-47238527D01*
X84900050Y-52069977D01*
X104900130Y-96070004D02*
X117837742Y-83132431D01*
X123943618Y-77026557D01*
X132421871Y-68548307D01*
X140900146Y-60070057D01*
X104900130Y-242070187D02*
X109325162Y-237645090D01*
X114121780Y-232848467D01*
X118510953Y-228459291D01*
X122900077Y-224070111D01*
X104900130Y-246070172D02*
X115951754Y-235018498D01*
X126900092Y-224070111D01*
X104900130Y-250070157D02*
X112494617Y-242475599D01*
X122856343Y-232113871D01*
X130900108Y-224070111D01*
X104900130Y-254070172D02*
X134900123Y-224070111D01*
X104900130Y-256070157D02*
X136900130Y-224070111D01*
X104900130Y-258070157D02*
X116836152Y-246134114D01*
X121467015Y-241503255D01*
X130183589Y-232786686D01*
X138900138Y-224070111D01*
X104900130Y-260070157D02*
X122251497Y-242718774D01*
X131575809Y-233394443D01*
X140900146Y-224070111D01*
X104900130Y-262070157D02*
X113646778Y-253323490D01*
X117728263Y-249241979D01*
X123483344Y-243486864D01*
X129238448Y-237731747D01*
X104900130Y-264070157D02*
X116899924Y-252070157D01*
X104900130Y-266070157D02*
X108176130Y-262794124D01*
X110738498Y-260231693D01*
X113819187Y-257150930D01*
X116899924Y-254070172D01*
X104900130Y-268070218D02*
X108476099Y-264494164D01*
X113772857Y-259197390D01*
X118900062Y-254070172D01*
X104900130Y-270070248D02*
X114706457Y-260263755D01*
X120899940Y-254070172D01*
X104900130Y-272070218D02*
X109998834Y-266971470D01*
X113603806Y-263366498D01*
X118251967Y-258718334D01*
X122900077Y-254070172D01*
X104900130Y-274070218D02*
X128900100Y-250070157D01*
X104900130Y-276070218D02*
X109348930Y-271621421D01*
X119124554Y-261845792D01*
X124012340Y-256957976D01*
X128900100Y-252070157D01*
X104900130Y-278070218D02*
X128900100Y-254070172D01*
X104900130Y-280070218D02*
X128900100Y-256070157D01*
X104900130Y-282070218D02*
X106569702Y-280400646D01*
X117734946Y-269235391D01*
X123317540Y-263652770D01*
X128900100Y-258070157D01*
X104900130Y-284070218D02*
X106569702Y-282400646D01*
X117734946Y-271235391D01*
X123317540Y-265652770D01*
X128900100Y-260070157D01*
X104900130Y-286070218D02*
X112861129Y-278109204D01*
X120880644Y-270089674D01*
X128900100Y-262070157D01*
X104900130Y-288070218D02*
X116899924Y-276070218D01*
X104900130Y-290070218D02*
X116899924Y-278070218D01*
X104900130Y-292070187D02*
X108926139Y-288044103D01*
X113976643Y-282993602D01*
X115945059Y-281025201D01*
X118900062Y-278070218D01*
X104900130Y-294070218D02*
X120899940Y-278070218D01*
X104900130Y-296070187D02*
X110372546Y-290597748D01*
X113878099Y-287092207D01*
X118389113Y-282581207D01*
X122900077Y-278070218D01*
X104900130Y-298070187D02*
X117136985Y-285833323D01*
X124725751Y-278244561D01*
X132314491Y-270655789D01*
X104900130Y-300070187D02*
X109327342Y-295642994D01*
X119113760Y-285856609D01*
X124006944Y-280963416D01*
X128900100Y-276070218D01*
X104900130Y-302070157D02*
X128900100Y-278070218D01*
X104900130Y-304070187D02*
X112040571Y-296929695D01*
X122095856Y-286874440D01*
X130900108Y-278070218D01*
X104900130Y-306070157D02*
X132900115Y-278070218D01*
X104900130Y-310070279D02*
X112743102Y-302228366D01*
X122587350Y-292385544D01*
X126373305Y-288600150D01*
X136904784Y-278070218D01*
X104900130Y-314070248D02*
X116960918Y-302009470D01*
X123339165Y-295631208D01*
X132119644Y-286850710D01*
X140900146Y-278070218D01*
X104900130Y-318070279D02*
X125012323Y-297960992D01*
X149778754Y-273198237D01*
X163961618Y-259017501D01*
X168909690Y-254070172D01*
X104900130Y-320070248D02*
X148900054Y-276070218D01*
D25*
X104900504Y-96070088D02*
X104900504Y-288070431D01*
D11*
X105921775Y-237048428D02*
X110850946Y-232119216D01*
X117855552Y-225114560D01*
X106900008Y-36070000D02*
X98422949Y-44547105D01*
X95679146Y-47290914D01*
X90289586Y-52680487D01*
X84900050Y-58070057D01*
X106900008Y-96070004D02*
X119849042Y-83121050D01*
X124370437Y-78599672D01*
X132635280Y-70334861D01*
X140900146Y-62070050D01*
X108900146Y-320070248D02*
X123693028Y-305277306D01*
X132284716Y-296685607D01*
X150900062Y-278070218D01*
X110900024Y-32087193D02*
X110221362Y-32760034D01*
X109560711Y-33415018D01*
X109230412Y-33742509D01*
X108900146Y-34070000D01*
X110900024Y-96070004D02*
X112479098Y-94490951D01*
X112900035Y-94070012D01*
X113900030Y-93070016D01*
X114900047Y-92070019D01*
X112900161Y-32087193D02*
X112127677Y-32852979D01*
X111911902Y-33066890D01*
X111405975Y-33568445D01*
X110900024Y-34070000D01*
X112900161Y-38070000D02*
X101937019Y-49033112D01*
X99394224Y-51575906D01*
X92147150Y-58822975D01*
X84900050Y-66070042D01*
X112900161Y-320070248D02*
X131945241Y-301028331D01*
X143426198Y-289549273D01*
X154907180Y-278070218D01*
X114066886Y-226903225D02*
X107721664Y-233248578D01*
X114900047Y-32087193D02*
X114249942Y-32731719D01*
X113575009Y-33400860D01*
X113237569Y-33735430D01*
X112900161Y-34070000D01*
X114900047Y-94070012D02*
X114261312Y-94708751D01*
X113580694Y-95389375D01*
X113240412Y-95729688D01*
X112900161Y-96070004D01*
X114900047Y-96070004D02*
X115603919Y-95366119D01*
X116251963Y-94718066D01*
X116575959Y-94394039D01*
X116899924Y-94070012D01*
X116899924Y-32087193D02*
X116362365Y-32620221D01*
X115556371Y-33419307D01*
X114900047Y-34070000D01*
X116899924Y-90070012D02*
X127523050Y-79446949D01*
X130485163Y-76484845D01*
X137692587Y-69277447D01*
X144900039Y-62070050D01*
X116899924Y-320070248D02*
X136233296Y-300740512D01*
X152571509Y-284405374D01*
X168909690Y-268070218D01*
X118900062Y-32087193D02*
X118127577Y-32852979D01*
X117915634Y-33063093D01*
X117407791Y-33566547D01*
X116899924Y-34070000D01*
X118900062Y-90070012D02*
X129563865Y-79406207D01*
X133460052Y-75510031D01*
X146900047Y-62070050D01*
X118900062Y-94070012D02*
X118113691Y-94856317D01*
X117866092Y-95103905D01*
X116899924Y-96070004D01*
X118900062Y-96070004D02*
X119605647Y-95364407D01*
X120252835Y-94717210D01*
X120576403Y-94393611D01*
X120899940Y-94070012D01*
X118900062Y-250070157D02*
X122333041Y-246637212D01*
X124145981Y-244824269D01*
X126523029Y-242447220D01*
X128900100Y-240070172D01*
X118900062Y-274070218D02*
X122343815Y-270626468D01*
X123884407Y-269085861D01*
X126392241Y-266578006D01*
X128900100Y-264070157D01*
X120578124Y-224392087D02*
X116665478Y-228304750D01*
X112702289Y-232267898D01*
X108968037Y-236002111D01*
X105233833Y-239736325D01*
X120899940Y-32087193D02*
X120361351Y-32621241D01*
X119558074Y-33417634D01*
X118900062Y-34070000D01*
X120899940Y-250070157D02*
X128900100Y-242070187D01*
X120899940Y-274070218D02*
X124598677Y-270371516D01*
X126850107Y-268120118D01*
X129101508Y-265868710D01*
X120899940Y-320070248D02*
X168900260Y-272070218D01*
X122900077Y-32070008D02*
X122160700Y-32809321D01*
X121881557Y-33088453D01*
X121390760Y-33579227D01*
X120899940Y-34070000D01*
X122900077Y-90070012D02*
X133244875Y-79725206D01*
X142900031Y-70070042D01*
X122900077Y-94070012D02*
X122113706Y-94856317D01*
X121861707Y-95108304D01*
X120899940Y-96070004D01*
X122900077Y-96070004D02*
X124899955Y-94070012D01*
X122900077Y-250070157D02*
X125933056Y-247037190D01*
X128900100Y-244070157D01*
X122900077Y-274070218D02*
X125201050Y-271769270D01*
X126901592Y-270068711D01*
X129602645Y-267367642D01*
X124899955Y-32087193D02*
X122900077Y-34070000D01*
X124899955Y-38070000D02*
X107004738Y-55965265D01*
X89952412Y-73017639D01*
X81426222Y-81543826D01*
X72900001Y-90070012D01*
X124899955Y-96070004D02*
X137305505Y-83664475D01*
X148988815Y-71981183D01*
X154830496Y-66139538D01*
X160672210Y-60297894D01*
X124899955Y-224070111D02*
X115886861Y-233083312D01*
X110393508Y-238576741D01*
X104900130Y-244070157D01*
X124899955Y-250070157D02*
X126374706Y-248595492D01*
X127637444Y-247332832D01*
X128268787Y-246701503D01*
X128900100Y-246070172D01*
X124899955Y-252070157D02*
X126236438Y-250733759D01*
X127568312Y-249401970D01*
X128234222Y-248736073D01*
X128900100Y-248070172D01*
X124899955Y-274070218D02*
X126218017Y-272752198D01*
X127493221Y-271476980D01*
X128911384Y-270058806D01*
X129620481Y-269349725D01*
X130329597Y-268640652D01*
X124899955Y-276070218D02*
X126609601Y-274360605D01*
X127927809Y-273042461D01*
X129582062Y-271388284D01*
X131236266Y-269734097D01*
X124899955Y-320070248D02*
X148221049Y-296754299D01*
X168909690Y-276070218D01*
X126900092Y-32087193D02*
X126124549Y-32856012D01*
X125919617Y-33059174D01*
X125409798Y-33564587D01*
X124899955Y-34070000D01*
X126900092Y-90070012D02*
X136900063Y-80070033D01*
X146900047Y-70070042D01*
X126900092Y-92070019D02*
X128846642Y-90123468D01*
X144635354Y-74334761D01*
X152529741Y-66440407D01*
X160424163Y-58546055D01*
X126900092Y-96070004D02*
X160881629Y-62088429D01*
X128900100Y-32087193D02*
X128357114Y-32625487D01*
X127907884Y-33070876D01*
X127404013Y-33570438D01*
X126900092Y-34070000D01*
X128900100Y-38070000D02*
X125650103Y-41319999D01*
X101275104Y-65695006D01*
X89087576Y-77882509D01*
X76900016Y-90070012D01*
X128900100Y-96070004D02*
X132900115Y-92070019D01*
X128900100Y-224070111D02*
X104900130Y-248070172D01*
X128900100Y-320070248D02*
X147108387Y-301862033D01*
X153006165Y-295964269D01*
X168900260Y-280070218D01*
X130900108Y-32087193D02*
X130145501Y-32835319D01*
X129884704Y-33093865D01*
X129392390Y-33581933D01*
X128900100Y-34070000D01*
X130900108Y-34070000D02*
X131595601Y-33374439D01*
X132620653Y-32349395D01*
X132676612Y-32293438D01*
X130900108Y-36070000D02*
X131882140Y-35087966D01*
X132651985Y-34318082D01*
X133542258Y-33427766D01*
X134432578Y-32537449D01*
X130900108Y-274070218D02*
X132026600Y-272943620D01*
X133410375Y-271559795D01*
X133596328Y-271373837D01*
X132900115Y-94070012D02*
X132350799Y-94619300D01*
X131883853Y-95086264D01*
X131392004Y-95578132D01*
X130900108Y-96070004D01*
X132900115Y-224070111D02*
X121892238Y-235078018D01*
X118900123Y-238070134D01*
X111900114Y-245070147D01*
X104900130Y-252070157D01*
X132900115Y-274070218D02*
X133453850Y-273516514D01*
X134146610Y-272823696D01*
X134432627Y-272537641D01*
X135101142Y-271869046D01*
X132900115Y-320070248D02*
X149591100Y-303379318D01*
X168900260Y-284070218D01*
X134574302Y-232395978D02*
X138573917Y-228396295D01*
X140736960Y-226233206D01*
X142900031Y-224070111D01*
X134900123Y-90070012D02*
X145847807Y-79122339D01*
X160900878Y-64069283D01*
X134900123Y-94070012D02*
X134246108Y-94724025D01*
X134007568Y-94962576D01*
X133591960Y-95378202D01*
X133176330Y-95793828D01*
X134900123Y-274070218D02*
X135410150Y-273560220D01*
X135900127Y-273070218D01*
X136400104Y-272570215D01*
X136900130Y-272070218D01*
X134900123Y-278074734D02*
X104900130Y-308070157D01*
X136900130Y-90070012D02*
X143193054Y-83777111D01*
X152882534Y-74087547D01*
X160844421Y-66125584D01*
X136900130Y-94070012D02*
X136457632Y-94512495D01*
X136024894Y-94945219D01*
X135808499Y-95161581D01*
X135592071Y-95377942D01*
X136900130Y-232070187D02*
X139619668Y-229350563D01*
X142259812Y-226710335D01*
X143579910Y-225390222D01*
X144900039Y-224070111D01*
X136900130Y-274070218D02*
X137692959Y-273277418D01*
X138834659Y-272135656D01*
X139209426Y-271760861D01*
X136900130Y-320070248D02*
X146957907Y-310015483D01*
X153247227Y-303728020D01*
X161078448Y-295899113D01*
X168909690Y-288070218D01*
D24*
X136900504Y-208070126D02*
X148840171Y-208070126D01*
X136900504Y-216070111D02*
X136900504Y-208070126D01*
D11*
X138693565Y-232276684D02*
X141253630Y-229716618D01*
X144076882Y-226893363D01*
X145488481Y-225481736D01*
X146900047Y-224070111D01*
X138900138Y-90070012D02*
X146522062Y-82448020D01*
X153561760Y-75408256D01*
X157081635Y-71888375D01*
X160601539Y-68368496D01*
X138900138Y-94070012D02*
X138669546Y-94300615D01*
X138613898Y-94356259D01*
X138454249Y-94515901D01*
X138294624Y-94675549D01*
X138900138Y-278070218D02*
X123291600Y-293678775D01*
X114095853Y-302874522D01*
X104900130Y-312070279D01*
X140200446Y-232769696D02*
X143337719Y-229632481D01*
X148035517Y-224934657D01*
X148900054Y-224070111D01*
X140900146Y-70070042D02*
X135429242Y-75540906D01*
X130738747Y-80231323D01*
X125819320Y-85150669D01*
X120899940Y-90070012D01*
X140900146Y-90070012D02*
X148033583Y-82936558D01*
X150800196Y-80169925D01*
X155499123Y-75470967D01*
X160198074Y-70772008D01*
X140900146Y-92070019D02*
X149823976Y-83146184D01*
X154664718Y-78305429D01*
X159505485Y-73464673D01*
X140900146Y-274075558D02*
X156980012Y-257998077D01*
X168909690Y-246070172D01*
X140900146Y-320070248D02*
X156978997Y-303996843D01*
X168909690Y-292070187D01*
X141444175Y-93525937D02*
X145995863Y-88974240D01*
X150011178Y-84958962D01*
X154162396Y-80807783D01*
X158313567Y-76656605D01*
X141462127Y-233508160D02*
X150896575Y-224073666D01*
X142570716Y-234399548D02*
X145186499Y-231783724D01*
X147557942Y-229412291D01*
X150122319Y-226847924D01*
X152686645Y-224283551D01*
X142900031Y-50069985D02*
X151528701Y-41441342D01*
X142900031Y-54069977D02*
X126181390Y-70788673D01*
X120686742Y-76283328D01*
X100900115Y-96070004D01*
X142900031Y-58070057D02*
X142982794Y-57987296D01*
X144941468Y-56028640D01*
X145920775Y-55049310D01*
X146900047Y-54069977D01*
X142900031Y-62070050D02*
X133726206Y-71243949D01*
X120320650Y-84649505D01*
X108900146Y-96070004D01*
X142905715Y-278070218D02*
X133345215Y-287629285D01*
X122895571Y-298077430D01*
X113897874Y-307073838D01*
X104900130Y-316070248D01*
X143469115Y-235501141D02*
X146362273Y-232608013D01*
X150260530Y-228709704D01*
X154355666Y-224614514D01*
X144199043Y-236771222D02*
X147634290Y-233335962D01*
X151756579Y-229213662D01*
X153817752Y-227152514D01*
X155878959Y-225091366D01*
X144522666Y-266447506D02*
X158256512Y-252713817D01*
X168900260Y-242070187D01*
X144705344Y-238264828D02*
X147034282Y-235935910D01*
X152182389Y-230787835D01*
X154756417Y-228213797D01*
X157330421Y-225639752D01*
X144900039Y-50069985D02*
X152521667Y-42448449D01*
X144900039Y-54069977D02*
X133365370Y-65604666D01*
X123383619Y-75586391D01*
X113141783Y-85828199D01*
X102899993Y-96070004D01*
X144900039Y-58070057D02*
X146745400Y-56224673D01*
X155972625Y-46997342D01*
X144900039Y-66070042D02*
X148618566Y-62351484D01*
X151777555Y-59192513D01*
X155229618Y-55740468D01*
X158681632Y-52288422D01*
X144900039Y-70070042D02*
X136766003Y-78204037D01*
X134899991Y-80070033D01*
X129899961Y-85070024D01*
X124899955Y-90070012D01*
X144900039Y-240070172D02*
X148419624Y-236550574D01*
X151972960Y-232997168D01*
X155325850Y-229644211D01*
X158678786Y-226291256D01*
X144900039Y-242070187D02*
X149921321Y-237048904D01*
X152765370Y-234204877D01*
X156348990Y-230621282D01*
X159932586Y-227037686D01*
X144900039Y-244070157D02*
X149357410Y-239612769D01*
X152778811Y-236191392D01*
X156954590Y-232015640D01*
X161130317Y-227839886D01*
X144900039Y-246070172D02*
X153391845Y-237578377D01*
X162252860Y-228717373D01*
X144900039Y-248070172D02*
X163292075Y-229678265D01*
X144900039Y-250070157D02*
X164248473Y-230721692D01*
X144900039Y-252070157D02*
X165151397Y-231818814D01*
X144900039Y-254070172D02*
X152713176Y-246256992D01*
X155391792Y-243578373D01*
X160675972Y-238294184D01*
X165960128Y-233009991D01*
X144900039Y-256070157D02*
X152166623Y-248803613D01*
X166699882Y-234270428D01*
X144900039Y-258070157D02*
X151411736Y-251558464D01*
X159370473Y-243599737D01*
X163349868Y-239620372D01*
X167329299Y-235641003D01*
X144900039Y-260070157D02*
X152354464Y-252615717D01*
X160125345Y-244844820D01*
X164010814Y-240959368D01*
X167896316Y-237073910D01*
X144900039Y-262070157D02*
X151336097Y-255634122D01*
X156276136Y-250694063D01*
X162305440Y-244664738D01*
X168334792Y-238635418D01*
X144900039Y-264070157D02*
X153214198Y-255756030D01*
X165456789Y-243513596D01*
X168660484Y-240309948D01*
X144900039Y-274070218D02*
X168900260Y-250070157D01*
X144900039Y-320070248D02*
X154980605Y-309993670D01*
X167239191Y-297740013D01*
X168909690Y-296070187D01*
X145587981Y-91382100D02*
X149430836Y-87539228D01*
X155245485Y-81724668D01*
X156244567Y-80725606D01*
X146900047Y-50069985D02*
X149119370Y-47850709D01*
X151273892Y-45696234D01*
X152351126Y-44618995D01*
X153428329Y-43541756D01*
X146900047Y-58070057D02*
X149585348Y-55384772D01*
X151722229Y-53247866D01*
X154219407Y-50750659D01*
X156716636Y-48253453D01*
X146900047Y-66070042D02*
X159203819Y-53766194D01*
X148900054Y-50069985D02*
X150787431Y-48182604D01*
X152554472Y-46415563D01*
X153437965Y-45532041D01*
X154321426Y-44648518D01*
X148900054Y-52069977D02*
X151259841Y-49710218D01*
X154262209Y-46707981D01*
X155074515Y-45895718D01*
X155167373Y-45802865D01*
X148900054Y-58070057D02*
X151174451Y-55795646D01*
X153123450Y-53846679D01*
X155275018Y-51695145D01*
X157426536Y-49543610D01*
X148900054Y-60070057D02*
X153497940Y-55472133D01*
X158054404Y-50915631D01*
X148900054Y-66070042D02*
X159668777Y-55301369D01*
X148900054Y-68070042D02*
X160087615Y-56882607D01*
X148900054Y-320070248D02*
X168909690Y-300070187D01*
X148906638Y-278070218D02*
X132845829Y-294128490D01*
X126041825Y-300931433D01*
X106900008Y-320070248D01*
X150900062Y-274070218D02*
X158080382Y-266889897D01*
X163495023Y-261475252D01*
X168909690Y-256060605D01*
X152900069Y-278070218D02*
X141411261Y-289559037D01*
X133079831Y-297890442D01*
X121989902Y-308980340D01*
X110900024Y-320070248D01*
X152900069Y-320070248D02*
X156260770Y-316711481D01*
X160403440Y-312571293D01*
X162731072Y-310245078D01*
X165820397Y-307157632D01*
X168909690Y-304070187D01*
X152900390Y-104070012D02*
X152919546Y-100478204D01*
X152943053Y-96070027D01*
X154900077Y-274070218D02*
X160600745Y-268369592D01*
X164750489Y-264219875D01*
X168900260Y-260070157D01*
X156900085Y-276077664D02*
X168909690Y-264070157D01*
X156900085Y-320070248D02*
X161116624Y-315857011D01*
X165444871Y-311532213D01*
X168909690Y-308070157D01*
X156900489Y-208070126D02*
X160900573Y-208070126D01*
X160899970Y-320070248D02*
X168900260Y-312070279D01*
X162904891Y-320070248D02*
X166017016Y-316955730D01*
X166755030Y-316217142D01*
X168900260Y-314070248D01*
X166900123Y-320070248D02*
X167598427Y-319375252D01*
X168254017Y-318722765D01*
X168581838Y-318396522D01*
X168909690Y-318070279D01*
X168900260Y-248070172D02*
X159491675Y-257478677D01*
X155185852Y-261784479D01*
X149042953Y-267927348D01*
X142900031Y-274070218D01*
X168900260Y-262070157D02*
X165662346Y-265308039D01*
X163871020Y-267099325D01*
X160385502Y-270584777D01*
X158642775Y-272327499D01*
X156900085Y-274070218D01*
X168900260Y-266070157D02*
X156220482Y-278749845D01*
X140112521Y-294857787D01*
X135564351Y-299405960D01*
X125232205Y-309738110D01*
X114900047Y-320070248D01*
X168900260Y-270070248D02*
X155993805Y-282976626D01*
X143944253Y-295026157D01*
X131422181Y-307548205D01*
X118900062Y-320070248D01*
X168900260Y-302070157D02*
X163331284Y-307639093D01*
X160556634Y-310413741D01*
X155728374Y-315241993D01*
X150900062Y-320070248D01*
X168900260Y-316070248D02*
X167388334Y-317582088D01*
X166624212Y-318346147D01*
X164899985Y-320070248D01*
D26*
X168900535Y-288070218D02*
X296900581Y-288070218D01*
D27*
X168900550Y-32070000D02*
X168900550Y-111590581D01*
D28*
X168900550Y-144548550D02*
X168900550Y-156070035D01*
D29*
X168900550Y-164070096D02*
X168900550Y-288070157D01*
D11*
X168909690Y-244070157D02*
X157062588Y-255915481D01*
X146903526Y-266073061D01*
X138900138Y-274075284D01*
X168909690Y-252070157D02*
X162771430Y-258207454D01*
X153835700Y-267141790D01*
X149367858Y-271608960D01*
X144900039Y-276076138D01*
X168909690Y-258070157D02*
X160423579Y-266554967D01*
X152907172Y-274070218D01*
X168909690Y-274070218D02*
X156323325Y-286653908D01*
X138557779Y-304415780D01*
X122900077Y-320070248D01*
X168909690Y-278070218D02*
X126900092Y-320070248D01*
X168909690Y-282070218D02*
X160099136Y-290878498D01*
X148888469Y-302086366D01*
X145867477Y-305106611D01*
X138383808Y-312588427D01*
X130900108Y-320070248D01*
X168909690Y-286070218D02*
X159624269Y-295352982D01*
X146502325Y-308471272D01*
X134900123Y-320070248D01*
X168909690Y-290070218D02*
X158304434Y-300672061D01*
X143736055Y-315235849D01*
X138900138Y-320070248D01*
X168909690Y-294070218D02*
X163543168Y-299434711D01*
X155919522Y-307055577D01*
X149409812Y-313562919D01*
X146154935Y-316816585D01*
X142900031Y-320070248D01*
X168909690Y-298070187D02*
X163217814Y-303759559D01*
X157904876Y-309070210D01*
X152402485Y-314570232D01*
X146900047Y-320070248D01*
X168909690Y-306070157D02*
X164825749Y-310151277D01*
X159895069Y-315078629D01*
X154900077Y-320070248D01*
X168909690Y-310070279D02*
X158904876Y-320070248D01*
X180687659Y-98282521D02*
X174548003Y-104422253D01*
X171094444Y-107875851D01*
X180900047Y-150070111D02*
X179745876Y-151224256D01*
X178742804Y-152227349D01*
X177609698Y-153360478D01*
X176476539Y-154493603D01*
X180900306Y-148070126D02*
X180900305Y-148070127D01*
X178175873Y-150794485D01*
X176813690Y-152156663D01*
X175451545Y-153518841D01*
X182900184Y-150070111D02*
X181107691Y-151862635D01*
X179321690Y-153648666D01*
X178428715Y-154541684D01*
X177535773Y-155434704D01*
X184900062Y-150070111D02*
X182446605Y-152523575D01*
X181549035Y-153421159D01*
X178633903Y-156336316D01*
X184900550Y-232070187D02*
X184900550Y-224070111D01*
X185378974Y-95591389D02*
X176872024Y-104098286D01*
X168443832Y-112526425D01*
X186900199Y-150070111D02*
X186298620Y-150671686D01*
X183032980Y-153937318D01*
X181400191Y-155570133D01*
X179767432Y-157202954D01*
X188812751Y-94157467D02*
X176441841Y-106528363D01*
X167000892Y-115969304D01*
D30*
X188900687Y-68070096D02*
X194918998Y-68070096D01*
D11*
X191709983Y-93260426D02*
X180238622Y-104731799D01*
X166090614Y-118879818D01*
X194267066Y-92703061D02*
X187940024Y-99030176D01*
X179615693Y-107354512D01*
X172572453Y-114397752D01*
X165529281Y-121440991D01*
X196688499Y-92281849D02*
X165151778Y-123818684D01*
X196900108Y-150070111D02*
X186082282Y-160888073D01*
X196900367Y-148070126D02*
X184735725Y-160234601D01*
X198899985Y-150070111D02*
X194821228Y-154148878D01*
X191155679Y-157814433D01*
X189322930Y-159647212D01*
X187490211Y-161479992D01*
X198900123Y-92070019D02*
X189880948Y-101089245D01*
X181962390Y-109007802D01*
X173461783Y-117508409D01*
X164961227Y-126009015D01*
X200900123Y-150070111D02*
X188936378Y-162034039D01*
X200900260Y-92070019D02*
X164911613Y-128058796D01*
X200900550Y-232070187D02*
X200900550Y-224070111D01*
X202831916Y-92138424D02*
X192788525Y-102181761D01*
X179971327Y-114998985D01*
X176813070Y-118157255D01*
X164968719Y-130001645D01*
X202900001Y-150070111D02*
X198220554Y-154749588D01*
X191090722Y-161879583D01*
X190900214Y-162070096D01*
X204718375Y-92252041D02*
X185498452Y-111471955D01*
X175303531Y-121666861D01*
X165108634Y-131861767D01*
X206480537Y-92489705D02*
X195687629Y-103282668D01*
X185946845Y-113023454D01*
X175642498Y-123327803D01*
X165338203Y-133632153D01*
X208179786Y-92790692D02*
X193535587Y-107434890D01*
X179591301Y-121379173D01*
X172619186Y-128351313D01*
X165647102Y-135323453D01*
X209779563Y-93190747D02*
X198319878Y-104650413D01*
X187615798Y-115354526D01*
X176816021Y-126154335D01*
X166016196Y-136954144D01*
X211358283Y-93612134D02*
X194324087Y-110646364D01*
X187545813Y-117424665D01*
X166459968Y-138510571D01*
X212857291Y-94113026D02*
X166941856Y-140028561D01*
X212900169Y-148070126D02*
X208246216Y-152724067D01*
X203573190Y-157397081D01*
X201236702Y-159733589D01*
X198900245Y-162070096D01*
X212900169Y-150070111D02*
X208201738Y-154768572D01*
X200900421Y-162070057D01*
X200900382Y-162070096D01*
X214316627Y-94653538D02*
X167496239Y-141473972D01*
X167496215Y-141473996D01*
X214900062Y-150070111D02*
X210464306Y-154505882D01*
X204877472Y-160092832D01*
X202900295Y-162070061D01*
X202900260Y-162070096D01*
X215716804Y-95253560D02*
X198660353Y-112310004D01*
X190534676Y-120435696D01*
X179314081Y-131656308D01*
X168093467Y-142876919D01*
D31*
X215745429Y-274778439D02*
X218056174Y-274778439D01*
X215745429Y-276070126D02*
X215745429Y-274778439D01*
D11*
X216900199Y-150070111D02*
X212448285Y-154522041D01*
X206822977Y-160147465D01*
X204987385Y-161983105D01*
X204900397Y-162070096D01*
X216900565Y-232070187D02*
X216900565Y-224070111D01*
X217078864Y-95891278D02*
X204062833Y-108907380D01*
X193278723Y-119691507D01*
X181012471Y-131957781D01*
X168746268Y-144224057D01*
D31*
X218056174Y-274778439D02*
X218056174Y-276070126D01*
D11*
X218379173Y-96591130D02*
X205765711Y-109204585D01*
X192823652Y-122146696D01*
X181125725Y-133844672D01*
X169427756Y-145542645D01*
X218900077Y-150070111D02*
X215066480Y-153903786D01*
X209345100Y-159625170D01*
X205137733Y-163832532D01*
X219643180Y-97327054D02*
X207274462Y-109695815D01*
X170168281Y-146802151D01*
X220867774Y-98102604D02*
X200566337Y-118403972D01*
X194151432Y-124818865D01*
X170950401Y-148019833D01*
X222043418Y-98926671D02*
X205509654Y-115460494D01*
X188636155Y-132334054D01*
X180199434Y-140770837D01*
X171762748Y-149207623D01*
X223188438Y-99781804D02*
X199688681Y-123281638D01*
X186155329Y-136815025D01*
X172622001Y-150348416D01*
X224276878Y-100693409D02*
X205916626Y-119053622D01*
X197514039Y-127456207D01*
X185526528Y-139443715D01*
X173538993Y-151431225D01*
X225333793Y-101636593D02*
X203783554Y-123186894D01*
X197810055Y-129160418D01*
X174480415Y-152490140D01*
X226361121Y-102609158D02*
X214279426Y-114690912D01*
X196739730Y-132230588D01*
X182900184Y-146070111D01*
X227339347Y-103630826D02*
X199046487Y-131923687D01*
X184900062Y-146070111D01*
X228274955Y-104695424D02*
X212517253Y-120453053D01*
X189298732Y-143671576D01*
X186900199Y-146070111D01*
X229178001Y-105792294D02*
X214235070Y-120735138D01*
X192874860Y-142095328D01*
X188900077Y-146070111D01*
X230036216Y-106934109D02*
X188900336Y-148070126D01*
X230662147Y-148308285D02*
X225705954Y-153264446D01*
X221080177Y-157890194D01*
X230863822Y-108106312D02*
X216782923Y-122187260D01*
X197815830Y-141154324D01*
X180943198Y-158026928D01*
X231646201Y-109324078D02*
X224053863Y-116916435D01*
X203109448Y-137860891D01*
X192637215Y-148333118D01*
X182164954Y-158805340D01*
X232376640Y-110593495D02*
X221813163Y-121156946D01*
X208545922Y-134424237D01*
X195983346Y-146986862D01*
X189702033Y-153268173D01*
X183420692Y-159549481D01*
D27*
X232900581Y-32070000D02*
X232900581Y-111590581D01*
D32*
X232900581Y-144548550D02*
X232900581Y-288070187D01*
D11*
X233071052Y-111899380D02*
X224106869Y-120863492D01*
X211888210Y-133082149D01*
X198900245Y-146070111D01*
X233382789Y-143587430D02*
X227712135Y-149258099D01*
X222061883Y-154908366D01*
X219236785Y-157733500D01*
X216411720Y-160558636D01*
X233729926Y-113240254D02*
X200900123Y-146070111D01*
X234319297Y-114650891D02*
X202900001Y-146070111D01*
X234836829Y-140133618D02*
X227193186Y-147777298D01*
X223355604Y-151614880D01*
X218174132Y-156796352D01*
X212992683Y-161977826D01*
X234872489Y-116097844D02*
X204900138Y-146070111D01*
X235362251Y-117607869D02*
X217230042Y-135740162D01*
X204900138Y-148070126D01*
X235722572Y-137247693D02*
X229560733Y-143409533D01*
X223270739Y-149699586D01*
X217085541Y-155884844D01*
X210900291Y-162070096D01*
X235797233Y-119173016D02*
X224632172Y-130338112D01*
X213323017Y-141647244D01*
X202667112Y-152303127D01*
X192011253Y-162959012D01*
X236175513Y-120794552D02*
X222304260Y-134665839D01*
X193637000Y-163333157D01*
X236282096Y-134688290D02*
X207508506Y-163461865D01*
X236481055Y-122489163D02*
X195338325Y-163632046D01*
X236636207Y-132334042D02*
X220900214Y-148070126D01*
X236709968Y-124260144D02*
X214900062Y-146070111D01*
X236836448Y-130133984D02*
X232066054Y-134904321D01*
X226483090Y-140487221D01*
X223691634Y-143278669D01*
X220900214Y-146070111D01*
X236853126Y-126117215D02*
X229477549Y-133492767D01*
X226221833Y-136748487D01*
X216900199Y-146070111D01*
X236908286Y-128062008D02*
X226592904Y-138377326D01*
X218900077Y-146070111D01*
X264900535Y-104070073D02*
X264900535Y-96070004D01*
X280900520Y-104070073D02*
X280900520Y-96070004D01*
M02*
