%TF.GenerationSoftware,KiCad,Pcbnew,10.0.4*%
%TF.CreationDate,2026-09-10T07:14:40+10:00*%
%TF.ProjectId,VCO,56434f2e-6b69-4636-9164-5f7063625858,rev?*%
%TF.SameCoordinates,Original*%
%TF.FileFunction,Profile,NP*%
%FSLAX46Y46*%
G04 Gerber Fmt 4.6, Leading zero omitted, Abs format (unit mm)*
G04 Created by KiCad (PCBNEW 10.0.4) date 2026-09-10 07:14:40*
%MOMM*%
%LPD*%
G01*
G04 APERTURE LIST*
%TA.AperFunction,Profile*%
%ADD10C,0.000000*%
%TD*%
%TA.AperFunction,Profile*%
%ADD11C,0.100000*%
%TD*%
G04 APERTURE END LIST*
D10*
X178576667Y-156800000D02*
G75*
G02*
X180176667Y-158400000I1J-1599999D01*
G01*
X225776667Y-158400000D02*
G75*
G02*
X224176667Y-160000000I-1600000J0D01*
G01*
X203876667Y-137150000D02*
G75*
G02*
X197576667Y-137150000I-3150000J0D01*
G01*
X197576667Y-137150000D02*
G75*
G02*
X203876667Y-137150000I3150000J0D01*
G01*
X177276667Y-160000000D02*
G75*
G02*
X175676667Y-158400000I-1J1599999D01*
G01*
X205226667Y-81150000D02*
G75*
G02*
X196226667Y-81150000I-4500000J0D01*
G01*
X196226667Y-81150000D02*
G75*
G02*
X205226667Y-81150000I4500000J0D01*
G01*
X221226667Y-57150000D02*
G75*
G02*
X212226667Y-57150000I-4500000J0D01*
G01*
X212226667Y-57150000D02*
G75*
G02*
X221226667Y-57150000I4500000J0D01*
G01*
X225776667Y-35900000D02*
G75*
G02*
X224176667Y-37500000I-1600000J0D01*
G01*
X187876667Y-81150000D02*
G75*
G02*
X181576667Y-81150000I-3150000J0D01*
G01*
X181576667Y-81150000D02*
G75*
G02*
X187876667Y-81150000I3150000J0D01*
G01*
X221276667Y-35900000D02*
G75*
G02*
X222876667Y-34300000I1600000J0D01*
G01*
X224176667Y-156800000D02*
G75*
G02*
X225776667Y-158400000I0J-1600000D01*
G01*
X222876667Y-160000000D02*
G75*
G02*
X221276667Y-158400000I0J1600000D01*
G01*
X205226667Y-57150000D02*
G75*
G02*
X196226667Y-57150000I-4500000J0D01*
G01*
X196226667Y-57150000D02*
G75*
G02*
X205226667Y-57150000I4500000J0D01*
G01*
X222876667Y-37500000D02*
G75*
G02*
X221276667Y-35900000I0J1600000D01*
G01*
X215326667Y-91113000D02*
X218126667Y-91113000D01*
X199326667Y-91113000D02*
X199326667Y-128313000D01*
X175676667Y-158400000D02*
G75*
G02*
X177276667Y-156800000I1599999J1D01*
G01*
X183326667Y-91113000D02*
X183326667Y-128313000D01*
X178576667Y-160000000D02*
X177276667Y-160000000D01*
X219876667Y-137150000D02*
G75*
G02*
X213576667Y-137150000I-3150000J0D01*
G01*
X213576667Y-137150000D02*
G75*
G02*
X219876667Y-137150000I3150000J0D01*
G01*
X170426667Y-32900000D02*
X231026667Y-32900000D01*
X186126667Y-91113000D02*
X186126667Y-128313000D01*
X180176667Y-158400000D02*
G75*
G02*
X178576667Y-160000000I-1599999J-1D01*
G01*
X199326667Y-91113000D02*
X202126667Y-91113000D01*
X224176667Y-34300000D02*
G75*
G02*
X225776667Y-35900000I0J-1600000D01*
G01*
X215326667Y-128313000D02*
X218126667Y-128313000D01*
X170426667Y-161400000D02*
X231026667Y-161400000D01*
X170426667Y-161400000D02*
X170426667Y-32900000D01*
X202126667Y-91113000D02*
X202126667Y-128313000D01*
X183326667Y-128313000D02*
X186126667Y-128313000D01*
X222876667Y-37500000D02*
X224176667Y-37500000D01*
X231026667Y-161400000D02*
X231026667Y-32900000D01*
X215326667Y-91113000D02*
X215326667Y-128313000D01*
X183326667Y-91113000D02*
X186126667Y-91113000D01*
X218126667Y-91113000D02*
X218126667Y-128313000D01*
X222876667Y-34300000D02*
X224176667Y-34300000D01*
X228026667Y-148850000D02*
G75*
G02*
X224826667Y-148850000I-1600000J0D01*
G01*
X224826667Y-148850000D02*
G75*
G02*
X228026667Y-148850000I1600000J0D01*
G01*
X219876667Y-81150000D02*
G75*
G02*
X213576667Y-81150000I-3150000J0D01*
G01*
X213576667Y-81150000D02*
G75*
G02*
X219876667Y-81150000I3150000J0D01*
G01*
X221276667Y-158400000D02*
G75*
G02*
X222876667Y-156800000I1600000J0D01*
G01*
X224176667Y-160000000D02*
X222876667Y-160000000D01*
X224176667Y-156800000D02*
X222876667Y-156800000D01*
X178576667Y-156800000D02*
X177276667Y-156800000D01*
X228026667Y-45450000D02*
G75*
G02*
X224826667Y-45450000I-1600000J0D01*
G01*
X224826667Y-45450000D02*
G75*
G02*
X228026667Y-45450000I1600000J0D01*
G01*
X176626667Y-148850000D02*
G75*
G02*
X173426667Y-148850000I-1600000J0D01*
G01*
X173426667Y-148850000D02*
G75*
G02*
X176626667Y-148850000I1600000J0D01*
G01*
X187876667Y-137150000D02*
G75*
G02*
X181576667Y-137150000I-3150000J0D01*
G01*
X181576667Y-137150000D02*
G75*
G02*
X187876667Y-137150000I3150000J0D01*
G01*
X189226667Y-57150000D02*
G75*
G02*
X180226667Y-57150000I-4500000J0D01*
G01*
X180226667Y-57150000D02*
G75*
G02*
X189226667Y-57150000I4500000J0D01*
G01*
X199326667Y-128313000D02*
X202126667Y-128313000D01*
X176626667Y-45450000D02*
G75*
G02*
X173426667Y-45450000I-1600000J0D01*
G01*
X173426667Y-45450000D02*
G75*
G02*
X176626667Y-45450000I1600000J0D01*
G01*
X286880000Y-34300000D02*
X288180000Y-34300000D01*
X286880000Y-37500000D02*
X288180000Y-37500000D01*
X251880000Y-113150000D02*
G75*
G02*
X245580000Y-113150000I-3150000J0D01*
G01*
X245580000Y-113150000D02*
G75*
G02*
X251880000Y-113150000I3150000J0D01*
G01*
X283880000Y-137150000D02*
G75*
G02*
X277580000Y-137150000I-3150000J0D01*
G01*
X277580000Y-137150000D02*
G75*
G02*
X283880000Y-137150000I3150000J0D01*
G01*
X251880000Y-137150000D02*
G75*
G02*
X245580000Y-137150000I-3150000J0D01*
G01*
X245580000Y-137150000D02*
G75*
G02*
X251880000Y-137150000I3150000J0D01*
G01*
X267880000Y-113150000D02*
G75*
G02*
X261580000Y-113150000I-3150000J0D01*
G01*
X261580000Y-113150000D02*
G75*
G02*
X267880000Y-113150000I3150000J0D01*
G01*
X269230000Y-81150000D02*
G75*
G02*
X260230000Y-81150000I-4500000J0D01*
G01*
X260230000Y-81150000D02*
G75*
G02*
X269230000Y-81150000I4500000J0D01*
G01*
X285230000Y-81150000D02*
G75*
G02*
X276230000Y-81150000I-4500000J0D01*
G01*
X276230000Y-81150000D02*
G75*
G02*
X285230000Y-81150000I4500000J0D01*
G01*
X289780000Y-35900000D02*
G75*
G02*
X288180000Y-37500000I-1600000J0D01*
G01*
X240630000Y-45450000D02*
G75*
G02*
X237430000Y-45450000I-1600000J0D01*
G01*
X237430000Y-45450000D02*
G75*
G02*
X240630000Y-45450000I1600000J0D01*
G01*
X289780000Y-158400000D02*
G75*
G02*
X288180000Y-160000000I-1600000J0D01*
G01*
X253230000Y-57150000D02*
G75*
G02*
X244230000Y-57150000I-4500000J0D01*
G01*
X244230000Y-57150000D02*
G75*
G02*
X253230000Y-57150000I4500000J0D01*
G01*
X292030000Y-45450000D02*
G75*
G02*
X288830000Y-45450000I-1600000J0D01*
G01*
X288830000Y-45450000D02*
G75*
G02*
X292030000Y-45450000I1600000J0D01*
G01*
X242580000Y-160000000D02*
X241280000Y-160000000D01*
X292030000Y-148850000D02*
G75*
G02*
X288830000Y-148850000I-1600000J0D01*
G01*
X288830000Y-148850000D02*
G75*
G02*
X292030000Y-148850000I1600000J0D01*
G01*
X283880000Y-113150000D02*
G75*
G02*
X277580000Y-113150000I-3150000J0D01*
G01*
X277580000Y-113150000D02*
G75*
G02*
X283880000Y-113150000I3150000J0D01*
G01*
X295030000Y-161400000D02*
X295030000Y-32900000D01*
X242580000Y-156800000D02*
X241280000Y-156800000D01*
X288180000Y-156800000D02*
G75*
G02*
X289780000Y-158400000I0J-1600000D01*
G01*
X285280000Y-158400000D02*
G75*
G02*
X286880000Y-156800000I1600000J0D01*
G01*
X234430000Y-32900000D02*
X295030000Y-32900000D01*
X281230000Y-53150000D02*
G75*
G02*
X272230000Y-53150000I-4500000J0D01*
G01*
X272230000Y-53150000D02*
G75*
G02*
X281230000Y-53150000I4500000J0D01*
G01*
X286880000Y-160000000D02*
G75*
G02*
X285280000Y-158400000I0J1600000D01*
G01*
X234430000Y-161400000D02*
X234430000Y-32900000D01*
X241280000Y-160000000D02*
G75*
G02*
X239680000Y-158400000I-1J1599999D01*
G01*
X240630000Y-148850000D02*
G75*
G02*
X237430000Y-148850000I-1600000J0D01*
G01*
X237430000Y-148850000D02*
G75*
G02*
X240630000Y-148850000I1600000J0D01*
G01*
X239680000Y-158400000D02*
G75*
G02*
X241280000Y-156800000I1599999J1D01*
G01*
X234430000Y-161400000D02*
X295030000Y-161400000D01*
X242580000Y-156800000D02*
G75*
G02*
X244180000Y-158400000I1J-1599999D01*
G01*
X244180000Y-158400000D02*
G75*
G02*
X242580000Y-160000000I-1599999J-1D01*
G01*
X288180000Y-34300000D02*
G75*
G02*
X289780000Y-35900000I0J-1600000D01*
G01*
X286880000Y-37500000D02*
G75*
G02*
X285280000Y-35900000I0J1600000D01*
G01*
X285280000Y-35900000D02*
G75*
G02*
X286880000Y-34300000I1600000J0D01*
G01*
X288180000Y-160000000D02*
X286880000Y-160000000D01*
X288180000Y-156800000D02*
X286880000Y-156800000D01*
D11*
X114573333Y-160000000D02*
X113273333Y-160000000D01*
X161773333Y-35900000D02*
G75*
G02*
X160173333Y-37500000I-1600000J0D01*
G01*
X158873333Y-34300000D02*
X160173333Y-34300000D01*
X114573333Y-156800000D02*
G75*
G02*
X116173333Y-158400000I0J-1600000D01*
G01*
X158873333Y-37500000D02*
X160173333Y-37500000D01*
X157223333Y-81150000D02*
G75*
G02*
X148223333Y-81150000I-4500000J0D01*
G01*
X148223333Y-81150000D02*
G75*
G02*
X157223333Y-81150000I4500000J0D01*
G01*
X106423333Y-161400000D02*
X167023333Y-161400000D01*
X160173333Y-156800000D02*
X158873333Y-156800000D01*
X155873333Y-113150000D02*
G75*
G02*
X149573333Y-113150000I-3150000J0D01*
G01*
X149573333Y-113150000D02*
G75*
G02*
X155873333Y-113150000I3150000J0D01*
G01*
X139873333Y-113150000D02*
G75*
G02*
X133573333Y-113150000I-3150000J0D01*
G01*
X133573333Y-113150000D02*
G75*
G02*
X139873333Y-113150000I3150000J0D01*
G01*
X160173333Y-156800000D02*
G75*
G02*
X161773333Y-158400000I0J-1600000D01*
G01*
X164023333Y-148850000D02*
G75*
G02*
X160823333Y-148850000I-1600000J0D01*
G01*
X160823333Y-148850000D02*
G75*
G02*
X164023333Y-148850000I1600000J0D01*
G01*
X161773333Y-158400000D02*
G75*
G02*
X160173333Y-160000000I-1600000J0D01*
G01*
X157273333Y-35900000D02*
G75*
G02*
X158873333Y-34300000I1600000J0D01*
G01*
X125223333Y-81150000D02*
G75*
G02*
X116223333Y-81150000I-4500000J0D01*
G01*
X116223333Y-81150000D02*
G75*
G02*
X125223333Y-81150000I4500000J0D01*
G01*
X114573333Y-156800000D02*
X113273333Y-156800000D01*
X158873333Y-160000000D02*
G75*
G02*
X157273333Y-158400000I0J1600000D01*
G01*
X111673333Y-158400000D02*
G75*
G02*
X113273333Y-156800000I1600000J0D01*
G01*
X164023333Y-45450000D02*
G75*
G02*
X160823333Y-45450000I-1600000J0D01*
G01*
X160823333Y-45450000D02*
G75*
G02*
X164023333Y-45450000I1600000J0D01*
G01*
X160173333Y-34300000D02*
G75*
G02*
X161773333Y-35900000I0J-1600000D01*
G01*
X116173333Y-158400000D02*
G75*
G02*
X114573333Y-160000000I-1600000J0D01*
G01*
X141223333Y-81150000D02*
G75*
G02*
X132223333Y-81150000I-4500000J0D01*
G01*
X132223333Y-81150000D02*
G75*
G02*
X141223333Y-81150000I4500000J0D01*
G01*
X113273333Y-160000000D02*
G75*
G02*
X111673333Y-158400000I0J1600000D01*
G01*
X157273333Y-158400000D02*
G75*
G02*
X158873333Y-156800000I1600000J0D01*
G01*
X158873333Y-37500000D02*
G75*
G02*
X157273333Y-35900000I0J1600000D01*
G01*
X167023333Y-161400000D02*
X167023333Y-32900000D01*
X106423333Y-161400000D02*
X106423333Y-32900000D01*
X112623333Y-45450000D02*
G75*
G02*
X109423333Y-45450000I-1600000J0D01*
G01*
X109423333Y-45450000D02*
G75*
G02*
X112623333Y-45450000I1600000J0D01*
G01*
X139873333Y-137150000D02*
G75*
G02*
X133573333Y-137150000I-3150000J0D01*
G01*
X133573333Y-137150000D02*
G75*
G02*
X139873333Y-137150000I3150000J0D01*
G01*
X123873333Y-137150000D02*
G75*
G02*
X117573333Y-137150000I-3150000J0D01*
G01*
X117573333Y-137150000D02*
G75*
G02*
X123873333Y-137150000I3150000J0D01*
G01*
X160173333Y-160000000D02*
X158873333Y-160000000D01*
X155873333Y-137150000D02*
G75*
G02*
X149573333Y-137150000I-3150000J0D01*
G01*
X149573333Y-137150000D02*
G75*
G02*
X155873333Y-137150000I3150000J0D01*
G01*
X129473333Y-53150000D02*
G75*
G02*
X119973333Y-53150000I-4750000J0D01*
G01*
X119973333Y-53150000D02*
G75*
G02*
X129473333Y-53150000I4750000J0D01*
G01*
X106423333Y-32900000D02*
X167023333Y-32900000D01*
X112623333Y-148850000D02*
G75*
G02*
X109423333Y-148850000I-1600000J0D01*
G01*
X109423333Y-148850000D02*
G75*
G02*
X112623333Y-148850000I1600000J0D01*
G01*
X123873333Y-113150000D02*
G75*
G02*
X117573333Y-113150000I-3150000J0D01*
G01*
X117573333Y-113150000D02*
G75*
G02*
X123873333Y-113150000I3150000J0D01*
G01*
X42420000Y-32900000D02*
X103020000Y-32900000D01*
X42420000Y-161400000D02*
X42420000Y-32900000D01*
X42420000Y-161400000D02*
X103020000Y-161400000D01*
X48620000Y-45450000D02*
G75*
G02*
X45420000Y-45450000I-1600000J0D01*
G01*
X45420000Y-45450000D02*
G75*
G02*
X48620000Y-45450000I1600000J0D01*
G01*
X48620000Y-148850000D02*
G75*
G02*
X45420000Y-148850000I-1600000J0D01*
G01*
X45420000Y-148850000D02*
G75*
G02*
X48620000Y-148850000I1600000J0D01*
G01*
X47670000Y-158400000D02*
G75*
G02*
X49270000Y-156800000I1600000J0D01*
G01*
X49270000Y-160000000D02*
G75*
G02*
X47670000Y-158400000I0J1600000D01*
G01*
X50570000Y-156800000D02*
X49270000Y-156800000D01*
X50570000Y-156800000D02*
G75*
G02*
X52170000Y-158400000I0J-1600000D01*
G01*
X50570000Y-160000000D02*
X49270000Y-160000000D01*
X52170000Y-158400000D02*
G75*
G02*
X50570000Y-160000000I-1600000J0D01*
G01*
X61220000Y-81150000D02*
G75*
G02*
X52220000Y-81150000I-4500000J0D01*
G01*
X52220000Y-81150000D02*
G75*
G02*
X61220000Y-81150000I4500000J0D01*
G01*
X59870000Y-113150000D02*
G75*
G02*
X53570000Y-113150000I-3150000J0D01*
G01*
X53570000Y-113150000D02*
G75*
G02*
X59870000Y-113150000I3150000J0D01*
G01*
X59870000Y-137150000D02*
G75*
G02*
X53570000Y-137150000I-3150000J0D01*
G01*
X53570000Y-137150000D02*
G75*
G02*
X59870000Y-137150000I3150000J0D01*
G01*
X65470000Y-53150000D02*
G75*
G02*
X55970000Y-53150000I-4750000J0D01*
G01*
X55970000Y-53150000D02*
G75*
G02*
X65470000Y-53150000I4750000J0D01*
G01*
X77220000Y-81150000D02*
G75*
G02*
X68220000Y-81150000I-4500000J0D01*
G01*
X68220000Y-81150000D02*
G75*
G02*
X77220000Y-81150000I4500000J0D01*
G01*
X75870000Y-113150000D02*
G75*
G02*
X69570000Y-113150000I-3150000J0D01*
G01*
X69570000Y-113150000D02*
G75*
G02*
X75870000Y-113150000I3150000J0D01*
G01*
X75870000Y-137150000D02*
G75*
G02*
X69570000Y-137150000I-3150000J0D01*
G01*
X69570000Y-137150000D02*
G75*
G02*
X75870000Y-137150000I3150000J0D01*
G01*
X93220000Y-81150000D02*
G75*
G02*
X84220000Y-81150000I-4500000J0D01*
G01*
X84220000Y-81150000D02*
G75*
G02*
X93220000Y-81150000I4500000J0D01*
G01*
X91870000Y-113150000D02*
G75*
G02*
X85570000Y-113150000I-3150000J0D01*
G01*
X85570000Y-113150000D02*
G75*
G02*
X91870000Y-113150000I3150000J0D01*
G01*
X91870000Y-137150000D02*
G75*
G02*
X85570000Y-137150000I-3150000J0D01*
G01*
X85570000Y-137150000D02*
G75*
G02*
X91870000Y-137150000I3150000J0D01*
G01*
X93270000Y-35900000D02*
G75*
G02*
X94870000Y-34300000I1600000J0D01*
G01*
X93270000Y-158400000D02*
G75*
G02*
X94870000Y-156800000I1600000J0D01*
G01*
X94870000Y-34300000D02*
X96170000Y-34300000D01*
X94870000Y-37500000D02*
G75*
G02*
X93270000Y-35900000I0J1600000D01*
G01*
X94870000Y-37500000D02*
X96170000Y-37500000D01*
X94870000Y-160000000D02*
G75*
G02*
X93270000Y-158400000I0J1600000D01*
G01*
X96170000Y-34300000D02*
G75*
G02*
X97770000Y-35900000I0J-1600000D01*
G01*
X96170000Y-156800000D02*
X94870000Y-156800000D01*
X96170000Y-156800000D02*
G75*
G02*
X97770000Y-158400000I0J-1600000D01*
G01*
X96170000Y-160000000D02*
X94870000Y-160000000D01*
X97770000Y-35900000D02*
G75*
G02*
X96170000Y-37500000I-1600000J0D01*
G01*
X97770000Y-158400000D02*
G75*
G02*
X96170000Y-160000000I-1600000J0D01*
G01*
X100020000Y-45450000D02*
G75*
G02*
X96820000Y-45450000I-1600000J0D01*
G01*
X96820000Y-45450000D02*
G75*
G02*
X100020000Y-45450000I1600000J0D01*
G01*
X100020000Y-148850000D02*
G75*
G02*
X96820000Y-148850000I-1600000J0D01*
G01*
X96820000Y-148850000D02*
G75*
G02*
X100020000Y-148850000I1600000J0D01*
G01*
X103020000Y-161400000D02*
X103020000Y-32900000D01*
M02*
