%TF.GenerationSoftware,KiCad,Pcbnew,10.0.4*%
%TF.CreationDate,2026-09-10T07:14:40+10:00*%
%TF.ProjectId,VCO,56434f2e-6b69-4636-9164-5f7063625858,rev?*%
%TF.SameCoordinates,Original*%
%TF.FileFunction,Copper,L1,Top*%
%TF.FilePolarity,Positive*%
%FSLAX46Y46*%
G04 Gerber Fmt 4.6, Leading zero omitted, Abs format (unit mm)*
G04 Created by KiCad (PCBNEW 10.0.4) date 2026-09-10 07:14:40*
%MOMM*%
%LPD*%
G01*
G04 APERTURE LIST*
%TA.AperFunction,NonConductor*%
%ADD10C,0.000000*%
%TD*%
%TA.AperFunction,NonConductor*%
%ADD11C,0.247226*%
%TD*%
%TA.AperFunction,NonConductor*%
%ADD12C,0.247265*%
%TD*%
%TA.AperFunction,NonConductor*%
%ADD13C,0.246294*%
%TD*%
%TA.AperFunction,NonConductor*%
%ADD14C,0.246424*%
%TD*%
%TA.AperFunction,NonConductor*%
%ADD15C,0.246297*%
%TD*%
%TA.AperFunction,NonConductor*%
%ADD16C,0.246814*%
%TD*%
%TA.AperFunction,NonConductor*%
%ADD17C,0.205740*%
%TD*%
%TA.AperFunction,NonConductor*%
%ADD18C,0.245483*%
%TD*%
%TA.AperFunction,NonConductor*%
%ADD19C,0.245918*%
%TD*%
%TA.AperFunction,NonConductor*%
%ADD20C,0.245147*%
%TD*%
%ADD21C,0.247226*%
%TA.AperFunction,NonConductor*%
%ADD22C,0.211666*%
%TD*%
%TA.AperFunction,NonConductor*%
%ADD23C,0.246551*%
%TD*%
%ADD24C,0.246184*%
%TA.AperFunction,NonConductor*%
%ADD25C,0.246640*%
%TD*%
%TA.AperFunction,NonConductor*%
%ADD26C,0.244475*%
%TD*%
%TA.AperFunction,NonConductor*%
%ADD27C,0.234315*%
%TD*%
%TA.AperFunction,NonConductor*%
%ADD28C,0.218603*%
%TD*%
%TA.AperFunction,NonConductor*%
%ADD29C,0.182263*%
%TD*%
%TA.AperFunction,NonConductor*%
%ADD30C,0.233131*%
%TD*%
%TA.AperFunction,NonConductor*%
%ADD31C,0.247116*%
%TD*%
%TA.AperFunction,NonConductor*%
%ADD32C,0.245492*%
%TD*%
%TA.AperFunction,NonConductor*%
%ADD33C,0.237840*%
%TD*%
G04 APERTURE END LIST*
D10*
%TA.AperFunction,NonConductor*%
G36*
X42899924Y-2069862D02*
G01*
X40899927Y-2069862D01*
X40899927Y-69864D01*
X42899924Y-69864D01*
X42899924Y-2069862D01*
G37*
%TD.AperFunction*%
%TA.AperFunction,NonConductor*%
G36*
X42899924Y-320070137D02*
G01*
X40899927Y-320070137D01*
X40899927Y-318070137D01*
X42899924Y-318070137D01*
X42899924Y-320070137D01*
G37*
%TD.AperFunction*%
D11*
X67488080Y-293025093D02*
X67311734Y-293025093D01*
X67311734Y-291697914D01*
X67488080Y-291697914D01*
X67488080Y-293025093D01*
%TA.AperFunction,NonConductor*%
G36*
X67488080Y-293025093D02*
G01*
X67311734Y-293025093D01*
X67311734Y-291697914D01*
X67488080Y-291697914D01*
X67488080Y-293025093D01*
G37*
%TD.AperFunction*%
X68063077Y-292449745D02*
X66735896Y-292449745D01*
X66735896Y-292273354D01*
X68063077Y-292273354D01*
X68063077Y-292449745D01*
%TA.AperFunction,NonConductor*%
G36*
X68063077Y-292449745D02*
G01*
X66735896Y-292449745D01*
X66735896Y-292273354D01*
X68063077Y-292273354D01*
X68063077Y-292449745D01*
G37*
%TD.AperFunction*%
X79423886Y-292449745D02*
X78096707Y-292449745D01*
X78096707Y-292273354D01*
X79423886Y-292273354D01*
X79423886Y-292449745D01*
%TA.AperFunction,NonConductor*%
G36*
X79423886Y-292449745D02*
G01*
X78096707Y-292449745D01*
X78096707Y-292273354D01*
X79423886Y-292273354D01*
X79423886Y-292449745D01*
G37*
%TD.AperFunction*%
D10*
%TA.AperFunction,NonConductor*%
G36*
X216192887Y-277361794D02*
G01*
X215296281Y-277361794D01*
X215296281Y-276034157D01*
X216192887Y-276034157D01*
X216192887Y-277361794D01*
G37*
%TD.AperFunction*%
%TA.AperFunction,NonConductor*%
G36*
X218503602Y-277361794D02*
G01*
X217606995Y-277361794D01*
X217606995Y-276034157D01*
X218503602Y-276034157D01*
X218503602Y-277361794D01*
G37*
%TD.AperFunction*%
%TA.AperFunction,NonConductor*%
G36*
X296900086Y-2069862D02*
G01*
X294900101Y-2069862D01*
X294900101Y-69864D01*
X296900086Y-69864D01*
X296900086Y-2069862D01*
G37*
%TD.AperFunction*%
%TA.AperFunction,NonConductor*%
G36*
X296900086Y-320070137D02*
G01*
X294900101Y-320070137D01*
X294900101Y-318070137D01*
X296900086Y-318070137D01*
X296900086Y-320070137D01*
G37*
%TD.AperFunction*%
D11*
X72942103Y-291541756D02*
X72983788Y-291544926D01*
X73024867Y-291550145D01*
X73065289Y-291557364D01*
X73105001Y-291566529D01*
X73143952Y-291577590D01*
X73182091Y-291590495D01*
X73219366Y-291605192D01*
X73255725Y-291621630D01*
X73291117Y-291639757D01*
X73325490Y-291659522D01*
X73358793Y-291680873D01*
X73390975Y-291703758D01*
X73421983Y-291728126D01*
X73451765Y-291753926D01*
X73480272Y-291781105D01*
X73507450Y-291809613D01*
X73533248Y-291839397D01*
X73557616Y-291870406D01*
X73580500Y-291902589D01*
X73601850Y-291935894D01*
X73621614Y-291970269D01*
X73639741Y-292005663D01*
X73656178Y-292042025D01*
X73670875Y-292079302D01*
X73683779Y-292117443D01*
X73694840Y-292156397D01*
X73704005Y-292196112D01*
X73711223Y-292236536D01*
X73716443Y-292277618D01*
X73719613Y-292319306D01*
X73720681Y-292361550D01*
X73719613Y-292403787D01*
X73716443Y-292445471D01*
X73711223Y-292486548D01*
X73704005Y-292526969D01*
X73694840Y-292566680D01*
X73683779Y-292605631D01*
X73670875Y-292643769D01*
X73656178Y-292681044D01*
X73639741Y-292717403D01*
X73621614Y-292752796D01*
X73601850Y-292787170D01*
X73580500Y-292820473D01*
X73557616Y-292852655D01*
X73533248Y-292883664D01*
X73507450Y-292913448D01*
X73480272Y-292941956D01*
X73451765Y-292969135D01*
X73421983Y-292994935D01*
X73390975Y-293019304D01*
X73358793Y-293042189D01*
X73325490Y-293063541D01*
X73291117Y-293083306D01*
X73255725Y-293101434D01*
X73219366Y-293117872D01*
X73182091Y-293132570D01*
X73143952Y-293145476D01*
X73105001Y-293156537D01*
X73065289Y-293165703D01*
X73024867Y-293172922D01*
X72983788Y-293178143D01*
X72942103Y-293181313D01*
X72899863Y-293182381D01*
X72857617Y-293181313D01*
X72815927Y-293178143D01*
X72774843Y-293172922D01*
X72734417Y-293165703D01*
X72694700Y-293156537D01*
X72655745Y-293145476D01*
X72617602Y-293132570D01*
X72580324Y-293117872D01*
X72543962Y-293101434D01*
X72508567Y-293083306D01*
X72474191Y-293063541D01*
X72440885Y-293042189D01*
X72408702Y-293019304D01*
X72377692Y-292994935D01*
X72347908Y-292969135D01*
X72319400Y-292941956D01*
X72292221Y-292913448D01*
X72266421Y-292883664D01*
X72242053Y-292852655D01*
X72219167Y-292820473D01*
X72197817Y-292787170D01*
X72178052Y-292752796D01*
X72159925Y-292717403D01*
X72143488Y-292681044D01*
X72128791Y-292643769D01*
X72115886Y-292605631D01*
X72104825Y-292566680D01*
X72095660Y-292526969D01*
X72088441Y-292486548D01*
X72083222Y-292445471D01*
X72080052Y-292403787D01*
X72078984Y-292361550D01*
X72080052Y-292319306D01*
X72083222Y-292277618D01*
X72088441Y-292236536D01*
X72095660Y-292196112D01*
X72104825Y-292156397D01*
X72115886Y-292117443D01*
X72128791Y-292079302D01*
X72143488Y-292042025D01*
X72159925Y-292005663D01*
X72178052Y-291970269D01*
X72197817Y-291935894D01*
X72219167Y-291902589D01*
X72242053Y-291870406D01*
X72266421Y-291839397D01*
X72292221Y-291809613D01*
X72319400Y-291781105D01*
X72347908Y-291753926D01*
X72377692Y-291728126D01*
X72408702Y-291703758D01*
X72440885Y-291680873D01*
X72474191Y-291659522D01*
X72508567Y-291639757D01*
X72543962Y-291621630D01*
X72580324Y-291605192D01*
X72617602Y-291590495D01*
X72655745Y-291577590D01*
X72694700Y-291566529D01*
X72734417Y-291557364D01*
X72774843Y-291550145D01*
X72815927Y-291544926D01*
X72857617Y-291541756D01*
X72899863Y-291540688D01*
X72942103Y-291541756D01*
D12*
X265156971Y-299084445D02*
X265410499Y-299103724D01*
X265660340Y-299135471D01*
X265906182Y-299179373D01*
X266147710Y-299235117D01*
X266384611Y-299302389D01*
X266616571Y-299380874D01*
X266843276Y-299470261D01*
X267064413Y-299570234D01*
X267279669Y-299680480D01*
X267488728Y-299800686D01*
X267691279Y-299930538D01*
X267887007Y-300069722D01*
X268075598Y-300217925D01*
X268256738Y-300374832D01*
X268430115Y-300540131D01*
X268595415Y-300713507D01*
X268752323Y-300894647D01*
X268900526Y-301083237D01*
X269039711Y-301278964D01*
X269169563Y-301481514D01*
X269289770Y-301690573D01*
X269400017Y-301905828D01*
X269499991Y-302126965D01*
X269589377Y-302353670D01*
X269667864Y-302585629D01*
X269735136Y-302822530D01*
X269790880Y-303064057D01*
X269834783Y-303309899D01*
X269866530Y-303559740D01*
X269885808Y-303813267D01*
X269892304Y-304070168D01*
X269885808Y-304327071D01*
X269866530Y-304580601D01*
X269834783Y-304830445D01*
X269790880Y-305076290D01*
X269735136Y-305317820D01*
X269667864Y-305554723D01*
X269589377Y-305786685D01*
X269499991Y-306013393D01*
X269400017Y-306234532D01*
X269289770Y-306449790D01*
X269169563Y-306658851D01*
X269039711Y-306861404D01*
X268900526Y-307057133D01*
X268752323Y-307245726D01*
X268595415Y-307426868D01*
X268430115Y-307600247D01*
X268256738Y-307765547D01*
X268075598Y-307922457D01*
X267887007Y-308070661D01*
X267691279Y-308209847D01*
X267488728Y-308339701D01*
X267279669Y-308459908D01*
X267064413Y-308570156D01*
X266843276Y-308670130D01*
X266616571Y-308759518D01*
X266384611Y-308838005D01*
X266147710Y-308905277D01*
X265906182Y-308961022D01*
X265660340Y-309004925D01*
X265410499Y-309036672D01*
X265156971Y-309055951D01*
X264900071Y-309062447D01*
X264643172Y-309055951D01*
X264389645Y-309036672D01*
X264139805Y-309004925D01*
X263893964Y-308961022D01*
X263652437Y-308905277D01*
X263415537Y-308838005D01*
X263183577Y-308759518D01*
X262956872Y-308670130D01*
X262735735Y-308570156D01*
X262520480Y-308459908D01*
X262311420Y-308339701D01*
X262108869Y-308209847D01*
X261913142Y-308070661D01*
X261724550Y-307922457D01*
X261543409Y-307765547D01*
X261370032Y-307600247D01*
X261204732Y-307426868D01*
X261047824Y-307245726D01*
X260899620Y-307057133D01*
X260760435Y-306861404D01*
X260630582Y-306658851D01*
X260510375Y-306449790D01*
X260400127Y-306234532D01*
X260300153Y-306013393D01*
X260210766Y-305786685D01*
X260132279Y-305554723D01*
X260065007Y-305317820D01*
X260009262Y-305076290D01*
X259965360Y-304830445D01*
X259933612Y-304580601D01*
X259914333Y-304327071D01*
X259907838Y-304070168D01*
X259914333Y-303813267D01*
X259933612Y-303559740D01*
X259965360Y-303309899D01*
X260009262Y-303064057D01*
X260065007Y-302822530D01*
X260132279Y-302585629D01*
X260210766Y-302353670D01*
X260300153Y-302126965D01*
X260400127Y-301905828D01*
X260510375Y-301690573D01*
X260630582Y-301481514D01*
X260760435Y-301278964D01*
X260899620Y-301083237D01*
X261047824Y-300894647D01*
X261204732Y-300713507D01*
X261370032Y-300540131D01*
X261543409Y-300374832D01*
X261724550Y-300217925D01*
X261913142Y-300069722D01*
X262108869Y-299930538D01*
X262311420Y-299800686D01*
X262520480Y-299680480D01*
X262735735Y-299570234D01*
X262956872Y-299470261D01*
X263183577Y-299380874D01*
X263415537Y-299302389D01*
X263652437Y-299235117D01*
X263893964Y-299179373D01*
X264139805Y-299135471D01*
X264389645Y-299103724D01*
X264643172Y-299084445D01*
X264900071Y-299077950D01*
X265156971Y-299084445D01*
D11*
X73311625Y-232080485D02*
X73717896Y-232111378D01*
X74118262Y-232162252D01*
X74512217Y-232232605D01*
X74899261Y-232321933D01*
X75278890Y-232429734D01*
X75650602Y-232555506D01*
X76013893Y-232698745D01*
X76368262Y-232858950D01*
X76713206Y-233035618D01*
X77048221Y-233228246D01*
X77372806Y-233436331D01*
X77686457Y-233659371D01*
X77988673Y-233896863D01*
X78278949Y-234148304D01*
X78556784Y-234413193D01*
X78821675Y-234691026D01*
X79073120Y-234981301D01*
X79310615Y-235283514D01*
X79533657Y-235597165D01*
X79741746Y-235921749D01*
X79934376Y-236256764D01*
X80111047Y-236601708D01*
X80271255Y-236956078D01*
X80414497Y-237319372D01*
X80540271Y-237691086D01*
X80648075Y-238070718D01*
X80737405Y-238457766D01*
X80807759Y-238851727D01*
X80858634Y-239252098D01*
X80889528Y-239658377D01*
X80899937Y-240070061D01*
X80899937Y-264070137D01*
X80889528Y-264481813D01*
X80858634Y-264888085D01*
X80807759Y-265288450D01*
X80737405Y-265682405D01*
X80648075Y-266069448D01*
X80540271Y-266449077D01*
X80414497Y-266820788D01*
X80271255Y-267184079D01*
X80111047Y-267538447D01*
X79934376Y-267883390D01*
X79741746Y-268218404D01*
X79533657Y-268542988D01*
X79310615Y-268856639D01*
X79073120Y-269158853D01*
X78821675Y-269449129D01*
X78556784Y-269726963D01*
X78278949Y-269991853D01*
X77988673Y-270243297D01*
X77686457Y-270480791D01*
X77372806Y-270703833D01*
X77048221Y-270911920D01*
X76713206Y-271104550D01*
X76368262Y-271281220D01*
X76013893Y-271441427D01*
X75650602Y-271584669D01*
X75278890Y-271710442D01*
X74899261Y-271818245D01*
X74512217Y-271907575D01*
X74118262Y-271977929D01*
X73717896Y-272028804D01*
X73311625Y-272059697D01*
X72899949Y-272070107D01*
X72488265Y-272059697D01*
X72081986Y-272028804D01*
X71681615Y-271977929D01*
X71287654Y-271907575D01*
X70900607Y-271818245D01*
X70520974Y-271710442D01*
X70149260Y-271584669D01*
X69785966Y-271441427D01*
X69431596Y-271281220D01*
X69086652Y-271104550D01*
X68751636Y-270911920D01*
X68427052Y-270703833D01*
X68113402Y-270480791D01*
X67811188Y-270243297D01*
X67520913Y-269991853D01*
X67243080Y-269726963D01*
X66978191Y-269449129D01*
X66726749Y-269158853D01*
X66489257Y-268856639D01*
X66266216Y-268542988D01*
X66058131Y-268218404D01*
X65865503Y-267883390D01*
X65688835Y-267538447D01*
X65528630Y-267184079D01*
X65385391Y-266820788D01*
X65259619Y-266449077D01*
X65151817Y-266069448D01*
X65062489Y-265682405D01*
X64992137Y-265288450D01*
X64941263Y-264888085D01*
X64910370Y-264481813D01*
X64899960Y-264070137D01*
X64899960Y-240070061D01*
X64910370Y-239658377D01*
X64941263Y-239252098D01*
X64992137Y-238851727D01*
X65062489Y-238457766D01*
X65151817Y-238070718D01*
X65259619Y-237691086D01*
X65385391Y-237319372D01*
X65528630Y-236956078D01*
X65688835Y-236601708D01*
X65865503Y-236256764D01*
X66058131Y-235921749D01*
X66266216Y-235597165D01*
X66489257Y-235283514D01*
X66726749Y-234981301D01*
X66978191Y-234691026D01*
X67243080Y-234413193D01*
X67520913Y-234148304D01*
X67811188Y-233896863D01*
X68113402Y-233659371D01*
X68427052Y-233436331D01*
X68751636Y-233228246D01*
X69086652Y-233035618D01*
X69431596Y-232858950D01*
X69785966Y-232698745D01*
X70149260Y-232555506D01*
X70520974Y-232429734D01*
X70900607Y-232321933D01*
X71287654Y-232232605D01*
X71681615Y-232162252D01*
X72081986Y-232111378D01*
X72488265Y-232080485D01*
X72899949Y-232070076D01*
X73311625Y-232080485D01*
D13*
X74534329Y-145581375D02*
X74660873Y-145590997D01*
X74785577Y-145606843D01*
X74908284Y-145628756D01*
X75028838Y-145656579D01*
X75147083Y-145690156D01*
X75262862Y-145729330D01*
X75376017Y-145773945D01*
X75486394Y-145823844D01*
X75593834Y-145878870D01*
X75698182Y-145938868D01*
X75799281Y-146003679D01*
X75896975Y-146073149D01*
X75991106Y-146147120D01*
X76081519Y-146225436D01*
X76168057Y-146307940D01*
X76250562Y-146394475D01*
X76328880Y-146484886D01*
X76402853Y-146579014D01*
X76472324Y-146676705D01*
X76537137Y-146777801D01*
X76597135Y-146882146D01*
X76652163Y-146989583D01*
X76702063Y-147099956D01*
X76746678Y-147213108D01*
X76785853Y-147328882D01*
X76819430Y-147447122D01*
X76847254Y-147567672D01*
X76869167Y-147690374D01*
X76885013Y-147815072D01*
X76894635Y-147941611D01*
X76897877Y-148069832D01*
X76897877Y-148070198D01*
X76894635Y-148198418D01*
X76885013Y-148324955D01*
X76869167Y-148449653D01*
X76847254Y-148572354D01*
X76819430Y-148692903D01*
X76785853Y-148811143D01*
X76746678Y-148926916D01*
X76702063Y-149040068D01*
X76652163Y-149150440D01*
X76597135Y-149257877D01*
X76537137Y-149362222D01*
X76472324Y-149463318D01*
X76402853Y-149561009D01*
X76328880Y-149655138D01*
X76250562Y-149745549D01*
X76168057Y-149832085D01*
X76081519Y-149914589D01*
X75991106Y-149992905D01*
X75896975Y-150066877D01*
X75799281Y-150136347D01*
X75698182Y-150201159D01*
X75593834Y-150261157D01*
X75486394Y-150316184D01*
X75376017Y-150366083D01*
X75262862Y-150410699D01*
X75147083Y-150449873D01*
X75028838Y-150483450D01*
X74908284Y-150511274D01*
X74785577Y-150533187D01*
X74660873Y-150549033D01*
X74534329Y-150558655D01*
X74406102Y-150561897D01*
X71389619Y-150561897D01*
X71261394Y-150558655D01*
X71134853Y-150549033D01*
X71010151Y-150533187D01*
X70887445Y-150511274D01*
X70766891Y-150483450D01*
X70648647Y-150449873D01*
X70532869Y-150410699D01*
X70419713Y-150366083D01*
X70309336Y-150316184D01*
X70201894Y-150261157D01*
X70097545Y-150201159D01*
X69996445Y-150136347D01*
X69898749Y-150066877D01*
X69804616Y-149992905D01*
X69714201Y-149914589D01*
X69627661Y-149832085D01*
X69545153Y-149745549D01*
X69466833Y-149655138D01*
X69392859Y-149561009D01*
X69323385Y-149463318D01*
X69258569Y-149362222D01*
X69198569Y-149257877D01*
X69143539Y-149150440D01*
X69093637Y-149040068D01*
X69049019Y-148926916D01*
X69009843Y-148811143D01*
X68976264Y-148692903D01*
X68948439Y-148572354D01*
X68926525Y-148449653D01*
X68910678Y-148324955D01*
X68901055Y-148198418D01*
X68897813Y-148070198D01*
X68897813Y-148069832D01*
X68901055Y-147941611D01*
X68910678Y-147815072D01*
X68926525Y-147690374D01*
X68948439Y-147567672D01*
X68976264Y-147447122D01*
X69009843Y-147328882D01*
X69049019Y-147213108D01*
X69093637Y-147099956D01*
X69143539Y-146989583D01*
X69198569Y-146882146D01*
X69258569Y-146777801D01*
X69323385Y-146676705D01*
X69392859Y-146579014D01*
X69466833Y-146484886D01*
X69545153Y-146394475D01*
X69627661Y-146307940D01*
X69714201Y-146225436D01*
X69804616Y-146147120D01*
X69898749Y-146073149D01*
X69996445Y-146003679D01*
X70097545Y-145938868D01*
X70201894Y-145878870D01*
X70309336Y-145823844D01*
X70419713Y-145773945D01*
X70532869Y-145729330D01*
X70648647Y-145690156D01*
X70766891Y-145656579D01*
X70887445Y-145628756D01*
X71010151Y-145606843D01*
X71134853Y-145590997D01*
X71261394Y-145581375D01*
X71389619Y-145578133D01*
X74406102Y-145578133D01*
X74534329Y-145581375D01*
X90536526Y-145581375D02*
X90663070Y-145590997D01*
X90787774Y-145606843D01*
X90910481Y-145628756D01*
X91031036Y-145656579D01*
X91149280Y-145690156D01*
X91265059Y-145729330D01*
X91378214Y-145773945D01*
X91488591Y-145823844D01*
X91596031Y-145878870D01*
X91700379Y-145938868D01*
X91801479Y-146003679D01*
X91899172Y-146073149D01*
X91993304Y-146147120D01*
X92083716Y-146225436D01*
X92170254Y-146307940D01*
X92252760Y-146394475D01*
X92331077Y-146484886D01*
X92405050Y-146579014D01*
X92474521Y-146676705D01*
X92539334Y-146777801D01*
X92599333Y-146882146D01*
X92654360Y-146989583D01*
X92704260Y-147099956D01*
X92748875Y-147213108D01*
X92788050Y-147328882D01*
X92821628Y-147447122D01*
X92849451Y-147567672D01*
X92871364Y-147690374D01*
X92887210Y-147815072D01*
X92896832Y-147941611D01*
X92900075Y-148069832D01*
X92900075Y-148070198D01*
X92896832Y-148198418D01*
X92887210Y-148324955D01*
X92871364Y-148449653D01*
X92849451Y-148572354D01*
X92821628Y-148692903D01*
X92788050Y-148811143D01*
X92748875Y-148926916D01*
X92704260Y-149040068D01*
X92654360Y-149150440D01*
X92599333Y-149257877D01*
X92539334Y-149362222D01*
X92474521Y-149463318D01*
X92405050Y-149561009D01*
X92331077Y-149655138D01*
X92252760Y-149745549D01*
X92170254Y-149832085D01*
X92083716Y-149914589D01*
X91993304Y-149992905D01*
X91899172Y-150066877D01*
X91801479Y-150136347D01*
X91700379Y-150201159D01*
X91596031Y-150261157D01*
X91488591Y-150316184D01*
X91378214Y-150366083D01*
X91265059Y-150410699D01*
X91149280Y-150449873D01*
X91031036Y-150483450D01*
X90910481Y-150511274D01*
X90787774Y-150533187D01*
X90663070Y-150549033D01*
X90536526Y-150558655D01*
X90408299Y-150561897D01*
X87391816Y-150561897D01*
X87263592Y-150558655D01*
X87137050Y-150549033D01*
X87012348Y-150533187D01*
X86889642Y-150511274D01*
X86769089Y-150483450D01*
X86650845Y-150449873D01*
X86535066Y-150410699D01*
X86421910Y-150366083D01*
X86311533Y-150316184D01*
X86204092Y-150261157D01*
X86099742Y-150201159D01*
X85998642Y-150136347D01*
X85900947Y-150066877D01*
X85806813Y-149992905D01*
X85716398Y-149914589D01*
X85629859Y-149832085D01*
X85547351Y-149745549D01*
X85469031Y-149655138D01*
X85395056Y-149561009D01*
X85325582Y-149463318D01*
X85260767Y-149362222D01*
X85200766Y-149257877D01*
X85145736Y-149150440D01*
X85095834Y-149040068D01*
X85051217Y-148926916D01*
X85012040Y-148811143D01*
X84978461Y-148692903D01*
X84950636Y-148572354D01*
X84928722Y-148449653D01*
X84912875Y-148324955D01*
X84903252Y-148198418D01*
X84900010Y-148070198D01*
X84900010Y-148069832D01*
X84903252Y-147941611D01*
X84912875Y-147815072D01*
X84928722Y-147690374D01*
X84950636Y-147567672D01*
X84978461Y-147447122D01*
X85012040Y-147328882D01*
X85051217Y-147213108D01*
X85095834Y-147099956D01*
X85145736Y-146989583D01*
X85200766Y-146882146D01*
X85260767Y-146777801D01*
X85325582Y-146676705D01*
X85395056Y-146579014D01*
X85469031Y-146484886D01*
X85547351Y-146394475D01*
X85629859Y-146307940D01*
X85716398Y-146225436D01*
X85806813Y-146147120D01*
X85900947Y-146073149D01*
X85998642Y-146003679D01*
X86099742Y-145938868D01*
X86204092Y-145878870D01*
X86311533Y-145823844D01*
X86421910Y-145773945D01*
X86535066Y-145729330D01*
X86650845Y-145690156D01*
X86769089Y-145656579D01*
X86889642Y-145628756D01*
X87012348Y-145606843D01*
X87137050Y-145590997D01*
X87263592Y-145581375D01*
X87391816Y-145578133D01*
X90408299Y-145578133D01*
X90536526Y-145581375D01*
X90536526Y-273581467D02*
X90663070Y-273591089D01*
X90787774Y-273606935D01*
X90910481Y-273628848D01*
X91031036Y-273656671D01*
X91149280Y-273690249D01*
X91265059Y-273729423D01*
X91378214Y-273774038D01*
X91488591Y-273823938D01*
X91596031Y-273878965D01*
X91700379Y-273938963D01*
X91801479Y-274003775D01*
X91899172Y-274073245D01*
X91993304Y-274147217D01*
X92083716Y-274225533D01*
X92170254Y-274308037D01*
X92252760Y-274394573D01*
X92331077Y-274484983D01*
X92405050Y-274579113D01*
X92474521Y-274676804D01*
X92539334Y-274777900D01*
X92599333Y-274882245D01*
X92654360Y-274989681D01*
X92704260Y-275100054D01*
X92748875Y-275213205D01*
X92788050Y-275328979D01*
X92821628Y-275447219D01*
X92849451Y-275567768D01*
X92871364Y-275690469D01*
X92887210Y-275815167D01*
X92896832Y-275941704D01*
X92900075Y-276069924D01*
X92900075Y-276070290D01*
X92896832Y-276198510D01*
X92887210Y-276325047D01*
X92871364Y-276449745D01*
X92849451Y-276572447D01*
X92821628Y-276692997D01*
X92788050Y-276811237D01*
X92748875Y-276927012D01*
X92704260Y-277040164D01*
X92654360Y-277150538D01*
X92599333Y-277257976D01*
X92539334Y-277362322D01*
X92474521Y-277463419D01*
X92405050Y-277561112D01*
X92331077Y-277655242D01*
X92252760Y-277745654D01*
X92170254Y-277832192D01*
X92083716Y-277914697D01*
X91993304Y-277993015D01*
X91899172Y-278066988D01*
X91801479Y-278136459D01*
X91700379Y-278201273D01*
X91596031Y-278261272D01*
X91488591Y-278316300D01*
X91378214Y-278366201D01*
X91265059Y-278410817D01*
X91149280Y-278449992D01*
X91031036Y-278483570D01*
X90910481Y-278511395D01*
X90787774Y-278533308D01*
X90663070Y-278549154D01*
X90536526Y-278558777D01*
X90408299Y-278562020D01*
X87391816Y-278562020D01*
X87263592Y-278558777D01*
X87137050Y-278549154D01*
X87012348Y-278533308D01*
X86889642Y-278511395D01*
X86769089Y-278483570D01*
X86650845Y-278449992D01*
X86535066Y-278410817D01*
X86421910Y-278366201D01*
X86311533Y-278316300D01*
X86204092Y-278261272D01*
X86099742Y-278201273D01*
X85998642Y-278136459D01*
X85900947Y-278066988D01*
X85806813Y-277993015D01*
X85716398Y-277914697D01*
X85629859Y-277832192D01*
X85547351Y-277745654D01*
X85469031Y-277655242D01*
X85395056Y-277561112D01*
X85325582Y-277463419D01*
X85260767Y-277362322D01*
X85200766Y-277257976D01*
X85145736Y-277150538D01*
X85095834Y-277040164D01*
X85051217Y-276927012D01*
X85012040Y-276811237D01*
X84978461Y-276692997D01*
X84950636Y-276572447D01*
X84928722Y-276449745D01*
X84912875Y-276325047D01*
X84903252Y-276198510D01*
X84900010Y-276070290D01*
X84900010Y-276069924D01*
X84903252Y-275941704D01*
X84912875Y-275815167D01*
X84928722Y-275690469D01*
X84950636Y-275567768D01*
X84978461Y-275447219D01*
X85012040Y-275328979D01*
X85051217Y-275213205D01*
X85095834Y-275100054D01*
X85145736Y-274989681D01*
X85200766Y-274882245D01*
X85260767Y-274777900D01*
X85325582Y-274676804D01*
X85395056Y-274579113D01*
X85469031Y-274484983D01*
X85547351Y-274394573D01*
X85629859Y-274308037D01*
X85716398Y-274225533D01*
X85806813Y-274147217D01*
X85900947Y-274073245D01*
X85998642Y-274003775D01*
X86099742Y-273938963D01*
X86204092Y-273878965D01*
X86311533Y-273823938D01*
X86421910Y-273774038D01*
X86535066Y-273729423D01*
X86650845Y-273690249D01*
X86769089Y-273656671D01*
X86889642Y-273628848D01*
X87012348Y-273606935D01*
X87137050Y-273591089D01*
X87263592Y-273581467D01*
X87391816Y-273578224D01*
X90408299Y-273578224D01*
X90536526Y-273581467D01*
D14*
X139506978Y-145581375D02*
X139633519Y-145590997D01*
X139758220Y-145606843D01*
X139880925Y-145628756D01*
X140001477Y-145656579D01*
X140119719Y-145690156D01*
X140235496Y-145729330D01*
X140348649Y-145773945D01*
X140459024Y-145823844D01*
X140566462Y-145878870D01*
X140670809Y-145938868D01*
X140771907Y-146003679D01*
X140869599Y-146073149D01*
X140963729Y-146147120D01*
X141054141Y-146225436D01*
X141140677Y-146307940D01*
X141223182Y-146394475D01*
X141301499Y-146484886D01*
X141375471Y-146579014D01*
X141444941Y-146676705D01*
X141509754Y-146777801D01*
X141569752Y-146882146D01*
X141624779Y-146989583D01*
X141674678Y-147099956D01*
X141719293Y-147213108D01*
X141758468Y-147328882D01*
X141792045Y-147447122D01*
X141819868Y-147567672D01*
X141841781Y-147690374D01*
X141857627Y-147815072D01*
X141867249Y-147941611D01*
X141870492Y-148069832D01*
X141870492Y-148070198D01*
X141867249Y-148198418D01*
X141857627Y-148324955D01*
X141841781Y-148449653D01*
X141819868Y-148572354D01*
X141792045Y-148692903D01*
X141758468Y-148811143D01*
X141719293Y-148926916D01*
X141674678Y-149040068D01*
X141624779Y-149150440D01*
X141569752Y-149257877D01*
X141509754Y-149362222D01*
X141444941Y-149463318D01*
X141375471Y-149561009D01*
X141301499Y-149655138D01*
X141223182Y-149745549D01*
X141140677Y-149832085D01*
X141054141Y-149914589D01*
X140963729Y-149992905D01*
X140869599Y-150066877D01*
X140771907Y-150136347D01*
X140670809Y-150201159D01*
X140566462Y-150261157D01*
X140459024Y-150316184D01*
X140348649Y-150366083D01*
X140235496Y-150410699D01*
X140119719Y-150449873D01*
X140001477Y-150483450D01*
X139880925Y-150511274D01*
X139758220Y-150533187D01*
X139633519Y-150549033D01*
X139506978Y-150558655D01*
X139378754Y-150561897D01*
X134421204Y-150561897D01*
X134292983Y-150558655D01*
X134166444Y-150549033D01*
X134041745Y-150533187D01*
X133919042Y-150511274D01*
X133798491Y-150483450D01*
X133680250Y-150449873D01*
X133564474Y-150410699D01*
X133451321Y-150366083D01*
X133340947Y-150316184D01*
X133233508Y-150261157D01*
X133129161Y-150201159D01*
X133028063Y-150136347D01*
X132930370Y-150066877D01*
X132836239Y-149992905D01*
X132745827Y-149914589D01*
X132659289Y-149832085D01*
X132576783Y-149745549D01*
X132498465Y-149655138D01*
X132424492Y-149561009D01*
X132355020Y-149463318D01*
X132290207Y-149362222D01*
X132230207Y-149257877D01*
X132175179Y-149150440D01*
X132125278Y-149040068D01*
X132080662Y-148926916D01*
X132041487Y-148811143D01*
X132007908Y-148692903D01*
X131980084Y-148572354D01*
X131958171Y-148449653D01*
X131942324Y-148324955D01*
X131932702Y-148198418D01*
X131929459Y-148070198D01*
X131929459Y-148069832D01*
X131932702Y-147941611D01*
X131942324Y-147815072D01*
X131958171Y-147690374D01*
X131980084Y-147567672D01*
X132007908Y-147447122D01*
X132041487Y-147328882D01*
X132080662Y-147213108D01*
X132125278Y-147099956D01*
X132175179Y-146989583D01*
X132230207Y-146882146D01*
X132290207Y-146777801D01*
X132355020Y-146676705D01*
X132424492Y-146579014D01*
X132498465Y-146484886D01*
X132576783Y-146394475D01*
X132659289Y-146307940D01*
X132745827Y-146225436D01*
X132836239Y-146147120D01*
X132930370Y-146073149D01*
X133028063Y-146003679D01*
X133129161Y-145938868D01*
X133233508Y-145878870D01*
X133340947Y-145823844D01*
X133451321Y-145773945D01*
X133564474Y-145729330D01*
X133680250Y-145690156D01*
X133798491Y-145656579D01*
X133919042Y-145628756D01*
X134041745Y-145606843D01*
X134166444Y-145590997D01*
X134292983Y-145581375D01*
X134421204Y-145578133D01*
X139378754Y-145578133D01*
X139506978Y-145581375D01*
D15*
X154536459Y-145581375D02*
X154663000Y-145590997D01*
X154787701Y-145606843D01*
X154910407Y-145628756D01*
X155030959Y-145656579D01*
X155149203Y-145690156D01*
X155264980Y-145729330D01*
X155378135Y-145773945D01*
X155488511Y-145823844D01*
X155595951Y-145878870D01*
X155700299Y-145938868D01*
X155801399Y-146003679D01*
X155899092Y-146073149D01*
X155993224Y-146147120D01*
X156083638Y-146225436D01*
X156170176Y-146307940D01*
X156252683Y-146394475D01*
X156331001Y-146484886D01*
X156404975Y-146579014D01*
X156474447Y-146676705D01*
X156539261Y-146777801D01*
X156599261Y-146882146D01*
X156654289Y-146989583D01*
X156704190Y-147099956D01*
X156748807Y-147213108D01*
X156787982Y-147328882D01*
X156821561Y-147447122D01*
X156849385Y-147567672D01*
X156871298Y-147690374D01*
X156887145Y-147815072D01*
X156896767Y-147941611D01*
X156900010Y-148069832D01*
X156900010Y-148070198D01*
X156896767Y-148198418D01*
X156887145Y-148324955D01*
X156871298Y-148449653D01*
X156849385Y-148572354D01*
X156821561Y-148692903D01*
X156787982Y-148811143D01*
X156748807Y-148926916D01*
X156704190Y-149040068D01*
X156654289Y-149150440D01*
X156599261Y-149257877D01*
X156539261Y-149362222D01*
X156474447Y-149463318D01*
X156404975Y-149561009D01*
X156331001Y-149655138D01*
X156252683Y-149745549D01*
X156170176Y-149832085D01*
X156083638Y-149914589D01*
X155993224Y-149992905D01*
X155899092Y-150066877D01*
X155801399Y-150136347D01*
X155700299Y-150201159D01*
X155595951Y-150261157D01*
X155488511Y-150316184D01*
X155378135Y-150366083D01*
X155264980Y-150410699D01*
X155149203Y-150449873D01*
X155030959Y-150483450D01*
X154910407Y-150511274D01*
X154787701Y-150533187D01*
X154663000Y-150549033D01*
X154536459Y-150558655D01*
X154408234Y-150561897D01*
X151391526Y-150561897D01*
X151263302Y-150558655D01*
X151136761Y-150549033D01*
X151012059Y-150533187D01*
X150889353Y-150511274D01*
X150768801Y-150483450D01*
X150650557Y-150449873D01*
X150534780Y-150410699D01*
X150421625Y-150366083D01*
X150311249Y-150316184D01*
X150203809Y-150261157D01*
X150099461Y-150201159D01*
X149998362Y-150136347D01*
X149900668Y-150066877D01*
X149806536Y-149992905D01*
X149716122Y-149914589D01*
X149629584Y-149832085D01*
X149547077Y-149745549D01*
X149468759Y-149655138D01*
X149394785Y-149561009D01*
X149325313Y-149463318D01*
X149260499Y-149362222D01*
X149200499Y-149257877D01*
X149145471Y-149150440D01*
X149095570Y-149040068D01*
X149050954Y-148926916D01*
X149011778Y-148811143D01*
X148978200Y-148692903D01*
X148950375Y-148572354D01*
X148928462Y-148449653D01*
X148912615Y-148324955D01*
X148902993Y-148198418D01*
X148899750Y-148070198D01*
X148899750Y-148069832D01*
X148902993Y-147941611D01*
X148912615Y-147815072D01*
X148928462Y-147690374D01*
X148950375Y-147567672D01*
X148978200Y-147447122D01*
X149011778Y-147328882D01*
X149050954Y-147213108D01*
X149095570Y-147099956D01*
X149145471Y-146989583D01*
X149200499Y-146882146D01*
X149260499Y-146777801D01*
X149325313Y-146676705D01*
X149394785Y-146579014D01*
X149468759Y-146484886D01*
X149547077Y-146394475D01*
X149629584Y-146307940D01*
X149716122Y-146225436D01*
X149806536Y-146147120D01*
X149900668Y-146073149D01*
X149998362Y-146003679D01*
X150099461Y-145938868D01*
X150203809Y-145878870D01*
X150311249Y-145823844D01*
X150421625Y-145773945D01*
X150534780Y-145729330D01*
X150650557Y-145690156D01*
X150768801Y-145656579D01*
X150889353Y-145628756D01*
X151012059Y-145606843D01*
X151136761Y-145590997D01*
X151263302Y-145581375D01*
X151391526Y-145578133D01*
X154408234Y-145578133D01*
X154536459Y-145581375D01*
D13*
X186536583Y-273581467D02*
X186663127Y-273591089D01*
X186787830Y-273606935D01*
X186910538Y-273628848D01*
X187031092Y-273656671D01*
X187149336Y-273690249D01*
X187265114Y-273729423D01*
X187378270Y-273774038D01*
X187488646Y-273823938D01*
X187596087Y-273878965D01*
X187700435Y-273938963D01*
X187801534Y-274003775D01*
X187899228Y-274073245D01*
X187993359Y-274147217D01*
X188083772Y-274225533D01*
X188170310Y-274308037D01*
X188252816Y-274394573D01*
X188331133Y-274484983D01*
X188405106Y-274579113D01*
X188474577Y-274676803D01*
X188539390Y-274777900D01*
X188599389Y-274882245D01*
X188654417Y-274989681D01*
X188704317Y-275100054D01*
X188748932Y-275213205D01*
X188788107Y-275328979D01*
X188821685Y-275447219D01*
X188849508Y-275567768D01*
X188871421Y-275690469D01*
X188887267Y-275815167D01*
X188896890Y-275941704D01*
X188900132Y-276069924D01*
X188900132Y-276070290D01*
X188896890Y-276198510D01*
X188887267Y-276325047D01*
X188871421Y-276449745D01*
X188849508Y-276572447D01*
X188821685Y-276692997D01*
X188788107Y-276811237D01*
X188748932Y-276927012D01*
X188704317Y-277040164D01*
X188654417Y-277150538D01*
X188599389Y-277257976D01*
X188539390Y-277362322D01*
X188474577Y-277463419D01*
X188405106Y-277561112D01*
X188331133Y-277655242D01*
X188252816Y-277745654D01*
X188170310Y-277832192D01*
X188083772Y-277914697D01*
X187993359Y-277993015D01*
X187899228Y-278066988D01*
X187801534Y-278136459D01*
X187700435Y-278201273D01*
X187596087Y-278261272D01*
X187488646Y-278316300D01*
X187378270Y-278366201D01*
X187265114Y-278410817D01*
X187149336Y-278449992D01*
X187031092Y-278483570D01*
X186910538Y-278511395D01*
X186787830Y-278533308D01*
X186663127Y-278549154D01*
X186536583Y-278558777D01*
X186408356Y-278562020D01*
X183391877Y-278562020D01*
X183263653Y-278558777D01*
X183137111Y-278549154D01*
X183012409Y-278533308D01*
X182889703Y-278511395D01*
X182769150Y-278483570D01*
X182650906Y-278449992D01*
X182535127Y-278410817D01*
X182421971Y-278366201D01*
X182311594Y-278316300D01*
X182204153Y-278261272D01*
X182099803Y-278201273D01*
X181998703Y-278136459D01*
X181901008Y-278066988D01*
X181806874Y-277993015D01*
X181716459Y-277914697D01*
X181629920Y-277832192D01*
X181547412Y-277745654D01*
X181469092Y-277655242D01*
X181395117Y-277561112D01*
X181325643Y-277463419D01*
X181260828Y-277362322D01*
X181200827Y-277257976D01*
X181145797Y-277150538D01*
X181095895Y-277040164D01*
X181051278Y-276927012D01*
X181012101Y-276811237D01*
X180978522Y-276692997D01*
X180950697Y-276572447D01*
X180928783Y-276449745D01*
X180912936Y-276325047D01*
X180903313Y-276198510D01*
X180900071Y-276070290D01*
X180900071Y-276069924D01*
X180903313Y-275941704D01*
X180912936Y-275815167D01*
X180928783Y-275690469D01*
X180950697Y-275567768D01*
X180978522Y-275447219D01*
X181012101Y-275328979D01*
X181051278Y-275213205D01*
X181095895Y-275100054D01*
X181145797Y-274989681D01*
X181200827Y-274882245D01*
X181260828Y-274777900D01*
X181325643Y-274676803D01*
X181395117Y-274579113D01*
X181469092Y-274484983D01*
X181547412Y-274394573D01*
X181629920Y-274308037D01*
X181716459Y-274225533D01*
X181806874Y-274147217D01*
X181901008Y-274073245D01*
X181998703Y-274003775D01*
X182099803Y-273938963D01*
X182204153Y-273878965D01*
X182311594Y-273823938D01*
X182421971Y-273774038D01*
X182535127Y-273729423D01*
X182650906Y-273690249D01*
X182769150Y-273656671D01*
X182889703Y-273628848D01*
X183012409Y-273606935D01*
X183137111Y-273591089D01*
X183263653Y-273581467D01*
X183391877Y-273578224D01*
X186408356Y-273578224D01*
X186536583Y-273581467D01*
D16*
X202536504Y-249581451D02*
X202663045Y-249591074D01*
X202787746Y-249606920D01*
X202910451Y-249628833D01*
X203031003Y-249656656D01*
X203149246Y-249690234D01*
X203265022Y-249729408D01*
X203378176Y-249774023D01*
X203488551Y-249823923D01*
X203595990Y-249878950D01*
X203700337Y-249938948D01*
X203801435Y-250003761D01*
X203899127Y-250073231D01*
X203993258Y-250147203D01*
X204083670Y-250225519D01*
X204170207Y-250308024D01*
X204252712Y-250394560D01*
X204331029Y-250484971D01*
X204405001Y-250579101D01*
X204474472Y-250676792D01*
X204539285Y-250777889D01*
X204599283Y-250882234D01*
X204654311Y-250989672D01*
X204704210Y-251100045D01*
X204748826Y-251213197D01*
X204788000Y-251328972D01*
X204821578Y-251447213D01*
X204849401Y-251567762D01*
X204871314Y-251690465D01*
X204887160Y-251815164D01*
X204896783Y-251941702D01*
X204900025Y-252069924D01*
X204900025Y-252070275D01*
X204896783Y-252198496D01*
X204887160Y-252325034D01*
X204871314Y-252449733D01*
X204849401Y-252572436D01*
X204821578Y-252692985D01*
X204788000Y-252811226D01*
X204748826Y-252927001D01*
X204704210Y-253040153D01*
X204654311Y-253150526D01*
X204599283Y-253257964D01*
X204539285Y-253362309D01*
X204474472Y-253463406D01*
X204405001Y-253561098D01*
X204331029Y-253655227D01*
X204252712Y-253745638D01*
X204170207Y-253832174D01*
X204083670Y-253914679D01*
X203993258Y-253992995D01*
X203899127Y-254066967D01*
X203801435Y-254136437D01*
X203700337Y-254201250D01*
X203595990Y-254261248D01*
X203488551Y-254316275D01*
X203378176Y-254366175D01*
X203265022Y-254410790D01*
X203149246Y-254449965D01*
X203031003Y-254483542D01*
X202910451Y-254511365D01*
X202787746Y-254533278D01*
X202663045Y-254549124D01*
X202536504Y-254558747D01*
X202408280Y-254561989D01*
X199355683Y-254561989D01*
X199227453Y-254558747D01*
X199100908Y-254549124D01*
X198976202Y-254533278D01*
X198853493Y-254511365D01*
X198732938Y-254483542D01*
X198614692Y-254449965D01*
X198498913Y-254410790D01*
X198385756Y-254366175D01*
X198275380Y-254316275D01*
X198167939Y-254261248D01*
X198063591Y-254201250D01*
X197962492Y-254136437D01*
X197864799Y-254066967D01*
X197770668Y-253992995D01*
X197680255Y-253914679D01*
X197593718Y-253832174D01*
X197511213Y-253745638D01*
X197432896Y-253655227D01*
X197358925Y-253561098D01*
X197289454Y-253463406D01*
X197224642Y-253362309D01*
X197164644Y-253257964D01*
X197109618Y-253150526D01*
X197059719Y-253040153D01*
X197015104Y-252927001D01*
X196975930Y-252811226D01*
X196942353Y-252692985D01*
X196914530Y-252572436D01*
X196892618Y-252449733D01*
X196876772Y-252325034D01*
X196867150Y-252198496D01*
X196863908Y-252070275D01*
X196863908Y-252069924D01*
X196867150Y-251941702D01*
X196876772Y-251815164D01*
X196892618Y-251690465D01*
X196914530Y-251567762D01*
X196942353Y-251447213D01*
X196975930Y-251328972D01*
X197015104Y-251213197D01*
X197059719Y-251100045D01*
X197109618Y-250989672D01*
X197164644Y-250882234D01*
X197224642Y-250777889D01*
X197289454Y-250676792D01*
X197358925Y-250579101D01*
X197432896Y-250484971D01*
X197511213Y-250394560D01*
X197593718Y-250308024D01*
X197680255Y-250225519D01*
X197770668Y-250147203D01*
X197864799Y-250073231D01*
X197962492Y-250003761D01*
X198063591Y-249938948D01*
X198167939Y-249878950D01*
X198275380Y-249823923D01*
X198385756Y-249774023D01*
X198498913Y-249729408D01*
X198614692Y-249690234D01*
X198732938Y-249656656D01*
X198853493Y-249628833D01*
X198976202Y-249606920D01*
X199100908Y-249591074D01*
X199227453Y-249581451D01*
X199355683Y-249578209D01*
X202408280Y-249578209D01*
X202536504Y-249581451D01*
D13*
X202536583Y-273581467D02*
X202663127Y-273591089D01*
X202787830Y-273606935D01*
X202910538Y-273628848D01*
X203031092Y-273656671D01*
X203149336Y-273690249D01*
X203265114Y-273729423D01*
X203378270Y-273774038D01*
X203488646Y-273823938D01*
X203596087Y-273878965D01*
X203700435Y-273938963D01*
X203801534Y-274003775D01*
X203899228Y-274073245D01*
X203993359Y-274147217D01*
X204083772Y-274225533D01*
X204170310Y-274308037D01*
X204252816Y-274394573D01*
X204331133Y-274484983D01*
X204405106Y-274579113D01*
X204474577Y-274676803D01*
X204539390Y-274777900D01*
X204599389Y-274882245D01*
X204654417Y-274989681D01*
X204704317Y-275100054D01*
X204748932Y-275213205D01*
X204788107Y-275328979D01*
X204821685Y-275447219D01*
X204849508Y-275567768D01*
X204871421Y-275690469D01*
X204887267Y-275815167D01*
X204896890Y-275941704D01*
X204900132Y-276069924D01*
X204900132Y-276070290D01*
X204896890Y-276198510D01*
X204887267Y-276325047D01*
X204871421Y-276449745D01*
X204849508Y-276572447D01*
X204821685Y-276692997D01*
X204788107Y-276811237D01*
X204748932Y-276927012D01*
X204704317Y-277040164D01*
X204654417Y-277150538D01*
X204599389Y-277257976D01*
X204539390Y-277362322D01*
X204474577Y-277463419D01*
X204405106Y-277561112D01*
X204331133Y-277655242D01*
X204252816Y-277745654D01*
X204170310Y-277832192D01*
X204083772Y-277914697D01*
X203993359Y-277993015D01*
X203899228Y-278066988D01*
X203801534Y-278136459D01*
X203700435Y-278201273D01*
X203596087Y-278261272D01*
X203488646Y-278316300D01*
X203378270Y-278366201D01*
X203265114Y-278410817D01*
X203149336Y-278449992D01*
X203031092Y-278483570D01*
X202910538Y-278511395D01*
X202787830Y-278533308D01*
X202663127Y-278549154D01*
X202536583Y-278558777D01*
X202408356Y-278562020D01*
X199391877Y-278562020D01*
X199263653Y-278558777D01*
X199137111Y-278549154D01*
X199012409Y-278533308D01*
X198889703Y-278511395D01*
X198769150Y-278483570D01*
X198650906Y-278449992D01*
X198535127Y-278410817D01*
X198421971Y-278366201D01*
X198311594Y-278316300D01*
X198204153Y-278261272D01*
X198099803Y-278201273D01*
X197998703Y-278136459D01*
X197901008Y-278066988D01*
X197806874Y-277993015D01*
X197716459Y-277914697D01*
X197629920Y-277832192D01*
X197547412Y-277745654D01*
X197469092Y-277655242D01*
X197395117Y-277561112D01*
X197325643Y-277463419D01*
X197260828Y-277362322D01*
X197200827Y-277257976D01*
X197145797Y-277150538D01*
X197095895Y-277040164D01*
X197051278Y-276927012D01*
X197012101Y-276811237D01*
X196978522Y-276692997D01*
X196950697Y-276572447D01*
X196928783Y-276449745D01*
X196912936Y-276325047D01*
X196903313Y-276198510D01*
X196900071Y-276070290D01*
X196900071Y-276069924D01*
X196903313Y-275941704D01*
X196912936Y-275815167D01*
X196928783Y-275690469D01*
X196950697Y-275567768D01*
X196978522Y-275447219D01*
X197012101Y-275328979D01*
X197051278Y-275213205D01*
X197095895Y-275100054D01*
X197145797Y-274989681D01*
X197200827Y-274882245D01*
X197260828Y-274777900D01*
X197325643Y-274676803D01*
X197395117Y-274579113D01*
X197469092Y-274484983D01*
X197547412Y-274394573D01*
X197629920Y-274308037D01*
X197716459Y-274225533D01*
X197806874Y-274147217D01*
X197901008Y-274073245D01*
X197998703Y-274003775D01*
X198099803Y-273938963D01*
X198204153Y-273878965D01*
X198311594Y-273823938D01*
X198421971Y-273774038D01*
X198535127Y-273729423D01*
X198650906Y-273690249D01*
X198769150Y-273656671D01*
X198889703Y-273628848D01*
X199012409Y-273606935D01*
X199137111Y-273591089D01*
X199263653Y-273581467D01*
X199391877Y-273578224D01*
X202408356Y-273578224D01*
X202536583Y-273581467D01*
D17*
X217311731Y-48080371D02*
X217718003Y-48111263D01*
X218118368Y-48162136D01*
X218512323Y-48232487D01*
X218899367Y-48321813D01*
X219278995Y-48429612D01*
X219650706Y-48555381D01*
X220013997Y-48698618D01*
X220368365Y-48858820D01*
X220713308Y-49035484D01*
X221048323Y-49228108D01*
X221372907Y-49436190D01*
X221686557Y-49659226D01*
X221988772Y-49896714D01*
X222279047Y-50148152D01*
X222556882Y-50413037D01*
X222821772Y-50690866D01*
X223073215Y-50981137D01*
X223310709Y-51283347D01*
X223533751Y-51596994D01*
X223741839Y-51921574D01*
X223934468Y-52256586D01*
X224111138Y-52601527D01*
X224271345Y-52955895D01*
X224414587Y-53319185D01*
X224540361Y-53690897D01*
X224648164Y-54070528D01*
X224737493Y-54457574D01*
X224807847Y-54851534D01*
X224858722Y-55251904D01*
X224889616Y-55658182D01*
X224900025Y-56069866D01*
X224900025Y-80069962D01*
X224889616Y-80481646D01*
X224858722Y-80887926D01*
X224807847Y-81288297D01*
X224737493Y-81682258D01*
X224648164Y-82069306D01*
X224540361Y-82448938D01*
X224414587Y-82820652D01*
X224271345Y-83183945D01*
X224111138Y-83538315D01*
X223934468Y-83883258D01*
X223741839Y-84218273D01*
X223533751Y-84542857D01*
X223310709Y-84856506D01*
X223073215Y-85158719D01*
X222821772Y-85448993D01*
X222556882Y-85726825D01*
X222279047Y-85991713D01*
X221988772Y-86243153D01*
X221686557Y-86480645D01*
X221372907Y-86703684D01*
X221048323Y-86911768D01*
X220713308Y-87104394D01*
X220368365Y-87281061D01*
X220013997Y-87441265D01*
X219650706Y-87584504D01*
X219278995Y-87710275D01*
X218899367Y-87818076D01*
X218512323Y-87907404D01*
X218118368Y-87977755D01*
X217718003Y-88028629D01*
X217311731Y-88059522D01*
X216900056Y-88069931D01*
X216899995Y-88069931D01*
X216488316Y-88059522D01*
X216082042Y-88028629D01*
X215681675Y-87977755D01*
X215287718Y-87907404D01*
X214900673Y-87818076D01*
X214521044Y-87710275D01*
X214149332Y-87584504D01*
X213786040Y-87441265D01*
X213431671Y-87281061D01*
X213086728Y-87104394D01*
X212751714Y-86911768D01*
X212427130Y-86703684D01*
X212113480Y-86480645D01*
X211811266Y-86243153D01*
X211520991Y-85991713D01*
X211243157Y-85726825D01*
X210978268Y-85448993D01*
X210726825Y-85158719D01*
X210489332Y-84856506D01*
X210266291Y-84542857D01*
X210058205Y-84218273D01*
X209865576Y-83883258D01*
X209688907Y-83538315D01*
X209528701Y-83183945D01*
X209385460Y-82820652D01*
X209259687Y-82448938D01*
X209151884Y-82069306D01*
X209062556Y-81682258D01*
X208992202Y-81288297D01*
X208941328Y-80887926D01*
X208910435Y-80481646D01*
X208900025Y-80069962D01*
X208900025Y-56069866D01*
X208910435Y-55658182D01*
X208941328Y-55251904D01*
X208992202Y-54851534D01*
X209062556Y-54457574D01*
X209151884Y-54070528D01*
X209259687Y-53690897D01*
X209385460Y-53319185D01*
X209528701Y-52955895D01*
X209688907Y-52601527D01*
X209865576Y-52256586D01*
X210058205Y-51921574D01*
X210266291Y-51596994D01*
X210489332Y-51283347D01*
X210726825Y-50981137D01*
X210978268Y-50690866D01*
X211243157Y-50413037D01*
X211520991Y-50148152D01*
X211811266Y-49896714D01*
X212113480Y-49659226D01*
X212427130Y-49436190D01*
X212751714Y-49228108D01*
X213086728Y-49035484D01*
X213431671Y-48858820D01*
X213786040Y-48698618D01*
X214149332Y-48555381D01*
X214521044Y-48429612D01*
X214900673Y-48321813D01*
X215287718Y-48232487D01*
X215681675Y-48162136D01*
X216082042Y-48111263D01*
X216488316Y-48080371D01*
X216899995Y-48069962D01*
X216900056Y-48069962D01*
X217311731Y-48080371D01*
D18*
X218157085Y-273581467D02*
X218283630Y-273591089D01*
X218408336Y-273606935D01*
X218531044Y-273628848D01*
X218651600Y-273656671D01*
X218769845Y-273690249D01*
X218885623Y-273729423D01*
X218998779Y-273774038D01*
X219109155Y-273823938D01*
X219216596Y-273878965D01*
X219320943Y-273938963D01*
X219422041Y-274003775D01*
X219519734Y-274073245D01*
X219613864Y-274147217D01*
X219704276Y-274225533D01*
X219790812Y-274308037D01*
X219873317Y-274394573D01*
X219951633Y-274484983D01*
X220025604Y-274579113D01*
X220095073Y-274676804D01*
X220159885Y-274777900D01*
X220219882Y-274882245D01*
X220274908Y-274989681D01*
X220324807Y-275100054D01*
X220369421Y-275213205D01*
X220408594Y-275328979D01*
X220442171Y-275447219D01*
X220469993Y-275567768D01*
X220491906Y-275690469D01*
X220507751Y-275815167D01*
X220517373Y-275941704D01*
X220520615Y-276069924D01*
X220520615Y-276070290D01*
X220517373Y-276198510D01*
X220507751Y-276325047D01*
X220491906Y-276449745D01*
X220469993Y-276572447D01*
X220442171Y-276692997D01*
X220408594Y-276811237D01*
X220369421Y-276927012D01*
X220324807Y-277040164D01*
X220274908Y-277150538D01*
X220219882Y-277257976D01*
X220159885Y-277362322D01*
X220095073Y-277463419D01*
X220025604Y-277561112D01*
X219951633Y-277655242D01*
X219873317Y-277745654D01*
X219790812Y-277832192D01*
X219704276Y-277914697D01*
X219613864Y-277993015D01*
X219519734Y-278066988D01*
X219422041Y-278136459D01*
X219320943Y-278201273D01*
X219216596Y-278261272D01*
X219109155Y-278316300D01*
X218998779Y-278366201D01*
X218885623Y-278410817D01*
X218769845Y-278449992D01*
X218651600Y-278483570D01*
X218531044Y-278511395D01*
X218408336Y-278533308D01*
X218283630Y-278549154D01*
X218157085Y-278558777D01*
X218028855Y-278562019D01*
X215849991Y-278562019D01*
X215721770Y-278558777D01*
X215595231Y-278549154D01*
X215470532Y-278533308D01*
X215347828Y-278511395D01*
X215227278Y-278483570D01*
X215109036Y-278449992D01*
X214993260Y-278410817D01*
X214880106Y-278366201D01*
X214769731Y-278316300D01*
X214662292Y-278261272D01*
X214557944Y-278201273D01*
X214456845Y-278136459D01*
X214359152Y-278066988D01*
X214265020Y-277993015D01*
X214174607Y-277914697D01*
X214088069Y-277832192D01*
X214005562Y-277745654D01*
X213927243Y-277655242D01*
X213853270Y-277561112D01*
X213783797Y-277463419D01*
X213718983Y-277362322D01*
X213658983Y-277257976D01*
X213603954Y-277150538D01*
X213554053Y-277040164D01*
X213509436Y-276927012D01*
X213470260Y-276811237D01*
X213436681Y-276692997D01*
X213408857Y-276572447D01*
X213386943Y-276449745D01*
X213371096Y-276325047D01*
X213361474Y-276198510D01*
X213358231Y-276070290D01*
X213358231Y-276069924D01*
X213361474Y-275941704D01*
X213371096Y-275815167D01*
X213386943Y-275690469D01*
X213408857Y-275567768D01*
X213436681Y-275447219D01*
X213470260Y-275328979D01*
X213509436Y-275213205D01*
X213554053Y-275100054D01*
X213603954Y-274989681D01*
X213658983Y-274882245D01*
X213718983Y-274777900D01*
X213783797Y-274676804D01*
X213853270Y-274579113D01*
X213927243Y-274484983D01*
X214005562Y-274394573D01*
X214088069Y-274308037D01*
X214174607Y-274225533D01*
X214265020Y-274147217D01*
X214359152Y-274073245D01*
X214456845Y-274003775D01*
X214557944Y-273938963D01*
X214662292Y-273878965D01*
X214769731Y-273823938D01*
X214880106Y-273774038D01*
X214993260Y-273729423D01*
X215109036Y-273690249D01*
X215227278Y-273656671D01*
X215347828Y-273628848D01*
X215470532Y-273606935D01*
X215595231Y-273591089D01*
X215721770Y-273581467D01*
X215849991Y-273578224D01*
X218028855Y-273578224D01*
X218157085Y-273581467D01*
D13*
X218536615Y-65581299D02*
X218663160Y-65590921D01*
X218787864Y-65606767D01*
X218910572Y-65628680D01*
X219031127Y-65656504D01*
X219149372Y-65690081D01*
X219265151Y-65729256D01*
X219378307Y-65773871D01*
X219488684Y-65823771D01*
X219596124Y-65878798D01*
X219700472Y-65938796D01*
X219801571Y-66003608D01*
X219899265Y-66073079D01*
X219993396Y-66147051D01*
X220083809Y-66225367D01*
X220170346Y-66307872D01*
X220252851Y-66394408D01*
X220331169Y-66484820D01*
X220405141Y-66578950D01*
X220474612Y-66676641D01*
X220539424Y-66777738D01*
X220599423Y-66882084D01*
X220654450Y-66989522D01*
X220704349Y-67099896D01*
X220748964Y-67213048D01*
X220788139Y-67328824D01*
X220821716Y-67447065D01*
X220849539Y-67567615D01*
X220871452Y-67690318D01*
X220887298Y-67815018D01*
X220896920Y-67941557D01*
X220900162Y-68069779D01*
X220900162Y-68070122D01*
X220896920Y-68198344D01*
X220887298Y-68324883D01*
X220871452Y-68449582D01*
X220849539Y-68572285D01*
X220821716Y-68692836D01*
X220788139Y-68811077D01*
X220748964Y-68926852D01*
X220704349Y-69040005D01*
X220654450Y-69150378D01*
X220599423Y-69257816D01*
X220539424Y-69362162D01*
X220474612Y-69463259D01*
X220405141Y-69560951D01*
X220331169Y-69655081D01*
X220252851Y-69745492D01*
X220170346Y-69832029D01*
X220083809Y-69914533D01*
X219993396Y-69992850D01*
X219899265Y-70066822D01*
X219801571Y-70136292D01*
X219700472Y-70201105D01*
X219596124Y-70261103D01*
X219488684Y-70316130D01*
X219378307Y-70366030D01*
X219265151Y-70410645D01*
X219149372Y-70449820D01*
X219031127Y-70483397D01*
X218910572Y-70511220D01*
X218787864Y-70533133D01*
X218663160Y-70548979D01*
X218536615Y-70558602D01*
X218408387Y-70561844D01*
X215391907Y-70561844D01*
X215263683Y-70558602D01*
X215137142Y-70548979D01*
X215012440Y-70533133D01*
X214889734Y-70511220D01*
X214769180Y-70483397D01*
X214650936Y-70449820D01*
X214535158Y-70410645D01*
X214422002Y-70366030D01*
X214311625Y-70316130D01*
X214204183Y-70261103D01*
X214099834Y-70201105D01*
X213998733Y-70136292D01*
X213901038Y-70066822D01*
X213806905Y-69992850D01*
X213716490Y-69914533D01*
X213629950Y-69832029D01*
X213547442Y-69745492D01*
X213469122Y-69655081D01*
X213395147Y-69560951D01*
X213325674Y-69463259D01*
X213260858Y-69362162D01*
X213200857Y-69257816D01*
X213145828Y-69150378D01*
X213095926Y-69040005D01*
X213051308Y-68926852D01*
X213012132Y-68811077D01*
X212978553Y-68692836D01*
X212950728Y-68572285D01*
X212928814Y-68449582D01*
X212912967Y-68324883D01*
X212903344Y-68198344D01*
X212900101Y-68070122D01*
X212900101Y-68069779D01*
X212903344Y-67941557D01*
X212912967Y-67815018D01*
X212928814Y-67690318D01*
X212950728Y-67567615D01*
X212978553Y-67447065D01*
X213012132Y-67328824D01*
X213051308Y-67213048D01*
X213095926Y-67099896D01*
X213145828Y-66989522D01*
X213200857Y-66882084D01*
X213260858Y-66777738D01*
X213325674Y-66676641D01*
X213395147Y-66578950D01*
X213469122Y-66484820D01*
X213547442Y-66394408D01*
X213629950Y-66307872D01*
X213716490Y-66225367D01*
X213806905Y-66147051D01*
X213901038Y-66073079D01*
X213998733Y-66003608D01*
X214099834Y-65938796D01*
X214204183Y-65878798D01*
X214311625Y-65823771D01*
X214422002Y-65773871D01*
X214535158Y-65729256D01*
X214650936Y-65690081D01*
X214769180Y-65656504D01*
X214889734Y-65628680D01*
X215012440Y-65606767D01*
X215137142Y-65590921D01*
X215263683Y-65581299D01*
X215391907Y-65578056D01*
X218408387Y-65578056D01*
X218536615Y-65581299D01*
D19*
X251654780Y-273581467D02*
X251781326Y-273591089D01*
X251906031Y-273606935D01*
X252028739Y-273628848D01*
X252149293Y-273656671D01*
X252267538Y-273690249D01*
X252383316Y-273729423D01*
X252496470Y-273774038D01*
X252606845Y-273823938D01*
X252714284Y-273878965D01*
X252818631Y-273938963D01*
X252919728Y-274003775D01*
X253017419Y-274073245D01*
X253111548Y-274147217D01*
X253201958Y-274225533D01*
X253288493Y-274308037D01*
X253370996Y-274394573D01*
X253449310Y-274484983D01*
X253523280Y-274579113D01*
X253592748Y-274676804D01*
X253657559Y-274777900D01*
X253717555Y-274882245D01*
X253772580Y-274989681D01*
X253822477Y-275100054D01*
X253867090Y-275213205D01*
X253906263Y-275328979D01*
X253939838Y-275447219D01*
X253967660Y-275567768D01*
X253989572Y-275690469D01*
X254005417Y-275815167D01*
X254015039Y-275941704D01*
X254018281Y-276069924D01*
X254018281Y-276070290D01*
X254015039Y-276198510D01*
X254005417Y-276325047D01*
X253989572Y-276449745D01*
X253967660Y-276572447D01*
X253939838Y-276692997D01*
X253906263Y-276811237D01*
X253867090Y-276927012D01*
X253822477Y-277040164D01*
X253772580Y-277150538D01*
X253717555Y-277257976D01*
X253657559Y-277362322D01*
X253592748Y-277463419D01*
X253523280Y-277561112D01*
X253449310Y-277655242D01*
X253370996Y-277745654D01*
X253288493Y-277832192D01*
X253201958Y-277914697D01*
X253111548Y-277993015D01*
X253017419Y-278066988D01*
X252919728Y-278136459D01*
X252818631Y-278201273D01*
X252714284Y-278261272D01*
X252606845Y-278316300D01*
X252496470Y-278366201D01*
X252383316Y-278410817D01*
X252267538Y-278449992D01*
X252149293Y-278483570D01*
X252028739Y-278511395D01*
X251906031Y-278533308D01*
X251781326Y-278549154D01*
X251654780Y-278558777D01*
X251526551Y-278562020D01*
X245965729Y-278562020D01*
X245837512Y-278558777D01*
X245710977Y-278549154D01*
X245586280Y-278533308D01*
X245463580Y-278511395D01*
X245343031Y-278483570D01*
X245224791Y-278449992D01*
X245109016Y-278410817D01*
X244995863Y-278366201D01*
X244885489Y-278316300D01*
X244778050Y-278261272D01*
X244673702Y-278201273D01*
X244572603Y-278136459D01*
X244474910Y-278066988D01*
X244380777Y-277993015D01*
X244290363Y-277914697D01*
X244203824Y-277832192D01*
X244121316Y-277745654D01*
X244042996Y-277655242D01*
X243969021Y-277561112D01*
X243899547Y-277463419D01*
X243834731Y-277362322D01*
X243774730Y-277257976D01*
X243719700Y-277150538D01*
X243669797Y-277040164D01*
X243625179Y-276927012D01*
X243586002Y-276811237D01*
X243552422Y-276692997D01*
X243524597Y-276572447D01*
X243502682Y-276449745D01*
X243486835Y-276325047D01*
X243477212Y-276198510D01*
X243473969Y-276070290D01*
X243473969Y-276069924D01*
X243477212Y-275941704D01*
X243486835Y-275815167D01*
X243502682Y-275690469D01*
X243524597Y-275567768D01*
X243552422Y-275447219D01*
X243586002Y-275328979D01*
X243625179Y-275213205D01*
X243669797Y-275100054D01*
X243719700Y-274989681D01*
X243774730Y-274882245D01*
X243834731Y-274777900D01*
X243899547Y-274676804D01*
X243969021Y-274579113D01*
X244042996Y-274484983D01*
X244121316Y-274394573D01*
X244203824Y-274308037D01*
X244290363Y-274225533D01*
X244380777Y-274147217D01*
X244474910Y-274073245D01*
X244572603Y-274003775D01*
X244673702Y-273938963D01*
X244778050Y-273878965D01*
X244885489Y-273823938D01*
X244995863Y-273774038D01*
X245109016Y-273729423D01*
X245224791Y-273690249D01*
X245343031Y-273656671D01*
X245463580Y-273628848D01*
X245586280Y-273606935D01*
X245710977Y-273591089D01*
X245837512Y-273581467D01*
X245965729Y-273578224D01*
X251526551Y-273578224D01*
X251654780Y-273581467D01*
X267808772Y-273581467D02*
X267935318Y-273591089D01*
X268060023Y-273606935D01*
X268182731Y-273628848D01*
X268303286Y-273656671D01*
X268421531Y-273690249D01*
X268537309Y-273729423D01*
X268650464Y-273774038D01*
X268760840Y-273823938D01*
X268868280Y-273878965D01*
X268972626Y-273938963D01*
X269073724Y-274003775D01*
X269171416Y-274073245D01*
X269265546Y-274147217D01*
X269355957Y-274225533D01*
X269442492Y-274308037D01*
X269524996Y-274394573D01*
X269603311Y-274484983D01*
X269677282Y-274579113D01*
X269746751Y-274676804D01*
X269811562Y-274777900D01*
X269871558Y-274882245D01*
X269926584Y-274989681D01*
X269976481Y-275100054D01*
X270021095Y-275213205D01*
X270060268Y-275328979D01*
X270093844Y-275447219D01*
X270121666Y-275567768D01*
X270143578Y-275690469D01*
X270159424Y-275815167D01*
X270169046Y-275941704D01*
X270172288Y-276069924D01*
X270172288Y-276070290D01*
X270169046Y-276198510D01*
X270159424Y-276325047D01*
X270143578Y-276449745D01*
X270121666Y-276572447D01*
X270093844Y-276692997D01*
X270060268Y-276811237D01*
X270021095Y-276927012D01*
X269976481Y-277040164D01*
X269926584Y-277150538D01*
X269871558Y-277257976D01*
X269811562Y-277362322D01*
X269746751Y-277463419D01*
X269677282Y-277561112D01*
X269603311Y-277655242D01*
X269524996Y-277745654D01*
X269442492Y-277832192D01*
X269355957Y-277914697D01*
X269265546Y-277993015D01*
X269171416Y-278066988D01*
X269073724Y-278136459D01*
X268972626Y-278201273D01*
X268868280Y-278261272D01*
X268760840Y-278316300D01*
X268650464Y-278366201D01*
X268537309Y-278410817D01*
X268421531Y-278449992D01*
X268303286Y-278483570D01*
X268182731Y-278511395D01*
X268060023Y-278533308D01*
X267935318Y-278549154D01*
X267808772Y-278558777D01*
X267680543Y-278562020D01*
X262119736Y-278562020D01*
X261991518Y-278558777D01*
X261864981Y-278549154D01*
X261740283Y-278533308D01*
X261617581Y-278511395D01*
X261497032Y-278483570D01*
X261378791Y-278449992D01*
X261263015Y-278410817D01*
X261149861Y-278366201D01*
X261039486Y-278316300D01*
X260932046Y-278261272D01*
X260827698Y-278201273D01*
X260726599Y-278136459D01*
X260628904Y-278066988D01*
X260534772Y-277993015D01*
X260444357Y-277914697D01*
X260357817Y-277832192D01*
X260275309Y-277745654D01*
X260196989Y-277655242D01*
X260123014Y-277561112D01*
X260053540Y-277463419D01*
X259988724Y-277362322D01*
X259928722Y-277257976D01*
X259873692Y-277150538D01*
X259823789Y-277040164D01*
X259779171Y-276927012D01*
X259739994Y-276811237D01*
X259706414Y-276692997D01*
X259678588Y-276572447D01*
X259656674Y-276449745D01*
X259640827Y-276325047D01*
X259631203Y-276198510D01*
X259627961Y-276070290D01*
X259627961Y-276069924D01*
X259631203Y-275941704D01*
X259640827Y-275815167D01*
X259656674Y-275690469D01*
X259678588Y-275567768D01*
X259706414Y-275447219D01*
X259739994Y-275328979D01*
X259779171Y-275213205D01*
X259823789Y-275100054D01*
X259873692Y-274989681D01*
X259928722Y-274882245D01*
X259988724Y-274777900D01*
X260053540Y-274676804D01*
X260123014Y-274579113D01*
X260196989Y-274484983D01*
X260275309Y-274394573D01*
X260357817Y-274308037D01*
X260444357Y-274225533D01*
X260534772Y-274147217D01*
X260628904Y-274073245D01*
X260726599Y-274003775D01*
X260827698Y-273938963D01*
X260932046Y-273878965D01*
X261039486Y-273823938D01*
X261149861Y-273774038D01*
X261263015Y-273729423D01*
X261378791Y-273690249D01*
X261497032Y-273656671D01*
X261617581Y-273628848D01*
X261740283Y-273606935D01*
X261864981Y-273591089D01*
X261991518Y-273581467D01*
X262119736Y-273578224D01*
X267680543Y-273578224D01*
X267808772Y-273581467D01*
D13*
X282536660Y-145581375D02*
X282663203Y-145590997D01*
X282787907Y-145606843D01*
X282910614Y-145628756D01*
X283031168Y-145656579D01*
X283149412Y-145690156D01*
X283265191Y-145729330D01*
X283378346Y-145773945D01*
X283488723Y-145823844D01*
X283596163Y-145878870D01*
X283700511Y-145938868D01*
X283801610Y-146003679D01*
X283899304Y-146073149D01*
X283993435Y-146147120D01*
X284083848Y-146225436D01*
X284170386Y-146307940D01*
X284252892Y-146394475D01*
X284331210Y-146484886D01*
X284405182Y-146579014D01*
X284474653Y-146676705D01*
X284539467Y-146777801D01*
X284599465Y-146882146D01*
X284654493Y-146989583D01*
X284704393Y-147099956D01*
X284749008Y-147213108D01*
X284788183Y-147328882D01*
X284821761Y-147447122D01*
X284849584Y-147567672D01*
X284871497Y-147690374D01*
X284887343Y-147815072D01*
X284896966Y-147941611D01*
X284900208Y-148069832D01*
X284900208Y-148070198D01*
X284896966Y-148198418D01*
X284887343Y-148324955D01*
X284871497Y-148449653D01*
X284849584Y-148572354D01*
X284821761Y-148692903D01*
X284788183Y-148811143D01*
X284749008Y-148926916D01*
X284704393Y-149040068D01*
X284654493Y-149150440D01*
X284599465Y-149257877D01*
X284539467Y-149362222D01*
X284474653Y-149463318D01*
X284405182Y-149561009D01*
X284331210Y-149655138D01*
X284252892Y-149745549D01*
X284170386Y-149832085D01*
X284083848Y-149914589D01*
X283993435Y-149992905D01*
X283899304Y-150066877D01*
X283801610Y-150136347D01*
X283700511Y-150201159D01*
X283596163Y-150261157D01*
X283488723Y-150316184D01*
X283378346Y-150366083D01*
X283265191Y-150410699D01*
X283149412Y-150449873D01*
X283031168Y-150483450D01*
X282910614Y-150511274D01*
X282787907Y-150533187D01*
X282663203Y-150549033D01*
X282536660Y-150558655D01*
X282408433Y-150561897D01*
X279391938Y-150561897D01*
X279263714Y-150558655D01*
X279137172Y-150549033D01*
X279012470Y-150533187D01*
X278889764Y-150511274D01*
X278769211Y-150483450D01*
X278650967Y-150449873D01*
X278535188Y-150410699D01*
X278422032Y-150366083D01*
X278311655Y-150316184D01*
X278204214Y-150261157D01*
X278099865Y-150201159D01*
X277998764Y-150136347D01*
X277901069Y-150066877D01*
X277806935Y-149992905D01*
X277716521Y-149914589D01*
X277629981Y-149832085D01*
X277547473Y-149745549D01*
X277469153Y-149655138D01*
X277395178Y-149561009D01*
X277325704Y-149463318D01*
X277260889Y-149362222D01*
X277200888Y-149257877D01*
X277145858Y-149150440D01*
X277095956Y-149040068D01*
X277051339Y-148926916D01*
X277012162Y-148811143D01*
X276978583Y-148692903D01*
X276950758Y-148572354D01*
X276928844Y-148449653D01*
X276912997Y-148324955D01*
X276903374Y-148198418D01*
X276900132Y-148070198D01*
X276900132Y-148069832D01*
X276903374Y-147941611D01*
X276912997Y-147815072D01*
X276928844Y-147690374D01*
X276950758Y-147567672D01*
X276978583Y-147447122D01*
X277012162Y-147328882D01*
X277051339Y-147213108D01*
X277095956Y-147099956D01*
X277145858Y-146989583D01*
X277200888Y-146882146D01*
X277260889Y-146777801D01*
X277325704Y-146676705D01*
X277395178Y-146579014D01*
X277469153Y-146484886D01*
X277547473Y-146394475D01*
X277629981Y-146307940D01*
X277716521Y-146225436D01*
X277806935Y-146147120D01*
X277901069Y-146073149D01*
X277998764Y-146003679D01*
X278099865Y-145938868D01*
X278204214Y-145878870D01*
X278311655Y-145823844D01*
X278422032Y-145773945D01*
X278535188Y-145729330D01*
X278650967Y-145690156D01*
X278769211Y-145656579D01*
X278889764Y-145628756D01*
X279012470Y-145606843D01*
X279137172Y-145590997D01*
X279263714Y-145581375D01*
X279391938Y-145578133D01*
X282408433Y-145578133D01*
X282536660Y-145581375D01*
D20*
X284180627Y-273581286D02*
X284303348Y-273590416D01*
X284425029Y-273605528D01*
X284545464Y-273626539D01*
X284664448Y-273653364D01*
X284781779Y-273685919D01*
X284897250Y-273724119D01*
X285010657Y-273767880D01*
X285121796Y-273817117D01*
X285230462Y-273871746D01*
X285336451Y-273931682D01*
X285439558Y-273996842D01*
X285539579Y-274067140D01*
X285636309Y-274142493D01*
X285729543Y-274222814D01*
X285819077Y-274308022D01*
X285904279Y-274397555D01*
X285984598Y-274490786D01*
X286059947Y-274587511D01*
X286130244Y-274687526D01*
X286195403Y-274790626D01*
X286255340Y-274896607D01*
X286309969Y-275005264D01*
X286359208Y-275116394D01*
X286402970Y-275229792D01*
X286441172Y-275345254D01*
X286473729Y-275462575D01*
X286500556Y-275581552D01*
X286521568Y-275701979D01*
X286536682Y-275823653D01*
X286545812Y-275946369D01*
X286548875Y-276069924D01*
X286548875Y-276070290D01*
X286545812Y-276193844D01*
X286536682Y-276316562D01*
X286521568Y-276438237D01*
X286500556Y-276558666D01*
X286473729Y-276677645D01*
X286441172Y-276794969D01*
X286402970Y-276910434D01*
X286359208Y-277023834D01*
X286309969Y-277134967D01*
X286255340Y-277243627D01*
X286195403Y-277349611D01*
X286130244Y-277452713D01*
X286059947Y-277552730D01*
X285984598Y-277649456D01*
X285904279Y-277742689D01*
X285819077Y-277832222D01*
X285729543Y-277917424D01*
X285636309Y-277997743D01*
X285539579Y-278073092D01*
X285439558Y-278143389D01*
X285336451Y-278208548D01*
X285230462Y-278268485D01*
X285121796Y-278323114D01*
X285010657Y-278372353D01*
X284897250Y-278416115D01*
X284781779Y-278454317D01*
X284664448Y-278486874D01*
X284545464Y-278513701D01*
X284425029Y-278534713D01*
X284303348Y-278549827D01*
X284180627Y-278558957D01*
X284057069Y-278562019D01*
X277743073Y-278562019D01*
X277619516Y-278558957D01*
X277496796Y-278549827D01*
X277375117Y-278534713D01*
X277254685Y-278513701D01*
X277135703Y-278486874D01*
X277018375Y-278454317D01*
X276902907Y-278416115D01*
X276789502Y-278372353D01*
X276678365Y-278323114D01*
X276569699Y-278268485D01*
X276463711Y-278208548D01*
X276360603Y-278143389D01*
X276260580Y-278073092D01*
X276163846Y-277997743D01*
X276070606Y-277917424D01*
X275981065Y-277832222D01*
X275895875Y-277742689D01*
X275815566Y-277649456D01*
X275740223Y-277552730D01*
X275669930Y-277452713D01*
X275604773Y-277349611D01*
X275544836Y-277243627D01*
X275490204Y-277134967D01*
X275440962Y-277023834D01*
X275397196Y-276910434D01*
X275358990Y-276794969D01*
X275326428Y-276677645D01*
X275299597Y-276558666D01*
X275278580Y-276438237D01*
X275263463Y-276316562D01*
X275254330Y-276193844D01*
X275251267Y-276070290D01*
X275251267Y-276069924D01*
X275254330Y-275946369D01*
X275263463Y-275823653D01*
X275278580Y-275701979D01*
X275299597Y-275581552D01*
X275326428Y-275462575D01*
X275358990Y-275345254D01*
X275397196Y-275229792D01*
X275440962Y-275116394D01*
X275490204Y-275005264D01*
X275544836Y-274896607D01*
X275604773Y-274790626D01*
X275669930Y-274687526D01*
X275740223Y-274587511D01*
X275815566Y-274490786D01*
X275895875Y-274397555D01*
X275981065Y-274308022D01*
X276070606Y-274222814D01*
X276163846Y-274142493D01*
X276260580Y-274067140D01*
X276360603Y-273996842D01*
X276463711Y-273931682D01*
X276569699Y-273871746D01*
X276678365Y-273817117D01*
X276789502Y-273767880D01*
X276902907Y-273724119D01*
X277018375Y-273685919D01*
X277135703Y-273653364D01*
X277254685Y-273626539D01*
X277375117Y-273605528D01*
X277496796Y-273590416D01*
X277619516Y-273581286D01*
X277743073Y-273578224D01*
X284057069Y-273578224D01*
X284180627Y-273581286D01*
D21*
X40899475Y-34069889D02*
X41649806Y-33319619D01*
X41888473Y-33080962D01*
X42394030Y-32575429D01*
X42899612Y-32069897D01*
X40899475Y-38069889D02*
X41873455Y-37095975D01*
X42386521Y-36582932D01*
X42899612Y-36069889D01*
X40899475Y-42069882D02*
X42332112Y-40637263D01*
X42906309Y-40063060D01*
X43902888Y-39066473D01*
X44899491Y-38069889D01*
D11*
X40899475Y-52069866D02*
X54899532Y-38069889D01*
D21*
X40899475Y-54069866D02*
X46924027Y-48045355D01*
X48899508Y-46069878D01*
X52899512Y-42069883D01*
X56899541Y-38069889D01*
X40899475Y-58069946D02*
X48374123Y-50595297D01*
X51126791Y-47842640D01*
X56013186Y-42956264D01*
X60899556Y-38069889D01*
X40899475Y-62069939D02*
X54232860Y-48736581D01*
X64899573Y-38069889D01*
X40899475Y-68069931D02*
X42263119Y-66706291D01*
X59581352Y-49388091D01*
X68240439Y-40728993D01*
X76899491Y-32069897D01*
X40899475Y-70069931D02*
X57999486Y-52969916D01*
X78899502Y-32069897D01*
X40899475Y-74069924D02*
X52365551Y-62603829D01*
X62024745Y-52944661D01*
X72462155Y-42507279D01*
X82899518Y-32069897D01*
X40899475Y-78069916D02*
X59366396Y-59603068D01*
X63801696Y-55167779D01*
X75350667Y-43618839D01*
X86899663Y-32069897D01*
X40899475Y-82069908D02*
X54442895Y-68526445D01*
X66046218Y-56923130D01*
X78472843Y-44496513D01*
X90899419Y-32069897D01*
X40899475Y-86069908D02*
X61386748Y-65582607D01*
X68970885Y-57998471D01*
X94899438Y-32069897D01*
X40899475Y-88069908D02*
X43031066Y-85938323D01*
X59965324Y-69004096D01*
X68432424Y-60536982D01*
X76899491Y-52069866D01*
D11*
X40899475Y-90069901D02*
X76899491Y-54069866D01*
X40899475Y-92069908D02*
X78899502Y-54069866D01*
X40899475Y-96069893D02*
X76899491Y-60069946D01*
X40899910Y-32069897D02*
X296900056Y-32069897D01*
D22*
X40899923Y-288070107D02*
X104899956Y-288070107D01*
D21*
X42899612Y-38069889D02*
X42100025Y-38869413D01*
X41903763Y-39065666D01*
X41401632Y-39567773D01*
X40899475Y-40069882D01*
X44899491Y-32069897D02*
X43387644Y-33581726D01*
X42876495Y-34092880D01*
X41887997Y-35081384D01*
X40899475Y-36069889D01*
X44899491Y-34069889D02*
X45649822Y-33319619D01*
X45884853Y-33084598D01*
X46392229Y-32577246D01*
X46899629Y-32069897D01*
X44899491Y-96069893D02*
X57559557Y-83409839D01*
X62025423Y-78943990D01*
X70462474Y-70506965D01*
X78899502Y-62069939D01*
X46899629Y-38069889D02*
X45302050Y-39667399D01*
X43899552Y-41069882D01*
X42399537Y-42569879D01*
X40899475Y-44069874D01*
X48899508Y-32069897D02*
X48257808Y-32711604D01*
X47578675Y-33390746D01*
X47239135Y-33730318D01*
X46899629Y-34069889D01*
X48899508Y-34069889D02*
X49655501Y-33313957D01*
X49884650Y-33084817D01*
X50392135Y-32577356D01*
X50899645Y-32069897D01*
X48899508Y-38069889D02*
X45792363Y-41177023D01*
X44883427Y-42085946D01*
X42891439Y-44077911D01*
X40899475Y-46069874D01*
X48899508Y-96069893D02*
X49865091Y-95104378D01*
X50382356Y-94587140D01*
X50899645Y-94069901D01*
X50899645Y-38069889D02*
X48211646Y-40757781D01*
X44137844Y-44831535D01*
X40899475Y-48069874D01*
X50899645Y-92069908D02*
X50869108Y-92100443D01*
X48884320Y-94085169D01*
X47891957Y-95077531D01*
X46899629Y-96069893D01*
X52899523Y-32069897D02*
X52254202Y-32715226D01*
X51576880Y-33392557D01*
X51238246Y-33731223D01*
X50899645Y-34069889D01*
X52899523Y-34069889D02*
X53652663Y-33316804D01*
X54799544Y-32169891D01*
X54899532Y-32069897D01*
X52899523Y-38069889D02*
X49899519Y-41069877D01*
X40899475Y-50069874D01*
D11*
X52899523Y-94069901D02*
X50899645Y-96069893D01*
X52899523Y-96069893D02*
X54899532Y-94069901D01*
D21*
X54899532Y-34069889D02*
X55673215Y-33296205D01*
X55919780Y-33049648D01*
X56409673Y-32559772D01*
X56899541Y-32069897D01*
X54899532Y-90069901D02*
X60692008Y-84277429D01*
X63777887Y-81191573D01*
X70338741Y-74630753D01*
X73619135Y-71350343D01*
X76899491Y-68069931D01*
X56899541Y-94069901D02*
X56157567Y-94811874D01*
X55931341Y-95038091D01*
X55415424Y-95553990D01*
X54899532Y-96069893D01*
D11*
X56899541Y-96069893D02*
X58899419Y-94069901D01*
D21*
X58899419Y-32069897D02*
X58253928Y-32715395D01*
X57576691Y-33392642D01*
X57238099Y-33731266D01*
X56899541Y-34069889D01*
X58899419Y-38069889D02*
X53905855Y-43063506D01*
X49917777Y-47051587D01*
X45408602Y-51560768D01*
X40899475Y-56069946D01*
X58899419Y-90069901D02*
X68647354Y-80322023D01*
X73773440Y-75195977D01*
X78899502Y-70069931D01*
X60899556Y-32069897D02*
X60160179Y-32809210D01*
X59881036Y-33088342D01*
X59390239Y-33579116D01*
X58899419Y-34069889D01*
X60899556Y-94069901D02*
X60113185Y-94856206D01*
X59861186Y-95108193D01*
X58899419Y-96069893D01*
X60899556Y-96069893D02*
X76489055Y-80480332D01*
X99516861Y-57452544D01*
X118899537Y-38069889D01*
X62899436Y-32069897D02*
X62250512Y-32718829D01*
X61574990Y-33394359D01*
X61237257Y-33732124D01*
X60899556Y-34069889D01*
X62899436Y-38069889D02*
X54178630Y-46790740D01*
X51760215Y-49209160D01*
X46329833Y-54639554D01*
X40899475Y-60069946D01*
X62899436Y-92069908D02*
X83957038Y-71012274D01*
X90916154Y-64053159D01*
X116899399Y-38069889D01*
X62899436Y-96069893D02*
X82480021Y-76489328D01*
X101689760Y-57279609D01*
X111294603Y-47674749D01*
X120899415Y-38069889D01*
X64899573Y-32069897D02*
X64160196Y-32809210D01*
X63881053Y-33088342D01*
X63390256Y-33579116D01*
X62899436Y-34069889D01*
X64899573Y-96069893D02*
X66422912Y-94546516D01*
X68368226Y-92601250D01*
X68838979Y-92130515D01*
X68899588Y-92069908D01*
X66899451Y-32069897D02*
X66253960Y-32715395D01*
X65576723Y-33392642D01*
X65238131Y-33731266D01*
X64899573Y-34069889D01*
X68899588Y-32069897D02*
X68157519Y-32811903D01*
X67888449Y-33080962D01*
X67393962Y-33575426D01*
X66899451Y-34069889D01*
X68899588Y-94069901D02*
X68109975Y-94859448D01*
X67869730Y-95099683D01*
X66899451Y-96069893D01*
X68899588Y-96069893D02*
X69424136Y-95545258D01*
X70229577Y-94739799D01*
X70899468Y-94069901D01*
D23*
X68899977Y-292361580D02*
X72089190Y-292361580D01*
D21*
X70899468Y-32069897D02*
X69393315Y-33576032D01*
X68868926Y-34100425D01*
X67884200Y-35085157D01*
X66899451Y-36069889D01*
X70899468Y-90069901D02*
X91095944Y-69873445D01*
X97322274Y-63647131D01*
X110110924Y-50858510D01*
X122899552Y-38069889D01*
D24*
X72897408Y-294007973D02*
X72908987Y-294007933D01*
X72920558Y-294007813D01*
X72932118Y-294007614D01*
X72943669Y-294007334D01*
X72955210Y-294006975D01*
X72966741Y-294006536D01*
X72978262Y-294006018D01*
X72989771Y-294005420D01*
X73001270Y-294004743D01*
X73012757Y-294003987D01*
X73024232Y-294003151D01*
X73035695Y-294002236D01*
X73047147Y-294001241D01*
X73058585Y-294000168D01*
X73070011Y-293999015D01*
X73081423Y-293997784D01*
X73092822Y-293996473D01*
X73104208Y-293995084D01*
X73115579Y-293993616D01*
X73126935Y-293992069D01*
X73138277Y-293990444D01*
X73149604Y-293988740D01*
X73160915Y-293986957D01*
X73172211Y-293985096D01*
X73183490Y-293983157D01*
X73194753Y-293981140D01*
X73205999Y-293979044D01*
X73217228Y-293976870D01*
X73228439Y-293974619D01*
X73239633Y-293972289D01*
X73250808Y-293969881D01*
X73261964Y-293967396D01*
X73273101Y-293964833D01*
X73284219Y-293962193D01*
X73295318Y-293959475D01*
X73306396Y-293956680D01*
X73317453Y-293953807D01*
X73328490Y-293950857D01*
X73339505Y-293947831D01*
X73350498Y-293944727D01*
X73361469Y-293941547D01*
X73372418Y-293938290D01*
X73383344Y-293934956D01*
X73394246Y-293931546D01*
X73405124Y-293928060D01*
X73415979Y-293924497D01*
X73426808Y-293920858D01*
X73437613Y-293917144D01*
X73448392Y-293913354D01*
X73459145Y-293909488D01*
X73469871Y-293905547D01*
X73480571Y-293901530D01*
X73491243Y-293897438D01*
X73501888Y-293893271D01*
X73512505Y-293889030D01*
X73523093Y-293884714D01*
X73533652Y-293880323D01*
X73544181Y-293875858D01*
X73554680Y-293871319D01*
X73565149Y-293866706D01*
X73575587Y-293862019D01*
X73585993Y-293857259D01*
X73596368Y-293852425D01*
X73606710Y-293847518D01*
X73617019Y-293842539D01*
X73627295Y-293837486D01*
X73637537Y-293832361D01*
X73647745Y-293827164D01*
X73657918Y-293821895D01*
X73668056Y-293816554D01*
X73678159Y-293811142D01*
X73688224Y-293805658D01*
X73698254Y-293800103D01*
X73708246Y-293794478D01*
X73718200Y-293788781D01*
X73728116Y-293783015D01*
X73737994Y-293777179D01*
X73747832Y-293771272D01*
X73757630Y-293765297D01*
X73767389Y-293759252D01*
X73777106Y-293753138D01*
X73786783Y-293746956D01*
X73796418Y-293740706D01*
X73806010Y-293734387D01*
X73815560Y-293728001D01*
X73825067Y-293721548D01*
X73834530Y-293715027D01*
X73843949Y-293708440D01*
X73853323Y-293701787D01*
X73862653Y-293695067D01*
X73871936Y-293688282D01*
X73881173Y-293681432D01*
X73890364Y-293674516D01*
X73899507Y-293667536D01*
X73908603Y-293660492D01*
X73917651Y-293653384D01*
X73926650Y-293646212D01*
X73935600Y-293638977D01*
X73944500Y-293631680D01*
X73953350Y-293624320D01*
X73962150Y-293616898D01*
X73970898Y-293609415D01*
X73979595Y-293601870D01*
X73988240Y-293594265D01*
X73996833Y-293586599D01*
X74005373Y-293578873D01*
X74013859Y-293571088D01*
X74022291Y-293563243D01*
X74030669Y-293555340D01*
X74038992Y-293547379D01*
X74047260Y-293539360D01*
X74055472Y-293531283D01*
X74063628Y-293523150D01*
X74067685Y-293519062D01*
X74071727Y-293514960D01*
X74075755Y-293510844D01*
X74079769Y-293506714D01*
X74083769Y-293502570D01*
X74087754Y-293498412D01*
X74091724Y-293494240D01*
X74095681Y-293490055D01*
X74099622Y-293485856D01*
X74103549Y-293481644D01*
X74107461Y-293477418D01*
X74111358Y-293473178D01*
X74115241Y-293468925D01*
X74119109Y-293464658D01*
X74122961Y-293460379D01*
X74126799Y-293456086D01*
X74130622Y-293451780D01*
X74134430Y-293447460D01*
X74138222Y-293443128D01*
X74141999Y-293438782D01*
X74145762Y-293434424D01*
X74149509Y-293430052D01*
X74153240Y-293425668D01*
X74156956Y-293421271D01*
X74160657Y-293416861D01*
X74164342Y-293412439D01*
X74168012Y-293408004D01*
X74171666Y-293403556D01*
X74175304Y-293399096D01*
X74178928Y-293394624D01*
X74182534Y-293390139D01*
X74186126Y-293385642D01*
X74189701Y-293381132D01*
X74193261Y-293376610D01*
X74196805Y-293372077D01*
X74200333Y-293367531D01*
X74203844Y-293362973D01*
X74207340Y-293358403D01*
X74210820Y-293353822D01*
X74214283Y-293349228D01*
X74217730Y-293344623D01*
X74221162Y-293340006D01*
X74224576Y-293335378D01*
X74227975Y-293330738D01*
X74231357Y-293326086D01*
X74234723Y-293321423D01*
X74238072Y-293316749D01*
X74241405Y-293312063D01*
X74244721Y-293307366D01*
X74248020Y-293302657D01*
X74251303Y-293297938D01*
X74254570Y-293293208D01*
X74257819Y-293288467D01*
X74261052Y-293283714D01*
X74264268Y-293278951D01*
X74267467Y-293274176D01*
X74270649Y-293269392D01*
X74273815Y-293264596D01*
X74276963Y-293259790D01*
X74280095Y-293254973D01*
X74283209Y-293250146D01*
X74286307Y-293245308D01*
X74289387Y-293240460D01*
X74292450Y-293235601D01*
X74295496Y-293230733D01*
X74298525Y-293225854D01*
X74301536Y-293220965D01*
X74304531Y-293216066D01*
X74307507Y-293211157D01*
X74310467Y-293206237D01*
X74313409Y-293201309D01*
X74316334Y-293196370D01*
X74319240Y-293191422D01*
X74322130Y-293186463D01*
X74325002Y-293181495D01*
X74327857Y-293176517D01*
X74330694Y-293171531D01*
X74333513Y-293166534D01*
X74336314Y-293161529D01*
X74339099Y-293156513D01*
X74341864Y-293151489D01*
X74344613Y-293146455D01*
X74347343Y-293141413D01*
X74350057Y-293136360D01*
X74352751Y-293131300D01*
X74355428Y-293126229D01*
X74358087Y-293121151D01*
X74360728Y-293116063D01*
X74363351Y-293110968D01*
X74365957Y-293105862D01*
X74368543Y-293100749D01*
X74371113Y-293095626D01*
X74373663Y-293090496D01*
X74376196Y-293085355D01*
X74378710Y-293080209D01*
X74381207Y-293075052D01*
X74383685Y-293069888D01*
X74386145Y-293064715D01*
X74388586Y-293059535D01*
X74391010Y-293054345D01*
X74393414Y-293049149D01*
X74395801Y-293043943D01*
X74398169Y-293038731D01*
X74400519Y-293033509D01*
X74402850Y-293028282D01*
X74405164Y-293023044D01*
X74407458Y-293017801D01*
X74409734Y-293012549D01*
X74411991Y-293007290D01*
X74414231Y-293002023D01*
X74416451Y-292996749D01*
X74418653Y-292991467D01*
X74420835Y-292986179D01*
X74423000Y-292980881D01*
X74425146Y-292975579D01*
X74427273Y-292970267D01*
X74429381Y-292964950D01*
X74431471Y-292959625D01*
X74433542Y-292954294D01*
X74435594Y-292948954D01*
X74437627Y-292943609D01*
X74439642Y-292938256D01*
X74441637Y-292932897D01*
X74443615Y-292927530D01*
X74445572Y-292922158D01*
X74447512Y-292916778D01*
X74449432Y-292911393D01*
X74451333Y-292906000D01*
X74453215Y-292900602D01*
X74455079Y-292895196D01*
X74456923Y-292889785D01*
X74458748Y-292884366D01*
X74460554Y-292878943D01*
X74462342Y-292873512D01*
X74464110Y-292868076D01*
X74465859Y-292862633D01*
X74467589Y-292857186D01*
X74469300Y-292851730D01*
X74470992Y-292846271D01*
X74472665Y-292840803D01*
X74474318Y-292835332D01*
X74475953Y-292829854D01*
X74477568Y-292824371D01*
X74479164Y-292818881D01*
X74480740Y-292813387D01*
X74482298Y-292807886D01*
X74483836Y-292802381D01*
X74485356Y-292796869D01*
X74486855Y-292791354D01*
X74488336Y-292785830D01*
X74489797Y-292780304D01*
X74491239Y-292774771D01*
X74492661Y-292769234D01*
X74494064Y-292763690D01*
X74495448Y-292758143D01*
X74496812Y-292752589D01*
X74498157Y-292747033D01*
X74499483Y-292741468D01*
X74500789Y-292735902D01*
X74502076Y-292730328D01*
X74503343Y-292724752D01*
X74504591Y-292719168D01*
X74505820Y-292713583D01*
X74507029Y-292707990D01*
X74508218Y-292702395D01*
X74509388Y-292696793D01*
X74510539Y-292691189D01*
X74511670Y-292685578D01*
X74512781Y-292679965D01*
X74513873Y-292674345D01*
X74514945Y-292668723D01*
X74515998Y-292663095D01*
X74517031Y-292657464D01*
X74518045Y-292651827D01*
X74519039Y-292646189D01*
X74520014Y-292640544D01*
X74520969Y-292634897D01*
X74521904Y-292629243D01*
X74522819Y-292623589D01*
X74523716Y-292617927D01*
X74524592Y-292612265D01*
X74525448Y-292606596D01*
X74526285Y-292600925D01*
X74527103Y-292595249D01*
X74527900Y-292589571D01*
X74528678Y-292583887D01*
X74529436Y-292578202D01*
X74530175Y-292572511D01*
X74530894Y-292566818D01*
X74531593Y-292561120D01*
X74532272Y-292555421D01*
X74532932Y-292549715D01*
X74533571Y-292544009D01*
X74534191Y-292538297D01*
X74534792Y-292532584D01*
X74535372Y-292526866D01*
X74535933Y-292521146D01*
X74536474Y-292515421D01*
X74536995Y-292509696D01*
X74537496Y-292503964D01*
X74537977Y-292498232D01*
X74538439Y-292492495D01*
X74538881Y-292486757D01*
X74539303Y-292481013D01*
X74539704Y-292475269D01*
X74540087Y-292469520D01*
X74540449Y-292463770D01*
X74540791Y-292458015D01*
X74541114Y-292452260D01*
X74541416Y-292446499D01*
X74541699Y-292440738D01*
X74541962Y-292434972D01*
X74542205Y-292429206D01*
X74542428Y-292423435D01*
X74542631Y-292417664D01*
X74542814Y-292411887D01*
X74542977Y-292406111D01*
X74543120Y-292400330D01*
X74543243Y-292394548D01*
X74543347Y-292388762D01*
X74543430Y-292382976D01*
X74543493Y-292377185D01*
X74543536Y-292371395D01*
X74543560Y-292365599D01*
X74543564Y-292361763D01*
D21*
X72899476Y-32069897D02*
X40899478Y-64069928D01*
X40899475Y-64069931D01*
D11*
X72899476Y-94069901D02*
X70899468Y-96069893D01*
D21*
X72899476Y-96069893D02*
X73620689Y-95348674D01*
X73927850Y-95041524D01*
X74413678Y-94555713D01*
X74899483Y-94069901D01*
D25*
X72960324Y-208070015D02*
X84899995Y-208070015D01*
X72960324Y-216070000D02*
X72960324Y-208070015D01*
D24*
X74543564Y-292361763D02*
X74543524Y-292350184D01*
X74543404Y-292338615D01*
X74543205Y-292327055D01*
X74542925Y-292315504D01*
X74542566Y-292303964D01*
X74542127Y-292292434D01*
X74541609Y-292280914D01*
X74541011Y-292269405D01*
X74540334Y-292257907D01*
X74539578Y-292246421D01*
X74538742Y-292234946D01*
X74537827Y-292223483D01*
X74536832Y-292212033D01*
X74535759Y-292200595D01*
X74534606Y-292189169D01*
X74533375Y-292177757D01*
X74532064Y-292166359D01*
X74530675Y-292154974D01*
X74529207Y-292143604D01*
X74527660Y-292132248D01*
X74526035Y-292120906D01*
X74524331Y-292109580D01*
X74522548Y-292098269D01*
X74520687Y-292086974D01*
X74518748Y-292075695D01*
X74516731Y-292064433D01*
X74514635Y-292053187D01*
X74512461Y-292041959D01*
X74510209Y-292030748D01*
X74507880Y-292019556D01*
X74505472Y-292008381D01*
X74502987Y-291997225D01*
X74500424Y-291986088D01*
X74497783Y-291974971D01*
X74495066Y-291963873D01*
X74492270Y-291952795D01*
X74489398Y-291941738D01*
X74486448Y-291930702D01*
X74483421Y-291919688D01*
X74480318Y-291908695D01*
X74477137Y-291897724D01*
X74473880Y-291886776D01*
X74470547Y-291875851D01*
X74467136Y-291864949D01*
X74463650Y-291854071D01*
X74460088Y-291843217D01*
X74456449Y-291832388D01*
X74452734Y-291821584D01*
X74448944Y-291810806D01*
X74445078Y-291800053D01*
X74441137Y-291789327D01*
X74437120Y-291778628D01*
X74433028Y-291767956D01*
X74428862Y-291757311D01*
X74424620Y-291746695D01*
X74420304Y-291736108D01*
X74415913Y-291725550D01*
X74411448Y-291715021D01*
X74406909Y-291704522D01*
X74402296Y-291694054D01*
X74397609Y-291683616D01*
X74392849Y-291673210D01*
X74388015Y-291662836D01*
X74383108Y-291652495D01*
X74378129Y-291642186D01*
X74373076Y-291631910D01*
X74367952Y-291621669D01*
X74362754Y-291611461D01*
X74357485Y-291601289D01*
X74352144Y-291591151D01*
X74346732Y-291581050D01*
X74341248Y-291570984D01*
X74335693Y-291560955D01*
X74330068Y-291550964D01*
X74324372Y-291541010D01*
X74318605Y-291531095D01*
X74312769Y-291521218D01*
X74306863Y-291511380D01*
X74300887Y-291501582D01*
X74294842Y-291491824D01*
X74288729Y-291482107D01*
X74282546Y-291472431D01*
X74276296Y-291462797D01*
X74269978Y-291453205D01*
X74263592Y-291443655D01*
X74257138Y-291434149D01*
X74250618Y-291424687D01*
X74244031Y-291415268D01*
X74237377Y-291405895D01*
X74230658Y-291396566D01*
X74223873Y-291387283D01*
X74217022Y-291378047D01*
X74210107Y-291368857D01*
X74203127Y-291359714D01*
X74196083Y-291350619D01*
X74188975Y-291341572D01*
X74181803Y-291332573D01*
X74174568Y-291323624D01*
X74167271Y-291314724D01*
X74159911Y-291305875D01*
X74152489Y-291297076D01*
X74145006Y-291288328D01*
X74137461Y-291279631D01*
X74129856Y-291270987D01*
X74122190Y-291262395D01*
X74114464Y-291253856D01*
X74106679Y-291245370D01*
X74098835Y-291236939D01*
X74090932Y-291228562D01*
X74082971Y-291220239D01*
X74074952Y-291211972D01*
X74066875Y-291203761D01*
X74058742Y-291195605D01*
X74054654Y-291191549D01*
X74050552Y-291187507D01*
X74046436Y-291183479D01*
X74042306Y-291179465D01*
X74038162Y-291175466D01*
X74034004Y-291171481D01*
X74029833Y-291167511D01*
X74025648Y-291163555D01*
X74021449Y-291159614D01*
X74017236Y-291155688D01*
X74013010Y-291151776D01*
X74008771Y-291147879D01*
X74004518Y-291143997D01*
X74000251Y-291140129D01*
X73995972Y-291136277D01*
X73991679Y-291132439D01*
X73987373Y-291128617D01*
X73983053Y-291124810D01*
X73978721Y-291121018D01*
X73974375Y-291117240D01*
X73970017Y-291113479D01*
X73965646Y-291109732D01*
X73961262Y-291106001D01*
X73956865Y-291102285D01*
X73952455Y-291098585D01*
X73948032Y-291094900D01*
X73943598Y-291091231D01*
X73939150Y-291087577D01*
X73934690Y-291083939D01*
X73930217Y-291080316D01*
X73925733Y-291076709D01*
X73921236Y-291073118D01*
X73916726Y-291069543D01*
X73912205Y-291065984D01*
X73907671Y-291062440D01*
X73903125Y-291058913D01*
X73898568Y-291055402D01*
X73893998Y-291051906D01*
X73889417Y-291048427D01*
X73884823Y-291044963D01*
X73880218Y-291041517D01*
X73875601Y-291038086D01*
X73870973Y-291034672D01*
X73866332Y-291031273D01*
X73861681Y-291027892D01*
X73857018Y-291024526D01*
X73852344Y-291021178D01*
X73847658Y-291017845D01*
X73842961Y-291014529D01*
X73838253Y-291011230D01*
X73833534Y-291007948D01*
X73828803Y-291004681D01*
X73824062Y-291001432D01*
X73819309Y-290998200D01*
X73814546Y-290994984D01*
X73809772Y-290991785D01*
X73804988Y-290988603D01*
X73800192Y-290985438D01*
X73795386Y-290982290D01*
X73790569Y-290979159D01*
X73785742Y-290976045D01*
X73780904Y-290972948D01*
X73776056Y-290969868D01*
X73771197Y-290966805D01*
X73766329Y-290963760D01*
X73761450Y-290960731D01*
X73756561Y-290957720D01*
X73751662Y-290954726D01*
X73746753Y-290951750D01*
X73741834Y-290948790D01*
X73736905Y-290945849D01*
X73731966Y-290942924D01*
X73727018Y-290940018D01*
X73722059Y-290937128D01*
X73717092Y-290934257D01*
X73712114Y-290931402D01*
X73707128Y-290928566D01*
X73702131Y-290925747D01*
X73697126Y-290922946D01*
X73692110Y-290920162D01*
X73687086Y-290917396D01*
X73682052Y-290914648D01*
X73677010Y-290911918D01*
X73671957Y-290909205D01*
X73666897Y-290906511D01*
X73661827Y-290903834D01*
X73656749Y-290901176D01*
X73651660Y-290898535D01*
X73646565Y-290895912D01*
X73641459Y-290893307D01*
X73636346Y-290890721D01*
X73631223Y-290888152D01*
X73626093Y-290885602D01*
X73620953Y-290883069D01*
X73615806Y-290880555D01*
X73610649Y-290878059D01*
X73605486Y-290875582D01*
X73600312Y-290873122D01*
X73595132Y-290870681D01*
X73589943Y-290868257D01*
X73584746Y-290865853D01*
X73579541Y-290863466D01*
X73574329Y-290861099D01*
X73569107Y-290858749D01*
X73563879Y-290856418D01*
X73558642Y-290854105D01*
X73553399Y-290851812D01*
X73548146Y-290849536D01*
X73542888Y-290847279D01*
X73537620Y-290845040D01*
X73532347Y-290842820D01*
X73527065Y-290840618D01*
X73521776Y-290838436D01*
X73516479Y-290836271D01*
X73511177Y-290834126D01*
X73505865Y-290831999D01*
X73500548Y-290829891D01*
X73495222Y-290827802D01*
X73489891Y-290825732D01*
X73484552Y-290823679D01*
X73479207Y-290821647D01*
X73473853Y-290819632D01*
X73468495Y-290817637D01*
X73463128Y-290815660D01*
X73457756Y-290813703D01*
X73452376Y-290811764D01*
X73446991Y-290809844D01*
X73441597Y-290807943D01*
X73436199Y-290806061D01*
X73430793Y-290804198D01*
X73425382Y-290802354D01*
X73419963Y-290800529D01*
X73414540Y-290798723D01*
X73409109Y-290796936D01*
X73403674Y-290795168D01*
X73398230Y-290793419D01*
X73392783Y-290791689D01*
X73387327Y-290789978D01*
X73381868Y-290788287D01*
X73376400Y-290786614D01*
X73370929Y-290784962D01*
X73365450Y-290783327D01*
X73359968Y-290781713D01*
X73354477Y-290780117D01*
X73348984Y-290778540D01*
X73343482Y-290776983D01*
X73337978Y-290775445D01*
X73332465Y-290773926D01*
X73326950Y-290772427D01*
X73321426Y-290770947D01*
X73315900Y-290769486D01*
X73310366Y-290768044D01*
X73304830Y-290766622D01*
X73299286Y-290765219D01*
X73293739Y-290763836D01*
X73288185Y-290762471D01*
X73282628Y-290761127D01*
X73277063Y-290759801D01*
X73271497Y-290758496D01*
X73265923Y-290757209D01*
X73260346Y-290755942D01*
X73254763Y-290754694D01*
X73249177Y-290753466D01*
X73243584Y-290752257D01*
X73237989Y-290751068D01*
X73232386Y-290749898D01*
X73226782Y-290748748D01*
X73221171Y-290747617D01*
X73215558Y-290746506D01*
X73209938Y-290745414D01*
X73204316Y-290744342D01*
X73198687Y-290743290D01*
X73193057Y-290742257D01*
X73187420Y-290741243D01*
X73181781Y-290740250D01*
X73176135Y-290739275D01*
X73170488Y-290738321D01*
X73164835Y-290737386D01*
X73159180Y-290736471D01*
X73153518Y-290735575D01*
X73147856Y-290734699D01*
X73142186Y-290733842D01*
X73136516Y-290733006D01*
X73130839Y-290732188D01*
X73125161Y-290731391D01*
X73119477Y-290730613D01*
X73113791Y-290729856D01*
X73108100Y-290729117D01*
X73102407Y-290728399D01*
X73096708Y-290727700D01*
X73091009Y-290727021D01*
X73085303Y-290726362D01*
X73079597Y-290725722D01*
X73073885Y-290725102D01*
X73068171Y-290724502D01*
X73062452Y-290723922D01*
X73056733Y-290723362D01*
X73051007Y-290722821D01*
X73045281Y-290722300D01*
X73039550Y-290721799D01*
X73033817Y-290721318D01*
X73028080Y-290720857D01*
X73022341Y-290720415D01*
X73016597Y-290719994D01*
X73010853Y-290719592D01*
X73005103Y-290719210D01*
X72999353Y-290718848D01*
X72993598Y-290718506D01*
X72987842Y-290718183D01*
X72982081Y-290717881D01*
X72976320Y-290717599D01*
X72970554Y-290717336D01*
X72964787Y-290717093D01*
X72959016Y-290716871D01*
X72953244Y-290716668D01*
X72947467Y-290716485D01*
X72941690Y-290716322D01*
X72935909Y-290716179D01*
X72930127Y-290716056D01*
X72924340Y-290715953D01*
X72918554Y-290715870D01*
X72912763Y-290715807D01*
X72906971Y-290715764D01*
X72901175Y-290715741D01*
X72897408Y-290715737D01*
D11*
X74543690Y-292361580D02*
X77281060Y-292361580D01*
D21*
X74899483Y-32069897D02*
X61694127Y-45275270D01*
X57762383Y-49207011D01*
X49330917Y-57638471D01*
X40899475Y-66069931D01*
X74899483Y-90069901D02*
X76374657Y-88594725D01*
X101637064Y-63332307D01*
X114268298Y-50701098D01*
X126899567Y-38069889D01*
D11*
X74899483Y-96069893D02*
X137661576Y-33307804D01*
D21*
X76899491Y-62069939D02*
X67881025Y-71088482D01*
X54400836Y-84568673D01*
X42899612Y-96069893D01*
X76899491Y-70069931D02*
X71636348Y-75333081D01*
X56899541Y-90069901D01*
X76899491Y-92069908D02*
X97446040Y-71523385D01*
X116762686Y-52206766D01*
X126420982Y-42548456D01*
X136079247Y-32890145D01*
X76899491Y-96069893D02*
X100709435Y-72259999D01*
X107101361Y-65868079D01*
X123138775Y-49830683D01*
X139176217Y-33793286D01*
X78899502Y-58069946D02*
X80405555Y-56563822D01*
X82568468Y-54400912D01*
X82899518Y-54069866D01*
D11*
X78899502Y-66069931D02*
X82899518Y-62069939D01*
D21*
X78899502Y-96069893D02*
X80422841Y-94546516D01*
X82363526Y-92605879D01*
X82868981Y-92100443D01*
X82899518Y-92069908D01*
D11*
X80899510Y-32069897D02*
X40899475Y-72069931D01*
D21*
X80899510Y-50069874D02*
X82723848Y-48245544D01*
X90811692Y-40157719D01*
X94855587Y-36113808D01*
X98899453Y-32069897D01*
D11*
X80899510Y-54069866D02*
X40899475Y-94069901D01*
X80899510Y-58069946D02*
X106899483Y-32069897D01*
D21*
X80899510Y-62069939D02*
X70110486Y-72858960D01*
X66899517Y-76069919D01*
X59899508Y-83069910D01*
X52899523Y-90069901D01*
X80899510Y-66069931D02*
X91563408Y-55406069D01*
X95344011Y-51625468D01*
X102121805Y-44847679D01*
X108899621Y-38069889D01*
X80899510Y-70069931D02*
X73207218Y-77762231D01*
X60899556Y-90069901D01*
D11*
X82899518Y-58069946D02*
X108882439Y-32087082D01*
D21*
X82899518Y-66069931D02*
X93604567Y-55364854D01*
X96529696Y-52439725D01*
X103714610Y-45254808D01*
X110899499Y-38069889D01*
X82899518Y-70069931D02*
X75585535Y-77383824D01*
X64937647Y-88031690D01*
X62899436Y-90069901D01*
X82899518Y-94069901D02*
X82160238Y-94809181D01*
X81927685Y-95041724D01*
X81413585Y-95555807D01*
X80899510Y-96069893D01*
X82899518Y-96069893D02*
X83666081Y-95341310D01*
X84641953Y-94413881D01*
X84902044Y-94166709D01*
X85003911Y-94069901D01*
D11*
X84899525Y-32069897D02*
X40899475Y-76069924D01*
D21*
X84899525Y-50069874D02*
X89595807Y-45373556D01*
X94014672Y-40954708D01*
X98457094Y-36512303D01*
X102899468Y-32069897D01*
X84899525Y-60069946D02*
X93548551Y-51420877D01*
X95678621Y-49290803D01*
X101289065Y-43680345D01*
X106899483Y-38069889D01*
X84899525Y-68069931D02*
X93025569Y-59943851D01*
X100017170Y-52952262D01*
X107458369Y-45511076D01*
X114899522Y-38069889D01*
X84899525Y-90069901D02*
X100026925Y-74942536D01*
X122155567Y-52813837D01*
X140638009Y-34331341D01*
X86899663Y-90069901D02*
X108496576Y-68472952D01*
X114256843Y-62712683D01*
X128157861Y-48811658D01*
X142058854Y-34910633D01*
X86899663Y-94069901D02*
X86113292Y-94856206D01*
X85865693Y-95103794D01*
X84899525Y-96069893D01*
X86899663Y-96069893D02*
X87141994Y-95823874D01*
X88005824Y-94946886D01*
X88437711Y-94508394D01*
X88869569Y-94069901D01*
X88899541Y-32069897D02*
X70403984Y-50565429D01*
X64899508Y-56069906D01*
X52899504Y-68069911D01*
X40899475Y-80069916D01*
D11*
X88899541Y-90069901D02*
X143418336Y-35551132D01*
D21*
X88899930Y-104069901D02*
X88921250Y-100071987D01*
X88942593Y-96069916D01*
X90899419Y-90069901D02*
X110378719Y-70590662D01*
X140588850Y-40380507D01*
X144729623Y-36239727D01*
X90899419Y-94069901D02*
X90367043Y-94602362D01*
X89605126Y-95364296D01*
X88899541Y-96069893D01*
X90899419Y-96069893D02*
X91861186Y-95108193D01*
X92380358Y-94589047D01*
X92899556Y-94069901D01*
X92899556Y-32069897D02*
X72783384Y-52186049D01*
X67602222Y-57367199D01*
X54250836Y-70718556D01*
X40899475Y-84069916D01*
D11*
X92899556Y-90069901D02*
X145971535Y-36997917D01*
D21*
X92899556Y-96069893D02*
X113583832Y-75385597D01*
X121180470Y-67788964D01*
X135320938Y-53648502D01*
X149461381Y-39508038D01*
D11*
X92899918Y-208070015D02*
X96899998Y-208070015D01*
D21*
X94899438Y-90069901D02*
X113125762Y-71843611D01*
X121112127Y-63857277D01*
X134133927Y-50835523D01*
X147155701Y-37813767D01*
X94899438Y-92069908D02*
X115165091Y-71804406D01*
X146732252Y-40237359D01*
X148314934Y-38654682D01*
X94899438Y-96069893D02*
X114949394Y-76019997D01*
X123087981Y-67881448D01*
X136793460Y-54176029D01*
X150498917Y-40470608D01*
X96899575Y-32069897D02*
X92004727Y-36964661D01*
X84460474Y-44508901D01*
X78899502Y-50069874D01*
X96899575Y-96069893D02*
X105699562Y-87269911D01*
X140899621Y-52069866D01*
X98899453Y-96069893D02*
X110061033Y-84908410D01*
X127433946Y-67535527D01*
X140899621Y-54069866D01*
X100899590Y-32069897D02*
X95936145Y-37033259D01*
X88464975Y-44504417D01*
X82899518Y-50069874D01*
X104899605Y-32069897D02*
X97506645Y-39462827D01*
X94562482Y-42406965D01*
X89730991Y-47238416D01*
X84899525Y-52069866D01*
X104899605Y-96069893D02*
X117837217Y-83132320D01*
X123943093Y-77026446D01*
X132421346Y-68548196D01*
X140899621Y-60069946D01*
X104899605Y-242070076D02*
X109324637Y-237644979D01*
X114121255Y-232848356D01*
X118510428Y-228459180D01*
X122899552Y-224070000D01*
X104899605Y-246070061D02*
X115951229Y-235018387D01*
X126899567Y-224070000D01*
X104899605Y-250070046D02*
X112494092Y-242475488D01*
X122855818Y-232113760D01*
X130899583Y-224070000D01*
D11*
X104899605Y-254070061D02*
X134899598Y-224070000D01*
X104899605Y-256070046D02*
X136899605Y-224070000D01*
D21*
X104899605Y-258070046D02*
X116835627Y-246134003D01*
X121466490Y-241503144D01*
X130183064Y-232786575D01*
X138899613Y-224070000D01*
X104899605Y-260070046D02*
X122250972Y-242718663D01*
X131575284Y-233394332D01*
X140899621Y-224070000D01*
X104899605Y-262070046D02*
X113646253Y-253323379D01*
X117727738Y-249241868D01*
X123482819Y-243486753D01*
X129237923Y-237731636D01*
D11*
X104899605Y-264070046D02*
X116899399Y-252070046D01*
D21*
X104899605Y-266070046D02*
X108175605Y-262794013D01*
X110737973Y-260231582D01*
X113818662Y-257150819D01*
X116899399Y-254070061D01*
X104899605Y-268070107D02*
X108475574Y-264494053D01*
X113772332Y-259197279D01*
X118899537Y-254070061D01*
X104899605Y-270070137D02*
X114705932Y-260263644D01*
X120899415Y-254070061D01*
X104899605Y-272070107D02*
X109998309Y-266971359D01*
X113603281Y-263366387D01*
X118251442Y-258718223D01*
X122899552Y-254070061D01*
D11*
X104899605Y-274070107D02*
X128899575Y-250070046D01*
D21*
X104899605Y-276070107D02*
X109348405Y-271621310D01*
X119124029Y-261845681D01*
X124011815Y-256957865D01*
X128899575Y-252070046D01*
D11*
X104899605Y-278070107D02*
X128899575Y-254070061D01*
X104899605Y-280070107D02*
X128899575Y-256070046D01*
D21*
X104899605Y-282070107D02*
X106569177Y-280400535D01*
X117734421Y-269235280D01*
X123317015Y-263652659D01*
X128899575Y-258070046D01*
X104899605Y-284070107D02*
X106569177Y-282400535D01*
X117734421Y-271235280D01*
X123317015Y-265652659D01*
X128899575Y-260070046D01*
X104899605Y-286070107D02*
X112860604Y-278109093D01*
X120880119Y-270089563D01*
X128899575Y-262070046D01*
D11*
X104899605Y-288070107D02*
X116899399Y-276070107D01*
X104899605Y-290070107D02*
X116899399Y-278070107D01*
D21*
X104899605Y-292070076D02*
X108925614Y-288043992D01*
X113976119Y-282993491D01*
X115944534Y-281025090D01*
X118899537Y-278070107D01*
D11*
X104899605Y-294070107D02*
X120899415Y-278070107D01*
D21*
X104899605Y-296070076D02*
X110372021Y-290597637D01*
X113877574Y-287092096D01*
X118388588Y-282581096D01*
X122899552Y-278070107D01*
X104899605Y-298070076D02*
X117136460Y-285833212D01*
X124725226Y-278244450D01*
X132313966Y-270655678D01*
X104899605Y-300070076D02*
X109326817Y-295642883D01*
X119113235Y-285856498D01*
X124006419Y-280963305D01*
X128899575Y-276070107D01*
D11*
X104899605Y-302070046D02*
X128899575Y-278070107D01*
D21*
X104899605Y-304070076D02*
X112040046Y-296929584D01*
X122095331Y-286874329D01*
X130899583Y-278070107D01*
D11*
X104899605Y-306070046D02*
X132899590Y-278070107D01*
D21*
X104899605Y-310070168D02*
X112742577Y-302228255D01*
X122586825Y-292385433D01*
X126372780Y-288600039D01*
X136904259Y-278070107D01*
X104899605Y-314070137D02*
X116960393Y-302009359D01*
X123338640Y-295631097D01*
X132119119Y-286850599D01*
X140899621Y-278070107D01*
X104899605Y-318070168D02*
X125011798Y-297960881D01*
X149778229Y-273198126D01*
X163961093Y-259017390D01*
X168909165Y-254070061D01*
D11*
X104899605Y-320070137D02*
X148899529Y-276070107D01*
D26*
X104899979Y-96069977D02*
X104899979Y-288070320D01*
D21*
X105921250Y-237048317D02*
X110850421Y-232119105D01*
X117855027Y-225114449D01*
X106899483Y-36069889D02*
X98422424Y-44546994D01*
X95678621Y-47290803D01*
X90289061Y-52680376D01*
X84899525Y-58069946D01*
X106899483Y-96069893D02*
X119848517Y-83120939D01*
X124369912Y-78599561D01*
X132634755Y-70334750D01*
X140899621Y-62069939D01*
X108899621Y-320070137D02*
X123692503Y-305277195D01*
X132284191Y-296685496D01*
X150899537Y-278070107D01*
X110899499Y-32087082D02*
X110220837Y-32759923D01*
X109560186Y-33414907D01*
X109229887Y-33742398D01*
X108899621Y-34069889D01*
X110899499Y-96069893D02*
X112478573Y-94490840D01*
X112899510Y-94069901D01*
X113899505Y-93069905D01*
X114899522Y-92069908D01*
X112899636Y-32087082D02*
X112127152Y-32852868D01*
X111911377Y-33066779D01*
X111405450Y-33568334D01*
X110899499Y-34069889D01*
X112899636Y-38069889D02*
X101936494Y-49033001D01*
X99393699Y-51575795D01*
X92146625Y-58822864D01*
X84899525Y-66069931D01*
X112899636Y-320070137D02*
X131944716Y-301028220D01*
X143425673Y-289549162D01*
X154906655Y-278070107D01*
D11*
X114066361Y-226903114D02*
X107721139Y-233248467D01*
D21*
X114899522Y-32087082D02*
X114249417Y-32731608D01*
X113574484Y-33400749D01*
X113237044Y-33735319D01*
X112899636Y-34069889D01*
X114899522Y-94069901D02*
X114260787Y-94708640D01*
X113580169Y-95389264D01*
X113239887Y-95729577D01*
X112899636Y-96069893D01*
X114899522Y-96069893D02*
X115603394Y-95366008D01*
X116251438Y-94717955D01*
X116575434Y-94393928D01*
X116899399Y-94069901D01*
X116899399Y-32087082D02*
X116361840Y-32620110D01*
X115555846Y-33419196D01*
X114899522Y-34069889D01*
X116899399Y-90069901D02*
X127522525Y-79446838D01*
X130484638Y-76484734D01*
X137692062Y-69277336D01*
X144899514Y-62069939D01*
X116899399Y-320070137D02*
X136232771Y-300740401D01*
X152570984Y-284405263D01*
X168909165Y-268070107D01*
X118899537Y-32087082D02*
X118127052Y-32852868D01*
X117915109Y-33062982D01*
X117407266Y-33566436D01*
X116899399Y-34069889D01*
X118899537Y-90069901D02*
X129563340Y-79406096D01*
X133459527Y-75509920D01*
X146899522Y-62069939D01*
X118899537Y-94069901D02*
X118113166Y-94856206D01*
X117865567Y-95103794D01*
X116899399Y-96069893D01*
X118899537Y-96069893D02*
X119605122Y-95364296D01*
X120252310Y-94717099D01*
X120575878Y-94393500D01*
X120899415Y-94069901D01*
X118899537Y-250070046D02*
X122332516Y-246637101D01*
X124145456Y-244824158D01*
X126522504Y-242447109D01*
X128899575Y-240070061D01*
X118899537Y-274070107D02*
X122343290Y-270626357D01*
X123883882Y-269085750D01*
X126391716Y-266577895D01*
X128899575Y-264070046D01*
X120577599Y-224391976D02*
X116664953Y-228304639D01*
X112701764Y-232267787D01*
X108967512Y-236002000D01*
X105233308Y-239736214D01*
X120899415Y-32087082D02*
X120360826Y-32621130D01*
X119557549Y-33417523D01*
X118899537Y-34069889D01*
D11*
X120899415Y-250070046D02*
X128899575Y-242070076D01*
D21*
X120899415Y-274070107D02*
X124598152Y-270371405D01*
X126849582Y-268120007D01*
X129100983Y-265868599D01*
D11*
X120899415Y-320070137D02*
X168899735Y-272070107D01*
D21*
X122899552Y-32069897D02*
X122160175Y-32809210D01*
X121881032Y-33088342D01*
X121390235Y-33579116D01*
X120899415Y-34069889D01*
X122899552Y-90069901D02*
X133244350Y-79725095D01*
X142899506Y-70069931D01*
X122899552Y-94069901D02*
X122113181Y-94856206D01*
X121861182Y-95108193D01*
X120899415Y-96069893D01*
D11*
X122899552Y-96069893D02*
X124899430Y-94069901D01*
D21*
X122899552Y-250070046D02*
X125932531Y-247037079D01*
X128899575Y-244070046D01*
X122899552Y-274070107D02*
X125200525Y-271769159D01*
X126901067Y-270068600D01*
X129602120Y-267367531D01*
D11*
X124899430Y-32087082D02*
X122899552Y-34069889D01*
D21*
X124899430Y-38069889D02*
X107004213Y-55965154D01*
X89951887Y-73017528D01*
X81425697Y-81543715D01*
X72899476Y-90069901D01*
X124899430Y-96069893D02*
X137304980Y-83664364D01*
X148988290Y-71981072D01*
X154829971Y-66139427D01*
X160671685Y-60297783D01*
X124899430Y-224070000D02*
X115886336Y-233083201D01*
X110392983Y-238576630D01*
X104899605Y-244070046D01*
X124899430Y-250070046D02*
X126374181Y-248595381D01*
X127636919Y-247332721D01*
X128268262Y-246701392D01*
X128899575Y-246070061D01*
X124899430Y-252070046D02*
X126235913Y-250733648D01*
X127567787Y-249401859D01*
X128233697Y-248735962D01*
X128899575Y-248070061D01*
X124899430Y-274070107D02*
X126217492Y-272752087D01*
X127492696Y-271476869D01*
X128910859Y-270058695D01*
X129619956Y-269349614D01*
X130329072Y-268640541D01*
X124899430Y-276070107D02*
X126609076Y-274360494D01*
X127927284Y-273042350D01*
X129581537Y-271388173D01*
X131235741Y-269733986D01*
X124899430Y-320070137D02*
X148220524Y-296754188D01*
X168909165Y-276070107D01*
X126899567Y-32087082D02*
X126124024Y-32855901D01*
X125919092Y-33059063D01*
X125409273Y-33564476D01*
X124899430Y-34069889D01*
X126899567Y-90069901D02*
X136899538Y-80069922D01*
X146899522Y-70069931D01*
X126899567Y-92069908D02*
X128846117Y-90123357D01*
X144634829Y-74334650D01*
X152529216Y-66440296D01*
X160423638Y-58545944D01*
D11*
X126899567Y-96069893D02*
X160881104Y-62088318D01*
D21*
X128899575Y-32087082D02*
X128356589Y-32625376D01*
X127907359Y-33070765D01*
X127403488Y-33570327D01*
X126899567Y-34069889D01*
X128899575Y-38069889D02*
X125649578Y-41319888D01*
X101274579Y-65694895D01*
X89087051Y-77882398D01*
X76899491Y-90069901D01*
D11*
X128899575Y-96069893D02*
X132899590Y-92069908D01*
X128899575Y-224070000D02*
X104899605Y-248070061D01*
D21*
X128899575Y-320070137D02*
X147107862Y-301861922D01*
X153005640Y-295964158D01*
X168899735Y-280070107D01*
X130899583Y-32087082D02*
X130144976Y-32835208D01*
X129884179Y-33093754D01*
X129391865Y-33581822D01*
X128899575Y-34069889D01*
X130899583Y-34069889D02*
X131595076Y-33374328D01*
X132620128Y-32349284D01*
X132676087Y-32293327D01*
X130899583Y-36069889D02*
X131881615Y-35087855D01*
X132651460Y-34317971D01*
X133541733Y-33427655D01*
X134432053Y-32537338D01*
X130899583Y-274070107D02*
X132026075Y-272943509D01*
X133409850Y-271559684D01*
X133595803Y-271373726D01*
X132899590Y-94069901D02*
X132350274Y-94619189D01*
X131883328Y-95086153D01*
X131391479Y-95578021D01*
X130899583Y-96069893D01*
X132899590Y-224070000D02*
X121891713Y-235077907D01*
X118899598Y-238070023D01*
X111899589Y-245070036D01*
X104899605Y-252070046D01*
X132899590Y-274070107D02*
X133453325Y-273516403D01*
X134146085Y-272823585D01*
X134432102Y-272537530D01*
X135100617Y-271868935D01*
X132899590Y-320070137D02*
X149590575Y-303379207D01*
X168899735Y-284070107D01*
X134573777Y-232395867D02*
X138573392Y-228396184D01*
X140736435Y-226233095D01*
X142899506Y-224070000D01*
X134899598Y-90069901D02*
X145847282Y-79122228D01*
X160900353Y-64069172D01*
X134899598Y-94069901D02*
X134245583Y-94723914D01*
X134007043Y-94962465D01*
X133591435Y-95378091D01*
X133175805Y-95793717D01*
X134899598Y-274070107D02*
X135409625Y-273560109D01*
X135899602Y-273070107D01*
X136399579Y-272570104D01*
X136899605Y-272070107D01*
D11*
X134899598Y-278074623D02*
X104899605Y-308070046D01*
D21*
X136899605Y-90069901D02*
X143192529Y-83777000D01*
X152882009Y-74087436D01*
X160843896Y-66125473D01*
X136899605Y-94069901D02*
X136457107Y-94512384D01*
X136024369Y-94945108D01*
X135807974Y-95161470D01*
X135591546Y-95377831D01*
X136899605Y-232070076D02*
X139619143Y-229350452D01*
X142259287Y-226710224D01*
X143579385Y-225390111D01*
X144899514Y-224070000D01*
X136899605Y-274070107D02*
X137692434Y-273277307D01*
X138834134Y-272135545D01*
X139208901Y-271760750D01*
X136899605Y-320070137D02*
X146957382Y-310015372D01*
X153246702Y-303727909D01*
X161077923Y-295899002D01*
X168909165Y-288070107D01*
D25*
X136899979Y-208070015D02*
X148839646Y-208070015D01*
X136899979Y-216070000D02*
X136899979Y-208070015D01*
D21*
X138693040Y-232276573D02*
X141253105Y-229716507D01*
X144076357Y-226893252D01*
X145487956Y-225481625D01*
X146899522Y-224070000D01*
X138899613Y-90069901D02*
X146521537Y-82447909D01*
X153561235Y-75408145D01*
X157081110Y-71888264D01*
X160601014Y-68368385D01*
X138899613Y-94069901D02*
X138669021Y-94300504D01*
X138613373Y-94356148D01*
X138453724Y-94515790D01*
X138294099Y-94675438D01*
X138899613Y-278070107D02*
X123291075Y-293678664D01*
X114095328Y-302874411D01*
X104899605Y-312070168D01*
X140199921Y-232769585D02*
X143337194Y-229632370D01*
X148034992Y-224934546D01*
X148899529Y-224070000D01*
X140899621Y-70069931D02*
X135428717Y-75540795D01*
X130738222Y-80231212D01*
X125818795Y-85150558D01*
X120899415Y-90069901D01*
X140899621Y-90069901D02*
X148033058Y-82936447D01*
X150799671Y-80169814D01*
X155498598Y-75470856D01*
X160197549Y-70771897D01*
X140899621Y-92069908D02*
X149823451Y-83146073D01*
X154664193Y-78305318D01*
X159504960Y-73464562D01*
X140899621Y-274075447D02*
X156979487Y-257997966D01*
X168909165Y-246070061D01*
X140899621Y-320070137D02*
X156978472Y-303996732D01*
X168909165Y-292070076D01*
X141443650Y-93525826D02*
X145995338Y-88974129D01*
X150010653Y-84958851D01*
X154161871Y-80807672D01*
X158313042Y-76656494D01*
D11*
X141461602Y-233508049D02*
X150896050Y-224073555D01*
D21*
X142570191Y-234399437D02*
X145185974Y-231783613D01*
X147557417Y-229412180D01*
X150121794Y-226847813D01*
X152686120Y-224283440D01*
D11*
X142899506Y-50069874D02*
X151528176Y-41441231D01*
D21*
X142899506Y-54069866D02*
X126180865Y-70788562D01*
X120686217Y-76283217D01*
X100899590Y-96069893D01*
X142899506Y-58069946D02*
X142982269Y-57987185D01*
X144940943Y-56028529D01*
X145920250Y-55049199D01*
X146899522Y-54069866D01*
X142899506Y-62069939D02*
X133725681Y-71243838D01*
X120320125Y-84649394D01*
X108899621Y-96069893D01*
X142905190Y-278070107D02*
X133344690Y-287629174D01*
X122895046Y-298077319D01*
X113897349Y-307073727D01*
X104899605Y-316070137D01*
X143468590Y-235501030D02*
X146361748Y-232607902D01*
X150260005Y-228709593D01*
X154355141Y-224614403D01*
X144198518Y-236771111D02*
X147633765Y-233335851D01*
X151756054Y-229213551D01*
X153817227Y-227152403D01*
X155878434Y-225091255D01*
X144522141Y-266447395D02*
X158255987Y-252713706D01*
X168899735Y-242070076D01*
X144704819Y-238264717D02*
X147033757Y-235935799D01*
X152181864Y-230787724D01*
X154755892Y-228213686D01*
X157329896Y-225639641D01*
D11*
X144899514Y-50069874D02*
X152521142Y-42448338D01*
D21*
X144899514Y-54069866D02*
X133364845Y-65604555D01*
X123383094Y-75586280D01*
X113141258Y-85828088D01*
X102899468Y-96069893D01*
X144899514Y-58069946D02*
X146744875Y-56224562D01*
X155972100Y-46997231D01*
X144899514Y-66069931D02*
X148618041Y-62351373D01*
X151777030Y-59192402D01*
X155229093Y-55740357D01*
X158681107Y-52288311D01*
X144899514Y-70069931D02*
X136765478Y-78203926D01*
X134899466Y-80069922D01*
X129899436Y-85069913D01*
X124899430Y-90069901D01*
X144899514Y-240070061D02*
X148419099Y-236550463D01*
X151972435Y-232997057D01*
X155325325Y-229644100D01*
X158678261Y-226291145D01*
X144899514Y-242070076D02*
X149920796Y-237048793D01*
X152764845Y-234204766D01*
X156348465Y-230621171D01*
X159932061Y-227037575D01*
X144899514Y-244070046D02*
X149356885Y-239612658D01*
X152778286Y-236191281D01*
X156954065Y-232015529D01*
X161129792Y-227839775D01*
X144899514Y-246070061D02*
X153391320Y-237578266D01*
X162252335Y-228717262D01*
D11*
X144899514Y-248070061D02*
X163291550Y-229678154D01*
X144899514Y-250070046D02*
X164247948Y-230721581D01*
X144899514Y-252070046D02*
X165150872Y-231818703D01*
D21*
X144899514Y-254070061D02*
X152712651Y-246256882D01*
X155391267Y-243578262D01*
X160675447Y-238294073D01*
X165959603Y-233009880D01*
X144899514Y-256070046D02*
X152166098Y-248803502D01*
X166699357Y-234270317D01*
X144899514Y-258070046D02*
X151411211Y-251558353D01*
X159369948Y-243599626D01*
X163349343Y-239620261D01*
X167328774Y-235640892D01*
X144899514Y-260070046D02*
X152353939Y-252615606D01*
X160124820Y-244844709D01*
X164010289Y-240959257D01*
X167895791Y-237073799D01*
X144899514Y-262070046D02*
X151335572Y-255634011D01*
X156275611Y-250693952D01*
X162304915Y-244664627D01*
X168334267Y-238635307D01*
X144899514Y-264070046D02*
X153213673Y-255755919D01*
X165456264Y-243513485D01*
X168659959Y-240309837D01*
D11*
X144899514Y-274070107D02*
X168899735Y-250070046D01*
D21*
X144899514Y-320070137D02*
X154980080Y-309993559D01*
X167238666Y-297739902D01*
X168909165Y-296070076D01*
X145587456Y-91381989D02*
X149430311Y-87539117D01*
X155244960Y-81724557D01*
X156244042Y-80725495D01*
X146899522Y-50069874D02*
X149118845Y-47850598D01*
X151273367Y-45696123D01*
X152350601Y-44618884D01*
X153427804Y-43541645D01*
X146899522Y-58069946D02*
X149584823Y-55384661D01*
X151721704Y-53247755D01*
X154218882Y-50750548D01*
X156716111Y-48253342D01*
D11*
X146899522Y-66069931D02*
X159203294Y-53766083D01*
D21*
X148899529Y-50069874D02*
X150786906Y-48182493D01*
X152553947Y-46415452D01*
X153437440Y-45531930D01*
X154320901Y-44648407D01*
X148899529Y-52069866D02*
X151259316Y-49710107D01*
X154261684Y-46707870D01*
X155073990Y-45895607D01*
X155166848Y-45802754D01*
X148899529Y-58069946D02*
X151173926Y-55795535D01*
X153122925Y-53846568D01*
X155274493Y-51695034D01*
X157426011Y-49543499D01*
X148899529Y-60069946D02*
X153497415Y-55472022D01*
X158053879Y-50915520D01*
D11*
X148899529Y-66069931D02*
X159668252Y-55301258D01*
X148899529Y-68069931D02*
X160087090Y-56882496D01*
X148899529Y-320070137D02*
X168909165Y-300070076D01*
D21*
X148906113Y-278070107D02*
X132845304Y-294128379D01*
X126041300Y-300931322D01*
X106899483Y-320070137D01*
X150899537Y-274070107D02*
X158079857Y-266889786D01*
X163494498Y-261475141D01*
X168909165Y-256060494D01*
X152899544Y-278070107D02*
X141410736Y-289558926D01*
X133079306Y-297890331D01*
X121989377Y-308980229D01*
X110899499Y-320070137D01*
X152899544Y-320070137D02*
X156260245Y-316711370D01*
X160402915Y-312571182D01*
X162730547Y-310244967D01*
X165819872Y-307157521D01*
X168909165Y-304070076D01*
X152899865Y-104069901D02*
X152919021Y-100478093D01*
X152942528Y-96069916D01*
X154899552Y-274070107D02*
X160600220Y-268369481D01*
X164749964Y-264219764D01*
X168899735Y-260070046D01*
D11*
X156899560Y-276077553D02*
X168909165Y-264070046D01*
D21*
X156899560Y-320070137D02*
X161116099Y-315856900D01*
X165444346Y-311532102D01*
X168909165Y-308070046D01*
D11*
X156899964Y-208070015D02*
X160900048Y-208070015D01*
X160899445Y-320070137D02*
X168899735Y-312070168D01*
D21*
X162904366Y-320070137D02*
X166016491Y-316955619D01*
X166754505Y-316217031D01*
X168899735Y-314070137D01*
X166899598Y-320070137D02*
X167597902Y-319375141D01*
X168253492Y-318722654D01*
X168581313Y-318396411D01*
X168909165Y-318070168D01*
X168899735Y-248070061D02*
X159491150Y-257478566D01*
X155185327Y-261784368D01*
X149042428Y-267927237D01*
X142899506Y-274070107D01*
X168899735Y-262070046D02*
X165661821Y-265307928D01*
X163870495Y-267099214D01*
X160384977Y-270584666D01*
X158642250Y-272327388D01*
X156899560Y-274070107D01*
X168899735Y-266070046D02*
X156219957Y-278749734D01*
X140111996Y-294857676D01*
X135563826Y-299405849D01*
X125231680Y-309737999D01*
X114899522Y-320070137D01*
X168899735Y-270070137D02*
X155993280Y-282976515D01*
X143943728Y-295026046D01*
X131421656Y-307548094D01*
X118899537Y-320070137D01*
X168899735Y-302070046D02*
X163330759Y-307638981D01*
X160556109Y-310413630D01*
X155727849Y-315241882D01*
X150899537Y-320070137D01*
X168899735Y-316070137D02*
X167387809Y-317581977D01*
X166623687Y-318346036D01*
X164899460Y-320070137D01*
D27*
X168900010Y-288070107D02*
X296900056Y-288070107D01*
D28*
X168900025Y-32069889D02*
X168900025Y-111590470D01*
D29*
X168900025Y-144548439D02*
X168900025Y-156069924D01*
D30*
X168900025Y-164069985D02*
X168900025Y-288070046D01*
D21*
X168909165Y-244070046D02*
X157062063Y-255915370D01*
X146903001Y-266072950D01*
X138899613Y-274075173D01*
X168909165Y-252070046D02*
X162770905Y-258207343D01*
X153835175Y-267141679D01*
X149367333Y-271608849D01*
X144899514Y-276076027D01*
X168909165Y-258070046D02*
X160423054Y-266554856D01*
X152906647Y-274070107D01*
X168909165Y-274070107D02*
X156322800Y-286653797D01*
X138557254Y-304415669D01*
X122899552Y-320070137D01*
D11*
X168909165Y-278070107D02*
X126899567Y-320070137D01*
D21*
X168909165Y-282070107D02*
X160098611Y-290878387D01*
X148887944Y-302086255D01*
X145866952Y-305106500D01*
X138383283Y-312588316D01*
X130899583Y-320070137D01*
X168909165Y-286070107D02*
X159623744Y-295352871D01*
X146501800Y-308471161D01*
X134899598Y-320070137D01*
X168909165Y-290070107D02*
X158303909Y-300671950D01*
X143735530Y-315235738D01*
X138899613Y-320070137D01*
X168909165Y-294070107D02*
X163542643Y-299434600D01*
X155918997Y-307055466D01*
X149409287Y-313562808D01*
X146154410Y-316816474D01*
X142899506Y-320070137D01*
X168909165Y-298070076D02*
X163217289Y-303759448D01*
X157904351Y-309070099D01*
X152401960Y-314570121D01*
X146899522Y-320070137D01*
X168909165Y-306070046D02*
X164825224Y-310151166D01*
X159894544Y-315078518D01*
X154899552Y-320070137D01*
D11*
X168909165Y-310070168D02*
X158904351Y-320070137D01*
D21*
X180687134Y-98282410D02*
X174547478Y-104422142D01*
X171093919Y-107875740D01*
X180899522Y-150070000D02*
X179745351Y-151224145D01*
X178742279Y-152227238D01*
X177609173Y-153360367D01*
X176476014Y-154493492D01*
X180899781Y-148070015D02*
X180899780Y-148070016D01*
X178175348Y-150794374D01*
X176813165Y-152156552D01*
X175451020Y-153518730D01*
X182899659Y-150070000D02*
X181107166Y-151862524D01*
X179321165Y-153648555D01*
X178428190Y-154541573D01*
X177535248Y-155434593D01*
X184899537Y-150070000D02*
X182446080Y-152523464D01*
X181548510Y-153421048D01*
X178633378Y-156336205D01*
D11*
X184900025Y-232070076D02*
X184900025Y-224070000D01*
D21*
X185378449Y-95591278D02*
X176871499Y-104098175D01*
X168443307Y-112526314D01*
X186899674Y-150070000D02*
X186298095Y-150671575D01*
X183032455Y-153937207D01*
X181399666Y-155570022D01*
X179766907Y-157202843D01*
X188812226Y-94157356D02*
X176441316Y-106528252D01*
X167000367Y-115969193D01*
D31*
X188900162Y-68069985D02*
X194918473Y-68069985D01*
D21*
X191709458Y-93260315D02*
X180238097Y-104731688D01*
X166090089Y-118879707D01*
X194266541Y-92702950D02*
X187939499Y-99030065D01*
X179615168Y-107354401D01*
X172571928Y-114397641D01*
X165528756Y-121440880D01*
D11*
X196687974Y-92281738D02*
X165151253Y-123818573D01*
X196899583Y-150070000D02*
X186081757Y-160887962D01*
X196899842Y-148070015D02*
X184735200Y-160234490D01*
D21*
X198899460Y-150070000D02*
X194820703Y-154148767D01*
X191155154Y-157814322D01*
X189322405Y-159647101D01*
X187489686Y-161479881D01*
X198899598Y-92069908D02*
X189880423Y-101089134D01*
X181961865Y-109007691D01*
X173461258Y-117508298D01*
X164960702Y-126008904D01*
D11*
X200899598Y-150070000D02*
X188935853Y-162033928D01*
X200899735Y-92069908D02*
X164911088Y-128058685D01*
X200900025Y-232070076D02*
X200900025Y-224070000D01*
D21*
X202831391Y-92138313D02*
X192788000Y-102181650D01*
X179970802Y-114998874D01*
X176812545Y-118157144D01*
X164968194Y-130001534D01*
X202899476Y-150070000D02*
X198220029Y-154749477D01*
X191090197Y-161879472D01*
X190899689Y-162069985D01*
X204717850Y-92251930D02*
X185497927Y-111471844D01*
X175303006Y-121666750D01*
X165108109Y-131861656D01*
X206480012Y-92489594D02*
X195687104Y-103282557D01*
X185946320Y-113023343D01*
X175641973Y-123327692D01*
X165337678Y-133632042D01*
X208179261Y-92790581D02*
X193535062Y-107434779D01*
X179590776Y-121379062D01*
X172618661Y-128351202D01*
X165646577Y-135323342D01*
X209779038Y-93190636D02*
X198319353Y-104650302D01*
X187615273Y-115354415D01*
X176815496Y-126154224D01*
X166015671Y-136954033D01*
X211357758Y-93612023D02*
X194323562Y-110646253D01*
X187545288Y-117424554D01*
X166459443Y-138510460D01*
D11*
X212856766Y-94112915D02*
X166941331Y-140028450D01*
D21*
X212899644Y-148070015D02*
X208245691Y-152723956D01*
X203572665Y-157396970D01*
X201236177Y-159733478D01*
X198899720Y-162069985D01*
X212899644Y-150070000D02*
X208201213Y-154768461D01*
X200899896Y-162069946D01*
X200899857Y-162069985D01*
X214316102Y-94653427D02*
X167495714Y-141473861D01*
X167495690Y-141473885D01*
X214899537Y-150070000D02*
X210463781Y-154505771D01*
X204876947Y-160092721D01*
X202899770Y-162069950D01*
X202899735Y-162069985D01*
X215716279Y-95253449D02*
X198659828Y-112309893D01*
X190534151Y-120435585D01*
X179313556Y-131656197D01*
X168092942Y-142876808D01*
D32*
X215744904Y-274778328D02*
X218055649Y-274778328D01*
X215744904Y-276070015D02*
X215744904Y-274778328D01*
D21*
X216899674Y-150070000D02*
X212447760Y-154521930D01*
X206822452Y-160147354D01*
X204986860Y-161982994D01*
X204899872Y-162069985D01*
D11*
X216900040Y-232070076D02*
X216900040Y-224070000D01*
D21*
X217078339Y-95891167D02*
X204062308Y-108907268D01*
X193278198Y-119691396D01*
X181011946Y-131957670D01*
X168745743Y-144223946D01*
D32*
X218055649Y-274778328D02*
X218055649Y-276070015D01*
D21*
X218378648Y-96591019D02*
X205765186Y-109204474D01*
X192823127Y-122146585D01*
X181125200Y-133844561D01*
X169427231Y-145542534D01*
X218899552Y-150070000D02*
X215065955Y-153903675D01*
X209344575Y-159625059D01*
X205137208Y-163832421D01*
X219642655Y-97326943D02*
X207273937Y-109695704D01*
X170167756Y-146802040D01*
X220867249Y-98102493D02*
X200565812Y-118403861D01*
X194150907Y-124818754D01*
X170949876Y-148019722D01*
X222042893Y-98926560D02*
X205509129Y-115460383D01*
X188635630Y-132333943D01*
X180198909Y-140770726D01*
X171762223Y-149207512D01*
X223187913Y-99781693D02*
X199688156Y-123281527D01*
X186154804Y-136814914D01*
X172621476Y-150348305D01*
X224276353Y-100693298D02*
X205916101Y-119053511D01*
X197513514Y-127456096D01*
X185526003Y-139443604D01*
X173538468Y-151431114D01*
X225333268Y-101636482D02*
X203783029Y-123186783D01*
X197809530Y-129160307D01*
X174479890Y-152490029D01*
X226360596Y-102609047D02*
X214278901Y-114690801D01*
X196739205Y-132230477D01*
X182899659Y-146070000D01*
X227338822Y-103630715D02*
X199045962Y-131923576D01*
X184899537Y-146070000D01*
X228274430Y-104695313D02*
X212516728Y-120452942D01*
X189298207Y-143671465D01*
X186899674Y-146070000D01*
X229177476Y-105792183D02*
X214234545Y-120735027D01*
X192874335Y-142095217D01*
X188899552Y-146070000D01*
D11*
X230035691Y-106933998D02*
X188899811Y-148070015D01*
D21*
X230661622Y-148308174D02*
X225705429Y-153264335D01*
X221079652Y-157890083D01*
X230863297Y-108106201D02*
X216782398Y-122187149D01*
X197815305Y-141154213D01*
X180942673Y-158026817D01*
X231645676Y-109323967D02*
X224053338Y-116916324D01*
X203108923Y-137860780D01*
X192636690Y-148333007D01*
X182164429Y-158805229D01*
X232376115Y-110593384D02*
X221812638Y-121156835D01*
X208545397Y-134424126D01*
X195982821Y-146986751D01*
X189701508Y-153268062D01*
X183420167Y-159549370D01*
D28*
X232900056Y-32069889D02*
X232900056Y-111590470D01*
D33*
X232900056Y-144548439D02*
X232900056Y-288070076D01*
D21*
X233070527Y-111899269D02*
X224106344Y-120863381D01*
X211887685Y-133082038D01*
X198899720Y-146070000D01*
X233382264Y-143587319D02*
X227711610Y-149257988D01*
X222061358Y-154908255D01*
X219236260Y-157733389D01*
X216411195Y-160558525D01*
D11*
X233729401Y-113240143D02*
X200899598Y-146070000D01*
X234318772Y-114650780D02*
X202899476Y-146070000D01*
D21*
X234836304Y-140133507D02*
X227192661Y-147777187D01*
X223355079Y-151614769D01*
X218173607Y-156796241D01*
X212992158Y-161977715D01*
D11*
X234871964Y-116097733D02*
X204899613Y-146070000D01*
D21*
X235361726Y-117607758D02*
X217229517Y-135740051D01*
X204899613Y-148070015D01*
X235722047Y-137247582D02*
X229560208Y-143409422D01*
X223270214Y-149699475D01*
X217085016Y-155884733D01*
X210899766Y-162069985D01*
X235796708Y-119172905D02*
X224631647Y-130338001D01*
X213322492Y-141647133D01*
X202666587Y-152303016D01*
X192010728Y-162958901D01*
X236174988Y-120794441D02*
X222303735Y-134665728D01*
X193636475Y-163333046D01*
D11*
X236281571Y-134688179D02*
X207507981Y-163461754D01*
X236480530Y-122489052D02*
X195337800Y-163631935D01*
X236635682Y-132333931D02*
X220899689Y-148070015D01*
X236709443Y-124260033D02*
X214899537Y-146070000D01*
D21*
X236835923Y-130133873D02*
X232065529Y-134904210D01*
X226482565Y-140487110D01*
X223691109Y-143278558D01*
X220899689Y-146070000D01*
X236852601Y-126117104D02*
X229477024Y-133492656D01*
X226221308Y-136748376D01*
X216899674Y-146070000D01*
X236907761Y-128061897D02*
X226592379Y-138377215D01*
X218899552Y-146070000D01*
D11*
X264900010Y-104069962D02*
X264900010Y-96069893D01*
X280899995Y-104069962D02*
X280899995Y-96069893D01*
M02*
